<svg width="748" height="748" viewBox="0 0 748 748" fill="none" xmlns="http://www.w3.org/2000/svg">
<path d="M233.705 56.1299H51.2828V358.083H233.705V56.1299Z" fill="#E0E0E0"/>
<path d="M227.631 56.1299H45.2091V358.083H227.631V56.1299Z" fill="#EBEBEB"/>
<path d="M219.867 62.2486H52.9883V351.949H219.867V62.2486Z" fill="#FAFAFA"/>
<path d="M634.455 140.15L619.48 140.231L619.883 214.731L634.858 214.65L634.455 140.15Z" fill="#E0E0E0"/>
<path d="M528.556 140.335L489.78 140.545L490.003 181.669L528.779 181.459L528.556 140.335Z" fill="#EBEBEB"/>
<path d="M567.151 140.141L528.375 140.351L528.598 181.475L567.374 181.265L567.151 140.141Z" fill="#F5F5F5"/>
<path d="M489.835 151.949C515.596 152.158 541.432 151.949 567.194 151.59C567.289 151.571 567.375 151.52 567.438 151.445C567.5 151.37 567.534 151.276 567.534 151.178C567.534 151.081 567.5 150.987 567.438 150.911C567.375 150.836 567.289 150.785 567.194 150.767C541.422 150.617 515.636 150.772 489.835 151.231C489.74 151.231 489.649 151.269 489.581 151.336C489.514 151.403 489.476 151.495 489.476 151.59C489.476 151.685 489.514 151.776 489.581 151.844C489.649 151.911 489.74 151.949 489.835 151.949V151.949Z" fill="#E0E0E0"/>
<path d="M536.061 180.79L465.615 181.172L465.796 214.682L536.242 214.3L536.061 180.79Z" fill="#EBEBEB"/>
<path d="M606.16 180.411L535.715 180.792L535.896 214.302L606.341 213.921L606.16 180.411Z" fill="#F5F5F5"/>
<path d="M465.645 190.516C512.44 191.054 559.399 190.516 606.194 189.827C606.29 189.809 606.376 189.758 606.438 189.683C606.5 189.608 606.534 189.513 606.534 189.416C606.534 189.319 606.5 189.224 606.438 189.149C606.376 189.074 606.29 189.023 606.194 189.005C559.399 188.75 512.44 188.78 465.645 189.812C465.564 189.829 465.491 189.873 465.439 189.937C465.387 190.001 465.359 190.081 465.359 190.164C465.359 190.247 465.387 190.327 465.439 190.391C465.491 190.455 465.564 190.499 465.645 190.516V190.516Z" fill="#E0E0E0"/>
<path d="M712.216 214.706H439.3V226.719H712.216V214.706Z" fill="#E0E0E0"/>
<path d="M495.071 220.481H483.986V261.456H495.071V220.481Z" fill="#E0E0E0"/>
<path d="M660.454 220.481H649.369V261.456H660.454V220.481Z" fill="#E0E0E0"/>
<path d="M649.07 112.365L634.095 112.446L634.65 214.906L649.624 214.825L649.07 112.365Z" fill="#EBEBEB"/>
<path d="M672.466 131.447L649.203 131.573L649.652 214.6L672.915 214.474L672.466 131.447Z" fill="#F5F5F5"/>
<path d="M672.287 147.476C664.543 148.014 656.77 148.014 649.025 147.476C656.77 146.937 664.543 146.937 672.287 147.476V147.476Z" fill="#E0E0E0"/>
<path d="M672.287 143.99C664.543 144.529 656.77 144.529 649.025 143.99C656.77 143.451 664.543 143.451 672.287 143.99V143.99Z" fill="#E0E0E0"/>
<path d="M672.287 201.96C664.543 202.499 656.77 202.499 649.025 201.96C656.77 201.421 664.543 201.421 672.287 201.96V201.96Z" fill="#E0E0E0"/>
<path d="M672.287 198.534C664.542 199.053 656.77 199.053 649.025 198.534C656.77 197.996 664.543 197.996 672.287 198.534V198.534Z" fill="#E0E0E0"/>
<path d="M661.037 190.92C660.813 190.92 660.634 182.542 660.634 172.205C660.634 161.867 660.813 153.505 661.037 153.505C661.262 153.505 661.441 161.867 661.441 172.205C661.441 182.542 661.232 190.92 661.037 190.92Z" fill="#E0E0E0"/>
<path d="M697.869 151.859H672.542V214.526H697.869V151.859Z" fill="#EBEBEB"/>
<path d="M645.659 129.898C645.674 130.753 645.433 131.593 644.969 132.311C644.505 133.03 643.837 133.594 643.051 133.931C642.266 134.269 641.397 134.365 640.556 134.207C639.716 134.049 638.941 133.645 638.331 133.046C637.721 132.446 637.303 131.679 637.131 130.841C636.958 130.003 637.039 129.133 637.363 128.341C637.687 127.55 638.239 126.872 638.949 126.396C639.659 125.919 640.495 125.664 641.35 125.664C642.481 125.66 643.568 126.102 644.375 126.895C645.182 127.688 645.643 128.767 645.659 129.898V129.898Z" fill="#E0E0E0"/>
<path d="M642.682 141.731H640.019V202.678H642.682V141.731Z" fill="#E0E0E0"/>
<path d="M259.99 617.25C259.99 617.25 246.272 627.722 259.406 641.5C259.519 641.617 259.653 641.711 259.802 641.775C259.951 641.839 260.112 641.873 260.274 641.874L380.119 641.171C380.119 641.171 390.351 629.696 381.854 616.472L259.99 617.25Z" fill="#EBEBEB"/>
<path d="M353.624 628.156C353.624 628.29 338.664 628.395 320.309 628.395C301.953 628.395 286.978 628.29 286.978 628.156C286.978 628.021 301.938 627.916 320.309 627.916C338.679 627.916 353.624 628.021 353.624 628.156Z" fill="#E0E0E0"/>
<path d="M334.984 632.494C334.984 632.629 327.983 632.733 319.321 632.733C310.659 632.733 303.658 632.629 303.658 632.494C303.658 632.359 310.674 632.24 319.321 632.24C327.968 632.24 334.984 632.359 334.984 632.494Z" fill="#E0E0E0"/>
<path d="M365.877 640.782C365.877 640.782 366.146 639.405 366.52 637.191C367 634.304 367.23 631.381 367.208 628.455C367.179 625.523 366.894 622.6 366.355 619.718C365.937 617.504 365.577 616.158 365.652 616.128C365.799 616.424 365.914 616.735 365.996 617.055C366.276 617.904 366.505 618.768 366.685 619.643C367.326 622.532 367.667 625.48 367.702 628.44C367.719 631.398 367.433 634.351 366.849 637.251C366.625 638.358 366.4 639.256 366.221 639.854C366.041 640.453 365.922 640.797 365.877 640.782Z" fill="#E0E0E0"/>
<path d="M374.823 616.352C375.042 616.614 375.224 616.906 375.361 617.22C375.559 617.569 375.739 617.929 375.9 618.297C376.127 618.784 376.326 619.284 376.498 619.793C376.989 621.081 377.374 622.407 377.65 623.757C377.964 625.42 378.139 627.107 378.174 628.799C378.17 630.494 378.02 632.186 377.725 633.855C377.476 635.214 377.115 636.55 376.648 637.85C376.468 638.418 376.244 638.897 376.065 639.346C375.914 639.716 375.739 640.076 375.541 640.423C375.409 640.737 375.238 641.034 375.032 641.305C374.942 641.305 375.616 639.974 376.334 637.76C377.258 634.859 377.713 631.828 377.68 628.784C377.66 627.118 377.5 625.456 377.201 623.817C376.954 622.479 376.614 621.159 376.184 619.868C375.496 617.639 374.748 616.352 374.823 616.352Z" fill="#E0E0E0"/>
<path d="M278.899 640.946C278.678 640.701 278.487 640.43 278.331 640.139C278.126 639.821 277.941 639.492 277.777 639.151C277.54 638.703 277.325 638.244 277.134 637.775C276.627 636.553 276.236 635.285 275.967 633.99C275.652 632.399 275.497 630.78 275.503 629.158C275.539 627.536 275.74 625.922 276.102 624.341C276.404 623.056 276.83 621.804 277.373 620.601C277.571 620.134 277.796 619.68 278.047 619.239C278.213 618.895 278.408 618.564 278.63 618.252C278.974 617.728 279.184 617.444 279.213 617.474C279.243 617.504 278.525 618.671 277.717 620.735C277.229 621.937 276.843 623.178 276.566 624.446C276.241 626.002 276.056 627.584 276.012 629.173C276.015 630.758 276.155 632.34 276.431 633.9C276.685 635.172 277.035 636.422 277.478 637.64C278.256 639.72 278.974 640.901 278.899 640.946Z" fill="#E0E0E0"/>
<path d="M265.959 643.864C265.711 643.597 265.504 643.294 265.345 642.966C265.131 642.587 264.946 642.192 264.792 641.784C264.52 641.299 264.276 640.8 264.059 640.288C263.481 638.92 263.026 637.503 262.698 636.055C261.861 632.501 261.779 628.811 262.458 625.223C262.722 623.76 263.117 622.322 263.64 620.93C263.835 620.331 264.089 619.823 264.283 619.359C264.456 618.965 264.651 618.58 264.867 618.207C265.025 617.875 265.215 617.56 265.435 617.265C265.525 617.265 264.762 618.686 263.939 621.05C263.476 622.436 263.121 623.857 262.877 625.298C262.596 627.064 262.466 628.851 262.488 630.639C262.566 633.899 263.199 637.121 264.358 640.169C265.211 642.487 266.034 643.819 265.959 643.864Z" fill="#E0E0E0"/>
<path d="M375.72 677.688V700.607H331.349V677.688H375.72Z" fill="#EBEBEB"/>
<path d="M232.404 689.342C232.404 689.551 232.404 689.746 232.404 689.955C232.617 693.302 234.103 696.44 236.557 698.727C239.01 701.013 242.245 702.275 245.598 702.252H377.755V700.592H346.339C343.3 700.592 340.385 699.385 338.236 697.236C336.087 695.086 334.88 692.172 334.88 689.132V689.132C334.88 686.093 336.087 683.179 338.236 681.029C340.385 678.88 343.3 677.673 346.339 677.673H377.755V675.235L245.568 675.683C243.799 675.688 242.049 676.049 240.421 676.743C238.794 677.438 237.323 678.452 236.095 679.726C234.867 681 233.907 682.507 233.273 684.159C232.639 685.811 232.344 687.574 232.404 689.342V689.342Z" fill="#E0E0E0"/>
<path d="M375.72 689.432C375.72 689.566 366.595 689.686 355.345 689.686C344.095 689.686 334.969 689.566 334.969 689.432C334.969 689.297 344.095 689.192 355.345 689.192C366.595 689.192 375.72 689.312 375.72 689.432Z" fill="#E0E0E0"/>
<path d="M375.077 694.608C375.077 694.742 366.445 694.847 355.794 694.847C345.142 694.847 336.51 694.742 336.51 694.608C336.51 694.473 345.142 694.368 355.794 694.368C366.445 694.368 375.077 694.473 375.077 694.608Z" fill="#E0E0E0"/>
<path d="M375.72 699.335C375.72 699.47 367.956 699.575 358.382 699.575C348.807 699.575 341.043 699.47 341.043 699.335C341.043 699.2 348.807 699.096 358.382 699.096C367.956 699.096 375.72 699.2 375.72 699.335Z" fill="#E0E0E0"/>
<path d="M375.72 684.794C375.72 684.929 366.744 685.033 355.764 685.033C344.783 685.033 335.807 684.929 335.807 684.794C335.807 684.659 344.783 684.555 355.764 684.555C366.744 684.555 375.72 684.659 375.72 684.794Z" fill="#E0E0E0"/>
<path d="M375.077 680.156C375.077 680.291 367.118 680.396 357.32 680.396C347.521 680.396 339.547 680.291 339.547 680.156C339.547 680.022 347.506 679.917 357.32 679.917C367.133 679.917 375.077 680.022 375.077 680.156Z" fill="#E0E0E0"/>
<path d="M248.426 676.057C247.399 677.091 246.459 678.207 245.613 679.393C243.607 682.289 242.551 685.736 242.591 689.258C242.631 692.78 243.766 696.202 245.838 699.051C246.718 700.213 247.683 701.308 248.725 702.327C248.385 702.129 248.069 701.893 247.782 701.624C246.963 700.916 246.221 700.124 245.568 699.26C243.368 696.387 242.156 692.878 242.116 689.26C242.076 685.641 243.208 682.106 245.344 679.184C245.972 678.305 246.695 677.498 247.498 676.775C247.775 676.497 248.086 676.255 248.426 676.057V676.057Z" fill="#F5F5F5"/>
<path d="M243.953 675.564C242.939 676.615 242 677.734 241.14 678.915C239.142 681.811 238.092 685.256 238.134 688.774C238.177 692.293 239.311 695.711 241.38 698.557C242.254 699.724 243.22 700.819 244.267 701.834C243.918 701.643 243.596 701.406 243.309 701.13C242.49 700.423 241.748 699.63 241.095 698.767C238.895 695.9 237.682 692.397 237.639 688.783C237.596 685.17 238.725 681.639 240.856 678.72C241.485 677.837 242.207 677.025 243.01 676.297C243.294 676.016 243.611 675.77 243.953 675.564V675.564Z" fill="#F5F5F5"/>
<path d="M333.743 676.057C332.729 677.099 331.794 678.214 330.945 679.393C328.939 682.289 327.883 685.736 327.923 689.258C327.963 692.78 329.098 696.202 331.17 699.051C332.05 700.213 333.015 701.308 334.057 702.327C333.711 702.132 333.389 701.896 333.099 701.624C332.286 700.915 331.548 700.123 330.9 699.26C328.691 696.394 327.469 692.888 327.418 689.269C327.367 685.65 328.489 682.112 330.616 679.184C331.24 678.302 331.963 677.494 332.77 676.775C333.066 676.5 333.392 676.259 333.743 676.057V676.057Z" fill="#F5F5F5"/>
<path d="M329.285 675.564C328.261 676.605 327.32 677.726 326.472 678.915C324.465 681.807 323.408 685.252 323.449 688.772C323.489 692.292 324.624 695.712 326.697 698.557C327.577 699.719 328.542 700.814 329.584 701.834C329.244 701.635 328.928 701.4 328.641 701.13C327.818 700.427 327.076 699.634 326.427 698.767C324.227 695.9 323.014 692.397 322.971 688.783C322.928 685.17 324.057 681.639 326.188 678.72C326.817 677.837 327.539 677.025 328.342 676.297C328.622 676.012 328.939 675.765 329.285 675.564V675.564Z" fill="#F5F5F5"/>
<path d="M263.461 692.648L263.326 683.313C263.373 682.503 263.267 681.69 263.012 680.919C262.876 680.534 262.639 680.192 262.326 679.929C262.013 679.665 261.635 679.491 261.232 679.423C260.065 678.9 258.24 679.872 257.432 681.219C256.716 682.633 256.4 684.216 256.519 685.796C256.489 688.255 256.609 690.713 256.878 693.157C256.929 694.332 257.224 695.484 257.746 696.538C257.978 697.083 258.377 697.541 258.886 697.846C259.394 698.151 259.986 698.288 260.577 698.236C261.167 698.185 261.727 697.948 262.175 697.56C262.623 697.171 262.937 696.651 263.072 696.074C263.418 694.967 263.55 693.804 263.461 692.648V692.648Z" fill="#F5F5F5"/>
<path d="M314.788 689.88C314.788 690.015 305.229 690.135 293.455 690.135C281.682 690.135 272.107 690.015 272.107 689.88C272.107 689.746 281.667 689.641 293.455 689.641C305.244 689.641 314.788 689.746 314.788 689.88Z" fill="#F5F5F5"/>
<path d="M254.604 675.145L254.365 653.408H266.198L266.602 675.145H254.604Z" fill="#F5F5F5"/>
<path d="M265.495 657.268C263.671 657.517 261.829 657.603 259.99 657.522C258.156 657.603 256.318 657.518 254.5 657.268C256.319 657.028 258.156 656.947 259.99 657.028C261.828 656.948 263.67 657.028 265.495 657.268V657.268Z" fill="#E0E0E0"/>
<path d="M265.495 660.634C263.67 660.874 261.828 660.954 259.99 660.873C258.156 660.954 256.319 660.874 254.5 660.634C256.319 660.394 258.156 660.314 259.99 660.394C261.828 660.314 263.67 660.394 265.495 660.634V660.634Z" fill="#E0E0E0"/>
<path d="M265.495 663.985C263.67 664.225 261.828 664.305 259.99 664.224C258.156 664.305 256.319 664.225 254.5 663.985C256.319 663.745 258.156 663.665 259.99 663.745C261.828 663.665 263.67 663.745 265.495 663.985V663.985Z" fill="#E0E0E0"/>
<path d="M265.495 667.336C263.67 667.576 261.828 667.656 259.99 667.575C258.156 667.656 256.319 667.576 254.5 667.336C256.319 667.096 258.156 667.016 259.99 667.096C261.828 667.016 263.67 667.096 265.495 667.336V667.336Z" fill="#E0E0E0"/>
<path d="M265.495 670.687C263.671 670.936 261.829 671.022 259.99 670.941C258.156 671.022 256.318 670.937 254.5 670.687C256.32 670.455 258.156 670.375 259.99 670.447C261.828 670.376 263.67 670.456 265.495 670.687V670.687Z" fill="#E0E0E0"/>
<path d="M253.737 652.825H384.876C386.381 660.586 386.381 668.565 384.876 676.327H254.32V674.696H262.309C262.803 674.696 263.293 674.598 263.749 674.409C264.206 674.219 264.62 673.941 264.969 673.591C265.318 673.241 265.594 672.825 265.782 672.368C265.97 671.91 266.066 671.421 266.064 670.926V657.926C266.066 657.432 265.97 656.942 265.782 656.484C265.594 656.027 265.318 655.611 264.969 655.261C264.62 654.911 264.206 654.633 263.749 654.443C263.293 654.254 262.803 654.156 262.309 654.156H253.766L253.737 652.825Z" fill="#EBEBEB"/>
<path d="M284.734 664.598H286.918C286.996 664.576 287.079 664.576 287.157 664.598C287.232 664.635 287.294 664.693 287.336 664.765C287.379 664.836 287.4 664.919 287.397 665.002C287.405 665.051 287.405 665.102 287.397 665.152C287.397 665.331 287.307 665.511 287.247 665.705C286.985 666.623 286.514 667.468 285.871 668.173C285.646 668.456 285.365 668.688 285.046 668.856C284.726 669.023 284.375 669.122 284.016 669.146H283.746C283.433 669.088 283.136 668.962 282.877 668.775C282.619 668.589 282.404 668.348 282.25 668.069C281.794 667.268 281.572 666.356 281.607 665.436C281.611 664.799 281.697 664.166 281.861 663.551C282.101 662.621 282.546 661.758 283.163 661.023C283.394 660.713 283.691 660.459 284.033 660.278C284.374 660.097 284.752 659.993 285.138 659.975C285.422 659.974 285.702 660.036 285.96 660.155C286.581 660.501 287.042 661.075 287.247 661.756C287.261 661.83 287.261 661.906 287.247 661.98C287.267 662.053 287.267 662.131 287.247 662.204C287.207 662.277 287.148 662.337 287.077 662.379C287.006 662.421 286.926 662.443 286.843 662.444C286.794 662.46 286.742 662.46 286.693 662.444C286.624 662.425 286.56 662.389 286.508 662.339C286.456 662.29 286.417 662.228 286.394 662.16V662.16C286.329 661.974 286.238 661.797 286.125 661.636C286.016 661.454 285.863 661.302 285.68 661.194C285.497 661.087 285.29 661.028 285.078 661.023C284.817 661.025 284.564 661.114 284.36 661.277C283.81 661.73 283.396 662.325 283.163 662.997C282.833 663.779 282.66 664.617 282.654 665.466C282.633 666.134 282.76 666.798 283.028 667.411C283.11 667.651 283.262 667.861 283.465 668.013C283.667 668.165 283.912 668.252 284.165 668.263C284.378 668.238 284.583 668.168 284.766 668.057C284.949 667.946 285.107 667.797 285.227 667.62C285.729 667.026 286.11 666.34 286.349 665.6C285.347 665.6 284.853 665.6 284.779 665.6C284.64 665.6 284.506 665.545 284.408 665.447C284.31 665.349 284.255 665.216 284.255 665.077V664.912C284.296 664.819 284.363 664.74 284.448 664.684C284.533 664.628 284.632 664.598 284.734 664.598V664.598Z" fill="#FAFAFA"/>
<path d="M292.184 660.32C292.184 660.32 292.184 660.424 292.184 660.484C292.274 660.793 292.772 663.501 293.68 668.607C293.687 668.647 293.687 668.688 293.68 668.727C293.7 668.806 293.7 668.888 293.68 668.966C293.645 669.04 293.59 669.101 293.521 669.144C293.452 669.186 293.372 669.208 293.291 669.206H293.216C293.131 669.191 293.052 669.153 292.988 669.094C292.924 669.036 292.879 668.96 292.857 668.877L292.333 666.169H289.641L288.339 668.892C288.349 668.921 288.349 668.952 288.339 668.981C288.294 669.048 288.234 669.103 288.164 669.142C288.094 669.181 288.015 669.203 287.935 669.206C287.845 669.204 287.758 669.178 287.681 669.131C287.616 669.085 287.563 669.025 287.527 668.955C287.49 668.884 287.471 668.806 287.471 668.727C287.458 668.683 287.458 668.636 287.471 668.592C287.546 668.398 287.681 668.114 287.875 667.71C289.76 663.581 290.867 661.157 291.256 660.409C291.293 660.318 291.354 660.238 291.433 660.18C291.513 660.122 291.607 660.087 291.705 660.08C291.799 660.075 291.892 660.094 291.976 660.136C292.06 660.178 292.132 660.241 292.184 660.32V660.32ZM291.6 662.145L290.104 665.211H292.169L291.6 662.145Z" fill="#FAFAFA"/>
<path d="M299.499 669.206H295.55C295.46 669.204 295.372 669.178 295.295 669.131C295.227 669.068 295.172 668.991 295.134 668.907C295.095 668.822 295.074 668.73 295.071 668.637V668.637C295.071 668.488 295.43 665.78 296.163 660.559C296.156 660.499 296.156 660.439 296.163 660.379C296.195 660.292 296.255 660.216 296.333 660.165C296.411 660.114 296.504 660.089 296.597 660.095C296.666 660.08 296.737 660.08 296.806 660.095C296.885 660.133 296.951 660.192 296.996 660.267C297.041 660.341 297.063 660.427 297.061 660.514L296.806 662.728C296.358 666.189 296.118 668.014 296.088 668.203H299.454C299.538 668.188 299.625 668.188 299.709 668.203C299.799 668.238 299.877 668.299 299.93 668.38C299.984 668.46 300.011 668.556 300.008 668.652C300.015 668.702 300.015 668.752 300.008 668.802C299.979 668.915 299.913 669.016 299.821 669.089C299.729 669.162 299.616 669.203 299.499 669.206V669.206Z" fill="#FAFAFA"/>
<path d="M304.9 660.32C304.9 660.32 304.9 660.424 304.9 660.484C304.989 660.798 305.513 663.476 306.396 668.607C306.402 668.647 306.402 668.687 306.396 668.727C306.392 668.812 306.366 668.894 306.321 668.966C306.286 669.04 306.231 669.101 306.162 669.144C306.093 669.186 306.013 669.208 305.932 669.206H305.857C305.773 669.188 305.696 669.148 305.633 669.09C305.57 669.032 305.523 668.959 305.498 668.877L305.184 666.169H302.491L301.19 668.892C301.196 668.921 301.196 668.952 301.19 668.981C301.14 669.047 301.077 669.101 301.005 669.139C300.932 669.178 300.853 669.201 300.771 669.206C300.681 669.202 300.594 669.176 300.516 669.131C300.452 669.085 300.399 669.025 300.362 668.955C300.326 668.884 300.307 668.806 300.307 668.727C300.3 668.682 300.3 668.637 300.307 668.592C300.382 668.398 300.516 668.114 300.711 667.71C302.596 663.581 303.703 661.157 304.092 660.409C304.128 660.318 304.19 660.238 304.269 660.18C304.348 660.122 304.443 660.087 304.541 660.08C304.614 660.093 304.683 660.121 304.745 660.162C304.807 660.204 304.86 660.257 304.9 660.32V660.32ZM304.316 662.145L302.82 665.211H304.885L304.316 662.145Z" fill="#FAFAFA"/>
<path d="M311.168 664.987L311.886 666.962C312.29 668.099 312.499 668.682 312.499 668.742C312.523 668.82 312.523 668.903 312.499 668.981C312.457 669.05 312.397 669.106 312.326 669.145C312.256 669.185 312.176 669.205 312.096 669.206C311.916 669.206 311.796 669.101 311.707 668.892C311.617 668.682 311.707 668.742 311.632 668.682C311.422 668.188 311.063 667.186 310.57 665.9L308.341 668.892C308.296 668.964 308.235 669.025 308.162 669.069C308.089 669.113 308.007 669.14 307.922 669.146C307.843 669.161 307.761 669.161 307.682 669.146C307.611 669.107 307.552 669.048 307.512 668.976C307.472 668.905 307.453 668.824 307.458 668.742V668.712C307.509 668.567 307.591 668.434 307.697 668.323C308.445 667.351 309.193 666.199 310.181 664.867C310.091 664.598 310.001 664.359 309.911 664.119C309.074 661.86 308.64 660.693 308.64 660.619C308.626 660.539 308.626 660.458 308.64 660.379C308.677 660.308 308.733 660.249 308.802 660.206C308.87 660.164 308.948 660.141 309.029 660.14C309.119 660.141 309.207 660.167 309.283 660.214C309.36 660.262 309.422 660.329 309.463 660.409L310.794 663.97L313.427 660.379C313.472 660.31 313.534 660.253 313.608 660.213C313.681 660.174 313.763 660.154 313.846 660.155C313.915 660.139 313.986 660.139 314.055 660.155C314.132 660.193 314.196 660.253 314.239 660.328C314.281 660.403 314.301 660.488 314.295 660.574C314.315 660.647 314.315 660.725 314.295 660.798L311.168 664.987Z" fill="#FAFAFA"/>
<path d="M320.982 660.11C321.051 660.095 321.122 660.095 321.191 660.11C321.268 660.145 321.334 660.202 321.379 660.274C321.424 660.346 321.447 660.429 321.446 660.514C320.802 665.63 320.443 668.383 320.383 668.802C320.271 669.577 319.979 670.315 319.531 670.956C319.105 671.555 318.478 671.982 317.764 672.158C317.05 672.333 316.297 672.247 315.641 671.914C315.053 671.672 314.563 671.24 314.25 670.687C314.236 670.613 314.236 670.537 314.25 670.462C314.228 670.384 314.228 670.301 314.25 670.223C314.287 670.149 314.345 670.086 314.417 670.044C314.488 670.002 314.571 669.981 314.654 669.984C314.724 669.989 314.792 670.009 314.854 670.042C314.916 670.076 314.97 670.122 315.013 670.178C315.233 670.518 315.531 670.8 315.882 671C316.234 671.201 316.628 671.314 317.032 671.33C317.325 671.316 317.61 671.238 317.869 671.101C318.127 670.964 318.353 670.771 318.528 670.537C319.067 669.819 319.37 668.951 319.396 668.054C319.246 668.296 319.047 668.505 318.813 668.667C318.408 668.972 317.913 669.135 317.406 669.131H317.137C316.823 669.075 316.525 668.95 316.266 668.763C316.007 668.577 315.793 668.334 315.641 668.054C315.174 667.257 314.945 666.343 314.983 665.421C314.983 664.942 314.983 664.448 314.983 663.925C315.053 663.117 315.232 661.98 315.521 660.514C315.508 660.47 315.508 660.423 315.521 660.379C315.545 660.286 315.598 660.203 315.674 660.143C315.75 660.083 315.844 660.051 315.94 660.05C316.02 660.055 316.098 660.08 316.165 660.125C316.237 660.157 316.298 660.21 316.34 660.276C316.383 660.343 316.405 660.42 316.404 660.499C316.362 661.101 316.287 661.7 316.18 662.294C316.025 663.21 315.925 664.134 315.88 665.062C315.851 665.791 315.968 666.518 316.225 667.201C316.494 667.844 316.883 668.159 317.391 668.159H317.556C318.053 668.001 318.474 667.665 318.738 667.216C319.21 666.564 319.542 665.82 319.71 665.032L320.309 660.544C320.3 660.479 320.3 660.414 320.309 660.349C320.327 660.282 320.361 660.219 320.409 660.167C320.457 660.116 320.516 660.076 320.582 660.053C320.649 660.029 320.719 660.022 320.789 660.032C320.859 660.042 320.925 660.069 320.982 660.11V660.11Z" fill="#FAFAFA"/>
<path d="M379.984 676.626C379.849 676.626 379.73 671.24 379.73 664.583C379.73 657.926 379.849 652.525 379.984 652.525C380.119 652.525 380.223 657.926 380.223 664.583C380.223 671.24 380.089 676.626 379.984 676.626Z" fill="#F5F5F5"/>
<path d="M272.631 676.626C272.496 676.626 272.392 671.24 272.392 664.583C272.392 657.926 272.496 652.525 272.631 652.525C272.766 652.525 272.87 657.926 272.87 664.583C272.87 671.24 272.766 676.626 272.631 676.626Z" fill="#E0E0E0"/>
<path d="M382.243 676.626C382.123 676.626 382.004 671.24 382.004 664.583C382.004 657.926 382.123 652.525 382.243 652.525C382.363 652.525 382.497 657.926 382.497 664.583C382.497 671.24 382.378 676.626 382.243 676.626Z" fill="#F5F5F5"/>
<path d="M270.492 676.626C270.357 676.626 270.237 671.24 270.237 664.583C270.237 657.926 270.357 652.525 270.492 652.525C270.626 652.525 270.731 657.926 270.731 664.583C270.731 671.24 270.611 676.626 270.492 676.626Z" fill="#E0E0E0"/>
<path d="M348.149 656.49L362.002 667.665L362.122 667.77H361.972L360.132 668.263L348.433 671.33L337.827 666.842L334.835 665.556L334.042 665.211L333.847 665.122H333.773H333.847L334.057 665.211L334.85 665.526L337.842 666.782L348.463 671.27L360.162 668.188L362.017 667.695V667.829L348.179 656.624" fill="#E0E0E0"/>
<path d="M360.73 665.9L361.493 666.603L362.511 666.393L362.062 667.321L362.586 668.218L361.553 668.099L360.865 668.862L360.671 667.844L359.728 667.426L360.626 666.932L360.73 665.9Z" fill="#E0E0E0"/>
<path d="M347.446 670.298L347.955 670.732L348.613 670.552L348.359 671.18L348.733 671.734L348.059 671.689L347.641 672.213L347.476 671.569L346.848 671.33L347.416 670.971L347.446 670.298Z" fill="#E0E0E0"/>
<path d="M332.755 664.284L333.578 664.329L334.087 663.686L334.296 664.478L335.074 664.763L334.371 665.196L334.341 666.034L333.698 665.511L332.92 665.735L333.219 664.957L332.755 664.284Z" fill="#E0E0E0"/>
<path d="M366.954 656.669L367.777 656.729L368.285 656.071L368.495 656.879L369.258 657.163L368.57 657.597L368.54 658.419L367.896 657.896L367.103 658.12L367.418 657.357L366.954 656.669Z" fill="#E0E0E0"/>
<path d="M347.476 656.131L348 656.161L348.329 655.757L348.463 656.265L348.957 656.445L348.508 656.729L348.493 657.253L348.089 656.909L347.581 657.058L347.775 656.565L347.476 656.131Z" fill="#E0E0E0"/>
<path d="M368.106 657.253C368.106 657.253 363.618 657.148 358.097 656.924C352.577 656.699 348.089 656.445 348.089 656.385C348.089 656.325 352.577 656.49 358.097 656.729C363.618 656.968 368.106 657.193 368.106 657.253Z" fill="#E0E0E0"/>
<path d="M373.147 652.63H240.138C238.403 648.681 237.969 644.926 240.138 641.56H373.147C373.972 643.288 374.4 645.179 374.4 647.095C374.4 649.01 373.972 650.901 373.147 652.63V652.63Z" fill="#E0E0E0"/>
<path d="M339.742 644.716H267.679V648.74H339.742V644.716Z" fill="#EBEBEB"/>
<path d="M245.239 652.69C244.8 652.319 244.443 651.861 244.192 651.344C243.514 650.136 243.101 648.797 242.98 647.417C242.858 646.038 243.032 644.648 243.489 643.34C243.637 642.785 243.914 642.272 244.297 641.844C244.166 642.391 244.006 642.93 243.818 643.46C243.47 644.74 243.349 646.072 243.459 647.394C243.589 648.714 243.938 650.003 244.491 651.209C244.784 651.679 245.035 652.175 245.239 652.69V652.69Z" fill="#E0E0E0"/>
<path d="M248.127 652.69C247.677 652.329 247.319 651.868 247.079 651.344C246.393 650.141 245.974 648.804 245.853 647.424C245.735 646.042 245.908 644.651 246.361 643.34C246.524 642.791 246.799 642.281 247.169 641.844C247.047 642.393 246.887 642.933 246.69 643.46C246.348 644.741 246.232 646.073 246.346 647.394C246.462 648.717 246.811 650.008 247.379 651.209C247.657 651.687 247.907 652.182 248.127 652.69Z" fill="#E0E0E0"/>
<path d="M367.762 652.421C368.293 650.665 368.61 648.852 368.704 647.02C368.626 645.181 368.33 643.358 367.822 641.59C368.799 643.227 369.272 645.116 369.183 647.02C369.259 648.922 368.764 650.803 367.762 652.421V652.421Z" fill="#F5F5F5"/>
<path d="M365.293 652.406C365.144 652.406 365.697 650.027 365.682 647.095C365.667 644.163 365.129 641.829 365.278 641.799C366.465 645.235 366.465 648.97 365.278 652.406H365.293Z" fill="#F5F5F5"/>
<path d="M449.174 601.033L262.279 600.913C256.935 600.911 251.644 599.857 246.708 597.81C241.772 595.763 237.287 592.764 233.51 588.985C229.733 585.205 226.737 580.718 224.694 575.78C222.651 570.842 221.601 565.551 221.603 560.207L221.692 91.6749C221.694 86.3273 222.749 81.0325 224.798 76.0928C226.846 71.153 229.847 66.665 233.63 62.8851C237.412 59.1052 241.903 56.1074 246.844 54.0627C251.785 52.0181 257.081 50.9668 262.428 50.9688L449.309 51.0884C460.101 51.0964 470.448 55.3881 478.078 63.0207C485.708 70.6533 489.996 81.0025 490 91.7946L489.895 560.327C489.895 565.674 488.842 570.968 486.795 575.908C484.749 580.847 481.749 585.336 477.967 589.116C474.186 592.896 469.697 595.894 464.756 597.939C459.816 599.983 454.521 601.035 449.174 601.033V601.033Z" fill="#263238"/>
<path d="M448.695 67.7987H412.462C411.28 67.822 410.113 68.0789 409.03 68.5544C407.947 69.03 406.969 69.715 406.151 70.57C405.334 71.425 404.693 72.4332 404.267 73.5365C403.84 74.6399 403.636 75.8166 403.666 76.9992V83.5666C403.694 84.7491 403.487 85.9255 403.059 87.028C402.631 88.1306 401.989 89.1376 401.17 89.9912C400.351 90.8448 399.371 91.5282 398.288 92.002C397.204 92.4758 396.037 92.7307 394.854 92.752H324.228C323.045 92.7287 321.879 92.4719 320.796 91.9963C319.713 91.5207 318.734 90.8357 317.917 89.9807C317.1 89.1257 316.459 88.1176 316.033 87.0143C315.606 85.9109 315.402 84.7342 315.432 83.5516V76.9692C315.47 75.7854 315.273 74.6059 314.853 73.4985C314.433 72.3911 313.797 71.3778 312.984 70.517C312.17 69.6562 311.195 68.9649 310.113 68.483C309.031 68.001 307.864 67.738 306.68 67.709H293.934H262.234C258.487 67.7011 254.775 68.4319 251.311 69.8594C247.846 71.287 244.697 73.3834 242.044 76.0287C239.39 78.6741 237.284 81.8165 235.845 85.2764C234.407 88.7363 233.664 92.4458 233.66 96.1928L233.571 553.52C233.559 557.26 234.285 560.966 235.708 564.425C237.132 567.884 239.223 571.028 241.864 573.677C244.505 576.326 247.642 578.428 251.096 579.862C254.551 581.296 258.254 582.034 261.995 582.034L448.516 582.139C452.26 582.14 455.969 581.405 459.429 579.974C462.889 578.543 466.033 576.444 468.682 573.798C471.332 571.151 473.434 568.009 474.868 564.55C476.303 561.092 477.043 557.384 477.045 553.64L477.224 96.3125C477.224 92.5668 476.486 88.8577 475.052 85.3973C473.618 81.9369 471.517 78.7929 468.867 76.1449C466.218 73.497 463.073 71.397 459.612 69.9649C456.151 68.5329 452.441 67.7968 448.695 67.7987V67.7987Z" fill="white"/>
<path d="M479.274 140.459C479.274 140.669 424.206 140.848 356.302 140.848C288.399 140.848 233.376 140.624 233.376 140.459C233.376 140.295 288.429 140.07 356.377 140.07C424.326 140.07 479.274 140.235 479.274 140.459Z" fill="#263238"/>
<path d="M259.032 123.51C258.852 123.512 258.676 123.448 258.539 123.33L251.433 117.092C251.349 117.024 251.282 116.937 251.238 116.838C251.193 116.739 251.173 116.632 251.178 116.523C251.177 116.414 251.201 116.307 251.248 116.208C251.294 116.11 251.363 116.023 251.448 115.955L258.554 109.971C258.707 109.847 258.903 109.788 259.099 109.808C259.295 109.828 259.475 109.924 259.601 110.076C259.664 110.151 259.712 110.238 259.741 110.331C259.77 110.425 259.78 110.524 259.77 110.621C259.76 110.719 259.731 110.814 259.684 110.9C259.637 110.986 259.573 111.062 259.496 111.123L253.078 116.479L259.511 122.133C259.586 122.197 259.647 122.274 259.692 122.361C259.736 122.448 259.762 122.544 259.769 122.641C259.776 122.739 259.764 122.837 259.732 122.93C259.701 123.022 259.651 123.108 259.586 123.181C259.526 123.275 259.444 123.354 259.348 123.411C259.252 123.468 259.144 123.502 259.032 123.51Z" fill="#263238"/>
<path d="M414.093 116.12C414.093 116.344 390.95 116.508 362.391 116.508C333.832 116.508 310.689 116.344 310.689 116.12C310.689 115.895 333.832 115.731 362.391 115.731C390.95 115.731 414.093 115.91 414.093 116.12Z" fill="#263238"/>
<path d="M444.043 116.075C444.043 116.607 443.885 117.128 443.589 117.571C443.293 118.014 442.873 118.359 442.38 118.563C441.888 118.766 441.347 118.82 440.825 118.716C440.302 118.612 439.823 118.355 439.446 117.979C439.069 117.602 438.813 117.122 438.709 116.6C438.605 116.078 438.658 115.536 438.862 115.044C439.066 114.552 439.411 114.132 439.854 113.836C440.297 113.54 440.817 113.382 441.35 113.382C442.064 113.382 442.749 113.666 443.254 114.171C443.759 114.676 444.043 115.361 444.043 116.075V116.075Z" fill="#263238"/>
<path d="M451.792 116.075C451.792 116.608 451.634 117.129 451.337 117.572C451.041 118.015 450.619 118.361 450.126 118.564C449.633 118.767 449.091 118.82 448.568 118.715C448.046 118.609 447.566 118.352 447.19 117.973C446.814 117.595 446.559 117.114 446.456 116.591C446.354 116.067 446.41 115.526 446.616 115.034C446.822 114.542 447.169 114.122 447.614 113.828C448.059 113.534 448.581 113.379 449.114 113.382C449.467 113.382 449.817 113.452 450.142 113.587C450.468 113.723 450.764 113.921 451.013 114.171C451.262 114.422 451.459 114.719 451.593 115.045C451.726 115.372 451.794 115.722 451.792 116.075Z" fill="#263238"/>
<path d="M459.556 116.075C459.556 116.607 459.398 117.128 459.102 117.571C458.807 118.014 458.386 118.359 457.894 118.563C457.402 118.766 456.86 118.82 456.338 118.716C455.816 118.612 455.336 118.355 454.959 117.979C454.583 117.602 454.326 117.122 454.222 116.6C454.118 116.078 454.172 115.536 454.376 115.044C454.579 114.552 454.925 114.132 455.367 113.836C455.81 113.54 456.331 113.382 456.863 113.382C457.578 113.382 458.263 113.666 458.768 114.171C459.273 114.676 459.556 115.361 459.556 116.075V116.075Z" fill="#263238"/>
<path d="M332.965 240.931C332.965 242.666 332.247 243.713 331.05 243.713C330.768 243.741 330.485 243.667 330.252 243.505C330.019 243.344 329.851 243.105 329.778 242.831C329.578 243.121 329.306 243.355 328.989 243.51C328.672 243.664 328.32 243.735 327.968 243.713C327.325 243.664 326.725 243.374 326.287 242.901C325.849 242.428 325.605 241.807 325.605 241.163C325.605 240.518 325.849 239.897 326.287 239.424C326.725 238.951 327.325 238.661 327.968 238.612C328.284 238.595 328.599 238.652 328.889 238.776C329.18 238.901 329.438 239.09 329.644 239.33V238.672H330.751V242.083C330.751 242.591 330.99 242.771 331.274 242.771C331.813 242.771 332.112 242.128 332.112 240.946C332.12 240.451 332.024 239.959 331.83 239.504C331.636 239.048 331.349 238.639 330.986 238.301C330.624 237.964 330.194 237.707 329.726 237.547C329.257 237.386 328.76 237.326 328.267 237.37C327.748 237.324 327.225 237.386 326.731 237.553C326.237 237.72 325.783 237.988 325.398 238.339C325.014 238.691 324.707 239.119 324.496 239.596C324.286 240.073 324.178 240.589 324.178 241.11C324.178 241.632 324.286 242.147 324.496 242.624C324.707 243.101 325.014 243.53 325.398 243.881C325.783 244.233 326.237 244.501 326.731 244.668C327.225 244.835 327.748 244.897 328.267 244.85C328.942 244.853 329.607 244.7 330.212 244.402L330.481 245.209C329.787 245.528 329.031 245.686 328.267 245.673C327.645 245.709 327.022 245.617 326.437 245.403C325.851 245.19 325.316 244.859 324.863 244.431C324.41 244.003 324.049 243.487 323.802 242.915C323.555 242.343 323.428 241.726 323.428 241.103C323.428 240.48 323.555 239.863 323.802 239.291C324.049 238.718 324.41 238.203 324.863 237.775C325.316 237.347 325.851 237.016 326.437 236.802C327.022 236.589 327.645 236.497 328.267 236.533C328.871 236.487 329.477 236.567 330.047 236.768C330.618 236.969 331.141 237.286 331.582 237.7C332.024 238.113 332.375 238.614 332.613 239.17C332.851 239.726 332.971 240.326 332.965 240.931ZM329.659 241.155C329.641 240.864 329.539 240.584 329.364 240.35C329.189 240.116 328.95 239.938 328.676 239.839C328.401 239.739 328.104 239.722 327.82 239.789C327.536 239.857 327.277 240.006 327.077 240.218C326.877 240.431 326.743 240.697 326.692 240.985C326.641 241.272 326.676 241.568 326.791 241.836C326.907 242.104 327.098 242.333 327.342 242.494C327.585 242.655 327.871 242.74 328.163 242.741C328.367 242.741 328.569 242.7 328.757 242.619C328.944 242.538 329.113 242.42 329.254 242.272C329.394 242.123 329.502 241.947 329.572 241.755C329.641 241.563 329.671 241.359 329.659 241.155V241.155Z" fill="#263238"/>
<path d="M389.499 243.654C389.499 243.863 378.668 244.043 365.323 244.043C351.979 244.043 341.163 243.863 341.163 243.654C341.163 243.444 351.979 243.25 365.323 243.25C378.668 243.25 389.499 243.429 389.499 243.654Z" fill="#263238"/>
<path d="M293.919 312.021C291.715 312.539 289.421 312.539 287.217 312.021C289.421 311.502 291.715 311.502 293.919 312.021V312.021Z" fill="#263238"/>
<path d="M309.672 328.237C309.672 328.447 301.594 328.626 291.615 328.626C281.637 328.626 273.574 328.447 273.574 328.237C273.574 328.028 281.652 327.848 291.615 327.848C301.579 327.848 309.672 328.028 309.672 328.237Z" fill="#263238"/>
<path d="M366.52 312.021C363.114 312.415 359.683 312.545 356.257 312.41C352.832 312.545 349.401 312.415 345.995 312.021C349.401 311.636 352.832 311.506 356.257 311.632C359.683 311.506 363.114 311.636 366.52 312.021V312.021Z" fill="#263238"/>
<path d="M372.594 327.37C372.594 327.579 364.321 327.759 354.118 327.759C343.916 327.759 335.628 327.579 335.628 327.37C335.628 327.16 343.901 326.981 354.118 326.981C364.336 326.981 372.594 327.16 372.594 327.37Z" fill="#263238"/>
<path d="M433.541 312.245C428.939 312.63 424.319 312.76 419.703 312.634C415.087 312.76 410.467 312.63 405.865 312.245C410.466 311.851 415.087 311.721 419.703 311.856C424.319 311.721 428.939 311.851 433.541 312.245V312.245Z" fill="#263238"/>
<path d="M438.717 328.013C438.717 328.237 430.743 328.402 420.9 328.402C411.056 328.402 403.067 328.237 403.067 328.013C403.067 327.789 411.041 327.624 420.9 327.624C430.758 327.624 438.717 327.804 438.717 328.013Z" fill="#263238"/>
<path d="M387.03 343.362H285.631C283.524 343.362 281.817 345.07 281.817 347.177V370.888C281.817 372.995 283.524 374.703 285.631 374.703H387.03C389.137 374.703 390.845 372.995 390.845 370.888V347.177C390.845 345.07 389.137 343.362 387.03 343.362Z" fill="#ED2980"/>
<path d="M370.23 359.564C370.23 359.773 356.198 359.953 338.889 359.953C321.58 359.953 307.473 359.773 307.473 359.564C307.473 359.354 321.505 359.175 338.889 359.175C356.272 359.175 370.23 359.339 370.23 359.564Z" fill="white"/>
<path d="M427.467 342.779H403.411C401.453 342.779 399.866 344.366 399.866 346.324V371.352C399.866 373.31 401.453 374.898 403.411 374.898H427.467C429.425 374.898 431.013 373.31 431.013 371.352V346.324C431.013 344.366 429.425 342.779 427.467 342.779Z" fill="#EBEBEB"/>
<path d="M412.073 357.2H418.79L415.723 361.912L412.073 357.2Z" fill="#263238"/>
<path d="M390.845 398.011C390.845 398.235 373.506 398.4 352.129 398.4C330.751 398.4 313.412 398.235 313.412 398.011C313.412 397.786 330.751 397.622 352.129 397.622C373.506 397.622 390.845 397.801 390.845 398.011Z" fill="#E0E0E0"/>
<path d="M413.375 412.597C413.375 412.806 387.943 412.986 356.527 412.986C325.111 412.986 299.679 412.806 299.679 412.597C299.679 412.387 325.111 412.208 356.527 412.208C387.943 412.208 413.375 412.387 413.375 412.597Z" fill="#E0E0E0"/>
<path d="M478.72 437.879C478.72 438.104 424.191 438.283 356.916 438.283C289.641 438.283 235.111 438.104 235.111 437.879C235.111 437.655 289.641 437.49 356.916 437.49C424.191 437.49 478.72 437.67 478.72 437.879Z" fill="#263238"/>
<path d="M359.339 466.258C358.954 461.671 358.824 457.067 358.95 452.465C358.824 447.869 358.954 443.269 359.339 438.687C359.733 443.268 359.863 447.869 359.728 452.465C359.863 457.067 359.733 461.672 359.339 466.258Z" fill="#263238"/>
<path d="M344.215 264.074L337.213 280.141H334.221L327.205 264.074H330.437L335.777 276.461L341.178 264.074H344.215Z" fill="#ED2980"/>
<path d="M356.198 274.935H346.578C346.756 275.837 347.26 276.641 347.995 277.193C348.729 277.746 349.642 278.007 350.558 277.927C351.174 277.952 351.788 277.846 352.361 277.617C352.933 277.387 353.451 277.039 353.879 276.595L355.375 278.361C354.75 279.036 353.983 279.565 353.129 279.909C352.276 280.253 351.357 280.403 350.438 280.35C346.339 280.35 343.676 277.717 343.676 274.067C343.646 273.225 343.791 272.386 344.103 271.603C344.415 270.82 344.886 270.11 345.487 269.519C346.088 268.928 346.805 268.469 347.593 268.17C348.381 267.871 349.222 267.74 350.064 267.784C350.897 267.753 351.727 267.897 352.502 268.206C353.276 268.515 353.977 268.983 354.56 269.578C355.143 270.174 355.596 270.885 355.888 271.666C356.18 272.447 356.306 273.28 356.258 274.112C356.243 274.307 356.213 274.651 356.198 274.935ZM346.563 273.02H353.505C353.421 272.174 353.017 271.392 352.374 270.835C351.731 270.278 350.899 269.989 350.049 270.028C349.198 269.996 348.366 270.286 347.72 270.841C347.074 271.396 346.661 272.174 346.563 273.02Z" fill="#ED2980"/>
<path d="M366.086 267.784V270.507C365.869 270.462 365.649 270.437 365.428 270.432C364.931 270.394 364.432 270.467 363.967 270.647C363.502 270.827 363.084 271.109 362.742 271.472C362.4 271.835 362.145 272.27 361.993 272.745C361.842 273.22 361.799 273.723 361.867 274.217V280.201H359.04V267.949H361.778V269.729C362.269 269.063 362.923 268.534 363.678 268.194C364.432 267.853 365.262 267.712 366.086 267.784V267.784Z" fill="#ED2980"/>
<path d="M368.136 264.149C368.137 263.913 368.187 263.68 368.282 263.464C368.376 263.248 368.514 263.054 368.686 262.893C368.858 262.732 369.061 262.608 369.283 262.528C369.505 262.448 369.741 262.414 369.976 262.428C370.205 262.41 370.436 262.439 370.654 262.512C370.872 262.586 371.072 262.704 371.243 262.858C371.414 263.012 371.551 263.199 371.647 263.408C371.743 263.618 371.796 263.844 371.801 264.074C371.76 264.531 371.549 264.957 371.209 265.267C370.87 265.577 370.428 265.748 369.968 265.748C369.509 265.748 369.066 265.577 368.727 265.267C368.388 264.957 368.177 264.531 368.136 264.074V264.149ZM368.525 267.889H371.397V280.141H368.525V267.889Z" fill="#ED2980"/>
<path d="M379.984 262.952C380.899 262.912 381.806 263.146 382.587 263.625L381.779 265.779C381.314 265.454 380.761 265.276 380.194 265.271C378.997 265.271 378.383 265.929 378.383 267.245V267.979H381.764V270.267H378.488V280.141H375.496V270.267H373.491V267.979H375.496V267.201C375.448 266.61 375.533 266.015 375.746 265.461C375.958 264.908 376.291 264.409 376.722 264.001C377.153 263.593 377.669 263.287 378.234 263.106C378.798 262.924 379.397 262.872 379.984 262.952V262.952ZM385.13 264.149C385.132 263.913 385.182 263.68 385.276 263.464C385.371 263.248 385.508 263.054 385.68 262.893C385.853 262.732 386.056 262.608 386.278 262.528C386.499 262.448 386.735 262.414 386.97 262.428C387.2 262.41 387.43 262.439 387.648 262.512C387.866 262.586 388.067 262.704 388.238 262.858C388.408 263.012 388.546 263.199 388.642 263.408C388.738 263.618 388.79 263.844 388.796 264.074C388.754 264.531 388.543 264.957 388.204 265.267C387.865 265.577 387.422 265.748 386.963 265.748C386.504 265.748 386.061 265.577 385.722 265.267C385.383 264.957 385.172 264.531 385.13 264.074V264.149ZM385.519 267.889H388.392V280.141H385.519V267.889Z" fill="#ED2980"/>
<path d="M403.561 274.935H393.957C394.131 275.836 394.632 276.64 395.364 277.192C396.096 277.745 397.007 278.006 397.921 277.927C398.539 277.947 399.154 277.839 399.728 277.61C400.302 277.38 400.823 277.035 401.257 276.596L402.753 278.361C402.129 279.038 401.363 279.567 400.509 279.912C399.655 280.256 398.735 280.406 397.816 280.35C393.717 280.35 391.054 277.718 391.054 274.067C391.031 273.233 391.18 272.404 391.49 271.63C391.801 270.855 392.268 270.153 392.861 269.567C393.454 268.981 394.162 268.523 394.94 268.221C395.717 267.919 396.549 267.781 397.382 267.814C398.216 267.783 399.046 267.927 399.82 268.236C400.594 268.545 401.295 269.013 401.879 269.608C402.462 270.204 402.914 270.915 403.206 271.696C403.498 272.477 403.624 273.31 403.576 274.142C403.606 274.307 403.591 274.651 403.561 274.935ZM393.927 273.02H400.928C400.841 272.172 400.433 271.39 399.788 270.834C399.142 270.278 398.308 269.989 397.457 270.028C396.6 269.988 395.758 270.274 395.103 270.83C394.448 271.385 394.028 272.167 393.927 273.02Z" fill="#ED2980"/>
<path d="M418.371 263.116V280.141H415.619V278.555C415.117 279.131 414.492 279.586 413.79 279.887C413.088 280.187 412.327 280.325 411.565 280.291C409.902 280.291 408.308 279.63 407.132 278.455C405.957 277.279 405.296 275.685 405.296 274.022C405.296 272.36 405.957 270.766 407.132 269.59C408.308 268.414 409.902 267.754 411.565 267.754C412.301 267.721 413.036 267.851 413.716 268.136C414.397 268.42 415.005 268.852 415.499 269.4V263.116H418.371ZM415.544 274.007C415.509 273.294 415.265 272.607 414.843 272.031C414.422 271.454 413.84 271.015 413.171 270.766C412.501 270.517 411.774 270.469 411.078 270.63C410.382 270.79 409.749 271.151 409.256 271.668C408.763 272.185 408.433 272.835 408.306 273.538C408.179 274.241 408.261 274.965 408.542 275.622C408.823 276.279 409.29 276.838 409.886 277.232C410.481 277.626 411.18 277.836 411.894 277.837C412.391 277.846 412.885 277.752 413.344 277.561C413.803 277.369 414.217 277.085 414.561 276.724C414.904 276.364 415.168 275.937 415.338 275.469C415.507 275.001 415.577 274.504 415.544 274.007V274.007Z" fill="#ED2980"/>
<path d="M304.601 284.165C311.549 284.165 317.182 278.532 317.182 271.584C317.182 264.635 311.549 259.003 304.601 259.003C297.652 259.003 292.019 264.635 292.019 271.584C292.019 278.532 297.652 284.165 304.601 284.165Z" fill="#ED2980"/>
<path d="M298.916 271.823L300.531 270.208L303.658 272.975L309.777 267.081L311.273 268.697L303.419 276.087L298.916 271.823Z" fill="white"/>
<path d="M358.681 582.079H259.945C252.882 582.055 246.118 579.23 241.137 574.223C236.155 569.216 233.364 562.438 233.376 555.375V466.258H358.756L358.681 582.079Z" fill="#EBEBEB"/>
<path d="M449.743 582.318L357.544 582.079V466.258H477.493V554.627C477.34 561.933 474.365 568.897 469.192 574.059C464.019 579.221 457.049 582.18 449.743 582.318Z" fill="#455A64"/>
<path d="M478.72 466.258C478.72 466.468 424.191 466.647 356.931 466.647C289.671 466.647 235.126 466.468 235.126 466.258C235.126 466.049 289.641 465.869 356.931 465.869C424.221 465.869 478.72 466.049 478.72 466.258Z" fill="#263238"/>
<path d="M355.106 534.072C355.106 534.072 354.971 534.072 354.762 533.863L353.819 533.174L350.259 530.512L337.243 520.578C334.506 518.499 331.484 516.09 328.267 513.741C327.409 513.243 326.427 512.997 325.434 513.032C324.442 513.066 323.48 513.379 322.657 513.936C321.828 514.623 321.048 515.368 320.324 516.165L317.945 518.574L297.001 539.727L295.714 541.028L295.475 541.268L295.206 541.073L283.118 532.097L277.373 527.804C276.589 527.06 275.601 526.568 274.535 526.389C273.468 526.21 272.373 526.354 271.389 526.802C270.466 527.336 269.629 528.007 268.906 528.791L266.542 530.99L262.054 535.179L253.976 542.659L242.262 553.46L239.046 556.362L238.208 557.11C238.019 557.28 237.914 557.355 237.894 557.335C237.966 557.23 238.052 557.134 238.148 557.051L238.941 556.258L242.053 553.266L253.602 542.285L261.621 534.715L266.109 530.512L268.457 528.298L269.654 527.176C270.101 526.77 270.605 526.433 271.15 526.173C272.242 525.645 273.469 525.468 274.666 525.665C275.271 525.758 275.857 525.95 276.401 526.233C276.932 526.516 277.433 526.852 277.897 527.235L283.657 531.499L295.759 540.475H295.251L296.537 539.158L317.481 518.05L319.875 515.656C320.629 514.829 321.444 514.058 322.313 513.352C323.246 512.734 324.333 512.389 325.452 512.357C326.57 512.326 327.675 512.608 328.641 513.173C331.963 515.641 334.865 518.005 337.617 520.129L350.483 530.257L353.969 533.04L354.851 533.788C354.948 533.871 355.033 533.967 355.106 534.072V534.072Z" fill="#263238"/>
<path d="M306.171 495.176C306.082 495.176 306.171 494.219 305.678 492.558C305.033 490.235 303.633 488.192 301.698 486.753C300.376 485.765 298.838 485.104 297.21 484.824C295.36 484.495 293.456 484.66 291.69 485.302C289.735 486.017 288.037 487.298 286.813 488.983C285.492 490.78 284.78 492.953 284.78 495.183C284.78 497.414 285.492 499.587 286.813 501.384C287.987 502.977 289.582 504.21 291.419 504.945C293.256 505.68 295.262 505.887 297.21 505.543C298.84 505.262 300.379 504.595 301.698 503.599C303.633 502.16 305.033 500.117 305.678 497.794C306.127 496.148 306.082 495.176 306.171 495.176C306.194 495.41 306.194 495.645 306.171 495.879C306.173 496.549 306.098 497.216 305.947 497.869C305.391 500.318 304 502.497 302.013 504.032C300.643 505.106 299.038 505.839 297.33 506.172C295.255 506.574 293.107 506.38 291.138 505.612C289.168 504.844 287.456 503.534 286.2 501.833C284.773 499.91 284.002 497.578 284.002 495.183C284.002 492.789 284.773 490.457 286.2 488.534C287.517 486.739 289.34 485.379 291.436 484.629C293.326 483.96 295.36 483.805 297.33 484.18C299.036 484.519 300.64 485.252 302.013 486.32C303.997 487.858 305.387 490.036 305.947 492.483C306.098 493.141 306.173 493.813 306.171 494.488C306.194 494.717 306.194 494.947 306.171 495.176V495.176Z" fill="#263238"/>
<path d="M473.783 530.362C473.783 530.362 473.664 530.362 473.454 530.153L472.557 529.479L469.116 526.801L456.564 516.853C453.931 514.774 451.029 512.365 447.932 510.016C447.104 509.519 446.146 509.28 445.181 509.33C444.216 509.381 443.288 509.719 442.517 510.301C441.73 510.998 440.985 511.742 440.288 512.53L438.014 514.938L417.982 536.017L416.726 537.318L416.486 537.573L416.202 537.363L404.548 528.387L399.013 524.094C398.268 523.346 397.305 522.853 396.262 522.686C395.219 522.519 394.15 522.688 393.209 523.166C392.331 523.727 391.531 524.401 390.83 525.171L388.571 527.37L384.248 531.544L376.483 539.024L365.248 549.795L362.167 552.697L361.344 553.43C361.164 553.595 361.06 553.685 361.045 553.67C361.117 553.564 361.202 553.469 361.299 553.385C361.493 553.161 361.748 552.907 362.047 552.593L365.039 549.601L376.109 538.65L383.799 531.095C385.19 529.749 386.611 528.342 388.092 526.891L390.336 524.692L391.488 523.57C391.898 523.169 392.361 522.827 392.865 522.553C393.919 521.994 395.126 521.79 396.305 521.969C396.901 522.056 397.478 522.243 398.011 522.523C398.539 522.81 399.04 523.146 399.507 523.525L405.042 527.804L416.711 536.78H416.187L417.444 535.463L437.52 514.43L439.809 512.036C440.538 511.22 441.317 510.45 442.143 509.732C443.027 509.08 444.084 508.705 445.181 508.655C446.279 508.604 447.366 508.88 448.306 509.448C451.523 511.916 454.29 514.28 456.953 516.404L469.34 526.547L472.676 529.345L473.529 530.078L473.783 530.362Z" fill="#263238"/>
<path d="M422.919 491.84C422.844 491.84 422.919 490.883 422.44 489.237C421.804 486.91 420.402 484.866 418.461 483.432C417.342 482.597 416.069 481.991 414.715 481.65C413.361 481.309 411.953 481.239 410.572 481.445C409.191 481.651 407.865 482.128 406.669 482.849C405.473 483.57 404.432 484.521 403.606 485.647C402.285 487.444 401.573 489.617 401.573 491.847C401.573 494.078 402.285 496.251 403.606 498.048C404.828 499.731 406.527 501.008 408.483 501.714C410.137 502.325 411.92 502.508 413.664 502.247C415.408 501.985 417.059 501.287 418.461 500.218C420.399 498.782 421.8 496.738 422.44 494.413C422.646 493.549 422.805 492.676 422.919 491.795C422.958 492.028 422.958 492.265 422.919 492.498C422.921 493.168 422.845 493.835 422.695 494.488C422.18 496.941 420.832 499.14 418.88 500.711C417.506 501.774 415.902 502.502 414.198 502.836C412.229 503.226 410.19 503.071 408.303 502.387C406.209 501.642 404.385 500.288 403.067 498.497C401.64 496.574 400.87 494.242 400.87 491.847C400.87 489.453 401.64 487.121 403.067 485.198C404.323 483.497 406.035 482.187 408.005 481.419C409.975 480.651 412.122 480.457 414.198 480.859C415.902 481.193 417.506 481.921 418.88 482.984C420.868 484.525 422.259 486.709 422.814 489.162C422.965 489.815 423.04 490.482 423.039 491.152C423.04 491.386 422.999 491.619 422.919 491.84V491.84Z" fill="#263238"/>
<path d="M359.384 231.117C378.519 231.117 394.032 215.605 394.032 196.47C394.032 177.334 378.519 161.822 359.384 161.822C340.249 161.822 324.737 177.334 324.737 196.47C324.737 215.605 340.249 231.117 359.384 231.117Z" fill="#F5F5F5"/>
<path d="M381.779 222.754C381.188 217.259 378.553 212.186 374.396 208.542C370.24 204.898 364.865 202.949 359.339 203.082C347.042 203.082 338.62 212.387 336.899 222.829C336.899 222.829 344.499 231.237 359.339 231.117C374.18 230.997 381.779 222.754 381.779 222.754Z" fill="#E0E0E0"/>
<path d="M373.482 193.084C374.682 185.657 369.634 178.663 362.207 177.463C354.78 176.262 347.786 181.31 346.586 188.737C345.386 196.164 350.433 203.158 357.86 204.358C365.287 205.559 372.281 200.511 373.482 193.084Z" fill="#E0E0E0"/>
<path d="M381.615 221.573C381.191 219.356 380.482 217.204 379.505 215.17C378.245 212.894 376.583 210.867 374.598 209.186C371.992 206.985 368.992 205.3 365.757 204.219L365.039 203.995L365.697 203.651C367.981 202.409 369.857 200.534 371.098 198.25C372.178 196.237 372.718 193.979 372.665 191.696C372.612 189.412 371.968 187.181 370.795 185.221C369.623 183.261 367.962 181.638 365.975 180.512C363.988 179.385 361.743 178.793 359.459 178.793C357.175 178.793 354.93 179.385 352.943 180.512C350.956 181.638 349.295 183.261 348.123 185.221C346.95 187.181 346.306 189.412 346.253 191.696C346.2 193.979 346.74 196.237 347.82 198.25C348.449 199.417 349.245 200.485 350.184 201.421C351.093 202.297 352.097 203.07 353.176 203.725L353.774 204.099L353.086 204.294C349.774 205.166 346.731 206.847 344.23 209.186C342.331 210.984 340.762 213.1 339.592 215.439C338.838 216.939 338.227 218.507 337.767 220.121C337.602 220.675 337.498 221.109 337.423 221.393C337.403 221.543 337.363 221.689 337.303 221.827C337.277 221.678 337.277 221.527 337.303 221.378C337.303 221.079 337.423 220.63 337.557 220.077C337.95 218.425 338.516 216.821 339.248 215.289C340.382 212.871 341.943 210.677 343.856 208.812C346.375 206.383 349.46 204.619 352.832 203.68L352.742 204.249C351.613 203.582 350.559 202.795 349.6 201.9C348.605 200.922 347.758 199.803 347.087 198.579C345.607 195.819 345.098 192.641 345.64 189.557C346.183 186.472 347.746 183.659 350.079 181.57C352.634 179.267 355.952 177.993 359.392 177.993C362.831 177.993 366.149 179.267 368.704 181.57C370.373 183.069 371.654 184.95 372.439 187.052C373.224 189.154 373.488 191.414 373.211 193.64C372.933 195.867 372.121 197.993 370.844 199.837C369.567 201.682 367.863 203.19 365.877 204.234V203.651C369.178 204.78 372.228 206.543 374.853 208.842C376.862 210.594 378.522 212.711 379.745 215.08C380.172 215.957 380.527 216.868 380.807 217.803C381.039 218.48 381.215 219.175 381.33 219.882C381.405 220.406 381.465 220.84 381.51 221.199C381.555 221.558 381.645 221.573 381.615 221.573Z" fill="#263238"/>
<path d="M394.032 196.47C393.985 196.284 393.959 196.093 393.957 195.901C393.957 195.497 393.957 194.959 393.837 194.271L393.762 193.059C393.762 192.61 393.613 192.131 393.523 191.563C393.368 190.354 393.123 189.159 392.79 187.987C391.978 184.759 390.681 181.672 388.945 178.832C384.836 171.974 378.467 166.761 370.932 164.088C363.398 161.416 355.168 161.45 347.656 164.186C346.116 164.741 344.616 165.4 343.168 166.161C341.704 166.962 340.299 167.867 338.964 168.868C337.596 169.883 336.296 170.988 335.074 172.175C333.866 173.425 332.741 174.755 331.708 176.154C329.582 179.018 327.931 182.205 326.816 185.594C324.463 192.618 324.463 200.217 326.816 207.241C327.931 210.634 329.582 213.826 331.708 216.696C332.745 218.092 333.869 219.421 335.074 220.675C336.296 221.862 337.596 222.966 338.964 223.981C340.303 224.977 341.707 225.882 343.168 226.689C350.051 230.318 357.948 231.544 365.608 230.175C370.417 229.29 374.984 227.397 379.009 224.62C383.034 221.843 386.426 218.245 388.96 214.063C390.699 211.218 391.995 208.126 392.805 204.892C393.137 203.725 393.382 202.535 393.538 201.332C393.628 200.808 393.717 200.329 393.777 199.836L393.852 198.624C393.852 197.936 393.942 197.397 393.972 196.978C393.975 196.792 394 196.606 394.046 196.425C394.066 196.614 394.066 196.804 394.046 196.993C394.046 197.397 394.046 197.951 394.046 198.639C394.046 199.013 394.046 199.417 394.046 199.851C394.046 200.284 393.912 200.793 393.852 201.347C393.718 202.564 393.493 203.769 393.179 204.952C392.402 208.232 391.131 211.375 389.409 214.272C386.888 218.54 383.489 222.223 379.437 225.078C375.386 227.933 370.774 229.894 365.907 230.833C359.75 231.985 353.396 231.469 347.506 229.337C345.937 228.772 344.408 228.102 342.928 227.332C341.43 226.516 339.99 225.596 338.62 224.58C337.218 223.544 335.888 222.415 334.64 221.199C333.403 219.927 332.253 218.572 331.2 217.144C329.015 214.215 327.317 210.951 326.173 207.48C325.026 203.905 324.416 200.179 324.363 196.425C324.411 192.664 325.026 188.932 326.188 185.354C327.324 181.887 329.017 178.628 331.2 175.705C332.253 174.272 333.402 172.913 334.64 171.636C335.896 170.433 337.225 169.308 338.62 168.27C339.99 167.254 341.43 166.334 342.928 165.517C344.408 164.748 345.937 164.078 347.506 163.513C353.391 161.381 359.739 160.865 365.892 162.017C370.762 162.952 375.377 164.913 379.431 167.768C383.486 170.623 386.887 174.308 389.409 178.578C391.131 181.47 392.402 184.608 393.179 187.883C393.493 189.071 393.718 190.281 393.852 191.503C393.852 192.027 394.002 192.52 394.046 192.999C394.091 193.478 394.046 193.852 394.046 194.226C394.046 194.914 394.046 195.467 394.046 195.871C394.063 196.071 394.058 196.271 394.032 196.47V196.47Z" fill="#263238"/>
<path d="M216.082 353.849C197.891 363.274 183.933 379.505 173.91 397.368C163.887 415.23 157.454 434.842 151.006 454.305L145.396 554.687C166.565 518.678 183.559 476.341 188.152 434.812L174.06 433.556C183.514 432.06 191.443 425.268 196.5 417.1C201.556 408.932 204.144 399.612 206.672 390.411L189.483 392.954C203.043 383.819 212.567 369.816 216.082 353.849V353.849Z" fill="#455A64"/>
<path d="M216.082 353.849C197.891 363.274 183.933 379.505 173.91 397.368C163.887 415.23 157.454 434.842 151.006 454.305L145.396 554.687C166.565 518.678 183.559 476.341 188.152 434.812L174.06 433.556C183.514 432.06 191.443 425.268 196.5 417.1C201.556 408.932 204.144 399.612 206.672 390.411L189.483 392.954C203.043 383.819 212.567 369.816 216.082 353.849V353.849Z" fill="#455A64"/>
<path d="M142.255 578.219C142.255 578.219 96.3125 523.211 96.8361 470.701H115.401C115.401 470.701 95.2354 457.447 96.8361 450.027C98.4368 442.607 98.9604 414.482 98.9604 414.482L115.94 418.73C115.94 418.73 103.209 412.372 101.608 402.274C100.008 392.176 105.318 345.576 105.318 345.576C105.318 345.576 126.008 367.313 132.381 389.588C138.754 411.864 155.449 437.849 150.542 505.738C145.636 573.626 142.255 578.219 142.255 578.219Z" fill="#455A64"/>
<path d="M165.562 583.44C165.562 583.44 215.349 550.274 226.405 507.937L211.445 503.883C211.445 503.883 230.564 497.629 230.893 491.316C231.222 485.003 236.877 462.279 236.877 462.279L222.306 461.98C222.306 461.98 233.93 459.646 237.415 451.897C240.901 444.147 246.975 405.416 246.975 405.416C246.975 405.416 225.582 418.386 215.559 434.902C205.535 451.418 186.446 468.652 175.541 524.303C164.635 579.954 165.562 583.44 165.562 583.44Z" fill="#455A64"/>
<path d="M117.885 393.448C117.885 393.448 117.885 393.642 118.034 394.016C118.184 394.39 118.274 395.004 118.438 395.707C118.782 397.203 119.261 399.447 119.934 402.244C120.607 405.042 121.311 408.558 122.103 412.597C122.896 416.636 123.869 421.244 124.796 426.345C126.771 436.548 128.835 448.785 130.975 462.249C133.114 475.713 135.119 490.778 136.959 506.516C138.799 522.254 140.16 537.303 141.237 550.992C142.314 564.68 143.018 577.037 143.421 587.404C143.691 592.595 143.81 597.293 143.945 601.422C144.08 605.551 144.155 609.096 144.184 611.999C144.214 614.901 144.184 617.115 144.259 618.686V620.421C144.259 620.81 144.259 621.02 144.259 621.02C144.234 620.821 144.234 620.62 144.259 620.421V618.686C144.259 617.115 144.125 614.871 144.035 611.999C143.945 609.126 143.84 605.551 143.661 601.437C143.481 597.323 143.317 592.625 143.033 587.434C142.539 577.067 141.716 564.74 140.669 551.052C139.622 537.363 138.126 522.343 136.33 506.605C134.535 490.868 132.441 475.922 130.346 462.354C128.252 448.785 126.232 436.593 124.362 426.45C123.465 421.333 122.552 416.741 121.789 412.687C121.026 408.632 120.293 405.207 119.74 402.304C119.186 399.402 118.737 397.293 118.438 395.752C118.304 395.019 118.184 394.465 118.109 394.031C118.016 393.844 117.941 393.649 117.885 393.448Z" fill="#263238"/>
<path d="M135.882 611.864C135.882 611.864 93.8291 564.187 80.784 535.344L90.6426 531.08C83.4918 532.262 76.1763 529.195 70.6262 524.528C65.076 519.86 61.0218 513.726 57.0275 507.683L70.0128 505.483C58.0621 502.091 47.8808 494.219 41.5888 483.507C56.9078 486.035 70.7758 494.443 82.1902 504.975C91.4505 513.487 99.2746 523.376 106.799 533.489C110.481 538.407 113.682 543.667 116.359 549.197C123.48 563.842 135.912 594.376 135.882 611.864Z" fill="#455A64"/>
<path d="M227.063 433.197C227.02 433.364 226.954 433.525 226.868 433.676L226.225 435.067C225.612 436.323 224.729 438.059 223.652 440.348C222.575 442.637 221.154 445.449 219.598 448.725C218.042 452.002 216.232 455.712 214.332 459.856C210.442 468.128 205.984 478.032 201.182 489.102C196.38 500.173 191.368 512.47 186.327 525.455C181.285 538.44 176.812 550.887 172.863 562.332C168.913 573.776 165.592 584.098 162.899 592.82C161.523 597.173 160.371 601.138 159.309 604.608C158.247 608.079 157.379 611.071 156.676 613.584C155.973 616.098 155.419 617.893 155.016 619.224L154.567 620.72C154.524 620.891 154.464 621.056 154.387 621.214C154.407 621.037 154.442 620.862 154.492 620.69C154.582 620.316 154.716 619.838 154.866 619.194L156.362 613.51C157.02 611.056 157.858 608.034 158.86 604.534C159.863 601.033 161 597.054 162.346 592.715C164.964 583.964 168.33 573.611 172.145 562.167C175.96 550.723 180.552 538.231 185.609 525.231C190.665 512.23 195.737 499.963 200.569 488.878C205.401 477.793 209.934 467.934 213.868 459.691C215.813 455.547 217.653 451.852 219.254 448.591C220.854 445.329 222.246 442.607 223.428 440.273L226.12 435.052L226.838 433.705C226.896 433.529 226.971 433.358 227.063 433.197Z" fill="#263238"/>
<path d="M139.457 632.344C139.359 632.058 139.294 631.762 139.263 631.462L138.859 628.933C138.694 627.826 138.5 626.48 138.2 624.924C137.901 623.368 137.662 621.588 137.228 619.643C136.48 615.739 135.403 611.131 134.027 606.044C132.65 600.958 130.87 595.483 128.731 589.798C126.591 584.113 124.243 578.832 121.969 574.09C119.695 569.348 117.481 565.204 115.386 561.778C114.414 560.028 113.442 558.517 112.619 557.17C111.796 555.824 111.123 554.657 110.465 553.729L109.088 551.56C108.921 551.315 108.775 551.054 108.654 550.782C108.874 550.985 109.066 551.216 109.223 551.47L110.719 553.565C111.362 554.462 112.14 555.599 112.993 556.931C113.846 558.262 114.848 559.758 115.85 561.494C117.945 564.89 120.233 569.063 122.612 573.776C124.991 578.488 127.295 583.829 129.464 589.514C131.633 595.199 133.338 600.764 134.715 605.865C136.091 610.966 137.093 615.619 137.707 619.538C138.096 621.498 138.32 623.293 138.559 624.864C138.799 626.435 138.978 627.781 139.083 628.888C139.188 629.995 139.278 630.773 139.337 631.447C139.417 631.739 139.457 632.041 139.457 632.344Z" fill="#263238"/>
<path d="M194.944 621.124H102.91V639.899H194.944V621.124Z" fill="#ED2980"/>
<path d="M111.676 639.899L121.64 703.045H177.246L186.521 639.899H111.676Z" fill="#ED2980"/>
<path d="M189.304 639.899C189.304 640.108 171.89 640.288 150.408 640.288C128.925 640.288 111.512 640.108 111.512 639.899C111.512 639.69 128.925 639.495 150.408 639.495C171.89 639.495 189.304 639.675 189.304 639.899Z" fill="#263238"/>
<g opacity="0.3">
<path opacity="0.3" d="M216.082 353.849C197.891 363.274 183.933 379.505 173.91 397.368C163.887 415.23 157.454 434.842 151.006 454.305L145.396 554.687C166.565 518.678 183.559 476.341 188.152 434.812L174.06 433.556C183.514 432.06 191.443 425.268 196.5 417.1C201.556 408.932 204.144 399.612 206.672 390.411L189.483 392.954C203.043 383.819 212.567 369.816 216.082 353.849V353.849Z" fill="black"/>
</g>
<path d="M644.582 434.872C644.582 434.872 659.841 460.2 662.115 484.315C664.389 508.431 648.277 703.3 648.277 703.3H458.434C458.434 703.3 509.298 462.668 525.934 447.229L527.071 431.222L644.582 434.872Z" fill="#263238"/>
<path d="M652.69 454.186C652.731 455.318 652.706 456.452 652.615 457.581C652.396 460.829 651.789 464.038 650.805 467.141C649.267 472.077 646.866 476.702 643.714 480.799C641.749 483.364 639.49 485.689 636.982 487.726C634.151 489.952 631.15 491.953 628.006 493.71C624.73 495.625 621.229 497.48 617.728 499.694C614.06 501.861 610.721 504.541 607.81 507.653C604.837 511.106 602.542 515.091 601.048 519.396C599.554 524.011 598.517 528.761 597.951 533.578C597.278 538.515 596.844 543.616 596.171 548.822C595.566 554.157 594.361 559.406 592.581 564.471C590.65 569.737 587.497 574.469 583.38 578.279C579.072 582.072 574.196 585.167 568.929 587.449C558.457 592.251 547.446 595.318 538.156 600.913C533.601 603.611 529.612 607.167 526.413 611.385C523.488 615.548 521.241 620.148 519.755 625.014C516.763 634.498 515.417 643.968 512.934 652.54C512.605 653.602 512.275 654.665 511.961 655.712C511.647 656.759 511.228 657.761 510.869 658.779C510.101 660.752 509.232 662.684 508.266 664.568C507.383 666.438 506.261 668.144 505.274 669.849C504.721 670.672 504.152 671.48 503.599 672.272L502.776 673.454L501.878 674.576C497.662 679.957 492.611 684.629 486.918 688.414C482.63 691.279 478.008 693.61 473.155 695.356C470.088 696.432 466.942 697.267 463.745 697.854L461.247 698.228L460.379 698.333L461.232 698.153L463.715 697.704C466.888 697.058 470.008 696.178 473.05 695.071C484.275 690.898 494.117 683.682 501.474 674.232L502.357 673.125L503.18 671.943L504.825 669.535C505.813 667.844 506.92 666.154 507.817 664.284C508.771 662.421 509.625 660.508 510.375 658.554C510.735 657.552 511.079 656.535 511.438 655.562C511.797 654.59 512.081 653.468 512.395 652.406C514.849 643.893 516.105 634.454 519.157 624.834C520.663 619.895 522.94 615.225 525.904 610.996C529.154 606.673 533.22 603.029 537.872 600.27C547.282 594.57 558.262 591.503 568.704 586.716C573.899 584.492 578.71 581.463 582.961 577.74C586.973 574.022 590.049 569.409 591.937 564.276C593.678 559.222 594.842 553.988 595.408 548.673C596.081 543.497 596.53 538.395 597.218 533.444C597.802 528.581 598.854 523.787 600.36 519.127C601.902 514.741 604.252 510.682 607.286 507.159C610.255 504.017 613.655 501.312 617.384 499.125C620.915 496.971 624.43 495.116 627.692 493.246C630.832 491.484 633.833 489.483 636.668 487.262C639.151 485.263 641.395 482.984 643.355 480.47C646.496 476.43 648.911 471.874 650.491 467.006C651.511 463.932 652.168 460.749 652.451 457.522C652.57 456.415 652.57 455.577 652.615 454.993C652.66 454.41 652.69 454.186 652.69 454.186Z" fill="#455A64"/>
<path d="M658.016 471.898C658.125 472.147 658.22 472.402 658.3 472.661C658.57 473.402 658.785 474.162 658.943 474.935C659.523 477.94 659.467 481.034 658.779 484.016C657.705 488.74 655.583 493.162 652.57 496.956C648.496 501.861 643.873 506.283 638.792 510.136C633.362 514.624 627.183 519.426 622.441 526.218C619.985 529.704 618.264 533.654 617.384 537.827C616.558 542.272 616.058 546.772 615.888 551.291C615.711 556.094 615.045 560.866 613.899 565.533C612.643 570.397 610.81 575.093 608.438 579.52C603.445 588.87 596.207 596.833 587.375 602.693C578.234 608.677 567.926 611.55 558.876 616.053C554.39 618.162 550.262 620.958 546.638 624.341C543.275 627.691 540.557 631.631 538.62 635.964C534.775 644.432 533.189 653.243 531.05 661.262C530.058 665.159 528.839 668.996 527.4 672.751C526.029 676.206 524.278 679.497 522.179 682.565C520.234 685.321 517.964 687.833 515.417 690.045C514.25 691.137 512.978 692.035 511.797 692.962C510.615 693.89 509.358 694.653 508.102 695.311C503.921 697.763 499.376 699.53 494.638 700.547C491.66 701.167 488.628 701.483 485.587 701.489L483.223 701.37H482.415H483.223H485.587C488.606 701.289 491.612 700.923 494.563 700.278C499.231 699.21 503.703 697.418 507.817 694.967C509.044 694.308 510.196 693.471 511.438 692.618C512.679 691.765 513.861 690.793 515.013 689.701C517.517 687.481 519.747 684.97 521.655 682.221C523.711 679.176 525.427 675.916 526.772 672.497C528.181 668.759 529.375 664.942 530.347 661.067C532.471 653.079 534.012 644.222 537.827 635.635C539.789 631.215 542.548 627.194 545.965 623.772C549.643 620.332 553.838 617.49 558.397 615.35C567.523 610.787 577.845 607.87 586.821 602.02C599.779 593.427 609.12 580.364 613.061 565.323C614.195 560.7 614.862 555.973 615.051 551.216C615.2 546.652 615.7 542.105 616.547 537.617C617.45 533.362 619.211 529.336 621.723 525.784C626.57 518.917 632.823 514.1 638.268 509.657C643.41 505.876 648.103 501.519 652.256 496.672C655.262 492.944 657.403 488.596 658.524 483.941C659.218 480.998 659.319 477.947 658.823 474.965C658.39 472.93 657.956 471.913 658.016 471.898Z" fill="#455A64"/>
<path d="M465.331 336.391C465.331 336.391 477.643 421.304 496.582 429.547C506.127 433.72 513.801 430.13 519.022 420.571C524.243 411.011 537.573 341.552 537.573 341.552L500.726 340.684L499.35 354.492L485.138 328.058L465.331 336.391Z" fill="#936760"/>
<path d="M519.651 391.832C519.578 391.594 519.472 391.368 519.336 391.159L518.334 389.304L514.624 382.497C511.452 376.753 507.144 368.794 502.342 359.982C497.54 351.171 493.366 343.227 490.269 337.348L486.619 330.481L485.617 328.626C485.377 328.207 485.243 327.983 485.213 327.998C485.28 328.236 485.37 328.466 485.482 328.686L486.38 330.601C487.172 332.262 488.339 334.64 489.82 337.587C492.812 343.452 496.956 351.5 501.788 360.312C506.62 369.123 510.974 377.052 514.25 382.752C515.896 385.594 517.242 387.868 518.214 389.439L519.336 391.234C519.421 391.443 519.527 391.644 519.651 391.832V391.832Z" fill="#6F4C47"/>
<path d="M648.052 356.243L637.535 403.292L642.517 434.872H526.936L534.491 287.471L563.304 285.018L633.706 296.911L648.052 356.243Z" fill="#ED2980"/>
<path d="M618.656 296.058C618.656 296.058 648.755 293.291 663.102 313.771C671.884 326.308 684.196 355.106 684.196 355.106L644.118 362.032L618.656 296.058Z" fill="#ED2980"/>
<g opacity="0.3">
<path opacity="0.3" d="M636.907 356.796C634.872 352.634 631.696 349.137 627.75 346.711C623.803 344.285 619.249 343.03 614.617 343.093C612.612 343.093 610.353 343.631 609.291 345.322C608.229 347.012 608.812 349.436 609.59 351.395C610.593 353.954 611.924 356.661 614.377 357.888C616.173 358.786 618.282 358.741 620.212 359.384C622.515 360.269 624.62 361.601 626.405 363.304C628.007 364.497 629.389 365.96 630.489 367.627C631.229 369.04 631.763 370.551 632.075 372.115C634.035 379.805 635.591 395.677 637.535 403.367L639.69 396.739C639.75 390.416 639.804 384.093 639.854 377.77C639.914 370.589 639.914 363.229 636.907 356.796Z" fill="black"/>
</g>
<path d="M600.973 396.021C600.973 395.901 602.469 396.171 605.072 396.365C608.358 396.625 611.662 396.545 614.931 396.126C618.201 395.687 621.419 394.921 624.535 393.837C626.929 392.999 628.365 392.341 628.41 392.446C628.125 392.683 627.807 392.88 627.467 393.029C626.574 393.504 625.655 393.928 624.715 394.301C618.468 396.783 611.702 397.668 605.027 396.874C604.021 396.757 603.022 396.583 602.035 396.35C601.665 396.303 601.306 396.191 600.973 396.021V396.021Z" fill="#263238"/>
<path d="M550.528 398.086C550.528 397.906 566.984 402.574 587.045 408.558C607.107 414.542 623.443 419.449 623.383 419.643C623.323 419.837 606.927 415.155 586.851 409.171C566.775 403.187 550.528 398.28 550.528 398.086Z" fill="#263238"/>
<g opacity="0.3">
<path opacity="0.3" d="M601.796 396.216C603.27 398.401 605.313 400.143 607.704 401.252C610.095 402.362 612.744 402.798 615.365 402.514C617.866 402.233 620.234 401.238 622.185 399.646C624.135 398.053 625.585 395.933 626.36 393.538C618.545 396.554 610.077 397.478 601.796 396.216V396.216Z" fill="black"/>
</g>
<g opacity="0.3">
<path opacity="0.3" d="M619 418.147L618.581 418.312C608.259 420.152 598.58 418.312 588.661 414.781C578.743 411.25 569.557 406.194 560.417 401.063L619 418.147Z" fill="black"/>
</g>
<path d="M534.491 287.471C534.491 287.471 515.432 289.805 508.042 306.082C502.963 317.69 498.665 329.625 495.176 341.806L534.072 350.558C534.072 350.558 540.191 317.646 540.654 306.082C541.178 293.381 541.687 287.097 534.491 287.471Z" fill="#ED2980"/>
<path d="M530.826 355.764C530.481 352.139 530.371 348.497 530.497 344.858C530.389 341.223 530.514 337.586 530.871 333.967C531.216 337.586 531.326 341.224 531.2 344.858C531.307 348.498 531.182 352.14 530.826 355.764V355.764Z" fill="#263238"/>
<path d="M551.934 183.185C562.212 170.619 576.035 163.378 592.326 163.109C601.482 162.959 605.282 164.859 611.879 166.639C618.473 168.234 624.297 172.094 628.335 177.545C633.017 184.188 636.952 191.623 637.835 199.686C638.732 207.989 639.645 216.337 639.016 224.654C638.388 232.972 636.144 241.335 631.237 248.097L610.069 251.777C598.37 252.166 586.522 252.555 575.137 249.892C563.753 247.229 552.697 241.095 546.594 231.117C538.126 217.249 541.642 195.767 551.934 183.185Z" fill="#263238"/>
<path d="M624.819 260.005C624.819 260.005 625.163 260.528 626.091 261.112C627.411 261.932 628.899 262.443 630.444 262.608C632.775 262.866 635.129 262.39 637.176 261.246C639.663 259.741 641.473 257.336 642.231 254.53C642.989 251.724 642.636 248.734 641.245 246.182C640.055 244.166 638.267 242.571 636.129 241.619C634.72 240.982 633.187 240.665 631.641 240.691C631.075 240.652 630.508 240.76 629.995 241.006C631.998 241.086 633.967 241.543 635.8 242.352C637.685 243.333 639.244 244.84 640.288 246.69C641.44 248.991 641.704 251.635 641.031 254.119C640.358 256.602 638.794 258.751 636.638 260.154C634.83 261.222 632.751 261.741 630.654 261.65C628.621 261.486 626.639 260.927 624.819 260.005V260.005Z" fill="#E0E0E0"/>
<path d="M531.409 244.626C531.611 242.216 532.362 239.885 533.604 237.811C534.846 235.736 536.547 233.974 538.575 232.658C540.636 231.409 543.041 230.848 545.443 231.055C547.844 231.262 550.117 232.227 551.934 233.81L555.27 237.774C557.848 238.971 559.989 240.941 561.396 243.41C562.803 245.879 563.408 248.725 563.124 251.552C562.738 254.37 561.556 257.02 559.717 259.19C557.878 261.36 555.458 262.961 552.742 263.805C550.007 264.573 547.121 264.626 544.36 263.958C541.598 263.29 539.055 261.924 536.974 259.99C534.939 258.021 533.38 255.614 532.415 252.951C531.451 250.289 531.107 247.441 531.409 244.626V244.626Z" fill="#263238"/>
<path d="M535.568 258.898C534.754 257.646 534.357 256.17 534.431 254.679C534.611 251.971 536.57 248.426 539.263 245.179C541.63 242.39 544.51 240.079 547.745 238.373C550.229 237.041 551.934 236.562 551.874 236.383C550.303 236.514 548.775 236.967 547.386 237.714C543.923 239.276 540.855 241.598 538.41 244.506C537.054 246.09 535.903 247.839 534.985 249.712C534.157 251.237 533.691 252.931 533.623 254.664C533.592 255.851 533.92 257.019 534.566 258.015C535.164 258.703 535.568 258.943 535.568 258.898Z" fill="#455A64"/>
<path d="M545.846 265.151C546.19 265.151 544.754 258.733 546.788 251.163C548.823 243.594 553.101 238.717 552.772 238.522C551.653 239.387 550.704 240.452 549.975 241.664C548.033 244.474 546.6 247.603 545.741 250.909C544.879 254.211 544.596 257.638 544.903 261.037C544.965 262.454 545.284 263.848 545.846 265.151V265.151Z" fill="#455A64"/>
<path d="M610.069 286.11C609.934 278.63 609.755 272.646 609.755 272.646C609.755 272.646 627.019 270.746 631.776 248.635C634.154 237.64 634.588 219.403 634.469 204.488C634.364 191.024 622.92 172.773 606.344 172.713L598.969 171.846L570.754 183.066C568.785 183.158 566.922 183.988 565.536 185.391C564.151 186.793 563.343 188.665 563.274 190.635L562.496 285.093L589.768 351.306L609.336 324.782L610.069 286.11Z" fill="#936760"/>
<path d="M598.609 243.444C598.774 242.311 599.349 241.278 600.225 240.542C601.028 239.852 602.035 239.444 603.092 239.382C604.148 239.32 605.196 239.606 606.074 240.198C606.985 240.898 607.691 241.829 608.12 242.895C608.549 243.96 608.684 245.121 608.513 246.257V246.257C608.03 246.937 607.405 247.506 606.682 247.924C605.96 248.343 605.155 248.6 604.324 248.68C604.06 248.695 603.795 248.695 603.531 248.68C602.215 248.674 600.949 248.172 599.986 247.274C599.482 246.781 599.097 246.18 598.858 245.517C598.62 244.854 598.535 244.145 598.609 243.444V243.444Z" fill="#6F4C47"/>
<path d="M623.503 219.747C623.472 220.495 623.149 221.2 622.603 221.712C622.058 222.224 621.334 222.501 620.586 222.485C620.22 222.495 619.856 222.432 619.515 222.299C619.174 222.166 618.863 221.965 618.601 221.71C618.339 221.455 618.131 221.15 617.989 220.813C617.846 220.476 617.773 220.113 617.773 219.747C617.808 219.001 618.132 218.298 618.677 217.787C619.221 217.276 619.944 216.997 620.69 217.01C621.056 217 621.42 217.063 621.761 217.196C622.102 217.329 622.413 217.53 622.675 217.785C622.937 218.04 623.145 218.345 623.288 218.682C623.43 219.019 623.503 219.382 623.503 219.747V219.747Z" fill="#263238"/>
<path d="M628.978 212.761C628.604 213.105 626.525 211.385 623.443 211.265C620.361 211.145 618.028 212.522 617.713 212.133C617.399 211.744 617.953 211.295 618.97 210.637C620.358 209.792 621.97 209.39 623.593 209.485C625.196 209.571 626.73 210.163 627.976 211.175C628.873 211.908 629.158 212.597 628.978 212.761Z" fill="#263238"/>
<path d="M609.635 236.084C611.282 235.659 612.976 235.447 614.677 235.455C615.469 235.455 616.173 235.306 616.382 234.767C616.5 233.963 616.364 233.142 615.993 232.419C615.35 230.474 614.692 228.424 613.988 226.3C611.236 217.593 609.276 210.457 609.635 210.353C609.994 210.248 612.507 217.204 615.26 225.911C615.918 228.05 616.561 230.1 617.16 232.06C617.606 233.03 617.691 234.128 617.399 235.156C617.273 235.43 617.084 235.671 616.848 235.858C616.611 236.045 616.334 236.174 616.038 236.233C615.597 236.336 615.144 236.376 614.692 236.353C613.001 236.483 611.302 236.392 609.635 236.084Z" fill="#263238"/>
<path d="M609.755 272.631C599.241 272.216 589.049 268.891 580.313 263.027C580.313 263.027 587.419 278.929 609.874 278.062L609.755 272.631Z" fill="#6F4C47"/>
<path d="M600.45 237.714C600.958 237.714 600.779 241.051 603.442 243.579C606.104 246.107 609.755 245.942 609.755 246.406C609.755 246.616 608.932 247.02 607.421 246.975C605.461 246.892 603.592 246.125 602.14 244.805C600.756 243.533 599.914 241.775 599.791 239.899C599.806 238.492 600.225 237.685 600.45 237.714Z" fill="#263238"/>
<path d="M628.32 201.152C627.766 201.87 625.433 201.242 622.665 201.317C619.898 201.392 617.579 201.99 617.01 201.317C616.756 200.973 617.1 200.255 618.087 199.551C619.445 198.67 621.032 198.207 622.65 198.22C624.259 198.165 625.848 198.592 627.213 199.447C628.32 200.09 628.604 200.793 628.32 201.152Z" fill="#263238"/>
<path d="M587.674 218.94C587.637 219.695 587.902 220.434 588.409 220.995C588.917 221.556 589.626 221.893 590.382 221.932C590.744 221.964 591.11 221.925 591.458 221.815C591.805 221.705 592.127 221.528 592.406 221.293C592.684 221.057 592.913 220.769 593.079 220.445C593.245 220.121 593.345 219.767 593.374 219.403C593.41 218.648 593.146 217.909 592.638 217.348C592.131 216.787 591.421 216.45 590.666 216.411C590.302 216.377 589.936 216.415 589.588 216.524C589.239 216.632 588.916 216.81 588.637 217.045C588.359 217.281 588.13 217.57 587.964 217.895C587.799 218.22 587.7 218.576 587.674 218.94Z" fill="#263238"/>
<path d="M586.791 211.654C587.135 212.028 589.334 210.457 592.416 210.517C595.498 210.577 597.727 212.163 598.071 211.789C598.415 211.415 597.891 210.951 596.919 210.293C595.611 209.346 594.045 208.824 592.431 208.797C590.828 208.758 589.254 209.235 587.943 210.158C586.941 210.816 586.612 211.475 586.791 211.654Z" fill="#263238"/>
<path d="M585.011 205.027C585.609 205.745 588.003 205.027 590.86 205.027C593.718 205.027 596.141 205.595 596.71 204.862C596.949 204.518 596.59 203.815 595.543 203.127C594.106 202.286 592.464 201.862 590.8 201.9C589.146 201.888 587.523 202.344 586.118 203.217C585.101 203.965 584.756 204.683 585.011 205.027Z" fill="#263238"/>
<path d="M567.134 228.125C567.223 226.45 565.518 222.44 563.887 222.141C559.549 221.229 551.62 221.139 550.947 232.269C550.004 247.468 565.458 245.269 565.518 244.835C565.578 244.402 566.834 233.855 567.134 228.125Z" fill="#936760"/>
<path d="M561.673 238.971C561.598 238.971 561.389 239.136 560.925 239.315C560.282 239.543 559.575 239.516 558.951 239.24C557.38 238.552 556.183 235.904 556.273 233.167C556.314 231.858 556.647 230.576 557.245 229.412C557.413 228.943 557.696 228.524 558.066 228.192C558.437 227.861 558.885 227.627 559.369 227.512C559.676 227.452 559.993 227.501 560.267 227.652C560.54 227.802 560.752 228.044 560.865 228.334C561.045 228.768 560.94 229.068 561.015 229.097C561.09 229.127 561.359 228.858 561.269 228.23C561.211 227.848 561.021 227.498 560.731 227.242C560.529 227.062 560.291 226.926 560.034 226.844C559.776 226.761 559.504 226.734 559.235 226.764C558.602 226.846 558.001 227.09 557.489 227.473C556.978 227.856 556.575 228.364 556.318 228.948C555.594 230.224 555.188 231.656 555.136 233.122C555.046 236.203 556.437 239.106 558.606 239.928C559.006 240.072 559.433 240.123 559.855 240.079C560.277 240.035 560.684 239.897 561.045 239.674C561.613 239.36 561.718 239.001 561.673 238.971Z" fill="#6F4C47"/>
<path d="M563.259 222.126L567.134 226.135C583.814 210.173 616.427 170.185 614.602 172.564C606.999 169.725 598.806 168.835 590.77 169.976C578.354 172.085 554.866 178.293 555.196 192.939C555.525 207.585 563.259 222.126 563.259 222.126Z" fill="#263238"/>
<path d="M563.618 260.005C563.618 260.005 563.274 260.528 562.361 261.112C561.037 261.934 559.543 262.445 557.993 262.608C555.667 262.866 553.318 262.39 551.276 261.247C548.79 259.741 546.979 257.337 546.219 254.532C545.458 251.727 545.807 248.737 547.192 246.182C548.387 244.165 550.181 242.571 552.323 241.619C553.732 240.979 555.265 240.662 556.811 240.691C557.382 240.657 557.953 240.765 558.472 241.006C556.476 241.108 554.517 241.585 552.697 242.412C550.814 243.394 549.255 244.901 548.209 246.75C547.057 249.051 546.793 251.695 547.466 254.179C548.139 256.662 549.703 258.81 551.86 260.214C553.695 261.295 555.806 261.815 557.933 261.71C559.92 261.512 561.85 260.933 563.618 260.005V260.005Z" fill="#E0E0E0"/>
<path d="M541.163 218.775C541.216 218.474 541.296 218.179 541.402 217.892C541.678 217.067 542.023 216.266 542.435 215.499C544.008 212.681 546.178 210.24 548.793 208.348C552.673 205.578 556.999 203.494 561.584 202.184C566.67 200.539 572.415 199.192 578.04 196.829C583.334 194.613 588.354 191.792 593 188.421C596.808 185.656 600.358 182.552 603.606 179.146C605.786 176.84 607.834 174.413 609.74 171.875L611.236 169.766C611.421 169.506 611.631 169.266 611.864 169.048C611.758 169.332 611.612 169.599 611.43 169.841C611.101 170.349 610.652 171.097 609.934 172.025C608.12 174.658 606.12 177.157 603.95 179.505C600.735 182.992 597.194 186.163 593.374 188.975C588.682 192.422 583.594 195.295 578.219 197.532C572.832 199.596 567.339 201.374 561.763 202.858C557.236 204.111 552.949 206.108 549.077 208.767C546.489 210.591 544.304 212.928 542.659 215.633C541.552 217.593 541.253 218.805 541.163 218.775Z" fill="#455A64"/>
<path d="M545.591 221.169C545.553 220.032 545.757 218.9 546.19 217.848C547.332 214.939 549.323 212.442 551.904 210.682C555.076 208.318 559.609 206.852 564.59 205.715C570.016 204.633 575.304 202.952 580.358 200.703C585.385 198.401 590.108 195.487 594.421 192.027C597.934 189.192 601.16 186.02 604.055 182.557C605.998 180.209 607.792 177.74 609.426 175.167L610.712 173.042C610.852 172.787 611.017 172.546 611.206 172.324C611.128 172.606 611.007 172.873 610.847 173.117C610.548 173.701 610.159 174.434 609.68 175.331C608.135 177.981 606.395 180.511 604.474 182.901C598.09 190.837 589.946 197.178 580.687 201.421C575.586 203.701 570.241 205.387 564.755 206.448C559.773 207.555 555.345 208.931 552.219 211.175C549.686 212.848 547.692 215.217 546.474 217.997C546.082 219.025 545.786 220.086 545.591 221.169V221.169Z" fill="#455A64"/>
<path d="M466.872 344.678C466.019 344.364 464.897 332.262 464.897 332.262C464.897 332.262 452.794 322.582 451.149 318.648C449.503 314.714 449.743 305.334 449.743 305.334L469.565 291.87C469.565 291.87 481.278 302.342 484.345 306.471C486.066 308.774 487.337 315.132 488.235 320.279C488.952 324.654 489.118 329.102 488.728 333.518L488.444 336.929C488.444 336.929 480.47 349.735 466.872 344.678Z" fill="#936760"/>
<path d="M452.061 321.027C450.636 319.761 449.283 318.418 448.007 317.002C445.434 314.22 442.577 311.617 445.015 308.67C445.381 308.183 445.847 307.779 446.381 307.485C446.914 307.191 447.505 307.013 448.112 306.964C448.112 306.964 446.616 304.376 447.917 302.746C448.284 302.264 448.76 301.877 449.307 301.617C449.853 301.357 450.454 301.231 451.059 301.25C451.059 301.25 449.129 297.539 450.909 295.041C451.588 294.129 452.507 293.424 453.565 293.007C454.622 292.589 455.775 292.475 456.893 292.677C456.893 292.677 448.86 276.311 448.381 275.473C446.586 272.377 446.751 268.996 450.341 268.622C451.657 268.487 452.794 269.519 456.205 274.606C459.616 279.692 465.331 288.294 465.331 288.294C465.331 288.294 471.569 293.575 474.696 296.537C477.822 299.499 484.36 306.441 485.452 308.505C488.25 313.876 487.651 322.523 487.651 322.523L464.912 332.262C464.912 332.262 453.527 322.328 452.061 321.027Z" fill="#936760"/>
<path d="M448.8 307.533C449.743 308.089 450.643 308.714 451.493 309.403L454.35 311.527C454.928 311.943 455.469 312.409 455.966 312.918C456.548 313.484 456.926 314.225 457.043 315.028C457.118 315.443 457.079 315.87 456.932 316.265C456.784 316.659 456.533 317.007 456.205 317.272C455.569 317.713 454.786 317.89 454.021 317.765C453.381 317.698 452.75 317.568 452.136 317.376C451.553 317.212 451.029 317.047 450.535 316.883C449.578 316.569 448.8 316.284 448.276 316.06C447.753 315.836 447.484 315.701 447.499 315.656C447.513 315.611 448.71 316 450.64 316.539C451.76 316.883 452.906 317.138 454.066 317.302C454.704 317.378 455.35 317.23 455.891 316.883C456.145 316.665 456.337 316.385 456.45 316.07C456.563 315.755 456.592 315.417 456.534 315.088C456.421 314.395 456.091 313.756 455.592 313.262C455.133 312.767 454.632 312.312 454.096 311.901L451.298 309.672C450.405 309.033 449.569 308.317 448.8 307.533V307.533Z" fill="#6F4C47"/>
<path d="M468.592 302.686C467.947 301.541 467.583 300.259 467.53 298.946C467.303 297.654 467.38 296.328 467.754 295.071C467.919 295.071 467.754 296.806 468.039 298.901C468.323 300.995 468.742 302.641 468.592 302.686Z" fill="#6F4C47"/>
<path d="M479.603 304.346C476.71 303.052 473.505 302.621 470.372 303.105C467.252 303.586 464.225 304.545 461.396 305.947C459.123 307.024 456.639 308.61 456.325 311.108C456.011 313.607 458.36 316 460.903 316.494C463.491 316.781 466.104 316.259 468.383 314.998C470.643 313.707 473.055 312.702 475.564 312.006" fill="#936760"/>
<path d="M475.593 312.081C475.593 312.081 474.92 312.245 473.738 312.694C472.1 313.364 470.497 314.118 468.936 314.953C467.837 315.519 466.691 315.99 465.51 316.359C464.137 316.81 462.683 316.958 461.247 316.793C459.619 316.581 458.139 315.744 457.118 314.459C456.562 313.786 456.2 312.974 456.071 312.111C455.976 311.207 456.153 310.295 456.579 309.493C457.507 308.028 458.844 306.868 460.424 306.156C461.823 305.455 463.261 304.835 464.732 304.301C467.228 303.367 469.863 302.862 472.527 302.805C474.32 302.762 476.106 303.03 477.808 303.598C478.273 303.753 478.728 303.938 479.169 304.152C479.322 304.221 479.467 304.306 479.603 304.406C479.603 304.406 478.959 304.137 477.748 303.793C476.05 303.318 474.288 303.111 472.527 303.179C469.911 303.3 467.333 303.851 464.897 304.81C463.449 305.342 462.036 305.961 460.663 306.665C459.176 307.337 457.918 308.429 457.043 309.807C456.654 310.503 456.497 311.304 456.594 312.096C456.703 312.868 457.018 313.597 457.507 314.205C458.452 315.387 459.809 316.168 461.307 316.389C462.679 316.549 464.07 316.421 465.391 316.015C466.557 315.665 467.693 315.219 468.787 314.684C470.372 313.876 472.006 313.167 473.679 312.559C474.139 312.408 474.608 312.288 475.085 312.2C475.248 312.137 475.419 312.096 475.593 312.081V312.081Z" fill="#6F4C47"/>
<path d="M449.084 307.742C452.869 310.57 456.564 313.876 459.975 317.062C460.909 318.085 462.095 318.844 463.416 319.261C464.478 319.486 466.318 317.765 467.171 317.017L454.949 304.182" fill="#936760"/>
<path d="M454.949 304.182C455.321 304.447 455.662 304.753 455.966 305.094L458.599 307.757C460.828 310.031 463.91 313.218 467.365 316.838L467.545 317.032L467.335 317.212C466.683 317.798 465.999 318.347 465.286 318.857C464.978 319.061 464.653 319.236 464.314 319.381C464.132 319.456 463.94 319.501 463.745 319.516C463.548 319.556 463.344 319.556 463.147 319.516C462.469 319.316 461.835 318.991 461.277 318.558C460.185 317.721 459.317 316.808 458.404 316C456.609 314.354 454.993 312.888 453.617 311.677C452.241 310.465 451.089 309.507 450.296 308.849C449.87 308.526 449.465 308.177 449.084 307.802C449.559 308.053 450.005 308.354 450.416 308.7C451.253 309.298 452.435 310.196 453.842 311.392C455.248 312.589 456.923 314.01 458.718 315.656C459.631 316.449 460.544 317.376 461.576 318.154C462.085 318.548 462.663 318.843 463.281 319.022C463.587 319.058 463.898 319.028 464.192 318.935C464.486 318.842 464.757 318.688 464.987 318.483C465.688 317.987 466.363 317.453 467.006 316.883V317.152C463.551 313.517 460.529 310.285 458.359 307.952L455.831 305.184C455.517 304.868 455.223 304.533 454.949 304.182V304.182Z" fill="#6F4C47"/>
<path d="M451.508 300.292L463.835 314.175C464.651 315.212 465.637 316.102 466.752 316.808C467.311 317.157 467.949 317.362 468.607 317.403C469.265 317.445 469.923 317.323 470.522 317.047C471.267 316.532 471.819 315.783 472.09 314.918C472.361 314.054 472.335 313.124 472.018 312.275C471.353 310.583 470.332 309.052 469.026 307.787C465.306 303.568 461.92 299.067 458.898 294.323" fill="#936760"/>
<path d="M458.928 294.278C458.928 294.278 459.063 294.413 459.272 294.712L460.17 296.014C460.963 297.136 462.099 298.751 463.566 300.711C465.032 302.671 466.872 304.93 468.996 307.368C470.198 308.589 471.207 309.987 471.988 311.512C472.379 312.374 472.529 313.325 472.422 314.265C472.344 315.259 471.896 316.188 471.165 316.868C470.783 317.192 470.335 317.428 469.851 317.56C469.368 317.692 468.861 317.716 468.368 317.631C467.433 317.492 466.551 317.11 465.81 316.524C464.529 315.391 463.343 314.155 462.264 312.829L456.594 306.351C455.023 304.541 453.752 303.045 452.809 301.953L451.792 300.696C451.665 300.56 451.554 300.409 451.463 300.247C451.463 300.247 451.612 300.367 451.867 300.621L452.959 301.773L456.863 306.067L462.623 312.47C463.693 313.762 464.863 314.968 466.124 316.075C466.796 316.606 467.595 316.952 468.443 317.077C468.864 317.147 469.296 317.126 469.709 317.015C470.122 316.904 470.506 316.706 470.836 316.434C471.467 315.837 471.851 315.026 471.913 314.16C472.011 313.312 471.876 312.454 471.524 311.677C470.737 310.187 469.728 308.825 468.532 307.637C466.408 305.184 464.613 302.865 463.177 300.876C461.74 298.886 460.633 297.24 459.9 296.073C459.541 295.49 459.257 295.041 459.078 294.727C459.012 294.583 458.962 294.433 458.928 294.278V294.278Z" fill="#6F4C47"/>
<path d="M477.733 326.128C477.273 326.37 476.755 326.479 476.237 326.442C475.022 326.509 473.809 326.293 472.691 325.814C471.55 325.355 470.527 324.644 469.699 323.734C469.338 323.38 469.066 322.944 468.906 322.463C469.98 323.715 471.333 324.699 472.855 325.335C474.377 325.972 476.027 326.243 477.673 326.128H477.733Z" fill="#6F4C47"/>
<path d="M634.499 286.993L630.19 341.357C630.117 342.288 629.681 343.152 628.975 343.762C628.269 344.373 627.351 344.68 626.42 344.619L596.126 342.584C595.653 342.556 595.19 342.433 594.765 342.222C594.34 342.011 593.962 341.717 593.653 341.356C593.345 340.996 593.112 340.577 592.969 340.125C592.825 339.673 592.775 339.197 592.82 338.724L597.772 284.405C597.852 283.482 598.29 282.628 598.991 282.024C599.693 281.421 600.603 281.115 601.527 281.173L631.192 283.103C631.667 283.135 632.131 283.262 632.556 283.476C632.981 283.69 633.359 283.987 633.667 284.35C633.975 284.712 634.208 285.133 634.35 285.587C634.493 286.041 634.544 286.519 634.499 286.993V286.993Z" fill="#455A64"/>
<path d="M677.868 356.198C677.868 356.198 686.918 417.354 686.559 425.567C686.2 433.78 676.91 452.016 664.404 453.797C651.897 455.577 640.109 444.147 639.749 429.143C639.39 414.138 637.535 366.685 637.535 366.685L646.87 361.538L677.868 356.198Z" fill="#936760"/>
<path d="M626.33 305.663C626.33 305.663 635.695 311.422 638.463 312.933C641.23 314.444 640.871 325.604 640.871 325.604L656.639 362.256L637.64 369.063C637.64 369.063 630.863 356.242 628.918 354.627C627.587 353.58 626.062 352.807 624.43 352.353C624.43 352.353 623.458 355.913 620.541 354.298C618.226 352.77 616.15 350.91 614.377 348.777C614.377 348.777 611.774 350.408 610.802 348.463C609.829 346.518 608.214 342.3 608.214 342.3C608.214 342.3 613.719 335.164 615.993 335.164C618.267 335.164 629.936 335.807 629.936 335.807C629.936 335.807 629.292 334.835 626.046 333.548C622.8 332.262 603.501 326.562 602.589 326.218C601.227 325.694 599.702 322.149 603.92 321.82C608.139 321.49 631.881 325.739 631.881 325.739C631.881 325.739 633.182 319.605 632.21 318.259C631.237 316.913 622.755 311.497 626.33 305.663Z" fill="#936760"/>
<path d="M614.303 348.568C614.138 347.685 614.163 346.777 614.377 345.905C614.581 344.89 615.106 343.967 615.873 343.272C616.884 342.54 618.112 342.171 619.359 342.225C621.491 342.088 623.63 342.163 625.747 342.449C626.632 342.507 627.501 342.709 628.32 343.048C628.32 343.272 624.311 342.599 619.344 342.928C618.245 342.873 617.156 343.166 616.233 343.766C615.563 344.366 615.088 345.153 614.871 346.025C614.727 346.882 614.537 347.731 614.303 348.568V348.568Z" fill="#6F4C47"/>
<path d="M618.073 349.66C619.314 350.168 620.528 350.743 621.708 351.381C622.985 351.8 624.234 352.299 625.448 352.877C624.052 352.969 622.657 352.669 621.424 352.009C620.1 351.572 618.934 350.755 618.073 349.66V349.66Z" fill="#6F4C47"/>
<path d="M630.759 325.604C632.021 325.795 633.192 326.374 634.109 327.262C635.026 328.15 635.643 329.301 635.875 330.556C635.68 330.556 635.037 329.06 633.616 327.774C632.195 326.487 630.684 325.799 630.759 325.604Z" fill="#6F4C47"/>
<path d="M468.876 652.884C468.667 652.884 476.835 618.476 487.128 576.17C497.42 533.863 505.917 499.664 506.127 499.664C506.336 499.664 498.168 534.072 487.876 576.394C477.583 618.716 469.086 652.929 468.876 652.884Z" fill="#455A64"/>
<path d="M692.753 702.821C692.753 703.03 550.034 703.21 374.015 703.21C197.996 703.21 55.2323 703.03 55.2323 702.821C55.2323 702.611 197.936 702.432 374.015 702.432C550.094 702.432 692.753 702.596 692.753 702.821Z" fill="#263238"/>
<path d="M618.446 163.333L622.845 147.461C617.022 138.027 614.939 126.756 617.006 115.865C619.072 104.973 625.138 95.2482 634.011 88.6023C642.884 81.9565 653.922 78.8703 664.955 79.9505C675.989 81.0308 686.219 86.1993 693.634 94.4399C701.05 102.681 705.114 113.397 705.029 124.483C704.943 135.568 700.714 146.221 693.172 154.346C685.631 162.472 675.322 167.482 664.274 168.392C653.225 169.302 642.236 166.046 633.466 159.264V159.264L618.446 163.333Z" fill="white"/>
<path d="M618.446 163.333L619.449 163.034L622.336 162.226L633.436 159.115L633.332 159.399C633.302 159.366 633.286 159.323 633.286 159.279C633.286 159.235 633.302 159.192 633.332 159.159C633.365 159.138 633.404 159.127 633.444 159.127C633.484 159.127 633.522 159.138 633.556 159.159C639.453 163.685 646.402 166.64 653.752 167.746C658.457 168.469 663.249 168.409 667.934 167.567C676.66 166.052 684.727 161.943 691.083 155.776C697.44 149.609 701.79 141.67 703.569 132.994C704.865 126.368 704.64 119.534 702.911 113.008C701.138 106.192 697.737 99.9077 692.999 94.6961C688.262 89.4845 682.33 85.501 675.713 83.0878C668.918 80.5929 661.611 79.8134 654.442 80.8184C647.273 81.8235 640.462 84.5821 634.614 88.8495C628.767 93.117 624.062 98.7615 620.918 105.282C617.774 111.803 616.288 119 616.591 126.232C616.904 133.688 619.108 140.941 622.994 147.311C623.009 147.36 623.009 147.412 622.994 147.461C621.498 152.562 620.406 156.437 619.628 159.174C619.254 160.506 618.955 161.508 618.746 162.166C618.536 162.825 618.431 163.229 618.431 163.229C618.431 163.229 618.506 162.899 618.671 162.226C618.835 161.553 619.12 160.521 619.479 159.234C620.197 156.497 621.274 152.502 622.65 147.266V147.416C617.943 139.848 615.629 131.036 616.011 122.132C616.393 113.228 619.452 104.647 624.789 97.5093C631.634 88.3702 641.714 82.1945 652.965 80.2475C664.216 78.3005 675.785 80.7297 685.303 87.0373C688.268 89.0482 690.989 91.3978 693.411 94.0386C695.851 96.7125 697.975 99.6592 699.739 102.82C704.673 112.075 706.258 122.75 704.227 133.039C702.422 141.848 697.996 149.904 691.53 156.152C685.063 162.399 676.859 166.545 667.994 168.046C663.242 168.885 658.383 168.925 653.617 168.165C646.194 166.978 639.193 163.926 633.272 159.294L633.526 159.055C633.542 159.07 633.555 159.089 633.564 159.109C633.573 159.13 633.578 159.152 633.578 159.174C633.578 159.197 633.573 159.219 633.564 159.24C633.555 159.26 633.542 159.279 633.526 159.294V159.294L622.231 162.286L619.344 163.064L618.446 163.333Z" fill="#263238"/>
<path d="M640.752 125.35L645.928 120.159L655.921 129.045L675.534 110.165L680.351 115.357L655.188 139.038L640.752 125.35Z" fill="#ED2980"/>
</svg>
