<svg width="381" height="268" viewBox="0 0 381 268" fill="none" xmlns="http://www.w3.org/2000/svg">
<path d="M227.878 37.4612H183.057V84.9293H227.878V37.4612Z" fill="#EBEBEB"/>
<path d="M227.635 38.0828C227.635 38.0828 227.605 38.1311 227.539 38.2168L227.23 38.5867L226.066 40.0071C225.054 41.2345 223.535 42.998 221.622 45.1527C217.836 49.4728 212.511 55.3367 206.477 61.6615C200.444 67.9863 194.775 73.5178 190.634 77.4628C188.569 79.4352 186.883 81.0164 185.709 82.0938L184.353 83.332L183.993 83.6536C183.912 83.7232 183.872 83.7554 183.867 83.75L183.978 83.6321C184.064 83.541 184.175 83.4338 184.317 83.2944L185.638 82.0134L190.508 77.318C194.608 73.3356 200.211 67.7719 206.254 61.4632C212.298 55.1544 217.643 49.312 221.46 45.024L225.965 39.9374L227.195 38.5545L227.519 38.2008C227.584 38.1204 227.63 38.056 227.635 38.0828Z" fill="#E0E0E0"/>
<path d="M227.883 84.9241C227.883 84.9241 227.838 84.8919 227.757 84.8115L227.412 84.4631L226.096 83.1017L221.268 78.0793C217.163 73.8449 211.514 68.0186 205.278 61.5759C199.042 55.1332 193.53 49.1246 189.622 44.6919C187.673 42.4782 186.119 40.6665 185.066 39.3909L183.852 37.9276L183.548 37.5202C183.477 37.4345 183.447 37.3862 183.452 37.3809L183.568 37.5041L183.897 37.8686L185.147 39.2997C186.226 40.5486 187.805 42.3389 189.769 44.5365C193.691 48.9317 199.229 54.8866 205.46 61.3561C211.691 67.8257 217.35 73.6466 221.399 77.9185C223.424 80.0625 225.054 81.7885 226.167 83.0052L227.448 84.4041L227.777 84.774L227.883 84.9241Z" fill="#E0E0E0"/>
<path d="M74.757 33.7307H17.6714V121.356H74.757V33.7307Z" fill="#E0E0E0"/>
<path d="M71.8971 33.7307H14.8115V121.356H71.8971V33.7307Z" fill="#F5F5F5"/>
<path d="M64.811 43.2231H21.9082V111.869H64.811V43.2231Z" fill="white"/>
<path d="M64.8112 111.863C64.8112 111.863 64.8112 111.751 64.8112 111.531C64.8112 111.311 64.8112 110.995 64.8112 110.555C64.8112 109.692 64.8112 108.411 64.8112 106.803C64.8112 103.512 64.8112 98.7205 64.7707 92.6637C64.7707 80.5555 64.7302 63.4196 64.7049 43.2338L64.8466 43.3839L21.9134 43.4161L22.0653 43.2499C22.0653 69.1441 22.0653 93.0175 22.0349 111.89L21.9134 111.761L53.1389 111.831L61.7691 111.863H64.0317H64.8162C64.8162 111.863 64.5631 111.863 64.057 111.863H61.8147L53.2098 111.895L21.9084 112.024H21.7818V111.89C21.7818 93.0175 21.7818 69.1441 21.7515 43.2499V43.0837H21.9134H64.8112H64.9529V43.2338C64.9225 63.4571 64.8972 80.6305 64.882 92.7602C64.882 98.8009 64.8517 103.587 64.8415 106.868C64.8415 108.476 64.8415 109.746 64.8415 110.62C64.8415 111.032 64.8415 111.354 64.8415 111.574C64.8415 111.794 64.8112 111.863 64.8112 111.863Z" fill="#E0E0E0"/>
<path d="M72.0641 33.7307C71.7708 34.2829 71.432 34.8067 71.0518 35.2958C70.3887 36.2392 69.4472 37.5149 68.3691 38.8978C67.2909 40.2806 66.2938 41.5027 65.5497 42.371C65.1693 42.8608 64.7493 43.3146 64.2944 43.7271C64.6159 43.1914 64.98 42.6857 65.3827 42.2156L68.1413 38.6887L70.8847 35.1565C71.239 34.6466 71.6335 34.1697 72.0641 33.7307Z" fill="#E0E0E0"/>
<path d="M65.0288 111.644C67.1618 115.235 69.6714 118.56 72.51 121.554L65.0288 111.644Z" fill="white"/>
<path d="M72.51 121.554C72.0362 121.183 71.5987 120.763 71.2041 120.3C70.2115 119.227 69.2706 118.102 68.3847 116.929C67.496 115.755 66.6664 114.533 65.8994 113.268C65.5562 112.766 65.2643 112.227 65.0288 111.66C65.4128 112.131 65.7647 112.631 66.0816 113.155C66.7093 114.088 67.6001 115.369 68.6125 116.736C69.6248 118.102 70.6371 119.298 71.3508 120.155C71.77 120.59 72.1574 121.058 72.51 121.554Z" fill="#E0E0E0"/>
<path d="M14.8066 121.286L22.2827 111.515L14.8066 121.286Z" fill="white"/>
<path d="M22.2827 111.515C22.3485 111.574 20.7288 113.809 18.6636 116.505C16.5985 119.201 14.8724 121.329 14.8066 121.286C14.7408 121.243 16.3606 118.992 18.4257 116.312C19.6339 114.645 20.9212 113.044 22.2827 111.515Z" fill="#E0E0E0"/>
<path d="M14.8116 33.7305C14.8825 33.6769 16.5073 35.7352 18.4409 38.324C20.3744 40.9129 21.898 43.0676 21.8271 43.148C20.5405 41.6868 19.329 40.1534 18.1979 38.5545C16.2643 35.9388 14.7458 33.768 14.8116 33.7305Z" fill="#E0E0E0"/>
<path d="M51.4432 57.1592H37.0781V100.35H51.4432V57.1592Z" fill="#E0E0E0"/>
<path d="M341.75 85.2242L337.099 83.9056L337.347 82.9194L341.998 84.238L341.75 85.2242ZM332.447 82.5817L327.805 81.2524L328.053 80.2662L332.705 81.5848L332.447 82.5817ZM323.149 79.9393L318.502 78.6207L318.75 77.6344L323.397 78.953L323.149 79.9393ZM313.85 77.2968L309.199 75.9782L309.452 74.992L314.098 76.3105L313.85 77.2968ZM342.489 84.2648L341.558 84.0021L342.808 79.0763L343.735 79.3389L342.489 84.2648ZM306.44 73.4965L305.509 73.2339L306.754 68.3027L307.685 68.5707L306.44 73.4965ZM344.985 74.4131L344.053 74.1504L345.304 69.2192L346.235 69.4873L344.985 74.4131ZM308.936 63.6448L308.004 63.3769L309.254 58.451L310.186 58.7137L308.936 63.6448ZM347.48 64.5561L346.554 64.2934L347.799 59.3676L348.73 59.6302L347.48 64.5561ZM311.431 53.7878L310.5 53.5252L311.75 48.5993L312.681 48.862L311.431 53.7878ZM349.981 54.7044L349.049 54.4417L350.294 49.5105L351.226 49.7785L349.981 54.7044ZM313.926 43.9522L313 43.6842L314.245 38.7584L315.177 39.021L313.926 43.9522ZM349.864 46.4553L345.213 45.1314L345.466 44.1452L350.112 45.4691L349.864 46.4553ZM340.581 43.7914L335.929 42.4675L336.183 41.4812L340.829 42.8052L340.581 43.7914ZM331.283 41.1489L326.631 39.825L326.879 38.8388L331.531 40.1627L331.283 41.1489ZM321.985 38.5064L317.333 37.1825L317.581 36.1963L322.238 37.5202L321.985 38.5064Z" fill="#E0E0E0"/>
<path d="M314.681 40.3126C314.004 40.1209 313.396 39.7208 312.933 39.163C312.471 38.6052 312.175 37.9147 312.084 37.179C311.992 36.4432 312.108 35.6951 312.418 35.0294C312.728 34.3637 313.217 33.8103 313.824 33.4391C314.431 33.0679 315.128 32.8956 315.828 32.944C316.527 32.9925 317.197 33.2595 317.753 33.7113C318.309 34.163 318.726 34.7793 318.952 35.4821C319.177 36.1848 319.2 36.9426 319.019 37.6594C318.776 38.6203 318.182 39.4395 317.369 39.937C316.555 40.4346 315.588 40.5697 314.681 40.3126ZM316.27 34.0468C315.777 33.9063 315.256 33.9239 314.772 34.0971C314.289 34.2704 313.864 34.5917 313.553 35.0203C313.242 35.4489 313.058 35.9656 313.024 36.505C312.99 37.0445 313.108 37.5825 313.363 38.0509C313.618 38.5194 313.998 38.8974 314.456 39.137C314.913 39.3766 315.428 39.4671 315.934 39.3971C316.44 39.3271 316.916 39.0997 317.3 38.7436C317.684 38.3876 317.96 37.9189 318.092 37.3968C318.269 36.6967 318.176 35.9511 317.835 35.3232C317.493 34.6954 316.931 34.2364 316.27 34.0468Z" fill="#E0E0E0"/>
<path d="M350.355 50.4486C349.679 50.2574 349.072 49.8585 348.609 49.3021C348.147 48.7458 347.851 48.0569 347.758 47.3224C347.664 46.588 347.779 45.8407 348.086 45.175C348.394 44.5093 348.881 43.9549 349.485 43.5818C350.09 43.2087 350.785 43.0335 351.484 43.0784C352.182 43.1233 352.853 43.3863 353.41 43.8341C353.968 44.2819 354.388 44.8946 354.617 45.5948C354.846 46.295 354.874 47.0514 354.698 47.7686C354.581 48.2473 354.375 48.6967 354.092 49.0909C353.81 49.485 353.457 49.8162 353.053 50.0653C352.65 50.3143 352.203 50.4764 351.74 50.5422C351.277 50.608 350.807 50.5762 350.355 50.4486ZM351.945 44.1827C351.452 44.0423 350.93 44.0598 350.447 44.2331C349.963 44.4063 349.539 44.7276 349.228 45.1562C348.916 45.5848 348.732 46.1015 348.698 46.6409C348.664 47.1804 348.782 47.7184 349.037 48.1869C349.292 48.6554 349.672 49.0333 350.13 49.2729C350.588 49.5125 351.102 49.6031 351.608 49.533C352.115 49.463 352.59 49.2356 352.974 48.8796C353.358 48.5235 353.634 48.0548 353.767 47.5327C353.855 47.1861 353.878 46.8244 353.834 46.4684C353.79 46.1125 353.68 45.7691 353.511 45.4581C353.342 45.147 353.116 44.8743 352.848 44.6554C352.579 44.4366 352.272 44.276 351.945 44.1827Z" fill="#E0E0E0"/>
<path d="M304.831 79.1887C304.154 78.9984 303.546 78.6002 303.083 78.0442C302.62 77.4882 302.322 76.7994 302.229 76.0647C302.135 75.3301 302.249 74.5824 302.556 73.9162C302.863 73.25 303.35 72.6951 303.954 72.3215C304.559 71.9479 305.255 71.7724 305.954 71.8171C306.652 71.8618 307.323 72.1247 307.881 72.5727C308.439 73.0207 308.859 73.6336 309.088 74.3341C309.317 75.0346 309.345 75.7913 309.169 76.5087C309.051 76.9868 308.845 77.4357 308.563 77.8294C308.281 78.2232 307.929 78.554 307.525 78.8031C307.122 79.0521 306.677 79.2143 306.214 79.2805C305.752 79.3467 305.282 79.3155 304.831 79.1887ZM306.42 72.9228C305.927 72.782 305.405 72.7994 304.921 72.9726C304.437 73.1459 304.013 73.4673 303.702 73.8961C303.39 74.325 303.206 74.842 303.172 75.3817C303.139 75.9215 303.257 76.4597 303.512 76.9283C303.767 77.3968 304.148 77.7746 304.606 78.0139C305.065 78.2531 305.579 78.3431 306.086 78.2723C306.592 78.2016 307.068 77.9733 307.451 77.6164C307.835 77.2595 308.11 76.7901 308.242 76.2675C308.417 75.5681 308.324 74.8239 307.982 74.1973C307.641 73.5706 307.079 73.1125 306.42 72.9228Z" fill="#E0E0E0"/>
<path d="M340.506 89.3244C339.829 89.1342 339.221 88.7359 338.758 88.1799C338.294 87.6239 337.997 86.9351 337.903 86.2005C337.81 85.4658 337.924 84.7182 338.231 84.052C338.538 83.3858 339.025 82.8309 339.629 82.4573C340.234 82.0837 340.93 81.9082 341.628 81.9529C342.327 81.9976 342.998 82.2605 343.556 82.7085C344.113 83.1564 344.534 83.7693 344.763 84.4698C344.992 85.1703 345.02 85.927 344.843 86.6444C344.726 87.1226 344.52 87.5714 344.238 87.9652C343.956 88.3589 343.603 88.6898 343.2 88.9388C342.797 89.1878 342.352 89.3501 341.889 89.4163C341.427 89.4824 340.957 89.4512 340.506 89.3244ZM342.095 83.08C341.602 82.9396 341.081 82.9571 340.597 83.1304C340.113 83.3036 339.689 83.6249 339.378 84.0535C339.067 84.4821 338.882 84.9988 338.849 85.5382C338.815 86.0777 338.933 86.6157 339.187 87.0842C339.442 87.5526 339.823 87.9306 340.28 88.1702C340.738 88.4098 341.252 88.5004 341.759 88.4303C342.265 88.3603 342.74 88.1329 343.124 87.7768C343.509 87.4208 343.784 86.9521 343.917 86.43C344.094 85.7299 344.001 84.9843 343.659 84.3565C343.318 83.7286 342.755 83.2696 342.095 83.08Z" fill="#E0E0E0"/>
<path d="M329.663 53.2035L322.972 51.3007L323.822 47.9346L340.966 52.8068L340.111 56.1675L333.419 54.2647L328.863 72.3011L325.118 71.2291L329.663 53.2035Z" fill="#E0E0E0"/>
<path d="M362.094 115.315H330.316V148.965H362.094V115.315Z" fill="#EBEBEB"/>
<path d="M361.916 115.776C361.833 115.906 361.74 116.028 361.638 116.141L360.798 117.154C360.069 118.027 358.996 119.298 357.654 120.809C354.977 123.875 351.211 128.051 346.929 132.521C342.647 136.991 338.648 140.925 335.712 143.718C334.244 145.111 333.05 146.232 332.214 146.993L331.248 147.866C331.137 147.97 331.02 148.067 330.898 148.156C330.993 148.035 331.098 147.924 331.212 147.824L332.144 146.912L335.586 143.568C338.486 140.743 342.454 136.793 346.721 132.312C350.988 127.831 354.79 123.698 357.503 120.664L360.702 117.068L361.577 116.092C361.683 115.979 361.797 115.873 361.916 115.776Z" fill="#E0E0E0"/>
<path d="M362.093 148.965C362.093 148.965 362.058 148.965 362.002 148.89L361.754 148.644L360.813 147.684L357.381 144.13L346.028 132.44C341.614 127.852 337.701 123.612 334.948 120.461C333.571 118.89 332.473 117.604 331.728 116.709L330.873 115.664L330.655 115.385C330.605 115.326 330.585 115.288 330.59 115.288C330.595 115.288 330.62 115.288 330.676 115.369L330.914 115.626L331.804 116.634C332.569 117.518 333.692 118.778 335.084 120.337C337.873 123.452 341.801 127.67 346.22 132.253C350.639 136.836 354.633 140.968 357.513 143.991C358.945 145.508 360.099 146.741 360.889 147.604L361.79 148.606L362.023 148.869C362.051 148.897 362.074 148.93 362.093 148.965Z" fill="#E0E0E0"/>
<path d="M167.315 26.0068H145.762V48.8297H167.315V26.0068Z" fill="#F5F5F5"/>
<path d="M167.199 26.3069C167.146 26.397 167.085 26.4814 167.016 26.5588L166.45 27.2503C165.943 27.8452 165.235 28.6975 164.329 29.7427C162.517 31.8277 159.966 34.6578 157.06 37.6969C154.155 40.736 151.437 43.416 149.442 45.2813C148.43 46.2247 147.63 46.9804 147.058 47.4896C146.79 47.7308 146.552 47.9238 146.395 48.0739C146.322 48.1463 146.242 48.211 146.157 48.2668C146.157 48.2668 146.223 48.1811 146.365 48.0364C146.506 47.8916 146.734 47.6612 146.992 47.4092L149.316 45.1312C151.28 43.2124 153.967 40.527 156.873 37.4986C159.778 34.4702 162.35 31.6562 164.192 29.6033C165.098 28.601 165.837 27.7756 166.374 27.1752L166.976 26.5213C167.113 26.3712 167.189 26.2962 167.199 26.3069Z" fill="#EBEBEB"/>
<path d="M167.315 48.8297C167.231 48.769 167.153 48.6989 167.082 48.6207L166.439 47.9721L164.101 45.5601L156.397 37.6541C153.4 34.5453 150.753 31.6616 148.891 29.5176C147.959 28.4456 147.215 27.572 146.714 26.9556L146.137 26.2641C146.067 26.1847 146.004 26.0986 145.95 26.0068C146.035 26.0709 146.111 26.1466 146.177 26.232C146.339 26.4035 146.542 26.6286 146.79 26.9073L149.027 29.4104C150.92 31.5169 153.583 34.3738 156.584 37.4826C159.586 40.5914 162.294 43.3786 164.233 45.4636C165.199 46.4928 165.979 47.3343 166.51 47.9239L167.118 48.6046C167.192 48.6712 167.258 48.7468 167.315 48.8297Z" fill="#EBEBEB"/>
<path d="M316.533 67.6592H81.1704V247.069H316.533V67.6592Z" fill="#FAFAFA"/>
<path d="M316.533 67.6592H81.1704V80.9198H316.533V67.6592Z" fill="#E0E0E0"/>
<path d="M89.4968 74.504C89.4751 74.816 89.368 75.1145 89.1885 75.363C89.009 75.6114 88.765 75.7991 88.4864 75.9029C88.2077 76.0067 87.9065 76.0222 87.6196 75.9475C87.3328 75.8728 87.0727 75.7111 86.8713 75.4822C86.67 75.2533 86.536 74.9672 86.4859 74.6589C86.4358 74.3506 86.4716 74.0336 86.5891 73.7465C86.7066 73.4595 86.9006 73.215 87.1474 73.043C87.3941 72.871 87.6829 72.7789 87.9783 72.7781C88.3954 72.7948 88.7893 72.9858 89.0739 73.3092C89.3584 73.6326 89.5105 74.0622 89.4968 74.504Z" fill="#263238"/>
<path d="M95.2116 74.504C95.19 74.816 95.0829 75.1145 94.9034 75.363C94.7239 75.6114 94.4799 75.7991 94.2012 75.9029C93.9226 76.0067 93.6213 76.0222 93.3345 75.9475C93.0476 75.8728 92.7876 75.7111 92.5862 75.4822C92.3848 75.2533 92.2509 74.9672 92.2007 74.6589C92.1506 74.3506 92.1865 74.0336 92.304 73.7465C92.4215 73.4595 92.6155 73.215 92.8622 73.043C93.109 72.871 93.3977 72.7789 93.6931 72.7781C94.1098 72.7962 94.5029 72.9876 94.7872 73.3107C95.0715 73.6338 95.224 74.0626 95.2116 74.504Z" fill="#263238"/>
<path d="M99.3926 76.2458C100.24 76.2458 100.926 75.4755 100.926 74.5252C100.926 73.575 100.24 72.8047 99.3926 72.8047C98.5455 72.8047 97.8589 73.575 97.8589 74.5252C97.8589 75.4755 98.5455 76.2458 99.3926 76.2458Z" fill="#263238"/>
<path d="M186.479 96.0458C186.479 96.1369 181.336 96.212 174.999 96.212C168.662 96.212 163.519 96.1369 163.519 96.0458C163.519 95.9547 168.657 95.8743 174.999 95.8743C181.341 95.8743 186.479 95.944 186.479 96.0458Z" fill="#263238"/>
<path d="M217.021 96.0458C217.021 96.1369 211.878 96.212 205.541 96.212C199.204 96.212 194.061 96.1369 194.061 96.0458C194.061 95.9547 199.199 95.8743 205.541 95.8743C211.883 95.8743 217.021 95.944 217.021 96.0458Z" fill="#263238"/>
<path d="M247.558 96.0458C247.558 96.1369 242.42 96.212 236.078 96.212C229.736 96.212 224.598 96.1369 224.598 96.0458C224.598 95.9547 229.741 95.8743 236.078 95.8743C242.415 95.8743 247.558 95.944 247.558 96.0458Z" fill="#263238"/>
<path d="M278.374 96.0458C278.374 96.1369 273.231 96.212 266.894 96.212C260.556 96.212 255.409 96.1369 255.409 96.0458C255.409 95.9547 260.551 95.8743 266.894 95.8743C273.236 95.8743 278.374 95.944 278.374 96.0458Z" fill="#263238"/>
<path d="M295.482 210.353C295.482 210.45 277.047 210.53 254.315 210.53C231.583 210.53 213.139 210.45 213.139 210.353C213.139 210.257 231.568 210.171 254.315 210.171C277.063 210.171 295.482 210.251 295.482 210.353Z" fill="#E0E0E0"/>
<path d="M295.482 215.638C295.482 215.735 277.047 215.815 254.315 215.815C231.583 215.815 213.139 215.735 213.139 215.638C213.139 215.542 231.568 215.456 254.315 215.456C277.063 215.456 295.482 215.536 295.482 215.638Z" fill="#E0E0E0"/>
<path d="M249.856 196.712C249.856 196.803 241.757 196.878 231.811 196.878C221.865 196.878 213.761 196.803 213.761 196.712C213.761 196.621 221.86 196.551 231.811 196.551C241.762 196.551 249.856 196.615 249.856 196.712Z" fill="#263238"/>
<path d="M305.134 100.141C305.134 100.141 305.332 100.141 305.686 100.033C306.204 99.8869 306.665 99.5697 307.002 99.1276C307.247 98.8026 307.42 98.4234 307.508 98.0181C307.597 97.5201 307.624 97.012 307.589 96.5066C307.529 95.4346 307.817 94.0196 306.946 92.9958C306.744 92.7385 306.495 92.526 306.214 92.3706C305.934 92.2152 305.627 92.1198 305.312 92.09C304.654 92.09 303.93 92.09 303.206 92.09H298.529H287.823C287.371 92.0969 286.93 92.2389 286.55 92.4996C286.17 92.7604 285.868 93.1293 285.677 93.564C285.479 94.0049 285.387 94.4911 285.409 94.979V96.5012C285.38 96.982 285.409 97.4647 285.495 97.9377C285.597 98.3812 285.802 98.7904 286.092 99.1276C286.371 99.4449 286.719 99.6859 287.105 99.8298C287.494 99.9373 287.898 99.9771 288.299 99.9477L297.046 99.9852L302.943 100.039L304.547 100.071H304.962C305.058 100.071 305.104 100.071 305.104 100.071C305.057 100.078 305.009 100.078 304.962 100.071H304.547L302.943 100.103L297.046 100.157L288.299 100.194C287.869 100.225 287.436 100.181 287.019 100.066C286.582 99.9089 286.189 99.64 285.875 99.2831C285.548 98.9082 285.315 98.4532 285.196 97.9592C285.136 97.7048 285.104 97.4441 285.1 97.182V94.9093C285.076 94.3677 285.178 93.8282 285.399 93.3388C285.613 92.8491 285.953 92.4332 286.38 92.1392C286.807 91.8453 287.304 91.6851 287.813 91.6772H298.519H303.196C303.93 91.6772 304.623 91.6772 305.322 91.6772C305.666 91.7131 306 91.8206 306.305 91.9935C306.61 92.1664 306.879 92.4014 307.098 92.6849C307.512 93.2174 307.744 93.8822 307.756 94.5716C307.756 95.2041 307.756 95.7991 307.756 96.3565C307.783 96.8776 307.745 97.4 307.645 97.9109C307.537 98.3363 307.34 98.7303 307.068 99.0633C306.708 99.515 306.217 99.8278 305.671 99.9531C305.502 100.044 305.321 100.107 305.134 100.141Z" fill="#263238"/>
<path d="M280.692 150.954H218.13C215.723 150.954 213.771 153.02 213.771 155.569V161.818C213.771 164.367 215.723 166.433 218.13 166.433H280.692C283.099 166.433 285.05 164.367 285.05 161.818V155.569C285.05 153.02 283.099 150.954 280.692 150.954Z" fill="#E0E0E0"/>
<path d="M103.047 102.054C105.926 102.054 108.261 99.4363 108.261 96.2067C108.261 92.977 105.926 90.3589 103.047 90.3589C100.168 90.3589 97.8335 92.977 97.8335 96.2067C97.8335 99.4363 100.168 102.054 103.047 102.054Z" fill="#E0E0E0"/>
<path d="M285.05 190.333C285.05 190.425 269.091 190.5 249.411 190.5C229.731 190.5 213.771 190.425 213.771 190.333C213.771 190.242 229.721 190.173 249.411 190.173C269.101 190.173 285.05 190.242 285.05 190.333Z" fill="#263238"/>
<path d="M81.1704 67.6592L316.539 67.5305H316.67V67.6592C316.67 121.795 316.67 182.771 316.67 247.048V247.208H316.539H81.1704H81.0591V247.096C81.1249 138.207 81.1654 68.6079 81.1704 67.686C81.1704 68.6186 81.2109 138.207 81.2767 247.096L81.1704 246.983L316.539 246.957L316.402 247.096C316.402 182.819 316.402 121.843 316.402 67.7074L316.523 67.836L81.1704 67.6592Z" fill="#263238"/>
<path d="M81.2411 233.042L200.145 233.042V115.106L81.2411 115.106L81.2411 233.042Z" fill="#ED2980"/>
<path d="M192.082 225.828C192.082 224.82 192.036 184.829 191.965 123.135L192.082 123.253H88.0742L88.2058 123.114C88.2058 160.57 88.2058 195.763 88.2058 225.806L88.0894 225.683L192.107 225.806L88.0894 225.93H87.978V225.806C87.978 195.763 87.978 160.57 87.978 123.114V122.975H88.1198H192.127H192.238V123.093C192.152 184.829 192.082 224.82 192.082 225.828Z" fill="#263238"/>
<path d="M192.082 123.135C192.082 123.135 192.001 123.237 191.829 123.419L191.08 124.245L188.174 127.386C186.914 128.747 185.365 130.409 183.553 132.322C181.741 134.236 179.691 136.433 177.393 138.824C172.837 143.648 167.325 149.308 161.196 155.563C155.066 161.818 148.253 168.642 141.07 175.754C126.685 189.969 113.494 202.635 103.913 211.768L92.5288 222.547L89.426 225.463C89.0717 225.79 88.8034 226.042 88.6111 226.213C88.4187 226.385 88.3276 226.465 88.3276 226.465L88.5959 226.192L89.3906 225.42L92.463 222.467L103.776 211.618C113.327 202.453 126.498 189.76 140.878 175.551C148.061 168.443 154.863 161.615 161.018 155.381C167.173 149.147 172.66 143.471 177.261 138.685L183.452 132.215L188.103 127.305L191.044 124.202L191.814 123.403C191.986 123.221 192.082 123.135 192.082 123.135Z" fill="#263238"/>
<path d="M191.165 225.554C191.115 225.613 167.993 202.726 139.536 174.452C111.08 146.178 88.0287 123.194 88.0743 123.135C88.1198 123.076 111.242 145.958 139.703 174.248C168.165 202.538 191.211 225.501 191.165 225.554Z" fill="#263238"/>
<g opacity="0.3">
<path opacity="0.3" d="M81.0186 150.139C87.705 149.335 92.9692 143.042 94.6395 136.139C96.3099 129.235 94.9939 121.897 92.8477 115.144H81.2413L81.0186 150.139Z" fill="black"/>
</g>
<g opacity="0.3">
<path opacity="0.3" d="M163.534 124.422C163.755 125.356 164.274 126.181 165.004 126.757C165.733 127.332 166.629 127.622 167.537 127.579C167.813 128.305 168.303 128.917 168.934 129.323C169.565 129.73 170.304 129.909 171.04 129.834C171.775 129.76 172.468 129.435 173.014 128.908C173.561 128.382 173.932 127.682 174.072 126.914C175.014 127.82 176.603 127.262 177.428 126.233C178.253 125.204 178.602 123.859 179.235 122.69C179.989 121.313 181.123 120.214 181.978 118.906C182.834 117.598 183.401 115.889 182.819 114.42H164.511L163.534 124.422Z" fill="black"/>
</g>
<path d="M153.248 115.24C152.95 113.863 152.697 112.426 153.005 111.054C153.314 109.682 154.337 108.374 155.663 108.267C156.878 108.144 157.981 108.98 158.902 109.827C159.824 110.673 160.78 111.617 161.985 111.799C162.886 111.933 163.787 111.611 164.698 111.638C165.609 111.665 166.642 112.26 166.647 113.219C166.622 113.538 166.511 113.843 166.327 114.097C166.143 114.351 165.894 114.543 165.609 114.651C165.037 114.938 164.419 115.108 163.787 115.149C160.132 115.149 156.903 115.24 153.248 115.24Z" fill="#DB8A76"/>
<path d="M185.284 111.172C185.284 111.172 180.885 118.895 179.67 118.788C178.456 118.681 177.185 117.132 177.185 117.132C177.185 117.132 175.823 125.049 170.812 124.786C170.812 124.786 169.38 126.93 167.705 126.684C166.029 126.437 166.247 124.18 166.247 124.18C166.247 124.18 162.861 126.732 162.704 122.889C162.547 119.046 163.746 110.652 163.746 110.652C163.746 110.652 165.584 107.205 166.976 107.972C167.769 108.366 168.429 109.01 168.864 109.816C168.864 109.816 170.762 108.041 172.564 107.607C173.055 107.477 173.573 107.536 174.027 107.774C174.48 108.012 174.839 108.412 175.039 108.904C175.039 108.904 178.101 105.865 179.215 107.296C180.328 108.728 179.453 109.542 179.453 109.542C179.453 109.542 182.874 107.934 183.973 108.867C184.642 109.457 185.104 110.269 185.284 111.172Z" fill="#DB8A76"/>
<path d="M166.247 124.18C166.059 124.143 166.5 120.852 167.234 116.837C167.968 112.823 168.717 109.596 168.904 109.633C169.091 109.671 168.646 112.957 167.892 116.977C167.138 120.997 166.434 124.218 166.247 124.18Z" fill="#A45B4A"/>
<path d="M177.185 117.132C177.008 117.079 177.261 115.31 177.818 113.166C178.375 111.022 179.215 109.414 179.387 109.489C179.559 109.564 179.023 111.247 178.481 113.364C177.939 115.481 177.378 117.191 177.185 117.132Z" fill="#A45B4A"/>
<path d="M170.736 124.829C170.554 124.776 171.369 121.163 172.564 116.757C173.758 112.351 174.867 108.83 175.049 108.883C175.231 108.937 174.437 112.56 173.222 116.961C172.007 121.361 170.919 124.888 170.736 124.829Z" fill="#A45B4A"/>
<g opacity="0.3">
<path opacity="0.3" d="M138.423 220.06C139.189 221.187 139.54 222.571 139.412 223.952C139.283 225.333 138.683 226.618 137.724 227.564C137.031 228.202 136.069 228.99 136.408 229.891C136.631 230.475 137.294 230.684 137.871 230.823C140.787 231.52 143.849 232.378 146.77 233.074C141.232 234.874 135.303 234.807 129.803 232.881C128.512 232.437 127.054 231.611 126.963 230.201C126.882 228.894 127.976 227.902 128.988 227.141L137.593 220.628" fill="black"/>
</g>
<path d="M52.6225 149.775L49.4134 110.684C47.5254 98.2864 52.7693 86.7892 64.5225 85.133L65.6158 85.0472C70.9304 84.6296 76.1986 86.3461 80.3723 89.855C84.546 93.364 87.3193 98.4082 88.1403 103.984C89.7196 114.736 91.3342 126.641 91.6835 132.451C92.382 144.479 81.1603 147.234 81.1603 147.234L81.3324 152.68C81.3324 152.68 74.5649 158.12 66.0511 158.12C56.8794 158.12 52.6225 149.775 52.6225 149.775Z" fill="#DB8A76"/>
<path d="M81.2412 147.218C81.2412 147.218 74.0283 148.247 66.0562 143.771C66.0562 143.771 69.9992 152.176 81.2412 150.203V147.218Z" fill="#A45B4A"/>
<path d="M86.2169 114.581C86.2511 115.027 86.1195 115.47 85.8501 115.815C85.5807 116.161 85.1948 116.381 84.7743 116.43C84.5692 116.464 84.3598 116.454 84.1583 116.401C83.9569 116.348 83.7675 116.253 83.6014 116.121C83.4353 115.989 83.2959 115.823 83.1913 115.633C83.0868 115.443 83.0192 115.233 82.9926 115.015C82.9584 114.568 83.0899 114.124 83.3591 113.778C83.6284 113.432 84.0143 113.21 84.4352 113.16C84.6406 113.127 84.8502 113.138 85.0517 113.191C85.2531 113.245 85.4424 113.341 85.6084 113.473C85.7744 113.606 85.9138 113.772 86.0183 113.962C86.1228 114.152 86.1903 114.363 86.2169 114.581Z" fill="#263238"/>
<path d="M86.1105 110.062C85.9232 110.298 84.6325 109.435 82.8862 109.575C81.1399 109.714 79.9302 110.738 79.7226 110.529C79.6264 110.438 79.7985 109.993 80.33 109.542C81.0504 108.924 81.9354 108.561 82.8609 108.503C83.7678 108.428 84.6738 108.66 85.4474 109.167C85.994 109.564 86.2016 109.95 86.1105 110.062Z" fill="#263238"/>
<path d="M70.2574 115.948C70.293 116.395 70.162 116.839 69.8925 117.186C69.623 117.532 69.2363 117.753 68.8149 117.802C68.6098 117.836 68.4003 117.826 68.1989 117.773C67.9974 117.72 67.808 117.625 67.642 117.493C67.4759 117.361 67.3364 117.195 67.2319 117.005C67.1273 116.815 67.0597 116.605 67.0332 116.387C66.9989 115.94 67.1304 115.496 67.3997 115.15C67.6689 114.804 68.0549 114.583 68.4757 114.532C68.6808 114.499 68.89 114.51 69.0912 114.563C69.2923 114.616 69.4814 114.712 69.6473 114.844C69.8133 114.975 69.9527 115.141 70.0575 115.33C70.1622 115.52 70.2302 115.73 70.2574 115.948Z" fill="#263238"/>
<path d="M68.9918 111.745C68.8045 111.987 67.5087 111.118 65.7675 111.263C64.0263 111.408 62.8115 112.426 62.604 112.217C62.5078 112.121 62.6799 111.681 63.2114 111.231C63.9317 110.613 64.8168 110.249 65.7422 110.191C66.6492 110.116 67.5551 110.349 68.3287 110.856C68.8703 111.247 69.0829 111.638 68.9918 111.745Z" fill="#263238"/>
<path d="M76.2754 124.947C76.2754 124.84 77.3332 124.561 79.0745 124.186C79.5148 124.1 79.9299 123.971 79.9805 123.65C79.9837 123.161 79.846 122.682 79.5857 122.278L78.0216 118.788C75.835 113.82 74.2152 109.719 74.4076 109.628C74.5999 109.537 76.5234 113.493 78.705 118.461C79.2347 119.683 79.7409 120.854 80.2235 121.972C80.431 122.508 80.7651 123.082 80.5879 123.805C80.5353 123.976 80.4463 124.133 80.3279 124.262C80.2094 124.391 80.0646 124.49 79.9046 124.55C79.6628 124.641 79.4111 124.699 79.1554 124.722C77.3889 124.958 76.2905 125.049 76.2754 124.947Z" fill="#263238"/>
<path d="M71.2341 126.625C71.5175 126.587 71.6593 128.592 73.3802 129.884C75.1012 131.175 77.1006 130.806 77.136 131.084C77.1714 131.208 76.7108 131.508 75.8605 131.62C74.7536 131.724 73.6476 131.411 72.7374 130.736C71.8624 130.086 71.2598 129.102 71.0569 127.992C70.9304 127.139 71.1025 126.625 71.2341 126.625Z" fill="#263238"/>
<path d="M68.936 104.477C68.7993 105.013 67.0429 104.89 65.0132 105.308C62.9835 105.726 61.3738 106.45 61.0701 106.021C60.9335 105.817 61.1866 105.324 61.8243 104.783C62.6738 104.119 63.6546 103.667 64.6928 103.463C65.7309 103.259 66.7993 103.307 67.8174 103.604C68.5867 103.866 68.9967 104.231 68.936 104.477Z" fill="#263238"/>
<path d="M85.0983 104.767C84.8199 105.212 83.5798 104.869 82.1422 104.96C80.7047 105.051 79.4899 105.453 79.1811 105.035C79.0445 104.831 79.2064 104.397 79.7126 103.963C80.3981 103.431 81.2171 103.127 82.0659 103.089C82.9147 103.051 83.7551 103.28 84.4807 103.748C85.0173 104.134 85.2147 104.552 85.0983 104.767Z" fill="#263238"/>
<path d="M86.6624 98.565C86.6624 98.565 83.1192 91.27 79.576 89.7853C75.2786 87.9843 73.8259 92.9477 69.7918 92.0847C65.7576 91.2218 61.6526 89.4959 57.8412 93.0495C53.6653 96.9355 55.9127 99.2564 56.0088 104.611C56.4138 126.319 53.1135 132.724 51.342 122.621C51.1446 121.516 48.1582 120.857 47.3989 116.189C46.3866 110.121 45.6678 102.719 46.6548 98.2809C47.485 94.5289 49.2768 91.8489 52.6124 88.799C57.8766 83.975 65.5248 83.2729 70.7586 83.439C75.9923 83.6052 86.4801 89.1046 86.6624 98.565Z" fill="#263238"/>
<path d="M52.0607 122.24C52.0157 121.8 51.887 121.375 51.6825 120.99C51.478 120.604 51.2018 120.266 50.8707 119.997C50.5397 119.727 50.1605 119.532 49.756 119.422C49.3516 119.312 48.9303 119.289 48.5176 119.356C46.417 119.737 44.1544 121.19 44.615 125.788C45.435 133.989 53.0376 131.422 53.0275 131.186C53.0174 130.95 52.4505 125.665 52.0607 122.24Z" fill="#DB8A76"/>
<path d="M51.0278 128.313C50.9924 128.313 50.9063 128.431 50.6887 128.565C50.381 128.749 50.0173 128.797 49.6763 128.699C48.826 128.474 48.0009 127.177 47.8136 125.703C47.7262 125.003 47.7849 124.291 47.9857 123.618C48.0343 123.351 48.1436 123.102 48.3042 122.891C48.4648 122.68 48.6717 122.513 48.9069 122.406C49.0574 122.346 49.223 122.343 49.3754 122.398C49.5278 122.452 49.6574 122.562 49.7421 122.706C49.8687 122.926 49.8383 123.098 49.8788 123.103C49.9193 123.108 50.0306 122.948 49.9345 122.615C49.8709 122.418 49.746 122.25 49.5801 122.138C49.4659 122.065 49.3391 122.016 49.2071 121.995C49.075 121.974 48.9404 121.981 48.8108 122.015C48.5 122.117 48.2192 122.302 47.995 122.551C47.7708 122.801 47.6108 123.107 47.5302 123.441C47.2718 124.187 47.1901 124.99 47.2923 125.778C47.5099 127.423 48.4615 128.881 49.6156 129.096C49.8294 129.137 50.0492 129.127 50.2587 129.065C50.4682 129.004 50.6619 128.893 50.8253 128.742C51.0329 128.511 51.0582 128.324 51.0278 128.313Z" fill="#A45B4A"/>
<path d="M51.0988 106.31C52.1567 106.959 53.2753 107.629 54.5002 107.661C55.7252 107.693 57.0311 106.846 57.1728 105.555C57.2234 104.976 57.0463 104.322 57.3702 103.85C57.76 103.314 58.5496 103.394 59.2076 103.416C60.348 103.422 61.4556 103.012 62.3436 102.254C63.2315 101.497 63.8456 100.438 64.082 99.2565C64.7248 100.125 66.0611 99.9801 66.8912 99.3155C67.7213 98.6508 68.2123 97.6378 68.84 96.7588C69.4676 95.8797 70.3585 95.065 71.4012 95.1508C71.9833 95.1936 72.5451 95.5152 73.1171 95.4134C74.1294 95.2365 74.5394 93.934 74.6356 92.8513C74.7318 91.7686 74.747 90.5144 75.5669 89.8604C76.3869 89.2065 77.3891 89.4906 78.3357 89.5657C79.2822 89.6407 80.4768 89.3084 80.6489 88.3168C80.6714 88.0533 80.6431 87.7877 80.5656 87.5361C80.4882 87.2846 80.3632 87.0523 80.1984 86.8535C79.4956 85.9129 78.5152 85.249 77.414 84.9682C76.3128 84.6874 75.1545 84.8058 74.1244 85.3044C73.6455 83.9678 72.8034 82.8113 71.7043 81.9809C70.6053 81.1505 69.2987 80.6835 67.9492 80.6388C66.5998 80.5941 65.2681 80.9736 64.1222 81.7296C62.9763 82.4856 62.0676 83.584 61.5107 84.8864C60.6309 84.1603 59.5988 83.6697 58.5019 83.4562C57.4049 83.2426 56.2755 83.3124 55.2095 83.6596C54.1434 84.0067 53.1722 84.6211 52.3781 85.4505C51.5841 86.2799 50.9907 87.2999 50.6483 88.424C49.6795 88.2333 48.6791 88.3488 47.7718 88.7559C46.8645 89.163 46.0904 89.8439 45.5459 90.7136C45.0014 91.5833 44.7106 92.6035 44.7097 93.647C44.7089 94.6905 44.998 95.7112 45.5411 96.5819C44.2048 97.536 43.1115 99.0957 43.2026 100.8C43.2937 102.505 44.9742 104.075 46.4927 103.48C46.2233 104.175 46.2147 104.953 46.4686 105.654C46.7225 106.356 47.2198 106.928 47.8588 107.255C48.4978 107.581 49.2304 107.637 49.9069 107.41C50.5833 107.184 51.1527 106.693 51.4987 106.037" fill="#263238"/>
<path d="M74.8582 87.6628C74.8661 87.7125 74.8661 87.7632 74.8582 87.8129C74.8582 87.9094 74.8582 88.0595 74.8582 88.2578C74.7891 88.8163 74.6352 89.3593 74.4026 89.8658C74.0318 90.6783 73.4898 91.3898 72.8183 91.9455C71.9345 92.696 70.843 93.1196 69.7105 93.1515L69.8269 92.9585C70.1104 93.69 70.1104 94.5104 69.8269 95.2419C69.5314 96.0142 69.1306 96.7366 68.6374 97.3859C68.4067 97.7536 68.1385 98.0933 67.8376 98.3989C67.4876 98.6913 67.0761 98.8899 66.638 98.9778C66.1853 99.0841 65.7149 99.0708 65.2682 98.939C64.8215 98.8072 64.4123 98.561 64.0768 98.222L64.3603 98.1148C64.3131 98.9769 64.0955 99.8189 63.7214 100.586C63.3473 101.354 62.8252 102.029 62.1888 102.569C61.4902 103.199 60.619 103.575 59.7035 103.641C58.8452 103.661 57.9898 103.528 57.1727 103.25L57.3751 103.137C57.0416 104.163 56.4708 105.085 55.7149 105.817C55.3711 106.181 54.9551 106.458 54.4971 106.63C54.0391 106.801 53.5508 106.862 53.0677 106.809C52.2384 106.688 51.4609 106.312 50.8312 105.728C50.2015 105.144 49.7472 104.378 49.5245 103.523L49.7067 103.598C48.9222 104.123 47.9901 104.342 47.0696 104.22C46.3834 104.14 45.7245 103.89 45.1461 103.491C44.7859 103.237 44.4692 102.92 44.2097 102.553C44.1213 102.425 44.045 102.289 43.9819 102.146C44.3232 102.628 44.7411 103.043 45.217 103.373C45.7839 103.739 46.4232 103.961 47.0847 104.022C47.9572 104.12 48.835 103.897 49.57 103.389L49.7118 103.293L49.7522 103.464C49.974 104.258 50.4078 104.967 51.0015 105.505C51.5952 106.043 52.3233 106.388 53.098 106.498C53.5348 106.545 53.9762 106.489 54.3896 106.332C54.803 106.175 55.178 105.922 55.4871 105.592C56.1992 104.896 56.7352 104.023 57.0461 103.051L57.0967 102.896L57.2486 102.939C58.0373 103.202 58.8617 103.325 59.6883 103.303C60.5359 103.241 61.3411 102.887 61.9813 102.296C62.581 101.786 63.0737 101.15 63.4276 100.427C63.7815 99.7044 63.9888 98.9113 64.0363 98.0988V97.7021L64.2995 97.9862C64.6013 98.2793 64.9658 98.4905 65.3617 98.6015C65.7575 98.7126 66.1729 98.7204 66.5722 98.624C66.9603 98.5513 67.3254 98.3782 67.6352 98.1202C67.9165 97.832 68.1692 97.5141 68.3894 97.1715C68.8696 96.5566 69.2618 95.8704 69.5535 95.1347C69.6863 94.8096 69.757 94.4598 69.7613 94.1056C69.7656 93.7514 69.7036 93.3997 69.5788 93.0711L69.5029 92.8781H69.7003C70.7812 92.8592 71.8273 92.4699 72.6817 91.7686C73.3413 91.2436 73.8824 90.5698 74.266 89.7961C74.5794 89.1271 74.7798 88.4051 74.8582 87.6628Z" fill="#455A64"/>
<path d="M79.0695 116.848C78.8495 116.224 78.6719 115.585 78.538 114.935C78.2226 113.145 78.4847 111.295 79.2821 109.682C79.825 108.574 80.6071 107.617 81.5649 106.889C82.6605 106.054 83.9464 105.544 85.2903 105.41C86.0122 105.332 86.7412 105.372 87.4517 105.528C88.1961 105.677 88.9136 105.95 89.5776 106.337C90.9903 107.14 92.1237 108.4 92.8122 109.933C93.5006 111.466 93.7081 113.193 93.4042 114.86C93.2696 115.649 93.0167 116.411 92.6551 117.116C92.3195 117.806 91.8878 118.438 91.3745 118.992C90.4287 120.017 89.2425 120.757 87.9376 121.136C86.8008 121.461 85.6078 121.498 84.4551 121.243C82.7692 120.882 81.2478 119.928 80.1375 118.537C79.7424 118.018 79.3853 117.468 79.0695 116.891C79.1243 117.054 79.1921 117.212 79.272 117.363C79.3581 117.549 79.458 117.729 79.5706 117.899C79.7123 118.145 79.8713 118.38 80.0464 118.601C81.1471 120.055 82.6884 121.063 84.4096 121.452C85.5948 121.726 86.8243 121.701 87.9983 121.377C89.3519 121.003 90.5859 120.252 91.5719 119.201C92.6625 118.037 93.4009 116.556 93.6927 114.945C94.0143 113.213 93.8017 111.418 93.0863 109.823C92.3709 108.229 91.1905 106.92 89.7193 106.091C89.031 105.688 88.2857 105.406 87.5124 105.254C86.7729 105.098 86.0152 105.06 85.265 105.142C83.8727 105.289 82.5429 105.828 81.4131 106.702C80.2179 107.634 79.3006 108.91 78.7703 110.378C78.24 111.846 78.1189 113.444 78.4216 114.983C78.4725 115.267 78.5453 115.547 78.6393 115.819C78.6942 116.022 78.7653 116.219 78.8519 116.409C78.9118 116.562 78.9847 116.709 79.0695 116.848Z" fill="#263238"/>
<path d="M59.0608 118.37C58.8494 117.746 58.6803 117.106 58.5546 116.457C58.2392 114.667 58.5013 112.817 59.2987 111.204C59.8416 110.096 60.6237 109.139 61.5815 108.411C62.6771 107.576 63.963 107.066 65.3069 106.932C66.0288 106.854 66.7578 106.894 67.4683 107.05C68.2127 107.199 68.9302 107.473 69.5942 107.859C71.0069 108.662 72.1403 109.922 72.8288 111.455C73.5172 112.988 73.7247 114.715 73.4208 116.382C73.2844 117.172 73.0299 117.933 72.6666 118.638C72.3324 119.321 71.9004 119.945 71.386 120.487C70.4413 121.514 69.2547 122.254 67.9491 122.631C66.8124 122.956 65.6193 122.993 64.4667 122.739C62.7827 122.375 61.2634 121.422 60.1541 120.032C59.759 119.513 59.4019 118.963 59.0861 118.386C59.1409 118.549 59.2086 118.707 59.2886 118.858C59.3747 119.045 59.4746 119.224 59.5872 119.394C59.7289 119.64 59.8879 119.875 60.063 120.096C61.1637 121.551 62.705 122.558 64.4262 122.948C65.6114 123.222 66.8409 123.196 68.0149 122.873C69.3685 122.499 70.6025 121.747 71.5885 120.696C72.6791 119.533 73.4175 118.051 73.7093 116.441C74.0309 114.709 73.8183 112.913 73.1029 111.319C72.3875 109.724 71.2071 108.416 69.7359 107.586C69.0461 107.182 68.2991 106.9 67.5239 106.75C66.7861 106.593 66.0301 106.555 65.2816 106.637C63.8893 106.784 62.5595 107.323 61.4297 108.197C60.2345 109.129 59.3172 110.405 58.7869 111.873C58.2566 113.341 58.1355 114.939 58.4382 116.478C58.4891 116.763 58.5619 117.042 58.6559 117.314C58.7108 117.517 58.7819 117.714 58.8685 117.904C58.9189 118.065 58.9833 118.221 59.0608 118.37Z" fill="#263238"/>
<path d="M73.6282 113.01C74.356 112.609 75.1467 112.351 75.9616 112.249C77.3283 112.142 78.3355 112.785 78.371 112.689C78.4064 112.592 78.1736 112.453 77.7433 112.249C77.1756 111.997 76.5603 111.886 75.9456 111.927C75.331 111.968 74.7336 112.159 74.2002 112.485C73.7952 112.742 73.6029 112.978 73.6282 113.01Z" fill="#263238"/>
<path d="M51.3265 120.064C52.5637 119.543 53.7632 118.927 54.9152 118.22C56.1129 117.597 57.2651 116.881 58.3622 116.076C58.3217 115.996 56.7171 116.821 54.7735 117.92C52.8298 119.019 51.286 120 51.3265 120.064Z" fill="#263238"/>
<path d="M80.6436 247.069L95.4895 247.209V236.215L80.6436 230.989V247.069Z" fill="#455A64"/>
<path d="M52.6223 149.774C52.6223 149.774 41.8207 156.142 37.336 160.264C32.8514 164.386 27.8352 189.647 27.8352 189.647L29.9308 229.285L26.7217 247.096H81.9395L81.3018 152.685C81.3018 152.685 74.3774 158.045 66.5571 158.115C61.7991 158.157 56.6868 156.34 52.6223 149.774Z" fill="#455A64"/>
<g opacity="0.3">
<path opacity="0.3" d="M30.7812 197.634C31.9643 205.565 33.8713 213.355 36.4756 220.896C36.8249 221.909 37.2248 222.965 37.9941 223.646C38.5003 224.064 39.0976 224.305 39.6139 224.686C40.6262 225.431 41.2184 226.653 41.7347 227.843C42.9799 230.7 44.0479 233.658 45.5664 236.36C47.0849 239.061 49.1096 241.548 51.8024 242.915C54.7129 244.4 58.0688 244.432 61.2981 244.432L95.4695 244.459V239.303C94.2041 238.107 92.0529 237.936 90.4078 237.469L77.7587 233.83C71.6847 232.093 65.5347 230.319 60.1744 226.862C48.6389 219.401 42.2662 205.133 30.8622 197.452" fill="black"/>
</g>
<path d="M81.1753 175.61C81.1115 175.666 81.0419 175.715 80.9677 175.754L80.3451 176.13C79.8035 176.451 79.0139 176.901 78.032 177.437C76.063 178.509 73.3145 179.951 70.2268 181.409C67.1392 182.867 64.2946 184.089 62.2193 184.904C61.2069 185.317 60.3414 185.638 59.7542 185.847L59.076 186.088C58.9971 186.118 58.9157 186.14 58.833 186.153C58.904 186.103 58.9805 186.064 59.0608 186.035L59.7188 185.745L62.1535 184.716C64.2085 183.848 67.038 182.61 70.1206 181.157C73.2031 179.705 75.9617 178.3 77.9459 177.266L80.2996 176.033L80.9424 175.706C81.0151 175.662 81.0936 175.629 81.1753 175.61Z" fill="white"/>
<path d="M80.568 167.902C80.4978 167.968 80.4195 168.024 80.3352 168.068L79.6519 168.486C79.0495 168.845 78.1789 169.349 77.0907 169.96C74.9141 171.177 71.8771 172.801 68.4858 174.468C65.0945 176.135 61.936 177.523 59.6481 178.477C58.4991 178.96 57.5728 179.335 56.9249 179.582L56.1758 179.866C56.0902 179.9 56.0022 179.926 55.9126 179.946C55.9875 179.887 56.0714 179.841 56.1606 179.812L56.8844 179.48C57.5576 179.185 58.4687 178.788 59.5773 178.295C61.8449 177.293 64.9629 175.872 68.3745 174.211C71.786 172.549 74.823 170.957 77.0198 169.783L79.6164 168.39L80.3251 168.015C80.4028 167.97 80.4841 167.932 80.568 167.902Z" fill="white"/>
<path d="M119.705 229.944L68.4652 218.742L51.0379 172.319L29.9307 182.653C29.9307 182.653 45.7434 233.187 51.0379 238.461C56.3324 243.735 120.661 242.749 120.661 242.749L119.705 229.944Z" fill="#DB8A76"/>
<path d="M53.0222 174.077L66.5774 204.028L38.9457 217.643L27.8353 189.631C27.8353 189.631 20.8249 167.714 37.3361 160.264C46.2092 156.233 53.0222 174.077 53.0222 174.077Z" fill="#455A64"/>
<path d="M36.688 160.714C36.9289 160.62 37.1782 160.552 37.4321 160.511C37.7241 160.431 38.0222 160.379 38.3229 160.355L38.8848 160.302L39.1885 160.269H39.5124C39.9969 160.265 40.4809 160.301 40.96 160.377C41.2182 160.42 41.4662 160.441 41.7598 160.511L42.595 160.736C43.816 161.129 44.9771 161.706 46.042 162.451C47.0937 163.217 48.0525 164.117 48.8968 165.131C49.2568 165.575 49.5947 166.038 49.9091 166.519C50.1942 166.932 50.4545 167.364 50.6886 167.811C50.8932 168.172 51.0791 168.544 51.2454 168.926C51.3823 169.209 51.5023 169.501 51.6048 169.8C51.712 170.047 51.7951 170.306 51.8528 170.571C51.7971 170.571 51.4377 169.499 50.5317 167.891C50.2988 167.5 50.0255 167.066 49.7319 166.637C49.4384 166.208 49.0739 165.753 48.7196 165.286C47.8783 164.304 46.9322 163.428 45.9002 162.676C44.8568 161.946 43.7221 161.374 42.5292 160.977L41.7142 160.746C41.451 160.671 41.2081 160.65 40.9347 160.602C40.4665 160.516 39.9926 160.469 39.5175 160.462H39.1986H38.8949L38.3381 160.495C38.0408 160.508 37.7448 160.544 37.4523 160.602C37.2011 160.662 36.9453 160.7 36.688 160.714Z" fill="#263238"/>
<path d="M156.529 233.042C156.529 233.042 156.736 233.916 155.122 236.092C155.304 237.351 154.038 238.943 153.35 239.308C153.35 239.308 153.628 241.221 149.807 242.309C145.985 243.398 132.187 244.019 132.187 244.019L118.521 242.502V231.016L126.893 223.356L138.195 219.604C138.195 219.604 139.516 222.869 136.727 224.889C135.112 226.042 133.432 227.089 131.696 228.025C131.441 228.16 131.227 228.368 131.078 228.626C130.929 228.884 130.852 229.181 130.856 229.483C130.855 229.857 130.975 230.221 131.196 230.513C131.417 230.805 131.726 231.009 132.071 231.091L140.853 233.085L156.513 233.047" fill="#DB8A76"/>
<path d="M137.618 240.889C137.834 240.871 138.052 240.88 138.266 240.916C138.681 240.954 139.278 240.996 140.028 241.029C143.904 241.225 147.785 240.761 151.523 239.656C152.241 239.447 152.818 239.265 153.213 239.12C153.417 239.041 153.627 238.982 153.841 238.944C153.655 239.063 153.456 239.159 153.249 239.228C152.864 239.394 152.292 239.603 151.578 239.839C149.712 240.449 147.795 240.873 145.854 241.104C143.916 241.333 141.962 241.372 140.017 241.222C139.268 241.163 138.666 241.088 138.256 241.018C138.04 240.997 137.826 240.954 137.618 240.889Z" fill="#A45B4A"/>
<path d="M138.656 238.156C138.875 238.137 139.096 238.146 139.314 238.182C139.734 238.22 140.326 238.257 141.101 238.29C143.066 238.371 145.035 238.285 146.987 238.032C148.94 237.779 150.872 237.37 152.768 236.81C153.492 236.596 154.079 236.408 154.484 236.274C154.689 236.188 154.903 236.127 155.121 236.092C154.929 236.206 154.728 236.301 154.519 236.376C154.124 236.548 153.542 236.762 152.818 237.003C150.925 237.62 148.984 238.057 147.018 238.311C145.051 238.566 143.067 238.626 141.09 238.488C140.331 238.429 139.724 238.359 139.304 238.29C139.084 238.267 138.867 238.222 138.656 238.156Z" fill="#A45B4A"/>
<path d="M55.8569 180.305C55.7796 180.369 55.6945 180.421 55.6038 180.461L54.8496 180.868L52.0808 182.326C49.7423 183.559 46.513 185.295 43.0154 187.289C39.5178 189.283 36.3542 191.148 34.0916 192.526L31.409 194.161L30.675 194.595C30.5909 194.652 30.5009 194.699 30.4067 194.734C30.4795 194.663 30.5593 194.6 30.6446 194.547L31.3533 194.064C31.9708 193.652 32.8718 193.067 33.9955 192.354C36.2378 190.934 39.376 189.037 42.8939 187.043C46.4118 185.049 49.6411 183.339 52.0049 182.149C53.1843 181.549 54.146 181.077 54.8142 180.766L55.5835 180.412C55.6693 180.363 55.7613 180.327 55.8569 180.305Z" fill="white"/>
<path d="M51.9999 173.326C51.9247 173.392 51.8413 173.446 51.7519 173.487L51.023 173.9L48.3352 175.406C46.0676 176.676 42.9547 178.483 39.5836 180.589C36.2125 182.696 33.216 184.711 31.0648 186.196L28.5339 187.965L27.8405 188.442C27.7615 188.501 27.6767 188.552 27.5874 188.592C27.653 188.515 27.7279 188.449 27.8101 188.393L28.4732 187.857C29.0553 187.412 29.9107 186.785 30.9737 186.014C33.0945 184.486 36.0809 182.444 39.457 180.332C42.8332 178.22 45.9664 176.441 48.2593 175.213C49.4032 174.597 50.3397 174.109 50.9875 173.787L51.7417 173.423C51.8249 173.383 51.9113 173.35 51.9999 173.326Z" fill="white"/>
<path d="M53.2652 174.57C53.2948 174.613 53.3203 174.66 53.3411 174.709L53.5385 175.127C53.7208 175.508 53.9738 176.055 54.2978 176.735L57.102 182.846L66.6938 203.959L66.7445 204.071L66.6382 204.13C63.2165 206.022 59.4455 207.93 55.5025 209.86C49.6107 212.76 43.9821 215.418 38.9761 217.739L38.8647 217.793L38.8192 217.675L31.6974 200.083L29.6727 195.072L29.1665 193.737C29.1159 193.598 29.0704 193.48 29.0349 193.394C29.0185 193.357 29.0066 193.317 28.9995 193.276C29.0215 193.312 29.0401 193.349 29.0552 193.389C29.0957 193.475 29.1412 193.582 29.202 193.721L29.7638 195.04C30.27 196.208 30.9533 197.891 31.8391 200.024L39.0571 217.616L38.9002 217.552C43.896 215.215 49.5297 212.545 55.4114 209.651C59.3342 207.721 63.1051 205.819 66.5471 203.937L66.4914 204.114L56.9552 182.931C55.796 180.321 54.8647 178.236 54.2219 176.794L53.5031 175.149L53.3209 174.72C53.2959 174.673 53.2771 174.622 53.2652 174.57Z" fill="#263238"/>
<path d="M342.485 205.91C342.991 203.991 344.13 202.131 345.861 201.343C347.592 200.555 349.748 200.989 351.591 201.697C353.433 202.404 355.245 203.359 357.204 203.487C359.163 203.616 361.375 202.63 361.957 200.646C362.509 198.781 361.451 196.798 360.12 195.442C358.716 194.012 356.996 192.979 355.117 192.438C353.238 191.897 351.261 191.865 349.367 192.346C347.474 192.826 345.725 193.804 344.281 195.188C342.838 196.572 341.747 198.318 341.108 200.266" fill="#ED2980"/>
<g opacity="0.3">
<path opacity="0.3" d="M360.104 195.442C358.701 194.012 356.981 192.979 355.102 192.438C353.223 191.897 351.246 191.865 349.352 192.346C347.459 192.826 345.71 193.804 344.266 195.188C342.823 196.572 341.732 198.318 341.093 200.266L342.485 205.91C342.991 203.991 344.13 202.131 345.861 201.343C347.592 200.555 349.748 200.989 351.591 201.697C353.433 202.404 355.245 203.359 357.204 203.487C359.163 203.616 361.375 202.63 361.957 200.646C362.494 198.781 361.436 196.798 360.104 195.442Z" fill="black"/>
</g>
<path d="M326.955 214.234C324.085 211.345 324.227 206.317 325.66 202.404C327.092 198.492 330.215 195.49 333.713 193.507C337.123 191.61 340.895 190.557 344.746 190.425C348.596 190.293 352.424 191.087 355.944 192.746C354.22 192.824 352.542 193.348 351.055 194.273C349.568 195.199 348.318 196.496 347.415 198.052C345.841 200.818 345.491 204.179 344.19 207.105C342.723 210.395 340.123 212.966 336.924 214.292C333.724 215.617 330.167 215.596 326.981 214.234" fill="#ED2980"/>
<path d="M325.574 196.873C322.395 192.896 321.97 186.517 322.44 181.329C322.911 176.14 324.045 170.92 323.271 165.785C322.815 162.74 321.696 159.83 321.322 156.764C320.947 153.698 321.479 150.246 323.716 148.268C326.292 145.996 330.347 146.532 333.024 148.665C335.702 150.798 337.251 154.148 338.385 157.488C340.875 164.82 341.791 172.957 339.746 180.444C337.701 187.932 332.898 194.627 325.852 196.884" fill="#ED2980"/>
<path d="M324.05 229.494C324.037 229.342 324.037 229.19 324.05 229.038C324.05 228.738 324.05 228.293 324.075 227.72C324.116 226.583 324.222 224.932 324.46 222.896C324.744 220.524 325.153 218.171 325.685 215.847C326.345 212.992 327.366 210.244 328.722 207.679C330.084 205.12 331.753 202.758 333.687 200.652C335.261 198.93 337.005 197.393 338.891 196.069C339.685 195.485 340.455 195.045 341.118 194.632C341.781 194.22 342.388 193.946 342.874 193.7L344.018 193.191C344.15 193.128 344.285 193.074 344.423 193.03C344.3 193.112 344.172 193.183 344.039 193.244L342.915 193.78C342.439 194.043 341.857 194.364 341.189 194.756C340.521 195.147 339.782 195.624 338.997 196.214C334.855 199.212 331.418 203.176 328.95 207.802C326.029 213.216 325.224 218.913 324.647 222.906C324.384 224.922 324.252 226.562 324.177 227.698C324.146 228.234 324.121 228.684 324.106 229.011C324.099 229.174 324.081 229.335 324.05 229.494Z" fill="#263238"/>
<path d="M296.616 181.168C290.729 184.92 290.749 188.35 291.731 191.582C292.713 194.815 296.327 197.055 299.324 195.844C301.019 195.163 302.244 193.603 303.292 192.038C304.34 190.473 305.317 188.795 306.79 187.675C308.263 186.555 310.384 186.121 311.851 187.23" fill="#ED2980"/>
<g opacity="0.3">
<path opacity="0.3" d="M296.616 181.168C290.729 184.92 290.749 188.35 291.731 191.582C292.713 194.815 296.327 197.055 299.324 195.844C301.019 195.163 302.244 193.603 303.292 192.038C304.34 190.473 305.317 188.795 306.79 187.675C307.808 186.876 309.071 186.505 310.333 186.635L296.616 181.168Z" fill="black"/>
</g>
<path d="M310.348 186.657L311.867 187.252C311.414 186.925 310.893 186.721 310.348 186.657Z" fill="black"/>
<path d="M292.212 185.311C293.73 183.06 297.547 182.412 299.951 183.532C302.356 184.652 304.107 186.882 305.681 189.106C307.255 191.331 308.789 193.678 310.965 195.227C313.142 196.776 316.194 197.334 318.366 195.763C319.062 195.219 319.645 194.53 320.08 193.738C320.515 192.946 320.793 192.069 320.896 191.159C321.091 189.34 320.974 187.499 320.552 185.724C320.046 183.108 319.186 180.364 317.212 178.719C315.01 176.869 311.958 176.784 309.148 176.88C305.924 176.993 302.649 177.25 299.627 178.429C296.605 179.608 293.513 182.181 292.232 185.301" fill="#ED2980"/>
<path d="M319.16 224.504C319.155 224.457 319.155 224.411 319.16 224.364C319.16 224.257 319.16 224.128 319.16 223.962C319.16 223.587 319.135 223.073 319.11 222.419C319.074 221.052 319.024 219.112 318.958 216.732C318.892 214.352 318.796 211.468 318.629 208.3C318.462 205.133 318.239 201.643 317.789 198.02C317.596 196.253 317.269 194.505 316.812 192.794C316.344 191.217 315.74 189.688 315.01 188.227C314.354 186.899 313.592 185.633 312.732 184.443C311.979 183.411 311.147 182.444 310.247 181.554C308.933 180.272 307.45 179.201 305.843 178.375C305.555 178.236 305.307 178.102 305.079 178.006L304.507 177.764L304.153 177.614C304.111 177.601 304.072 177.581 304.036 177.555C304.08 177.559 304.122 177.57 304.163 177.588L304.522 177.716L305.109 177.925C305.342 178.016 305.615 178.145 305.889 178.279C307.526 179.073 309.039 180.128 310.373 181.409C311.29 182.299 312.137 183.267 312.904 184.304C313.781 185.496 314.556 186.768 315.222 188.104C315.966 189.578 316.581 191.121 317.06 192.714C317.522 194.439 317.852 196.201 318.047 197.982C318.502 201.622 318.72 205.111 318.872 208.284C319.024 211.457 319.095 214.32 319.145 216.726C319.196 219.133 319.206 221.073 319.216 222.413V223.962C319.216 224.128 319.216 224.257 319.216 224.364C319.216 224.472 319.16 224.504 319.16 224.504Z" fill="#263238"/>
<path d="M321.277 227.318C320.997 226.443 320.782 225.547 320.634 224.638C320.224 222.161 320.132 219.637 320.36 217.134C320.724 213.421 321.476 209.763 322.603 206.226C323.812 202.217 325.452 197.929 326.849 193.325C327.542 191.086 328.106 188.806 328.54 186.496C328.931 184.341 329.209 182.165 329.375 179.978C329.643 176.273 329.705 172.553 329.563 168.84C329.461 165.667 329.304 163.1 329.203 161.336C329.153 160.462 329.117 159.776 329.092 159.294C329.092 159.074 329.092 158.897 329.092 158.758C329.085 158.697 329.085 158.636 329.092 158.576C329.099 158.634 329.099 158.694 329.092 158.753C329.092 158.887 329.122 159.063 329.142 159.289C329.183 159.776 329.239 160.457 329.304 161.331C329.436 163.1 329.623 165.667 329.75 168.835C329.921 172.557 329.877 176.288 329.618 180.005C329.466 182.193 329.199 184.371 328.818 186.528C328.389 188.85 327.824 191.141 327.128 193.389C325.721 198.015 324.091 202.297 322.861 206.29C321.724 209.807 320.957 213.445 320.573 217.139C320.328 219.638 320.389 222.16 320.755 224.643C320.902 225.511 321.034 226.187 321.15 226.637L321.272 227.173C321.278 227.221 321.279 227.269 321.277 227.318Z" fill="#263238"/>
<path d="M338.957 226.519H304.026L303.227 219.401H338.957V226.519Z" fill="#455A64"/>
<path d="M307.772 225.71L312.14 247.069H331.121L335.211 225.71H307.772Z" fill="#455A64"/>
<path d="M338.942 226.519C338.942 226.616 331.263 226.675 321.788 226.642C312.312 226.61 304.639 226.514 304.639 226.417C304.639 226.321 312.317 226.262 321.793 226.294C331.268 226.326 338.942 226.423 338.942 226.519Z" fill="#455A64"/>
<path d="M332.964 237.062C332.015 236.307 330.981 235.681 329.886 235.197C328.693 234.7 327.427 234.43 326.146 234.398C324.574 234.403 323.016 234.707 321.545 235.293C319.955 235.862 318.467 236.526 317.019 236.901C315.734 237.196 314.408 237.24 313.107 237.03C312.225 236.896 311.37 236.61 310.576 236.183C310.364 236.064 310.161 235.928 309.969 235.776C309.837 235.674 309.771 235.615 309.781 235.604C309.791 235.594 310.08 235.787 310.632 236.06C311.424 236.428 312.263 236.672 313.122 236.784C314.394 236.951 315.683 236.884 316.933 236.585C318.33 236.215 319.819 235.545 321.423 234.977C322.929 234.378 324.527 234.078 326.136 234.093C327.45 234.135 328.746 234.435 329.957 234.977C330.773 235.337 331.539 235.811 332.235 236.387C332.425 236.539 332.606 236.704 332.777 236.88C332.913 236.987 332.969 237.052 332.964 237.062Z" fill="#263238"/>
<path d="M332.696 238.488C331.78 237.759 330.79 237.141 329.745 236.644C328.598 236.146 327.375 235.873 326.136 235.84C324.617 235.846 323.111 236.135 321.687 236.692C320.168 237.228 318.705 237.866 317.323 238.257C316.103 238.634 314.831 238.786 313.563 238.708C312.705 238.651 311.867 238.414 311.098 238.011C310.893 237.894 310.697 237.762 310.51 237.614C310.443 237.568 310.381 237.512 310.328 237.448C310.328 237.416 310.617 237.625 311.153 237.888C311.922 238.233 312.743 238.426 313.578 238.456C314.819 238.489 316.056 238.308 317.242 237.92C318.594 237.518 320.026 236.88 321.58 236.312C323.039 235.746 324.582 235.463 326.136 235.475C328.275 235.544 330.336 236.343 332.012 237.754C332.189 237.905 332.358 238.066 332.518 238.236C332.65 238.413 332.706 238.477 332.696 238.488Z" fill="white"/>
<path d="M333.308 235.647C332.328 234.866 331.269 234.204 330.149 233.675C328.933 233.119 327.635 232.789 326.313 232.699C324.692 232.661 323.081 232.961 321.57 233.584C320.038 234.215 318.473 234.752 316.883 235.192C315.543 235.437 314.173 235.437 312.833 235.192C311.933 235.042 311.06 234.749 310.242 234.323C310.021 234.201 309.81 234.062 309.609 233.905C309.474 233.798 309.408 233.739 309.412 233.728C309.412 233.702 309.721 233.921 310.298 234.195C311.121 234.565 311.987 234.817 312.874 234.945C314.184 235.146 315.516 235.119 316.817 234.865C318.39 234.406 319.94 233.861 321.459 233.23C323.01 232.594 324.666 232.295 326.328 232.351C327.682 232.461 329.006 232.824 330.241 233.423C331.07 233.819 331.852 234.319 332.569 234.913C332.765 235.071 332.953 235.241 333.131 235.422C333.257 235.567 333.318 235.636 333.308 235.647Z" fill="white"/>
<path d="M338.942 226.519C338.942 226.594 331.116 226.658 321.464 226.658C311.811 226.658 303.98 226.594 303.98 226.519C303.98 226.444 311.806 226.38 321.464 226.38C331.121 226.38 338.942 226.444 338.942 226.519Z" fill="#263238"/>
<path d="M358.409 247.096C358.409 247.171 283.288 247.235 190.644 247.235C98.0005 247.235 22.8599 247.144 22.8599 247.096C22.8599 247.048 97.965 246.957 190.644 246.957C283.324 246.957 358.409 246.989 358.409 247.096Z" fill="#263238"/>
</svg>
