<svg width="515" height="514" viewBox="0 0 515 514" fill="none" xmlns="http://www.w3.org/2000/svg">
<path d="M444.38 276.059C444.376 275.987 444.376 275.915 444.38 275.843C444.38 275.689 444.38 275.494 444.38 275.237C444.38 274.682 444.38 273.9 444.38 272.893C444.38 270.837 444.38 267.835 444.319 264.052C444.319 256.445 444.257 245.63 444.206 232.667L444.432 232.893H401.04C400.978 232.893 401.544 232.39 401.307 232.626V244.335C401.307 248.159 401.307 251.898 401.307 255.551C401.307 262.839 401.307 269.716 401.307 276.018L401.081 275.792L432.466 275.905L441.307 275.967H443.651H444.473C444.473 275.967 444.422 275.967 444.288 275.967H443.568H441.266L432.476 276.028L400.948 276.152H400.711V275.915C400.711 269.614 400.711 262.736 400.711 255.448C400.711 251.802 400.711 248.063 400.711 244.232V232.667C400.464 232.904 401.03 232.338 400.978 232.4H444.37H444.596V232.636C444.596 245.661 444.504 256.527 444.473 264.165C444.473 267.938 444.473 270.899 444.411 272.955C444.411 273.983 444.411 274.712 444.411 275.257C444.411 275.504 444.411 275.689 444.411 275.843C444.411 275.997 444.391 276.069 444.38 276.059Z" fill="#E0E0E0"/>
<path d="M444.524 253.433C444.524 253.577 434.676 253.7 422.535 253.7C410.395 253.7 400.546 253.577 400.546 253.433C400.546 253.289 410.395 253.166 422.535 253.166C434.676 253.166 444.524 253.279 444.524 253.433Z" fill="#E0E0E0"/>
<path d="M422.885 233.418C423.029 233.418 423.152 243.112 423.152 255.057C423.152 267.002 423.029 276.696 422.885 276.696C422.741 276.696 422.618 267.013 422.618 255.057C422.618 243.101 422.741 233.418 422.885 233.418Z" fill="#E0E0E0"/>
<path d="M422.659 232.02C422.659 232.02 422.525 232.02 422.288 232.02C422.052 232.02 421.703 231.907 421.26 231.794C420.002 231.469 418.779 231.017 417.611 230.447C415.839 229.594 414.195 228.497 412.728 227.188C411.837 226.45 411.049 225.596 410.384 224.649C410.029 224.096 409.86 223.444 409.901 222.788C409.928 222.433 410.046 222.092 410.244 221.796C410.442 221.501 410.714 221.262 411.032 221.102C411.673 220.85 412.385 220.85 413.026 221.102C413.625 221.29 414.191 221.571 414.702 221.935C415.649 222.578 416.54 223.3 417.364 224.094C418.764 225.436 419.972 226.965 420.952 228.638C421.614 229.759 422.162 230.943 422.587 232.174C422.731 232.606 422.823 232.955 422.885 233.202C422.946 233.449 422.967 233.572 422.946 233.572C422.293 231.944 421.52 230.367 420.633 228.854C419.625 227.244 418.412 225.772 417.025 224.474C416.208 223.72 415.331 223.033 414.404 222.418C413.934 222.09 413.418 221.834 412.872 221.658C412.351 221.467 411.779 221.467 411.258 221.658C411.022 221.774 410.821 221.952 410.676 222.173C410.532 222.393 410.449 222.648 410.436 222.912C410.394 223.456 410.535 223.998 410.837 224.454C411.469 225.357 412.216 226.176 413.057 226.89C414.467 228.163 416.036 229.248 417.724 230.118C419.323 230.864 420.972 231.5 422.659 232.02Z" fill="#E0E0E0"/>
<path d="M422.597 232.246C422.599 231.755 422.651 231.266 422.751 230.786C422.96 229.467 423.238 228.16 423.584 226.869C424.092 224.954 424.731 223.075 425.496 221.246C425.928 220.218 426.421 219.139 426.976 218.059C427.252 217.453 427.676 216.926 428.21 216.528C428.527 216.314 428.912 216.225 429.29 216.276C429.669 216.327 430.016 216.515 430.266 216.805C431.191 218.018 430.934 219.457 430.79 220.64C430.622 221.813 430.315 222.962 429.875 224.063C429.147 225.931 428.081 227.649 426.729 229.131C425.826 230.133 424.788 231.005 423.645 231.722C423.339 231.922 423.02 232.1 422.689 232.256C422.473 232.369 422.35 232.421 422.34 232.4C423.851 231.404 425.233 230.223 426.452 228.884C427.724 227.403 428.729 225.713 429.423 223.888C429.831 222.813 430.117 221.696 430.276 220.557C430.368 219.969 430.409 219.374 430.399 218.779C430.384 218.197 430.198 217.632 429.865 217.155C429.7 216.957 429.467 216.828 429.212 216.794C428.957 216.76 428.698 216.823 428.487 216.97C428.041 217.321 427.688 217.776 427.459 218.296C426.904 219.324 426.431 220.424 425.969 221.442C425.176 223.243 424.489 225.09 423.913 226.972C423.44 228.586 423.131 229.912 422.885 230.827C422.831 231.308 422.735 231.782 422.597 232.246Z" fill="#E0E0E0"/>
<path d="M303.061 358.628L308.849 402.513H265.94L272.19 358.628H303.061Z" fill="#E0E0E0"/>
<path d="M275.675 365.002C276.206 366.479 276.925 367.881 277.814 369.175C278.806 370.547 280.087 371.684 281.566 372.506C283.394 373.477 285.438 373.972 287.508 373.945C289.58 374.007 291.635 373.555 293.491 372.629C294.978 371.829 296.246 370.675 297.181 369.268C298.029 367.947 298.68 366.51 299.114 365.002C299.12 365.432 299.05 365.86 298.908 366.266C298.599 367.399 298.124 368.479 297.5 369.474C296.568 370.975 295.265 372.21 293.717 373.061C291.815 374.052 289.692 374.54 287.549 374.48C285.394 374.511 283.268 373.98 281.381 372.938C279.858 372.059 278.554 370.846 277.567 369.391C276.908 368.422 276.385 367.367 276.015 366.256C275.825 365.862 275.71 365.437 275.675 365.002Z" fill="white"/>
<path d="M234.483 47.432C234.684 47.2825 234.915 47.1777 235.159 47.1245C235.404 47.0713 235.657 47.071 235.902 47.1236C236.488 47.2483 237.051 47.467 237.567 47.7712L239.747 48.7992C243.036 50.444 247.755 52.7776 253.584 55.6662L263.123 60.4362L265.724 61.7726L267.061 62.4408C267.555 62.6422 268.014 62.9235 268.418 63.2734C268.717 63.5795 268.945 63.948 269.085 64.3525C269.225 64.7571 269.273 65.1876 269.227 65.6131C269.181 66.0387 269.041 66.4487 268.817 66.8138C268.594 67.1789 268.292 67.49 267.934 67.7247C267.432 68.0161 266.86 68.1686 266.279 68.1667L238.246 69.1947L210.212 70.2227L207.015 70.3255C206.458 70.341 205.909 70.1933 205.435 69.9009C204.961 69.6084 204.583 69.1837 204.347 68.6792C204.111 68.1746 204.028 67.6121 204.107 67.0608C204.187 66.5095 204.426 65.9935 204.795 65.5762C205.162 65.2176 205.582 64.9161 206.039 64.6818L207.272 63.9211L216.38 58.3699L229.59 50.3618L233.198 48.2132L234.144 47.6684L234.473 47.4936C234.473 47.4936 234.38 47.5759 234.175 47.7095L233.26 48.3058L229.744 50.4851L216.596 58.596L207.519 64.1986L206.285 64.9594C205.867 65.1766 205.483 65.4537 205.144 65.7818C204.832 66.1298 204.63 66.5621 204.562 67.0247C204.495 67.4873 204.565 67.9594 204.765 68.382C204.965 68.8046 205.285 69.1588 205.685 69.4003C206.086 69.6418 206.548 69.7598 207.015 69.7396L210.202 69.6265L238.246 68.5985L266.279 67.5705C266.772 67.5773 267.258 67.4531 267.688 67.2107C268.094 66.9494 268.41 66.5688 268.592 66.121C268.778 65.6859 268.831 65.2053 268.743 64.7404C268.655 64.2754 268.431 63.8471 268.099 63.5099C267.729 63.1977 267.313 62.9445 266.865 62.7594L265.529 62.081L262.918 60.7548L253.388 56.0363L239.623 49.0254L237.475 47.9151C236.975 47.6051 236.431 47.3729 235.861 47.2264C235.391 47.1454 234.909 47.2175 234.483 47.432Z" fill="#E0E0E0"/>
<path d="M235.306 47.1339C235.181 46.0418 235.157 44.9407 235.234 43.8443V43.6284H235.46C236.506 43.7792 237.57 43.5215 238.431 42.9088C238.955 42.5625 239.389 42.0949 239.695 41.5456C240.001 40.9962 240.17 40.3813 240.189 39.7528C240.202 39.103 240.072 38.4582 239.807 37.8647C239.542 37.2711 239.149 36.7434 238.657 36.3193C237.814 35.6481 236.75 35.3179 235.676 35.3941C234.667 35.4889 233.7 35.843 232.869 36.4221C232.869 36.4221 233.023 36.1445 233.465 35.8156C234.111 35.3645 234.861 35.085 235.645 35.0035C236.847 34.8721 238.052 35.2233 238.996 35.9801C239.56 36.4426 240.011 37.0272 240.315 37.6897C240.62 38.3522 240.77 39.0753 240.754 39.8042C240.733 40.5305 240.524 41.239 240.147 41.8602C239.793 42.4463 239.312 42.9452 238.739 43.32C237.766 43.9787 236.573 44.2263 235.419 44.0087L235.655 43.834C235.627 44.9415 235.51 46.045 235.306 47.1339Z" fill="#E0E0E0"/>
<path d="M121.619 201.488C121.61 201.324 121.61 201.159 121.619 200.995C121.619 200.645 121.557 200.162 121.516 199.545C121.516 199.216 121.516 198.856 121.444 198.517C121.372 198.178 121.321 197.705 121.249 197.242C121.112 196.173 120.899 195.115 120.612 194.076C119.892 191.217 118.745 188.482 117.209 185.965C115.198 182.614 112.564 179.679 109.448 177.32C105.678 174.45 101.287 172.507 96.6284 171.645C95.3559 171.404 94.0675 171.256 92.7734 171.203C92.1155 171.203 91.4575 171.111 90.7893 171.121L88.7333 171.224C88.3941 171.224 88.0549 171.224 87.7053 171.296L86.6773 171.45C85.9989 171.563 85.3101 171.645 84.6213 171.779C83.2273 172.091 81.854 172.489 80.5093 172.971C79.1506 173.468 77.8251 174.052 76.5413 174.719C75.9039 175.068 75.2871 175.469 74.6497 175.85C74.0106 176.227 73.3991 176.65 72.8199 177.114C71.6076 178.017 70.4539 178.995 69.3658 180.044C68.299 181.153 67.3065 182.331 66.3949 183.57C64.5552 186.111 63.1324 188.929 62.1801 191.917C61.1684 195.01 60.621 198.235 60.5559 201.488C60.6115 204.755 61.1591 207.996 62.1801 211.1C63.167 214.107 64.6318 216.936 66.5183 219.478C67.434 220.717 68.4298 221.895 69.4995 223.004C70.5827 224.058 71.7368 225.037 72.9535 225.934C73.5149 226.395 74.1093 226.814 74.732 227.188C75.3693 227.568 75.9861 227.98 76.6235 228.319C79.1597 229.655 81.8584 230.657 84.6522 231.3C85.3307 231.444 86.0194 231.526 86.7082 231.639L87.7362 231.793C88.0651 231.793 88.4147 231.793 88.7642 231.855L90.8202 231.958C91.4884 231.958 92.1463 231.907 92.8042 231.886C94.0975 231.823 95.3853 231.676 96.6592 231.444C100.901 230.64 104.926 228.948 108.469 226.48C112.012 224.013 114.994 220.824 117.219 217.124C118.755 214.603 119.903 211.865 120.622 209.003C120.909 207.967 121.122 206.913 121.259 205.847C121.331 205.384 121.413 204.952 121.455 204.562C121.496 204.171 121.506 203.811 121.527 203.534C121.527 202.917 121.599 202.434 121.629 202.084C121.621 201.916 121.621 201.748 121.629 201.581C121.629 201.581 121.629 201.755 121.629 202.084C121.629 202.413 121.629 202.917 121.629 203.544C121.629 203.863 121.629 204.222 121.629 204.572C121.629 204.922 121.527 205.394 121.465 205.867C121.344 206.943 121.141 208.009 120.858 209.054C120.17 211.95 119.043 214.723 117.517 217.278C115.508 220.681 112.863 223.665 109.725 226.067C104.835 229.83 98.9148 232.013 92.7528 232.328C92.0846 232.328 91.4164 232.41 90.6968 232.41L88.6408 232.307C88.3016 232.307 87.9521 232.307 87.6128 232.246L86.5848 232.081C85.8961 231.978 85.197 231.896 84.5288 231.752C83.1327 231.444 81.759 231.042 80.4168 230.55C79.0326 230.054 77.683 229.467 76.3768 228.792C75.7291 228.432 75.1021 228.021 74.4544 227.64C73.8017 227.256 73.1765 226.827 72.5835 226.355C71.3504 225.44 70.1761 224.448 69.0677 223.384C67.9809 222.255 66.9679 221.056 66.0351 219.797C64.1094 217.214 62.6164 214.336 61.6147 211.275C59.4722 204.94 59.4722 198.077 61.6147 191.743C62.6208 188.683 64.1134 185.805 66.0351 183.22C67.8504 180.696 70.0617 178.481 72.5835 176.662C73.1967 176.192 73.8425 175.766 74.5161 175.387C75.1637 175.007 75.7908 174.596 76.4385 174.246C77.7445 173.568 79.0941 172.977 80.4785 172.478C81.8208 171.988 83.1946 171.59 84.5905 171.285C85.2793 171.141 85.9783 171.059 86.6465 170.946L87.6745 170.792C88.0137 170.792 88.3633 170.792 88.7025 170.73L90.7585 170.627C91.437 170.627 92.1052 170.689 92.8145 170.71C94.1223 170.774 95.4241 170.928 96.7106 171.172C101.01 171.994 105.086 173.722 108.666 176.24C112.247 178.759 115.25 182.011 117.476 185.78C119.006 188.334 120.133 191.108 120.817 194.004C121.102 195.049 121.305 196.115 121.424 197.191C121.485 197.654 121.557 198.085 121.588 198.476C121.619 198.867 121.588 199.226 121.588 199.555C121.588 200.182 121.588 200.666 121.588 201.015C121.588 201.365 121.619 201.488 121.619 201.488Z" fill="#E0E0E0"/>
<path d="M90.9643 182.501C90.7002 180.57 90.6107 178.619 90.697 176.672C90.6104 174.729 90.6999 172.781 90.9643 170.854C91.2286 172.781 91.3181 174.729 91.2315 176.672C91.3178 178.619 91.2284 180.57 90.9643 182.501Z" fill="#E0E0E0"/>
<path d="M73.7351 201.488C71.5531 201.758 69.3526 201.848 67.1559 201.755C64.9558 201.848 62.7518 201.759 60.5664 201.488C62.7523 201.224 64.9558 201.134 67.1559 201.221C69.3526 201.135 71.5526 201.224 73.7351 201.488Z" fill="#E0E0E0"/>
<path d="M121.485 201.488C119.441 201.756 117.377 201.846 115.317 201.755C113.258 201.846 111.194 201.757 109.149 201.488C111.194 201.226 113.258 201.136 115.317 201.221C117.377 201.137 119.441 201.226 121.485 201.488Z" fill="#E0E0E0"/>
<path d="M90.9645 232.174C90.698 230.129 90.6085 228.066 90.6972 226.006C90.6085 223.946 90.698 221.882 90.9645 219.838C91.231 221.882 91.3204 223.946 91.2317 226.006C91.3204 228.066 91.231 230.129 90.9645 232.174Z" fill="#E0E0E0"/>
<path d="M419.461 326.041C419.461 326.041 419.461 325.722 419.389 325.115C419.317 324.509 419.297 323.604 419.225 322.422C419.225 321.836 419.163 321.168 419.112 320.448C419.06 319.729 418.886 318.927 418.762 318.074L418.331 315.308C418.264 314.799 418.154 314.297 418.002 313.807C417.868 313.293 417.734 312.779 417.59 312.214C416.279 306.904 414.164 301.825 411.32 297.154C407.597 290.933 402.711 285.488 396.928 281.117L394.481 279.287C393.617 278.732 392.723 278.208 391.829 277.663L390.472 276.84C390.024 276.551 389.557 276.294 389.074 276.069L386.134 274.661C385.64 274.425 385.106 274.178 384.643 273.952L383.08 273.376L379.894 272.225C378.866 271.865 377.694 271.628 376.573 271.33C375.449 271.001 374.306 270.74 373.15 270.549C370.793 270.112 368.41 269.837 366.016 269.727C364.792 269.727 363.569 269.562 362.325 269.583L358.594 269.778C357.966 269.778 357.329 269.778 356.702 269.891L354.821 270.189C353.567 270.395 352.292 270.539 351.027 270.806C348.47 271.372 345.953 272.107 343.492 273.006L341.621 273.695L340.686 274.044L339.781 274.486L336.132 276.244C334.939 276.892 333.798 277.642 332.616 278.3C332.04 278.67 331.423 278.989 330.868 279.4L329.244 280.644C326.99 282.315 324.85 284.135 322.84 286.092L319.961 289.248L319.242 290.04L318.594 290.903L317.299 292.631L316.003 294.368L314.862 296.229L313.732 298.12L313.166 299.056C312.991 299.374 312.837 299.713 312.683 300.084L310.761 304.062C310.257 305.45 309.733 306.848 309.229 308.246C305.35 319.802 305.35 332.309 309.229 343.866L310.761 348.05L312.673 352.028L313.156 353.056L313.732 353.992L314.862 355.863L316.003 357.723L317.299 359.461L318.594 361.188L319.242 362.051L319.961 362.843L322.829 365.999C324.842 367.954 326.981 369.774 329.234 371.447L330.899 372.691C331.454 373.113 332.071 373.421 332.647 373.791C333.829 374.49 334.97 375.251 336.163 375.847L339.812 377.615L340.717 378.047C341.025 378.181 341.344 378.283 341.652 378.397L343.523 379.085C345.983 379.988 348.5 380.726 351.058 381.296C352.323 381.553 353.597 381.707 354.852 381.912L356.743 382.2C357.37 382.282 357.997 382.282 358.624 382.324L362.366 382.519C363.6 382.519 364.823 382.416 366.047 382.375C368.461 382.258 370.865 381.98 373.243 381.542L374.106 381.409C374.394 381.357 374.682 381.265 374.959 381.203L376.655 380.771C377.776 380.463 378.907 380.237 379.986 379.877L383.163 378.715L384.725 378.14L386.226 377.441L389.156 376.032C389.639 375.804 390.107 375.543 390.554 375.251L391.911 374.428C392.805 373.884 393.71 373.4 394.563 372.804L397.01 370.985C402.794 366.61 407.68 361.162 411.402 354.938C414.246 350.266 416.361 345.187 417.673 339.877L418.084 338.294C418.236 337.801 418.346 337.295 418.413 336.783L418.845 334.018C418.968 333.165 419.122 332.373 419.204 331.653C419.287 330.934 419.276 330.266 419.307 329.669C419.379 328.497 419.441 327.613 419.472 326.976C419.503 326.339 419.544 326.061 419.544 326.061C419.544 326.061 419.544 326.369 419.544 326.976C419.544 327.583 419.482 328.497 419.431 329.68C419.431 330.266 419.379 330.934 419.338 331.664C419.297 332.394 419.132 333.185 419.009 334.038C418.886 334.892 418.752 335.827 418.598 336.814C418.539 337.329 418.436 337.838 418.289 338.335C418.156 338.849 418.022 339.363 417.889 339.929C416.603 345.271 414.505 350.385 411.669 355.092C407.96 361.366 403.073 366.864 397.277 371.283L394.82 373.123C393.967 373.688 393.052 374.213 392.158 374.768L390.79 375.6C390.343 375.899 389.872 376.16 389.382 376.382L386.432 377.811L384.931 378.53L383.358 379.106L380.151 380.288C379.071 380.648 377.93 380.884 376.799 381.193L375.103 381.635C374.815 381.696 374.528 381.789 374.24 381.84L373.356 381.974C370.98 382.427 368.575 382.712 366.16 382.827C364.936 382.827 363.703 382.992 362.449 382.981L358.686 382.796C358.049 382.745 357.411 382.796 356.784 382.673L354.882 382.385C353.618 382.18 352.323 382.025 351.048 381.768C348.47 381.196 345.932 380.454 343.451 379.548L341.56 378.859L340.614 378.51L339.699 378.068L335.926 376.248C334.723 375.59 333.562 374.84 332.369 374.13C331.794 373.76 331.166 373.442 330.611 373.02L328.936 371.766C326.661 370.081 324.501 368.248 322.47 366.276L319.571 363.09L318.841 362.288L318.183 361.424L316.877 359.677L315.561 357.919L314.42 356.048L313.269 354.167L312.693 353.221L312.21 352.193L310.267 348.173L308.725 343.948C304.801 332.276 304.801 319.641 308.725 307.968C309.249 306.56 309.753 305.152 310.278 303.753C310.802 302.355 311.573 301.07 312.21 299.734C312.375 299.405 312.529 299.066 312.704 298.706L313.269 297.76L314.42 295.879L315.572 293.998L316.877 292.25L318.183 290.503L318.841 289.639L319.571 288.837L322.47 285.65C324.503 283.682 326.663 281.848 328.936 280.161L330.611 278.907C331.166 278.495 331.794 278.177 332.38 277.796C333.562 277.097 334.723 276.337 335.926 275.74L339.606 273.972L340.521 273.53C340.83 273.397 341.148 273.294 341.467 273.17L343.359 272.482C345.84 271.579 348.377 270.841 350.955 270.272C352.23 270.004 353.515 269.86 354.79 269.655L356.692 269.367C357.319 269.285 357.956 269.285 358.594 269.244L362.356 269.058C363.6 269.058 364.844 269.161 366.067 269.202C368.482 269.323 370.887 269.608 373.263 270.056C374.427 270.245 375.577 270.51 376.707 270.847C377.838 271.156 378.968 271.392 380.058 271.752L383.255 272.924L384.838 273.499L386.339 274.219L389.29 275.648C389.776 275.876 390.247 276.137 390.698 276.429L392.055 277.262C392.96 277.817 393.864 278.341 394.728 278.907L397.185 280.747C402.979 285.168 407.866 290.665 411.577 296.938C414.411 301.645 416.509 306.759 417.796 312.101C417.93 312.656 418.063 313.129 418.197 313.705C418.343 314.198 418.446 314.704 418.505 315.216L418.917 317.991C419.04 318.855 419.184 319.636 419.246 320.366C419.307 321.096 419.307 321.764 419.338 322.36C419.389 323.532 419.42 324.416 419.451 325.054C419.482 325.691 419.461 326.041 419.461 326.041Z" fill="#263238"/>
<path d="M362.757 286.175C362.492 283.376 362.403 280.565 362.49 277.755C362.403 274.943 362.492 272.127 362.757 269.326C363.028 272.127 363.117 274.943 363.024 277.755C363.117 280.565 363.027 283.377 362.757 286.175Z" fill="#263238"/>
<path d="M330.92 326.04C330.92 326.184 325.461 326.308 318.738 326.308C312.015 326.308 306.566 326.184 306.566 326.04C306.566 325.897 312.015 325.773 318.738 325.773C325.461 325.773 330.92 325.876 330.92 326.04Z" fill="#263238"/>
<path d="M419.225 326.04C419.225 326.184 414.085 326.308 407.742 326.308C401.399 326.308 396.28 326.184 396.28 326.04C396.28 325.897 401.42 325.773 407.752 325.773C414.085 325.773 419.225 325.876 419.225 326.04Z" fill="#263238"/>
<path d="M362.757 382.745C362.492 379.699 362.403 376.641 362.49 373.585C362.403 370.533 362.492 367.478 362.757 364.436C363.028 367.478 363.117 370.533 363.024 373.585C363.117 376.641 363.028 379.7 362.757 382.745Z" fill="#263238"/>
<path d="M358.09 294.913L355.006 300.598C354.615 301.336 354.45 302.173 354.53 303.004C354.61 303.836 354.933 304.625 355.458 305.275L358.861 309.459L366.406 309.366L369.933 305.326C370.505 304.669 370.861 303.853 370.953 302.986C371.045 302.12 370.868 301.247 370.447 300.484L367.363 294.82C367.16 294.454 366.861 294.15 366.499 293.94C366.137 293.73 365.725 293.622 365.307 293.628L360.074 293.689C359.664 293.698 359.265 293.816 358.916 294.031C358.567 294.246 358.282 294.551 358.09 294.913Z" fill="#455A64"/>
<path d="M363.446 358.453L352.909 346.148L358.912 309.459L366.458 309.366L372.605 345.696L363.446 358.453Z" fill="#455A64"/>
<path d="M366.365 309.531C365.176 309.826 363.949 309.941 362.726 309.87C361.507 309.979 360.278 309.914 359.077 309.675C360.266 309.382 361.493 309.267 362.716 309.336C363.935 309.225 365.164 309.291 366.365 309.531Z" fill="#263238"/>
<path d="M368.041 296.455C367.765 297.183 367.399 297.873 366.951 298.511C366.211 299.734 365.152 301.399 363.867 303.198C362.582 304.997 361.462 306.591 360.588 307.711C360.154 308.354 359.643 308.941 359.066 309.459C359.397 308.761 359.803 308.103 360.279 307.495L363.425 302.9L366.581 298.305C366.993 297.633 367.483 297.012 368.041 296.455Z" fill="#263238"/>
<path d="M369.48 327.655C367.136 329.51 364.685 331.227 362.14 332.795C359.697 334.528 357.149 336.111 354.512 337.534C356.854 335.66 359.305 333.927 361.852 332.342C364.297 330.626 366.844 329.06 369.48 327.655Z" fill="#FAFAFA"/>
<path d="M367.496 317.395C365.691 318.895 363.811 320.302 361.863 321.61C358.717 323.892 356.209 325.794 356.116 325.722C359.543 322.477 363.366 319.679 367.496 317.395Z" fill="#FAFAFA"/>
<path d="M366.108 309.428C364.924 310.451 363.623 311.33 362.233 312.049C360.947 312.921 359.568 313.645 358.121 314.208C359.305 313.185 360.606 312.306 361.996 311.587C363.283 310.718 364.662 309.994 366.108 309.428Z" fill="#FAFAFA"/>
<path d="M362.932 303.733C361.797 302.918 360.712 302.035 359.683 301.091C358.538 300.284 357.44 299.412 356.394 298.48C359.001 299.618 361.258 301.432 362.932 303.733Z" fill="#FAFAFA"/>
<path d="M366.56 297.781C365.559 297.326 364.636 296.715 363.826 295.971C362.906 295.366 362.093 294.613 361.42 293.741C362.422 294.196 363.344 294.807 364.155 295.55C365.075 296.155 365.888 296.909 366.56 297.781Z" fill="#FAFAFA"/>
<path d="M370.005 305.316C368.994 304.958 368.052 304.429 367.219 303.754C366.288 303.226 365.451 302.549 364.741 301.749C365.737 302.097 366.667 302.608 367.496 303.26C368.442 303.799 369.29 304.494 370.005 305.316Z" fill="#FAFAFA"/>
<path d="M371.32 338.993C368.988 341.017 366.54 342.905 363.991 344.647C361.542 346.532 358.989 348.275 356.342 349.87C358.672 347.843 361.12 345.955 363.672 344.216C366.119 342.33 368.673 340.586 371.32 338.993Z" fill="#FAFAFA"/>
<path d="M215.455 125.488C215.455 125.488 215.455 125.2 215.383 124.655C215.311 124.11 215.301 123.288 215.229 122.239C215.229 121.705 215.167 121.109 215.126 120.451C215.085 119.793 214.92 119.094 214.807 118.323C214.694 117.552 214.56 116.729 214.417 115.845C214.245 114.906 214.026 113.976 213.759 113.059C212.586 108.289 210.697 103.725 208.156 99.5206C204.815 93.9396 200.431 89.0535 195.244 85.1286L193.044 83.4941C192.273 82.9904 191.461 82.4661 190.659 82.0241C189.858 81.582 189.056 80.9961 188.182 80.5952L185.54 79.3102L184.204 78.6728L182.795 78.1588L179.937 77.1308C178.971 76.8121 177.953 76.5962 176.946 76.329C175.933 76.0327 174.903 75.7992 173.862 75.6299C171.743 75.2356 169.6 74.9883 167.447 74.8898C166.358 74.8898 165.247 74.7458 164.137 74.7561L160.786 74.9309C160.22 74.9309 159.645 74.9309 159.09 75.044L157.393 75.301C156.263 75.486 155.111 75.6196 153.98 75.8561C151.684 76.3644 149.424 77.0273 147.216 77.8401L145.53 78.4569L144.687 78.7756L143.875 79.1662L140.596 80.7494C139.568 81.325 138.54 82.0035 137.44 82.6306C136.916 82.9698 136.361 83.2474 135.867 83.6586L134.376 84.7791C132.35 86.2751 130.426 87.9065 128.62 89.6621L126.039 92.4994L125.392 93.219L124.816 93.99L123.654 95.5423L122.483 97.1048L121.455 98.7702L120.427 100.456L119.913 101.299C119.758 101.587 119.625 101.885 119.481 102.183C118.905 103.369 118.329 104.561 117.754 105.761C117.301 107.004 116.839 108.259 116.376 109.513C112.895 119.9 112.895 131.138 116.376 141.525C116.839 142.779 117.291 144.033 117.754 145.277C118.216 146.521 118.905 147.672 119.47 148.865L119.902 149.749L120.416 150.592L121.444 152.267L122.472 153.943L123.634 155.506L124.796 157.058L125.381 157.829L126.029 158.538L128.589 161.396C130.398 163.149 132.321 164.78 134.346 166.279L135.836 167.399C136.33 167.78 136.864 168.057 137.409 168.427C138.437 169.055 139.465 169.733 140.565 170.309L143.844 171.892L144.656 172.282L145.499 172.601L147.185 173.218C149.393 174.031 151.653 174.694 153.95 175.202C155.091 175.438 156.232 175.572 157.363 175.757L159.059 176.014C159.624 176.086 160.19 176.086 160.755 176.127L164.106 176.302C165.227 176.302 166.327 176.209 167.416 176.168C169.573 176.07 171.719 175.822 173.841 175.428C174.883 175.259 175.913 175.025 176.925 174.729C177.953 174.462 178.981 174.246 179.907 173.927L182.764 172.899L184.173 172.385L185.54 171.676L188.172 170.412C189.056 170.011 189.827 169.445 190.649 168.983C191.472 168.52 192.263 168.016 193.034 167.513L195.234 165.878C200.423 161.955 204.807 157.069 208.146 151.486C210.702 147.289 212.605 142.727 213.789 137.958C213.913 137.464 214.036 136.991 214.16 136.529C214.294 136.085 214.39 135.631 214.447 135.172C214.591 134.288 214.715 133.465 214.838 132.694C214.961 131.923 215.095 131.214 215.157 130.566C215.218 129.919 215.229 129.312 215.26 128.778C215.331 127.75 215.383 126.917 215.414 126.362C215.445 125.807 215.486 125.539 215.486 125.539C215.486 125.539 215.486 125.817 215.486 126.362C215.486 126.907 215.434 127.729 215.393 128.788C215.393 129.322 215.342 129.919 215.311 130.577C215.28 131.234 215.126 131.944 215.023 132.715L214.653 135.213C214.593 135.671 214.5 136.125 214.375 136.57C214.252 137.032 214.129 137.516 214.005 138.009C212.854 142.812 210.971 147.409 208.423 151.64C205.092 157.287 200.697 162.234 195.481 166.207L193.281 167.862C192.5 168.376 191.687 168.89 190.875 169.353C190.063 169.815 189.272 170.381 188.388 170.802L185.725 172.087L184.378 172.725L182.96 173.249L180.081 174.277C179.105 174.606 178.077 174.811 177.069 175.089C176.056 175.387 175.027 175.624 173.985 175.798C171.847 176.203 169.683 176.46 167.509 176.569C166.409 176.569 165.288 176.713 164.168 176.703L160.776 176.538C160.21 176.538 159.634 176.538 159.069 176.425L157.363 176.168C156.221 175.983 155.06 175.85 153.908 175.613C151.588 175.1 149.304 174.434 147.072 173.619L145.376 173.002L144.42 172.704L143.598 172.303L140.308 170.648C139.229 170.062 138.19 169.384 137.111 168.746C136.587 168.417 136.083 168.129 135.528 167.718L134.017 166.587C131.969 165.074 130.025 163.426 128.198 161.653L125.597 158.785L124.939 158.065L124.343 157.284L123.171 155.721L122.01 154.2L120.982 152.514L119.954 150.818L119.429 149.965L118.998 149.07L117.25 145.462L115.862 141.658C114.174 136.431 113.28 130.98 113.21 125.488C113.28 119.995 114.174 114.544 115.862 109.317C116.325 108.043 116.798 106.778 117.26 105.524C117.723 104.27 118.422 103.108 118.998 101.906C119.142 101.607 119.285 101.309 119.44 101.011L119.954 100.158L120.982 98.4618L122.01 96.7759L123.192 95.203L124.364 93.6302L124.95 92.8592L125.608 92.1293C126.481 91.1733 127.345 90.2172 128.219 89.2715C130.042 87.4814 131.986 85.819 134.037 84.296L135.548 83.1652C136.052 82.7848 136.576 82.497 137.132 82.1372C138.211 81.4998 139.249 80.8213 140.329 80.2354L143.639 78.642L144.461 78.241L145.314 77.9224L147.011 77.3056C149.243 76.4905 151.527 75.8243 153.847 75.3112C154.998 75.0748 156.16 74.9412 157.301 74.7561L159.007 74.4991C159.573 74.4272 160.148 74.4272 160.714 74.386L164.106 74.2216C165.227 74.2216 166.337 74.3141 167.447 74.3552C169.618 74.4645 171.778 74.7221 173.913 75.1262C174.955 75.3001 175.985 75.537 176.997 75.8355C178.025 76.1131 179.053 76.3187 180.009 76.6476L182.888 77.6756L184.306 78.1999L185.653 78.8373L188.326 80.184C189.21 80.5849 189.991 81.212 190.824 81.6334C191.657 82.0549 192.448 82.6614 193.219 83.124L195.429 84.7791C200.642 88.7507 205.037 93.6938 208.372 99.3356C210.92 103.57 212.803 108.171 213.954 112.977C214.218 113.897 214.434 114.831 214.602 115.773C214.735 116.668 214.848 117.5 214.972 118.271C215.095 119.042 215.208 119.752 215.26 120.41C215.311 121.068 215.321 121.664 215.342 122.198C215.342 123.226 215.414 124.059 215.434 124.624C215.455 125.19 215.455 125.488 215.455 125.488Z" fill="#263238"/>
<path d="M164.466 93.8769C164.201 90.6528 164.112 87.4167 164.199 84.1829C164.112 80.9525 164.201 77.7198 164.466 74.4991C164.73 77.7198 164.82 80.9525 164.733 84.1829C164.82 87.4167 164.731 90.6528 164.466 93.8769Z" fill="#263238"/>
<path d="M135.836 125.488C135.836 125.632 130.932 125.755 124.888 125.755C118.843 125.755 113.939 125.632 113.939 125.488C117.582 125.21 121.236 125.118 124.888 125.21C128.539 125.118 132.194 125.21 135.836 125.488Z" fill="#263238"/>
<path d="M215.228 125.488C211.809 125.752 208.377 125.841 204.948 125.755C201.519 125.841 198.088 125.751 194.668 125.488C198.088 125.212 201.519 125.119 204.948 125.21C208.378 125.119 211.809 125.211 215.228 125.488Z" fill="#263238"/>
<path d="M164.466 176.466C164.202 173.077 164.112 169.677 164.199 166.279C164.112 162.881 164.202 159.48 164.466 156.091C164.731 159.48 164.82 162.881 164.734 166.279C164.82 169.677 164.731 173.077 164.466 176.466Z" fill="#263238"/>
<path d="M180.133 112.792H148.594V144.331H180.133V112.792Z" fill="#455A64"/>
<path d="M158.246 113.08C158.349 113.193 156.19 115.372 153.507 118.127C150.824 120.882 148.789 123.175 148.676 123.072C149.963 121.148 151.452 119.366 153.117 117.757C154.656 116.02 156.375 114.452 158.246 113.08Z" fill="#FAFAFA"/>
<path d="M165.237 113.296C165.105 113.61 164.928 113.905 164.713 114.17C164.353 114.704 163.808 115.465 163.109 116.39C161.722 118.251 159.727 120.769 157.414 123.442C155.101 126.115 152.891 128.449 151.246 130.093C150.434 130.906 149.756 131.563 149.272 131.995C149.044 132.247 148.781 132.465 148.491 132.643C149.258 131.651 150.089 130.71 150.979 129.826C152.542 128.13 154.7 125.714 157.013 123.093C159.326 120.471 161.351 117.953 162.811 116.164C163.561 115.159 164.371 114.201 165.237 113.296Z" fill="#FAFAFA"/>
<path d="M173.204 113.296C172.97 113.739 172.695 114.159 172.382 114.55C171.817 115.342 170.984 116.462 169.935 117.84C167.879 120.584 164.857 124.316 161.403 128.305C157.949 132.293 154.7 135.789 152.285 138.256C151.072 139.5 150.085 140.486 149.386 141.144C149.04 141.52 148.662 141.864 148.255 142.172C148.549 141.763 148.875 141.378 149.231 141.021L152.007 138.019C154.351 135.48 157.558 131.954 161.002 127.976C164.446 123.997 167.468 120.307 169.637 117.624L172.218 114.447C172.509 114.033 172.839 113.647 173.204 113.296Z" fill="#FAFAFA"/>
<path d="M179.753 118.96C179.866 119.063 175.014 124.707 168.917 131.563C162.821 138.42 157.784 143.92 157.692 143.817C157.599 143.714 162.431 138.081 168.517 131.214C174.602 124.347 179.64 118.868 179.753 118.96Z" fill="#FAFAFA"/>
<path d="M180.4 128.13C180.031 129.035 179.57 129.9 179.023 130.71C178.108 132.252 176.761 134.349 175.178 136.59C173.595 138.831 172.094 140.795 170.901 142.172C170.319 142.954 169.657 143.674 168.928 144.321C169.414 143.48 169.974 142.686 170.603 141.946C171.631 140.507 173.153 138.513 174.715 136.282C176.278 134.051 177.686 131.995 178.683 130.505C179.187 129.665 179.761 128.871 180.4 128.13Z" fill="#FAFAFA"/>
<path d="M180.235 127.883C180.235 128.027 173.039 128.15 164.26 128.15C155.481 128.15 148.285 128.027 148.285 127.883C148.285 127.739 155.481 127.616 164.26 127.616C173.039 127.616 180.235 127.739 180.235 127.883Z" fill="#263238"/>
<path d="M164.507 113.347C164.661 113.347 164.774 120.379 164.774 129.065C164.774 137.752 164.661 144.794 164.507 144.794C164.353 144.794 164.24 137.752 164.24 129.065C164.24 120.379 164.363 113.347 164.507 113.347Z" fill="#263238"/>
<path d="M164.343 112.319C163.994 112.324 163.647 112.272 163.315 112.165C162.395 111.934 161.5 111.614 160.642 111.209C159.365 110.601 158.179 109.819 157.116 108.886C156.462 108.347 155.881 107.725 155.389 107.035C155.125 106.615 155.003 106.122 155.04 105.627C155.057 105.358 155.145 105.099 155.295 104.875C155.445 104.651 155.651 104.471 155.893 104.352C156.378 104.16 156.919 104.16 157.404 104.352C157.843 104.491 158.259 104.696 158.638 104.959C159.328 105.432 159.978 105.961 160.581 106.542C161.595 107.524 162.471 108.642 163.181 109.862C163.655 110.684 164.044 111.552 164.343 112.453C164.484 112.778 164.565 113.127 164.579 113.481C164.072 112.312 163.499 111.172 162.863 110.068C162.121 108.913 161.241 107.853 160.241 106.912C159.649 106.361 159.013 105.859 158.339 105.411C158.038 105.155 157.682 104.973 157.299 104.878C156.915 104.784 156.515 104.78 156.129 104.866C155.441 105.164 155.42 106.162 155.841 106.789C156.299 107.44 156.838 108.031 157.445 108.546C158.467 109.468 159.6 110.259 160.817 110.901C161.966 111.436 163.143 111.91 164.343 112.319Z" fill="#263238"/>
<path d="M164.301 112.494C164.286 112.149 164.314 111.804 164.384 111.466C164.525 110.503 164.72 109.549 164.97 108.608C165.332 107.207 165.792 105.833 166.347 104.496C166.655 103.746 167.015 102.964 167.375 102.173C167.577 101.72 167.892 101.327 168.29 101.032C168.537 100.868 168.836 100.801 169.13 100.843C169.423 100.884 169.691 101.032 169.883 101.258C170.14 101.679 170.308 102.147 170.377 102.635C170.446 103.123 170.414 103.62 170.284 104.095C170.156 104.95 169.932 105.788 169.616 106.593C169.079 107.958 168.295 109.213 167.303 110.294C166.642 111.018 165.884 111.647 165.052 112.165C164.756 112.371 164.43 112.531 164.085 112.638C165.156 111.859 166.144 110.974 167.036 109.996C167.954 108.924 168.678 107.699 169.174 106.377C169.465 105.604 169.669 104.801 169.781 103.982C169.852 103.558 169.883 103.127 169.873 102.697C169.864 102.292 169.735 101.899 169.503 101.566C169.396 101.435 169.243 101.349 169.075 101.326C168.907 101.303 168.737 101.345 168.598 101.443C168.278 101.689 168.024 102.01 167.858 102.378C167.457 103.149 167.087 103.91 166.769 104.65C166.208 105.96 165.717 107.298 165.298 108.66C164.63 111.024 164.394 112.504 164.301 112.494Z" fill="#263238"/>
<path d="M434.316 142.152C434.305 142.022 434.305 141.891 434.316 141.761L434.264 140.62C434.192 139.592 434.264 138.112 434.038 136.159C433.606 130.45 432.667 124.791 431.232 119.248C430.201 115.24 428.907 111.304 427.356 107.467C425.531 102.894 423.338 98.4758 420.798 94.2573C414.604 83.9593 406.51 74.9311 396.948 67.6527C385.338 58.8322 371.827 52.8477 357.493 50.1767C345.35 47.9476 332.89 48.0977 320.804 50.6187C316.562 51.5431 312.383 52.7381 308.293 54.1962C290.897 60.5494 275.768 71.9052 264.809 86.8352C261.951 90.7223 259.401 94.8262 257.181 99.1095C256.03 101.258 255.053 103.489 254.046 105.73C253.038 107.971 252.206 110.284 251.465 112.638C249.885 117.358 248.692 122.199 247.898 127.112C246.267 137.083 246.267 147.252 247.898 157.222C248.688 162.129 249.878 166.963 251.455 171.676C252.206 174.04 253.131 176.312 254.035 178.594C254.94 180.877 256.019 183.066 257.181 185.215C259.394 189.52 261.941 193.644 264.799 197.551C275.759 212.483 290.892 223.839 308.293 230.19C312.383 231.659 316.566 232.854 320.814 233.767C332.897 236.289 345.354 236.439 357.493 234.209C371.827 231.538 385.338 225.554 396.948 216.733C406.511 209.455 414.604 200.427 420.798 190.129C423.336 185.909 425.529 181.491 427.356 176.919C428.909 173.065 430.203 169.112 431.232 165.087C432.641 159.532 433.553 153.862 433.956 148.145C434.141 146.182 434.11 144.681 434.182 143.673L434.234 142.532C434.222 142.406 434.222 142.278 434.234 142.152C434.243 142.278 434.243 142.406 434.234 142.532V143.673C434.234 144.701 434.233 146.192 434.11 148.155C433.798 153.9 432.947 159.603 431.571 165.189C430.57 169.228 429.299 173.194 427.767 177.063C425.963 181.671 423.783 186.124 421.25 190.375C415.066 200.784 406.955 209.919 397.349 217.288C385.664 226.222 372.05 232.295 357.596 235.021C349.588 236.545 341.415 237.022 333.284 236.44C329.024 236.139 324.789 235.552 320.609 234.682C316.321 233.761 312.097 232.562 307.964 231.094C290.361 224.698 275.047 213.229 263.956 198.137C261.061 194.206 258.48 190.053 256.235 185.718C255.074 183.549 254.076 181.288 253.059 179.026C252.041 176.765 251.198 174.421 250.448 172.036C248.848 167.263 247.641 162.367 246.839 157.397C245.188 147.311 245.188 137.023 246.839 126.937C247.637 121.971 248.841 117.079 250.437 112.309C251.198 109.924 252.144 107.621 253.059 105.319C253.974 103.016 255.063 100.795 256.235 98.6263C258.476 94.2925 261.058 90.1435 263.956 86.2184C275.041 71.127 290.353 59.6613 307.954 53.271C312.087 51.7998 316.31 50.598 320.598 49.673C332.795 47.1594 345.362 47.0337 357.606 49.3029C372.056 52.0321 385.666 58.1051 397.349 67.0359C406.957 74.4057 415.073 83.5397 421.26 93.9489C423.792 98.2191 425.972 102.689 427.778 107.313C429.309 111.181 430.58 115.148 431.581 119.186C432.958 124.773 433.808 130.475 434.12 136.22C434.275 138.194 434.203 139.695 434.244 140.702V141.843C434.273 141.945 434.297 142.048 434.316 142.152Z" fill="#263238"/>
<path d="M340.213 83.8334C339.915 83.8334 339.668 75.8253 339.668 65.9565C339.668 56.0877 339.915 48.0796 340.213 48.0796C340.511 48.0796 340.747 56.0877 340.747 65.9565C340.747 75.8253 340.501 83.8334 340.213 83.8334Z" fill="#263238"/>
<path d="M287.394 142.152C287.394 142.44 278.348 142.686 267.194 142.686C256.04 142.686 246.994 142.44 246.994 142.152C246.994 141.864 256.04 141.617 267.194 141.617C278.348 141.617 287.394 141.864 287.394 142.152Z" fill="#263238"/>
<path d="M433.874 142.152C433.874 142.44 425.351 142.686 414.835 142.686C404.318 142.686 395.796 142.44 395.796 142.152C395.796 141.864 404.318 141.617 414.835 141.617C425.351 141.617 433.874 141.864 433.874 142.152Z" fill="#263238"/>
<path d="M340.213 236.214C339.915 236.214 339.668 227.794 339.668 217.422C339.668 207.049 339.915 198.62 340.213 198.62C340.511 198.62 340.747 207.039 340.747 217.422C340.747 227.805 340.501 236.214 340.213 236.214Z" fill="#263238"/>
<path d="M311.5 99.1609C313.387 96.9735 315.794 95.2981 318.501 94.2899C321.207 93.2817 324.125 92.9734 326.982 93.3938V104.013C329.545 104.131 332.043 104.853 334.273 106.122C336.503 107.391 338.401 109.169 339.812 111.312C339.812 111.312 346.936 103.345 351.973 103.828V93.1265C351.973 93.1265 360.598 92.6845 365.902 101.978L357.061 109.318L351.788 125.909C351.788 125.909 359.93 140.301 360.814 166.372L360.598 190.694H317.915L317.74 173.639C317.704 169.83 317.91 166.022 318.357 162.239C319.601 151.794 322.706 131.563 328.534 125.899L322.264 109.924L311.5 99.1609Z" fill="#ED2980"/>
<path d="M351.788 125.909C351.788 126.053 346.576 126.208 340.161 126.259C333.747 126.31 328.524 126.259 328.524 126.074C328.524 125.889 333.726 125.766 340.151 125.724C346.576 125.683 351.788 125.755 351.788 125.909Z" fill="#263238"/>
<path d="M337.283 115.732C336.841 116.167 336.291 116.475 335.69 116.627C334.262 117.102 332.722 117.127 331.279 116.699C329.838 116.266 328.567 115.397 327.64 114.211C327.215 113.757 326.924 113.195 326.797 112.587C326.869 112.587 327.188 113.162 327.928 113.964C328.879 115.004 330.089 115.774 331.434 116.195C332.775 116.579 334.194 116.6 335.546 116.257C336.656 116 337.242 115.66 337.283 115.732Z" fill="#263238"/>
<path d="M353.669 111.569C353.717 112.257 353.532 112.941 353.145 113.512C352.292 114.948 350.912 115.995 349.3 116.431C347.706 116.836 346.03 116.794 344.458 116.308C343.8 116.172 343.179 115.895 342.639 115.496C343.286 115.598 343.925 115.746 344.551 115.938C346.065 116.3 347.642 116.3 349.156 115.938C350.648 115.526 351.948 114.601 352.826 113.327C353.147 112.76 353.428 112.173 353.669 111.569Z" fill="#263238"/>
<path d="M358.912 145.883C358.912 145.935 358.357 146.14 357.411 146.696C356.105 147.517 354.883 148.463 353.761 149.523C352.11 151.156 350.229 152.541 348.179 153.635C346.909 154.22 345.528 154.525 344.129 154.529C342.643 154.52 341.165 154.302 339.74 153.881C336.81 153.059 334.24 151.764 331.783 150.982C329.651 150.187 327.355 149.932 325.101 150.242C323.587 150.467 322.165 151.103 320.989 152.082C320.58 152.472 320.192 152.884 319.827 153.316C319.827 153.316 319.879 153.172 320.033 152.915C320.261 152.54 320.533 152.195 320.845 151.887C322.015 150.811 323.472 150.096 325.039 149.831C327.359 149.453 329.738 149.676 331.947 150.479C334.456 151.25 337.036 152.535 339.894 153.326C342.752 154.118 345.671 154.251 347.984 153.141C350.004 152.079 351.869 150.744 353.525 149.173C354.684 148.127 355.956 147.213 357.318 146.449C357.696 146.252 358.088 146.084 358.49 145.945C358.764 145.883 358.905 145.863 358.912 145.883Z" fill="#FAFAFA"/>
<path d="M353.587 131.584C353.587 131.635 353.145 131.584 352.384 131.584C351.314 131.77 350.301 132.199 349.424 132.838C348.252 133.578 346.987 134.699 345.312 135.583C343.501 136.541 341.521 137.138 339.483 137.341C337.444 137.557 335.382 137.365 333.418 136.775C331.826 136.31 330.317 135.599 328.946 134.668C328.025 134.033 327.183 133.291 326.437 132.458C326.14 132.155 325.891 131.808 325.697 131.43C326.77 132.484 327.929 133.447 329.162 134.308C330.522 135.188 332.005 135.864 333.561 136.313C335.468 136.855 337.46 137.03 339.431 136.827C341.403 136.625 343.319 136.06 345.085 135.161C346.71 134.339 347.995 133.249 349.197 132.53C350.139 131.892 351.223 131.497 352.353 131.378C352.66 131.358 352.968 131.383 353.268 131.45C353.494 131.584 353.597 131.584 353.587 131.584Z" fill="#FAFAFA"/>
<path d="M352.898 120.564C352.898 120.564 352.898 120.656 352.723 120.78C352.523 120.969 352.285 121.113 352.024 121.201C351.046 121.491 349.994 121.407 349.074 120.965C347.823 120.286 346.474 119.808 345.075 119.546C343.342 119.395 341.596 119.583 339.935 120.101C338.126 120.584 336.45 121.222 334.795 121.602C333.378 121.98 331.912 122.14 330.447 122.075C329.452 122.025 328.479 121.77 327.589 121.325C327.343 121.213 327.111 121.071 326.9 120.903C326.756 120.8 326.684 120.728 326.694 120.718C327.868 121.308 329.154 121.641 330.467 121.695C331.891 121.702 333.31 121.511 334.682 121.129C336.244 120.728 337.91 120.101 339.75 119.587C341.477 119.047 343.296 118.865 345.096 119.053C346.545 119.335 347.936 119.864 349.208 120.615C350.049 121.062 351.021 121.196 351.952 120.996C352.283 120.889 352.601 120.745 352.898 120.564Z" fill="#FAFAFA"/>
<path d="M357.761 108.886C357.761 108.886 357.37 108.516 356.517 108.094C355.307 107.524 353.959 107.31 352.631 107.477C350.667 107.768 348.786 108.469 347.111 109.533C345.044 110.925 342.796 112.025 340.429 112.803C339.15 113.147 337.808 113.186 336.512 112.916C335.339 112.619 334.204 112.188 333.13 111.631C331.422 110.609 329.54 109.912 327.579 109.575C326.254 109.377 324.903 109.646 323.755 110.335C323.377 110.642 323.033 110.986 322.727 111.363C322.727 111.363 322.727 111.23 322.901 111.014C323.112 110.697 323.372 110.415 323.672 110.181C324.833 109.387 326.245 109.046 327.64 109.225C328.598 109.296 329.538 109.518 330.426 109.883C331.382 110.253 332.349 110.747 333.377 111.24C334.421 111.765 335.521 112.172 336.656 112.453C337.871 112.703 339.128 112.664 340.326 112.34C342.646 111.568 344.857 110.5 346.905 109.163C348.638 108.062 350.594 107.36 352.631 107.107C354.021 106.961 355.423 107.241 356.651 107.909C356.976 108.096 357.277 108.324 357.545 108.588C357.689 108.773 357.771 108.876 357.761 108.886Z" fill="#FAFAFA"/>
<path d="M363.384 98.6881C363.384 98.8525 360.875 98.0713 357.73 97.989C354.584 97.9068 352.076 98.5133 352.035 98.3488C355.727 97.0389 359.776 97.1599 363.384 98.6881Z" fill="#FAFAFA"/>
<path d="M312.745 100.816C312.745 100.816 312.745 100.58 312.981 100.271C313.346 99.856 313.844 99.5799 314.389 99.4899C315.167 99.4028 315.953 99.427 316.723 99.5618C317.642 99.6592 318.565 99.7072 319.488 99.7058C321.872 99.5956 324.242 99.2792 326.571 98.76C325.961 99.1337 325.289 99.3949 324.587 99.531C322.931 99.9965 321.219 100.235 319.499 100.24C318.55 100.24 317.602 100.178 316.661 100.055C315.932 99.8985 315.186 99.8329 314.441 99.86C313.957 99.9106 313.499 100.104 313.125 100.415C312.868 100.641 312.775 100.826 312.745 100.816Z" fill="#FAFAFA"/>
<path d="M360.608 165.991C360.026 165.792 359.432 165.631 358.83 165.508C357.159 165.33 355.472 165.645 353.977 166.413C352.932 166.903 351.942 167.507 351.027 168.212C349.999 168.962 348.971 169.846 347.943 170.751C346.798 171.723 345.55 172.567 344.222 173.269C342.752 174.002 341.123 174.355 339.483 174.297C336.09 174.174 333.181 172.704 330.652 171.45L323.97 167.965L319.478 165.57L318.275 164.891C317.997 164.727 317.864 164.644 317.874 164.624C318.033 164.657 318.186 164.716 318.326 164.799L319.581 165.385L324.145 167.626L330.878 171.008C333.397 172.241 336.275 173.65 339.493 173.763C341.053 173.801 342.597 173.448 343.985 172.735C345.288 172.059 346.511 171.242 347.635 170.298C348.745 169.425 349.773 168.541 350.801 167.79C351.76 167.082 352.794 166.482 353.885 166.001C355.447 165.24 357.205 164.975 358.922 165.241C359.382 165.329 359.828 165.478 360.248 165.683C360.382 165.768 360.503 165.872 360.608 165.991Z" fill="#FAFAFA"/>
<path d="M360.803 181.956C360.217 181.884 359.626 181.843 359.035 181.833C357.43 181.928 355.865 182.374 354.45 183.138C352.621 184.033 350.698 185.564 348.282 186.89C347.007 187.61 345.615 188.101 344.17 188.34C342.623 188.546 341.052 188.491 339.524 188.175C336.646 187.472 333.825 186.555 331.084 185.431C328.867 184.55 326.499 184.11 324.114 184.135C322.507 184.169 320.931 184.589 319.519 185.359C318.542 185.934 318.1 186.387 318.069 186.387C318.039 186.387 318.152 186.253 318.368 186.037C318.682 185.727 319.027 185.448 319.396 185.204C320.806 184.335 322.417 183.843 324.073 183.776C326.528 183.69 328.975 184.099 331.269 184.978C333.996 186.068 336.796 186.968 339.647 187.672C341.115 187.976 342.623 188.032 344.109 187.836C345.487 187.618 346.817 187.159 348.036 186.479C350.4 185.204 352.364 183.683 354.265 182.819C355.734 182.059 357.361 181.657 359.015 181.648C359.462 181.655 359.907 181.714 360.341 181.822C360.502 181.84 360.658 181.885 360.803 181.956Z" fill="#FAFAFA"/>
<path d="M282.172 289.074C282.159 288.954 282.159 288.833 282.172 288.714C282.172 288.467 282.172 288.118 282.121 287.686C282.049 286.75 282.121 285.352 281.905 283.522C281.531 278.2 280.678 272.922 279.355 267.753C278.401 264.019 277.196 260.355 275.747 256.784C274.052 252.529 272.009 248.42 269.641 244.5C263.876 234.915 256.344 226.512 247.446 219.735C236.635 211.541 224.062 205.979 210.726 203.493C199.43 201.412 187.837 201.556 176.596 203.914C172.646 204.767 168.755 205.876 164.949 207.235C148.761 213.149 134.684 223.717 124.487 237.612C121.829 241.229 119.458 245.047 117.394 249.033C116.366 251.027 115.41 253.145 114.474 255.201C113.539 257.257 112.768 259.436 112.069 261.626C110.605 266.019 109.498 270.522 108.759 275.093C107.237 284.372 107.237 293.837 108.759 303.116C109.489 307.689 110.596 312.193 112.069 316.583C112.758 318.773 113.631 320.89 114.464 323.018C115.297 325.146 116.314 327.182 117.384 329.186C119.451 333.172 121.826 336.991 124.487 340.607C134.677 354.51 148.757 365.084 164.949 370.995C168.755 372.353 172.646 373.462 176.596 374.315C187.841 376.673 199.437 376.816 210.736 374.737C224.073 372.255 236.644 366.69 247.446 358.484C256.347 351.708 263.882 343.304 269.651 333.72C272.013 329.797 274.051 325.688 275.747 321.435C277.178 317.859 278.366 314.191 279.304 310.456C280.626 305.283 281.479 300.002 281.853 294.676C282.028 292.857 281.997 291.459 282.069 290.564C282.069 290.102 282.069 289.752 282.121 289.536C282.107 289.417 282.107 289.296 282.121 289.176C282.136 289.296 282.136 289.417 282.121 289.536V290.564C282.121 291.5 282.121 292.908 282.018 294.738C281.729 300.084 280.941 305.391 279.664 310.59C277.603 318.829 274.37 326.729 270.062 334.049C264.3 343.739 256.747 352.244 247.806 359.111C236.927 367.428 224.253 373.085 210.798 375.631C199.384 377.755 187.666 377.636 176.298 375.282C172.302 374.428 168.367 373.312 164.517 371.941C148.123 365.987 133.861 355.309 123.531 341.255C120.833 337.595 118.427 333.728 116.335 329.69C115.245 327.634 114.279 325.578 113.374 323.46C112.47 321.343 111.647 319.163 110.948 316.953C109.475 312.487 108.371 307.907 107.648 303.26C106.908 298.57 106.523 293.832 106.497 289.084C106.529 284.333 106.913 279.591 107.648 274.898C108.394 270.273 109.519 265.717 111.01 261.277C111.709 259.056 112.593 256.908 113.446 254.759C114.3 252.611 115.317 250.554 116.407 248.529C118.499 244.495 120.905 240.631 123.603 236.975C133.928 222.923 148.188 212.248 164.579 206.299C168.425 204.929 172.357 203.813 176.35 202.958C187.718 200.604 199.436 200.485 210.849 202.609C224.306 205.149 236.981 210.807 247.857 219.129C256.803 225.987 264.357 234.49 270.114 244.181C272.474 248.143 274.503 252.293 276.179 256.589C279.6 265.178 281.593 274.269 282.079 283.502C282.213 285.332 282.151 286.73 282.182 287.676V288.704C282.195 288.827 282.192 288.951 282.172 289.074Z" fill="#263238"/>
<path d="M194.597 234.785C194.298 234.785 194.062 227.342 194.062 218.152C194.062 208.962 194.298 201.509 194.597 201.509C194.895 201.509 195.131 208.962 195.131 218.152C195.131 227.342 194.884 234.785 194.597 234.785Z" fill="#263238"/>
<path d="M145.448 289.074C145.448 289.372 137.029 289.608 126.646 289.608C116.263 289.608 107.844 289.372 107.844 289.074C107.844 288.776 116.263 288.539 126.646 288.539C137.029 288.539 145.448 288.776 145.448 289.074Z" fill="#263238"/>
<path d="M281.781 289.074C281.781 289.372 273.845 289.608 264.059 289.608C254.272 289.608 246.336 289.372 246.336 289.074C246.336 288.776 254.272 288.539 264.059 288.539C273.845 288.539 281.781 288.776 281.781 289.074Z" fill="#263238"/>
<path d="M194.597 376.628C194.298 376.628 194.062 368.795 194.062 359.152C194.062 349.51 194.298 341.676 194.597 341.676C194.895 341.676 195.131 349.51 195.131 359.152C195.131 368.795 194.884 376.628 194.597 376.628Z" fill="#263238"/>
<path d="M142.714 258.09L182.662 246.607C182.662 246.607 181.284 258.09 194.597 258.09C207.91 258.09 208.362 246.607 208.362 246.607L246.47 258.09V281.035H225.355L224.892 331.54H165.217V280.14H145.932L142.714 258.09Z" fill="#ED2980"/>
<path d="M225.221 294.892C225.221 294.892 225.066 294.954 224.737 295.046C224.253 295.177 223.757 295.26 223.257 295.293C221.317 295.409 219.388 294.92 217.737 293.895C215.134 292.251 213.113 289.831 211.959 286.977C211.211 285.221 210.746 283.358 210.582 281.456C210.362 279.314 210.593 277.15 211.26 275.103C211.631 273.976 212.329 272.985 213.265 272.256C213.785 271.887 214.397 271.672 215.033 271.634C215.669 271.596 216.303 271.736 216.863 272.04C217.976 272.706 218.842 273.717 219.33 274.918C219.851 276.127 220.131 277.426 220.153 278.742C220.193 281.592 219.412 284.393 217.902 286.81C216.393 289.228 214.219 291.159 211.641 292.374C210.247 292.995 208.754 293.364 207.231 293.463C205.676 293.532 204.121 293.33 202.635 292.867C199.549 291.916 196.848 290.003 194.925 287.408C193.906 286.086 193.163 284.571 192.743 282.955C192.322 281.338 192.233 279.654 192.479 278.002C192.726 276.266 193.636 274.693 195.018 273.613C195.718 273.053 196.554 272.689 197.441 272.557C198.327 272.426 199.233 272.531 200.065 272.862C200.904 273.23 201.618 273.834 202.121 274.599C202.583 275.348 202.906 276.173 203.077 277.036C203.393 278.718 203.329 280.449 202.892 282.104C202.125 285.342 200.494 288.312 198.174 290.698C195.99 292.976 193.176 294.551 190.092 295.221C187.009 295.891 183.795 295.627 180.862 294.46C178.1 293.372 175.771 291.407 174.232 288.868C172.781 286.509 172.065 283.771 172.176 281.004C172.229 279.693 172.504 278.4 172.988 277.18C173.441 275.967 174.26 274.925 175.332 274.199C175.867 273.878 176.462 273.67 177.08 273.585C177.699 273.5 178.328 273.541 178.93 273.705C180.076 274.006 181.114 274.626 181.921 275.494C182.63 276.323 183.137 277.304 183.403 278.362C183.668 279.42 183.686 280.524 183.453 281.59C183.105 283.485 182.3 285.267 181.109 286.781C179.218 289.216 176.623 291.011 173.677 291.921C171.833 292.497 169.894 292.7 167.971 292.517C167.476 292.472 166.984 292.39 166.501 292.271L166.008 292.147C166.177 292.162 166.345 292.186 166.512 292.219C166.996 292.317 167.488 292.379 167.982 292.404C169.886 292.547 171.801 292.313 173.615 291.716C176.495 290.802 179.027 289.03 180.873 286.637C182.018 285.156 182.79 283.422 183.124 281.58C183.337 280.566 183.314 279.517 183.057 278.513C182.801 277.51 182.317 276.579 181.644 275.792C180.884 274.983 179.911 274.405 178.837 274.127C178.286 273.979 177.711 273.944 177.145 274.024C176.58 274.103 176.037 274.295 175.548 274.589C174.557 275.272 173.803 276.245 173.389 277.375C172.924 278.553 172.664 279.801 172.618 281.066C172.525 283.747 173.241 286.394 174.674 288.662C176.142 291.097 178.366 292.985 181.006 294.039C183.848 295.152 186.957 295.396 189.938 294.741C192.919 294.086 195.639 292.561 197.752 290.359C200.005 288.04 201.589 285.156 202.337 282.011C202.749 280.43 202.809 278.777 202.512 277.169C202.403 276.372 202.104 275.612 201.641 274.954C201.178 274.296 200.563 273.758 199.85 273.386C199.104 273.092 198.294 273 197.502 273.12C196.71 273.239 195.963 273.565 195.337 274.065C194.066 275.068 193.23 276.522 193.003 278.125C192.772 279.708 192.861 281.32 193.265 282.867C193.67 284.414 194.381 285.864 195.357 287.131C197.207 289.636 199.807 291.487 202.779 292.415C204.213 292.854 205.711 293.048 207.21 292.99C208.668 292.901 210.099 292.553 211.435 291.962C213.929 290.791 216.035 288.929 217.502 286.596C218.969 284.264 219.736 281.559 219.711 278.804C219.699 277.542 219.437 276.294 218.94 275.134C218.491 274.018 217.694 273.077 216.668 272.451C216.175 272.18 215.616 272.052 215.054 272.083C214.493 272.114 213.951 272.302 213.491 272.626C212.619 273.308 211.965 274.23 211.61 275.278C210.959 277.265 210.724 279.364 210.921 281.446C211.073 283.316 211.517 285.151 212.237 286.884C213.348 289.698 215.31 292.096 217.85 293.741C219.462 294.766 221.348 295.276 223.257 295.201C223.919 295.149 224.575 295.046 225.221 294.892Z" fill="#FAFAFA"/>
<path d="M105.777 377.163C105.777 377.163 122.77 377.625 124.137 368.939C125.505 360.252 126.317 349.602 126.317 349.602H130.028C130.028 349.602 128.918 368.106 127.602 372.218C126.286 376.33 119.1 379.938 115.759 380.36C112.418 380.781 103.32 380.36 103.32 380.36L105.777 377.163Z" fill="#455A64"/>
<path d="M126.286 346.683L167.406 323.039C169.517 323.158 171.547 323.895 173.243 325.158C174.939 326.421 176.226 328.154 176.946 330.142C177.66 331.89 178.009 333.765 177.974 335.652C177.881 337.494 177.227 339.264 176.101 340.724C174.975 342.184 173.43 343.266 171.672 343.825L130.09 357.693L126.286 346.683Z" fill="#455A64"/>
<path d="M117.887 339.497L156.046 316.182C157.105 315.546 158.316 315.21 159.552 315.21C160.787 315.21 161.998 315.546 163.057 316.182C164.928 317.292 166.778 319.4 167.549 323.378C169.348 332.722 165.411 334.768 165.411 334.768L122.091 349.931L117.887 339.497Z" fill="#455A64"/>
<path d="M130.953 350.815C131.981 353.848 131.673 356.911 130.161 357.662C128.65 358.412 126.563 356.562 125.484 353.55C124.405 350.538 124.775 347.443 126.286 346.693C127.797 345.943 129.884 347.783 130.953 350.815Z" fill="#263238"/>
<path d="M123.304 342.951C124.384 345.984 124.024 349.047 122.513 349.798C121.001 350.548 118.915 348.698 117.835 345.686C116.756 342.674 117.126 339.579 118.627 338.829C120.128 338.078 122.235 339.918 123.304 342.951Z" fill="#263238"/>
<path d="M171.24 343.989C171.148 343.989 171.764 342.797 172.145 340.772C172.67 338.14 172.417 335.412 171.417 332.922C170.416 330.431 168.712 328.287 166.511 326.75C164.836 325.557 163.592 325.146 163.633 325.054C163.936 325.084 164.232 325.167 164.507 325.3C165.285 325.596 166.03 325.975 166.727 326.431C169.062 327.936 170.873 330.129 171.91 332.707C172.946 335.284 173.158 338.12 172.515 340.823C172.329 341.635 172.056 342.424 171.703 343.177C171.596 343.472 171.44 343.747 171.24 343.989Z" fill="#263238"/>
<path d="M154.124 317.96C154.687 317.604 155.352 317.445 156.016 317.508C157.626 317.588 159.153 318.249 160.313 319.369C161.435 320.48 162.335 321.795 162.965 323.244C163.28 323.809 163.505 324.42 163.633 325.054C163.225 324.549 162.88 323.997 162.605 323.409C161.896 322.069 160.995 320.84 159.932 319.759C158.849 318.726 157.461 318.069 155.974 317.888C155.357 317.879 154.739 317.903 154.124 317.96Z" fill="#263238"/>
<path d="M159.387 329.751C157.838 330.926 156.187 331.958 154.453 332.835C152.799 333.867 151.059 334.751 149.251 335.477C150.797 334.299 152.449 333.266 154.185 332.393C155.832 331.35 157.574 330.466 159.387 329.751Z" fill="#FAFAFA"/>
<path d="M163.222 327.511C163.294 327.634 163.037 327.932 162.646 328.168C162.255 328.405 161.865 328.497 161.793 328.364C161.721 328.23 161.978 327.942 162.369 327.706C162.759 327.469 163.15 327.377 163.222 327.511Z" fill="#FAFAFA"/>
<path d="M149.888 321.898C148.128 323.055 146.306 324.116 144.43 325.074C142.641 326.203 140.791 327.233 138.889 328.158C140.504 326.786 142.274 325.606 144.162 324.642C145.962 323.515 147.882 322.594 149.888 321.898Z" fill="#FAFAFA"/>
<path d="M153.589 319.214C153.682 319.328 153.343 319.728 152.849 320.088C152.356 320.448 151.873 320.664 151.821 320.541C151.77 320.417 152.068 320.027 152.572 319.667C153.075 319.307 153.507 319.091 153.589 319.214Z" fill="#FAFAFA"/>
<path d="M167.437 323.008C167.321 323.121 167.194 323.221 167.056 323.306L165.915 324.067C164.887 324.725 163.458 325.64 161.639 326.76C158 328.991 152.932 331.993 147.247 335.22C141.562 338.448 136.484 341.296 132.742 343.352L128.29 345.747L127.067 346.374C126.927 346.453 126.779 346.515 126.625 346.559C126.625 346.559 126.748 346.446 127.016 346.271L128.188 345.562L132.557 343.023L147.021 334.748L161.413 326.431L165.771 323.882L166.974 323.203C167.272 323.059 167.426 322.987 167.437 323.008Z" fill="#263238"/>
<path d="M81.9278 325.876L78.8438 387.474L105.222 389.962L106.682 375.004C106.682 375.004 115.934 377.307 118.802 368.702C120.611 363.203 122.215 320.14 122.215 320.14L81.9278 325.876Z" fill="#FFBE9D"/>
<path d="M127.972 326.503C125.72 331.859 117.229 336.454 117.229 336.454L115.821 350.085C114.561 349.998 113.297 349.998 112.038 350.085C112.716 343.681 104.472 344.945 103.639 349.294C102.827 353.488 107.607 356.294 107.607 356.294C104.307 361.352 102.971 364.025 98.2934 368.764C93.2254 373.904 90.5012 374.315 85.2686 374.161L79.5118 373.894C79.5118 373.894 77.4559 368.97 75.955 357.343C75.2354 351.751 70.815 344.421 72.1103 335.334C75.6466 309.49 104.235 314.075 104.235 314.075C114.937 305.737 133.235 313.91 127.972 326.503Z" fill="#263238"/>
<path d="M122.256 436.9L127.19 443.191L144.923 417.121C144.276 416.33 143.618 415.662 135.959 405.813C128.033 395.533 120.416 385.099 107.628 382.971C98.684 381.46 88.9077 380.36 81.4547 380.36C75.225 380.422 68.7795 383.043 63.1152 387.135C57.6864 391.146 53.3878 396.494 50.6371 402.658C47.8865 408.822 46.7774 415.593 47.4176 422.313L52.9277 469.508L48.1578 514H124.425L122.256 436.9Z" fill="#ED2980"/>
<path d="M133.821 403.027C133.736 403.043 133.649 403.043 133.564 403.027H132.814H129.925C128.671 403.027 127.129 403.099 125.361 403.274C123.359 403.452 121.379 403.824 119.45 404.384C118.335 404.72 117.26 405.175 116.242 405.741C115.16 406.381 114.171 407.166 113.302 408.075C111.468 410.182 109.752 412.388 108.162 414.685C107.228 415.904 106.17 417.023 105.006 418.026C103.775 419.142 102.31 419.971 100.72 420.452C99.0763 420.865 97.3565 420.865 95.7132 420.452C94.057 420.062 92.4263 419.571 90.8302 418.982C89.2575 418.41 87.6214 418.03 85.9575 417.851C84.3499 417.733 82.7355 417.954 81.2184 418.499C78.3465 419.632 75.7213 421.312 73.4879 423.443C71.2879 425.427 69.3759 427.463 67.2582 429.149C65.3993 430.797 63.2285 432.056 60.8743 432.85C58.8776 433.358 56.7853 433.358 54.7885 432.85C53.2838 432.497 51.8648 431.847 50.6149 430.938C49.8262 430.364 49.1325 429.67 48.5589 428.882L48.1785 428.234C48.1301 428.164 48.092 428.088 48.0654 428.008C48.7785 429.075 49.6851 429.999 50.7382 430.732C51.9757 431.599 53.3736 432.21 54.8502 432.531C56.8014 432.985 58.8337 432.957 60.7715 432.449C63.0498 431.635 65.1456 430.381 66.9395 428.758C68.9955 427.083 70.9076 425.047 73.1075 423.042C75.3789 420.856 78.058 419.138 80.9923 417.985C82.5783 417.414 84.2657 417.18 85.9472 417.296C87.6636 417.483 89.3493 417.887 90.9639 418.499C92.5471 419.072 94.1599 419.559 95.7955 419.958C97.3585 420.344 98.992 420.344 100.555 419.958C102.045 419.516 103.423 418.758 104.595 417.738C105.731 416.759 106.764 415.667 107.679 414.479C109.304 412.173 111.062 409.962 112.942 407.859C113.856 406.929 114.894 406.13 116.027 405.484C117.069 404.91 118.172 404.455 119.316 404.127C121.274 403.585 123.282 403.24 125.309 403.099C127.098 402.955 128.64 402.935 129.905 402.935C131.169 402.935 132.135 402.935 132.793 403.007H133.544C133.637 402.998 133.731 403.005 133.821 403.027Z" fill="#FAFAFA"/>
<path d="M141.583 412.958C140.038 412.982 138.5 413.175 136.998 413.534C135.243 413.975 133.548 414.627 131.95 415.476C129.821 416.574 127.875 417.996 126.183 419.691C124.148 421.761 122.599 424.257 121.65 427C121.064 428.45 120.498 429.992 119.768 431.513C119.03 433.107 118.021 434.561 116.787 435.81C115.482 437.166 113.751 438.033 111.884 438.267C109.97 438.404 108.046 438.252 106.178 437.815C104.302 437.357 102.36 437.236 100.442 437.455C98.4999 437.829 96.7748 438.933 95.6207 440.539C94.4359 442.133 93.5543 443.931 93.0198 445.844C92.4544 447.725 92.0638 449.647 91.5395 451.518C91.0691 453.383 90.302 455.16 89.2676 456.782C88.2278 458.313 86.8885 459.617 85.3304 460.616C82.4389 462.479 78.9618 463.211 75.5644 462.672C72.3776 462.117 69.7973 460.544 67.4535 459.3C65.4044 458.058 63.1743 457.142 60.8434 456.586C59.0793 456.198 57.2517 456.198 55.4876 456.586C54.3771 456.84 53.3549 457.387 52.5269 458.169C51.9615 458.704 51.7765 459.095 51.7354 459.064C51.775 458.968 51.8268 458.878 51.8896 458.796C52.0525 458.543 52.2383 458.306 52.4447 458.087C53.2728 457.274 54.3071 456.701 55.4362 456.432C57.2299 455.997 59.0977 455.966 60.9051 456.339C63.2731 456.87 65.5422 457.772 67.6282 459.012C69.9926 460.246 72.5626 461.778 75.6363 462.281C78.9242 462.769 82.277 462.038 85.0631 460.225C86.561 459.255 87.8477 457.993 88.8462 456.514C89.8467 454.931 90.5828 453.194 91.0255 451.374C91.5498 449.534 91.9404 447.612 92.5161 445.689C93.0638 443.71 93.9735 441.848 95.1992 440.2C96.4309 438.492 98.2706 437.322 100.339 436.931C102.319 436.702 104.323 436.824 106.26 437.291C108.077 437.725 109.948 437.884 111.812 437.764C113.57 437.543 115.201 436.731 116.438 435.461C118.956 433.004 120.036 429.725 121.228 426.836C121.787 425.405 122.475 424.029 123.284 422.724C124.018 421.517 124.903 420.408 125.916 419.424C128.968 416.424 132.782 414.316 136.946 413.328C137.676 413.143 138.344 413.081 138.92 412.989C139.496 412.896 139.948 412.906 140.38 412.906H141.274L141.583 412.958Z" fill="#FAFAFA"/>
<path d="M50.0391 496.606C50.0456 496.518 50.0665 496.431 50.1007 496.349C50.1624 496.144 50.2344 495.897 50.3372 495.599C50.6857 494.645 51.1482 493.738 51.7147 492.895C52.6103 491.557 53.7636 490.411 55.1071 489.523C55.9432 488.958 56.8483 488.502 57.8005 488.166C58.8575 487.769 59.9646 487.52 61.0901 487.426C63.6634 487.284 66.2445 487.474 68.7692 487.992C71.4831 488.475 74.3513 489.184 77.3941 489.688C80.5529 490.286 83.7958 490.286 86.9545 489.688C88.6113 489.357 90.2067 488.771 91.6833 487.95C93.1938 487.104 94.4803 485.91 95.4355 484.466C96.3569 482.996 96.9755 481.356 97.2551 479.644C97.5427 477.967 97.7349 476.275 97.8308 474.576C98.0775 471.245 98.3756 467.833 100.051 465.088C100.86 463.769 101.943 462.64 103.228 461.778C104.433 460.99 105.714 460.325 107.052 459.794C109.622 458.766 112.099 458.036 114.176 456.997C116.063 456.096 117.76 454.839 119.172 453.297C120.22 452.116 121.023 450.739 121.536 449.246C121.93 447.956 122.172 446.624 122.256 445.278C122.268 445.367 122.268 445.457 122.256 445.545V446.327C122.201 447.339 122.021 448.34 121.721 449.308C121.23 450.844 120.437 452.267 119.388 453.492C117.97 455.092 116.252 456.399 114.33 457.337C112.274 458.416 109.745 459.146 107.216 460.205C105.907 460.726 104.656 461.384 103.485 462.168C102.258 462.995 101.227 464.079 100.462 465.345C98.8793 467.966 98.5812 471.276 98.3448 474.597C98.2517 476.32 98.0595 478.036 97.7691 479.737C97.4769 481.518 96.834 483.223 95.8776 484.753C94.8919 486.276 93.5604 487.544 91.9917 488.454C90.4657 489.298 88.8187 489.901 87.1087 490.243C83.8812 490.832 80.5715 490.808 77.353 490.171C74.269 489.647 71.4317 488.927 68.7281 488.434C66.2469 487.9 63.7078 487.686 61.1723 487.796C60.0742 487.884 58.9924 488.116 57.9547 488.485C55.5091 489.32 53.39 490.907 51.8997 493.019C51.1382 494.136 50.5135 495.34 50.0391 496.606Z" fill="#FAFAFA"/>
<path d="M144.122 352.049L140.174 353.632C140.174 353.632 140.822 357.271 141.418 365.341C141.562 367.223 141.288 369.114 140.614 370.877C139.94 372.64 138.884 374.232 137.522 375.539C124.158 388.152 89.422 382.951 83.0382 381.594C77.3019 380.37 79.399 376.875 79.399 376.875L79.471 375.467C74.6805 375.641 75.0403 381.203 75.0403 381.203C76.3114 382.579 77.8893 383.636 79.6458 384.287C83.8889 386.064 88.4138 387.073 93.0098 387.268C100.01 387.618 112.974 388.008 123.428 386.836C138.026 385.192 143.176 376.176 144.78 372.095C145.23 370.962 145.501 369.765 145.582 368.548C146.219 358.474 144.122 352.049 144.122 352.049Z" fill="#263238"/>
<path d="M164.456 421.028L152.12 365.876L156.962 348.718L156.663 348.811C156.663 347.515 156.663 341.738 156.437 341.265C156.372 341 156.219 340.765 156.004 340.596C155.789 340.428 155.523 340.336 155.25 340.336C154.977 340.336 154.711 340.428 154.496 340.596C154.281 340.765 154.128 341 154.063 341.265C153.917 341.762 153.868 342.282 153.919 342.797C154.011 345.12 153.919 347.392 153.98 349.695L153.847 349.746C153.713 348.112 153.384 344.02 153.374 341.234C153.414 340.626 153.337 340.015 153.148 339.435C153.063 339.146 152.89 338.891 152.651 338.706C152.413 338.522 152.123 338.417 151.822 338.407C151.546 338.461 151.29 338.591 151.083 338.781C150.876 338.972 150.726 339.216 150.65 339.487C150.507 340.08 150.486 340.695 150.588 341.296C150.701 343.979 150.968 347.31 150.896 350.096C150.242 346.999 149.759 343.87 149.447 340.72C149.426 340.1 149.297 339.488 149.067 338.911C148.965 338.638 148.782 338.403 148.544 338.236C148.305 338.069 148.021 337.978 147.73 337.976C147.449 338.041 147.193 338.187 146.992 338.395C146.791 338.603 146.655 338.864 146.599 339.148C146.469 339.741 146.441 340.353 146.517 340.957C146.778 344.637 147.038 348.324 147.298 352.018H147.196C146.694 348.733 145.962 345.486 145.006 342.303C144.917 341.912 144.753 341.542 144.523 341.214C144.406 341.055 144.249 340.93 144.069 340.851C143.889 340.772 143.691 340.741 143.495 340.761C143.301 340.818 143.127 340.926 142.991 341.075C142.855 341.224 142.763 341.407 142.724 341.604C142.652 341.999 142.652 342.403 142.724 342.797C143.108 346.272 143.375 349.756 143.526 353.252L141.295 359.07C140.863 358.474 139.66 356.665 139.66 356.665L140.174 354.701C140.616 351.401 139.958 350.075 139.66 349.633C139.362 349.191 136.648 356.387 136.145 357.189C135.641 357.991 138.889 365.269 138.766 365.711L140.195 382.159L146.702 422.015L144.04 418.622L130.737 438.257L136.083 443.232C141.696 449.03 150.187 450.428 157.671 445.34C166.8 438.956 166.214 429.622 164.456 421.028Z" fill="#FFBE9D"/>
<path d="M113.652 487.272C113.501 486.421 113.439 485.556 113.467 484.692C113.467 482.975 113.374 480.58 113.302 477.691C113.179 471.77 112.963 463.607 112.531 454.592C112.1 445.576 111.503 437.424 111.092 431.524C110.887 428.625 110.712 426.26 110.588 424.543C110.49 423.686 110.49 422.82 110.588 421.963C110.835 422.787 110.994 423.635 111.061 424.492C111.298 426.137 111.586 428.511 111.904 431.462C112.531 437.352 113.22 445.515 113.652 454.54C114.084 463.566 114.176 471.759 114.115 477.681C114.115 480.652 114.012 483.047 113.929 484.702C113.931 485.566 113.838 486.428 113.652 487.272Z" fill="#263238"/>
<path d="M113.95 501.88C113.662 501.88 113.179 499.824 112.922 497.254C112.665 494.684 112.634 492.546 112.922 492.515C113.21 492.484 113.683 494.571 113.95 497.141C114.218 499.711 114.248 501.849 113.95 501.88Z" fill="#263238"/>
<path d="M108.995 387.206C108.095 387.364 107.206 387.577 106.333 387.844C104.033 388.783 102.138 390.501 100.977 392.696C100.146 394.17 99.6053 395.789 99.3832 397.466C99.1883 399.403 99.3168 401.359 99.7636 403.254C100.271 405.362 101.024 407.405 102.005 409.339C102.498 410.367 103.033 411.395 103.649 412.423C103.948 412.917 104.256 413.451 104.575 413.914C104.893 414.376 105.305 414.839 105.675 415.312C111.843 422.857 117.404 429.704 121.269 434.793C123.212 437.342 124.744 439.419 125.751 440.909C126.318 441.644 126.801 442.441 127.191 443.284C126.536 442.628 125.941 441.916 125.412 441.156C124.312 439.748 122.688 437.743 120.683 435.265L104.842 415.908C104.462 415.425 104.091 414.973 103.701 414.448C103.31 413.924 103.053 413.42 102.735 412.896C102.128 411.868 101.563 410.84 101.059 409.812C100.058 407.794 99.2989 405.665 98.7973 403.469C98.3541 401.462 98.2533 399.394 98.4992 397.353C98.7732 395.573 99.395 393.865 100.329 392.326C101.094 391.055 102.083 389.933 103.249 389.016C104.134 388.338 105.133 387.823 106.199 387.494C106.582 387.364 106.979 387.278 107.381 387.237C107.673 387.185 107.969 387.164 108.265 387.176C108.748 387.145 108.995 387.165 108.995 387.206Z" fill="#263238"/>
</svg>
