<svg width="688" height="688" viewBox="0 0 688 688" fill="none" xmlns="http://www.w3.org/2000/svg">
<path d="M612.113 215.399C594.335 224.604 580.713 240.442 570.916 257.876C561.119 275.31 554.803 294.464 548.556 313.453L543.052 411.438C563.692 376.281 580.314 334.946 584.8 294.478L571.04 293.253C580.273 291.877 588.019 285.162 592.946 277.236C597.872 269.311 600.403 260.188 602.88 251.189L586.176 253.638C599.406 244.69 608.692 231 612.113 215.399Z" fill="#E0E0E0"/>
<path d="M540.025 434.389C540.025 434.389 495.14 380.725 495.663 329.456H513.785C513.785 329.456 494.094 316.521 495.663 309.27C497.231 302.018 497.727 274.581 497.727 274.581L514.239 278.709C514.239 278.709 501.855 272.503 500.259 262.665C498.662 252.826 503.877 207.267 503.877 207.267C503.877 207.267 524.077 228.499 530.297 250.239C536.516 271.98 552.822 297.354 548.033 363.608C543.245 429.862 540.025 434.389 540.025 434.389Z" fill="#EBEBEB"/>
<path d="M562.784 439.467C562.784 439.467 611.398 407.09 622.2 365.768L607.628 361.805C607.628 361.805 626.286 355.71 626.63 349.545C626.974 343.381 632.547 321.2 632.547 321.2L618.319 320.911C618.319 320.911 629.671 318.626 633.07 311.058C636.469 303.49 642.289 265.733 642.289 265.733C642.289 265.733 621.388 278.378 611.632 294.464C601.876 310.549 583.204 327.488 572.553 381.771C561.903 436.054 562.784 439.467 562.784 439.467Z" fill="#EBEBEB"/>
<path d="M516.206 254.092C516.275 254.275 516.326 254.464 516.357 254.656L516.743 256.308C517.073 257.794 517.555 259.94 518.119 262.678C518.683 265.417 519.495 268.843 520.238 272.792C520.981 276.741 521.958 281.227 522.866 286.208C524.779 296.17 526.801 308.073 528.893 321.31C530.984 334.547 532.924 349.16 534.727 364.516C536.53 379.872 537.851 394.568 538.855 407.929C539.859 421.29 540.589 433.344 541.002 443.471C541.263 448.535 541.373 453.103 541.511 457.149C541.648 461.194 541.717 464.634 541.745 467.469C541.772 470.303 541.813 472.463 541.827 473.991V475.697C541.827 476.068 541.827 476.275 541.827 476.275C541.805 476.083 541.805 475.889 541.827 475.697C541.827 475.27 541.827 474.72 541.758 473.991C541.758 472.463 541.635 470.276 541.538 467.469C541.442 464.661 541.346 461.18 541.167 457.162C540.988 453.144 540.85 448.548 540.561 443.499C540.093 433.371 539.295 421.331 538.263 407.984C537.231 394.637 535.787 379.955 534.025 364.599C532.264 349.243 530.241 334.657 528.246 321.406C526.251 308.155 524.228 296.267 522.384 286.304C521.504 281.309 520.609 276.824 519.852 272.861C519.096 268.898 518.476 265.513 517.857 262.733C517.238 259.954 516.88 257.835 516.578 256.335C516.44 255.633 516.344 255.083 516.261 254.67C516.225 254.48 516.206 254.286 516.206 254.092Z" fill="#E0E0E0"/>
<path d="M533.791 467.262C533.791 467.262 492.731 420.698 479.976 392.545L489.608 388.417C482.618 389.573 475.476 386.573 470.069 382.019C464.661 377.464 460.684 371.52 456.832 365.589L469.505 363.457C457.858 360.131 447.939 352.449 441.806 342.005C456.763 344.468 470.303 352.683 481.462 362.947C490.489 371.203 498.139 380.918 505.487 390.77C509.079 395.578 512.208 400.715 514.83 406.113C521.682 420.368 533.888 450.158 533.791 467.262Z" fill="#EBEBEB"/>
<path d="M622.832 292.84C622.786 293.007 622.721 293.169 622.64 293.322C622.475 293.652 622.268 294.106 622.007 294.698C621.415 295.909 620.562 297.643 619.489 299.858C618.415 302.073 617.053 304.825 615.526 308.031C613.998 311.237 612.237 314.843 610.38 318.888C606.582 326.951 602.234 336.625 597.542 347.44C592.849 358.255 587.91 370.24 583.038 382.913C578.167 395.586 573.737 407.778 569.898 418.923C566.059 430.069 562.797 440.155 560.183 448.672C558.807 452.91 557.706 456.791 556.674 460.176C555.642 463.561 554.789 466.492 554.101 468.886C553.413 471.28 552.863 473.096 552.491 474.39L552.051 475.766C552.004 475.931 551.944 476.092 551.872 476.247C551.891 476.074 551.928 475.904 551.982 475.738C552.065 475.381 552.189 474.899 552.354 474.293C552.698 472.986 553.193 471.129 553.84 468.789C554.486 466.45 555.298 463.451 556.289 460.052C557.28 456.653 558.367 452.759 559.688 448.507C562.247 439.976 565.494 429.862 569.32 418.689C573.145 407.516 577.576 395.297 582.419 382.638C587.263 369.979 592.313 357.98 596.991 347.165C601.669 336.349 606.128 326.704 609.981 318.668C611.866 314.622 613.668 311.017 615.223 307.839C616.778 304.66 618.154 301.936 619.351 299.72L621.979 294.615C622.282 294.065 622.516 293.606 622.681 293.239C622.724 293.104 622.775 292.97 622.832 292.84Z" fill="#E0E0E0"/>
<path d="M537.273 487.228C537.192 486.944 537.132 486.654 537.094 486.361C536.998 485.728 536.86 484.902 536.709 483.898C536.557 482.894 536.351 481.504 536.076 479.99C535.8 478.477 535.539 476.729 535.126 474.83C534.397 471.019 533.337 466.505 532.003 461.552C530.668 456.598 528.907 451.232 526.829 445.686C524.751 440.141 522.439 434.981 520.21 430.358C517.981 425.734 515.752 421.675 513.784 418.332C512.835 416.639 511.886 415.167 511.032 413.846C510.179 412.525 509.519 411.397 508.913 410.488L507.537 408.383C507.364 408.145 507.22 407.886 507.111 407.613C507.316 407.824 507.5 408.054 507.661 408.301L509.106 410.337C509.739 411.218 510.482 412.318 511.321 413.626C512.161 414.933 513.138 416.378 514.073 418.07C516.11 421.4 518.353 425.459 520.664 430.069C522.976 434.678 525.247 439.88 527.366 445.439C529.485 450.998 531.136 456.447 532.498 461.387C533.86 466.326 534.81 470.895 535.484 474.734C535.869 476.646 536.089 478.394 536.323 479.921C536.557 481.449 536.736 482.77 536.846 483.857C536.956 484.944 537.039 485.701 537.094 486.347C537.191 486.632 537.251 486.928 537.273 487.228Z" fill="#E0E0E0"/>
<path d="M591.459 476.275H501.579V494.603H591.459V476.275Z" fill="#E0E0E0"/>
<path d="M510.152 494.589L519.866 556.234H574.177L583.245 494.589H510.152Z" fill="#E0E0E0"/>
<path d="M585.956 494.589C585.956 494.796 568.948 494.947 547.978 494.947C527.008 494.947 510 494.796 510 494.589C510 494.383 527.008 494.232 547.978 494.232C568.948 494.232 585.956 494.397 585.956 494.589Z" fill="#EBEBEB"/>
<path d="M444.943 141.948C443.732 146.549 441.7 150.894 438.944 154.772L444.847 160.276L470.028 183.008L469.436 183.283C469.436 183.283 491.232 168.065 497.259 163.097C502.226 158.969 515.518 150.548 516.605 142.347C516.787 140.89 516.508 139.412 515.807 138.121C515.106 136.831 514.019 135.792 512.697 135.151C511.792 134.689 510.777 134.488 509.764 134.568C508.752 134.648 507.781 135.007 506.96 135.605C506.96 135.605 512.821 128.725 508.184 124.211C503.547 119.698 499.928 123.235 499.928 123.235C499.928 123.235 505.666 114.497 500.341 109.653C499.238 108.807 497.906 108.315 496.518 108.242C495.13 108.168 493.753 108.516 492.567 109.241L494.727 106.929L505.859 94.944C507.186 93.554 507.927 91.7059 507.927 89.784C507.927 87.862 507.186 86.014 505.859 84.624C505.176 83.9332 504.362 83.3863 503.465 83.0155C502.567 82.6447 501.604 82.4577 500.633 82.4654C499.662 82.4731 498.702 82.6754 497.811 83.0603C496.919 83.4453 496.114 84.005 495.442 84.7065L464.125 117.483L465.721 99.5948C466.12 94.9577 459.859 91.6003 457.08 93.3065C457.08 93.3065 452.8 94.9715 451.576 102.223C450.764 107.699 444.943 141.948 444.943 141.948Z" fill="#F5F5F5"/>
<path d="M444.943 141.948C444.943 141.948 444.943 141.645 445.053 141.054C445.163 140.462 445.273 139.581 445.452 138.453C445.824 136.141 446.36 132.784 447.062 128.45L449.676 112.598C450.19 109.507 450.736 106.2 451.314 102.677C451.556 100.83 452.1 99.0359 452.924 97.3657C453.781 95.543 455.205 94.0465 456.983 93.1002C458.096 92.5499 459.38 92.4561 460.561 92.8387C461.726 93.2052 462.8 93.8149 463.712 94.6275C464.696 95.4533 465.426 96.5411 465.817 97.7648C465.913 98.0813 465.941 98.4115 466.01 98.728C466.078 99.0445 466.01 99.4022 466.01 99.7187L465.844 101.604C465.404 106.668 464.945 111.97 464.468 117.51L463.891 117.249L492.415 87.4448C493.062 86.7843 493.695 86.0688 494.341 85.4358C494.971 84.7161 495.672 84.0615 496.433 83.4819C498.093 82.3564 500.125 81.9175 502.102 82.2573C503.103 82.4297 504.058 82.8021 504.912 83.3521C505.765 83.9022 506.499 84.6186 507.069 85.4586C507.639 86.2986 508.034 87.245 508.231 88.2411C508.427 89.2372 508.42 90.2627 508.212 91.2563C508.011 92.264 507.623 93.2253 507.069 94.0909C506.486 94.8906 505.832 95.6366 505.116 96.32L501.07 100.654L492.814 109.447L492.332 108.828C493.956 107.882 495.874 107.573 497.713 107.961C498.484 108.13 499.222 108.423 499.9 108.828C500.256 109.021 500.573 109.278 500.836 109.585C501.119 109.865 501.377 110.168 501.607 110.493C502.518 111.779 502.999 113.32 502.983 114.896C502.829 117.919 501.88 120.848 500.231 123.386L499.625 122.891C500.377 122.226 501.292 121.773 502.276 121.58C503.26 121.386 504.279 121.459 505.226 121.79C506.15 122.136 507.004 122.649 507.744 123.303C508.116 123.598 508.458 123.93 508.762 124.294L509.244 124.844L509.615 125.477C510.034 126.327 510.275 127.254 510.325 128.2C510.375 129.146 510.231 130.092 509.904 130.981C509.309 132.726 508.41 134.352 507.248 135.784L506.739 135.22C507.546 134.641 508.486 134.274 509.472 134.154C510.458 134.034 511.458 134.163 512.381 134.532C513.729 135.067 514.89 135.989 515.717 137.181C516.544 138.373 517.002 139.782 517.032 141.233C517.011 142.166 516.862 143.092 516.591 143.985C515.976 145.698 515.104 147.308 514.004 148.759C509.588 154.415 503.85 158.391 498.69 162.313C493.53 166.235 488.425 170.087 483.554 173.596L469.587 183.435L469.298 182.939L469.89 182.664L469.821 183.146L444.723 160.428H444.984L444.847 160.565L444.709 160.442L438.834 154.938L438.737 154.841L438.82 154.731C440.865 151.872 442.531 148.759 443.773 145.471C444.2 144.356 444.475 143.476 444.654 142.884C444.833 142.292 444.943 142.003 444.943 142.003C444.69 143.201 444.35 144.378 443.925 145.526C442.74 148.864 441.106 152.026 439.068 154.924V154.717C440.774 156.3 442.673 158.047 444.984 160.221H444.723L444.847 160.084L444.998 160.208L470.234 182.857L470.564 183.146L470.165 183.324L469.573 183.6L469.216 183.008L483.141 173.115C487.984 169.592 493.117 165.946 498.208 161.818C503.299 157.69 509.078 153.892 513.344 148.36C514.393 146.977 515.224 145.441 515.807 143.806C516.052 142.983 516.191 142.132 516.22 141.274C516.193 140.417 516.007 139.572 515.669 138.783C514.97 137.176 513.665 135.91 512.037 135.261C511.228 134.942 510.351 134.831 509.488 134.939C508.625 135.047 507.802 135.371 507.097 135.88L504.992 137.435L506.67 135.343C507.767 133.992 508.61 132.454 509.161 130.803C509.469 130.004 509.607 129.149 509.567 128.294C509.527 127.439 509.309 126.602 508.927 125.835C508.016 124.342 506.63 123.199 504.992 122.588C504.182 122.303 503.312 122.237 502.468 122.396C501.625 122.556 500.839 122.935 500.189 123.496L498.291 125.216L499.598 123.028C501.166 120.618 502.068 117.836 502.212 114.965C502.293 113.553 501.872 112.158 501.024 111.027C500.175 109.897 498.953 109.103 497.575 108.787C495.926 108.444 494.209 108.729 492.759 109.585L490.571 110.795L492.277 108.979L500.533 100.187C501.9 98.7372 503.249 97.2924 504.579 95.8522C505.242 95.1803 505.841 94.4478 506.368 93.6643C506.866 92.8821 507.216 92.0144 507.4 91.1049C507.586 90.2064 507.591 89.2797 507.413 88.3794C507.236 87.479 506.881 86.6233 506.368 85.8624C505.851 85.1184 505.192 84.4838 504.429 83.995C503.667 83.5062 502.815 83.1729 501.923 83.0141C500.145 82.6993 498.314 83.0892 496.818 84.1011C496.099 84.654 495.435 85.2762 494.837 85.9587L492.91 87.9677L464.358 117.703L463.712 118.336L463.808 117.4C464.303 111.896 464.785 106.557 465.253 101.508C465.48 100.307 465.48 99.0751 465.253 97.8749C464.896 96.7605 464.233 95.7689 463.34 95.0128C462.482 94.2517 461.468 93.688 460.368 93.3616C459.338 93.0156 458.215 93.0796 457.231 93.5405C455.578 94.4349 454.252 95.8326 453.447 97.5309C452.637 99.1465 452.103 100.886 451.864 102.677C451.259 106.186 450.681 109.557 450.158 112.598C449.085 118.763 448.163 124.074 447.406 128.422C446.649 132.77 446.03 136.1 445.645 138.398C445.438 139.526 445.287 140.38 445.163 140.985C445.039 141.59 444.943 141.948 444.943 141.948Z" fill="#E0E0E0"/>
<path d="M430.748 155.003L431.03 154.702C432.089 153.569 433.555 152.903 435.105 152.851C436.655 152.798 438.162 153.364 439.295 154.423L470.316 183.421C471.446 184.478 472.11 185.94 472.162 187.487C472.215 189.033 471.65 190.537 470.594 191.667L470.312 191.969C469.253 193.102 467.787 193.768 466.237 193.82C464.686 193.872 463.179 193.307 462.046 192.247L431.036 163.259C429.905 162.202 429.241 160.74 429.189 159.193C429.137 157.647 429.701 156.143 430.758 155.013L430.748 155.003Z" fill="#F5F5F5"/>
<path d="M462.033 192.213C462.033 192.213 462.363 192.489 463.065 192.888C463.94 193.385 464.928 193.646 465.934 193.646C466.94 193.646 467.928 193.385 468.803 192.888C469.646 192.357 470.372 191.659 470.936 190.837C471.606 189.841 471.938 188.657 471.883 187.458C471.829 186.258 471.39 185.109 470.633 184.178L438.985 154.69C438.26 154.013 437.367 153.545 436.398 153.334C435.429 153.123 434.421 153.178 433.481 153.493C432.589 153.821 431.783 154.349 431.125 155.036C430.467 155.722 429.974 156.55 429.683 157.456C429.43 158.339 429.402 159.271 429.602 160.167C429.801 161.064 430.222 161.896 430.825 162.588C432.133 163.895 433.577 165.189 434.885 166.427L449.044 179.788L458.538 188.828L461.097 191.319C461.407 191.597 461.693 191.901 461.95 192.227C461.61 191.986 461.288 191.719 460.987 191.429L458.332 189.049L448.7 180.187L434.43 166.964C433.054 165.698 431.678 164.487 430.302 163.083C429.601 162.305 429.108 161.362 428.867 160.343C428.627 159.323 428.647 158.259 428.926 157.249C429.254 156.221 429.813 155.281 430.559 154.501C431.305 153.721 432.22 153.122 433.233 152.75C434.297 152.407 435.432 152.354 436.523 152.596C437.614 152.838 438.62 153.366 439.439 154.126C451.823 165.698 462.969 176.142 470.963 183.847C471.776 184.871 472.238 186.128 472.28 187.434C472.322 188.74 471.942 190.025 471.197 191.099C470.59 191.965 469.801 192.688 468.885 193.218C468.107 193.648 467.242 193.897 466.354 193.947C465.133 194.02 463.92 193.707 462.886 193.053C462.56 192.819 462.272 192.535 462.033 192.213Z" fill="#E0E0E0"/>
<path d="M480.939 121.088C482.646 118.702 484.556 116.469 486.65 114.414C488.555 112.186 490.655 110.132 492.924 108.277C491.223 110.663 489.317 112.896 487.228 114.951C485.32 117.181 483.216 119.235 480.939 121.088Z" fill="#E0E0E0"/>
<path d="M492.8 130.569C493.68 129.037 494.784 127.646 496.075 126.441C497.18 125.081 498.472 123.886 499.914 122.891C499.04 124.426 497.935 125.818 496.639 127.019C495.543 128.386 494.249 129.582 492.8 130.569Z" fill="#E0E0E0"/>
<path d="M499.859 143.187C500.74 141.655 501.843 140.264 503.134 139.059C504.231 137.691 505.53 136.498 506.987 135.522C506.105 137.052 505.002 138.443 503.712 139.65C502.612 141.015 501.313 142.207 499.859 143.187Z" fill="#E0E0E0"/>
<path d="M498.594 76.8909C497.194 74.1905 496.034 71.3727 495.126 68.4697C493.962 65.6598 493.041 62.7549 492.374 59.7872C493.77 62.4893 494.93 65.3068 495.842 68.2083C497.006 71.0182 497.927 73.9231 498.594 76.8909Z" fill="#E0E0E0"/>
<path d="M506.781 78.8861C508.638 75.4585 510.72 72.158 513.014 69.0064C515.094 65.7099 517.393 62.5564 519.894 59.567C518.032 62.9944 515.945 66.2948 513.647 69.4467C511.574 72.7446 509.28 75.8982 506.781 78.8861Z" fill="#E0E0E0"/>
<path d="M512.739 85.8899C515.736 84.8667 518.809 84.0845 521.93 83.5507C524.997 82.7701 528.121 82.2409 531.273 81.9683C528.286 83.0112 525.216 83.7984 522.096 84.3213C519.025 85.1024 515.896 85.6271 512.739 85.8899Z" fill="#E0E0E0"/>
<path d="M118.24 377.574L74.0562 556.22H85.6834L130.954 377.574H118.24Z" fill="#F5F5F5"/>
<path d="M201.46 377.574L242.795 556.22H231.168L188.732 377.574H201.46Z" fill="#F5F5F5"/>
<path d="M166.922 553.592H153.383L151.36 348.555H164.9L166.922 553.592Z" fill="#F5F5F5"/>
<path d="M253.652 228.141H62.6216V350.522H253.652V228.141Z" fill="#EBEBEB"/>
<path d="M206.125 375.703H110.245V387.523H206.125V375.703Z" fill="#F5F5F5"/>
<path d="M75.3082 334.561C75.4261 335.302 75.4722 336.053 75.4458 336.803H75.1843C74.9917 330.818 74.8403 310.99 74.8403 287.488C74.8403 273.315 74.9504 260.477 74.9779 251.037C74.9779 246.469 75.088 242.781 75.1293 240.029C75.1293 238.805 75.1293 237.814 75.2119 237.016C75.2115 236.665 75.2438 236.315 75.3082 235.97C75.3902 236.312 75.4226 236.665 75.4045 237.016C75.4045 237.814 75.4045 238.805 75.5008 240.029C75.5008 242.781 75.5834 246.51 75.6522 251.037C75.6522 260.477 75.7347 273.315 75.7898 287.488C75.7898 310.99 75.6384 330.818 75.4458 336.803H75.1843C75.1688 336.054 75.2102 335.304 75.3082 334.561Z" fill="#F5F5F5"/>
<path d="M89.536 334.561C89.634 335.304 89.6754 336.054 89.6599 336.803H89.4397C89.2471 330.818 89.0957 310.99 89.0957 287.488C89.0957 273.315 89.2058 260.477 89.2333 251.037C89.3021 246.469 89.3571 242.781 89.3847 240.029C89.3847 238.805 89.3847 237.814 89.481 237.016C89.4628 236.665 89.4953 236.312 89.5773 235.97C89.6403 236.315 89.6679 236.665 89.6599 237.016C89.6599 237.814 89.6599 238.805 89.7562 240.029C89.7562 242.781 89.8387 246.51 89.9075 251.037C89.9075 260.477 89.9901 273.315 90.0451 287.488C90.0451 310.99 89.8938 330.818 89.7011 336.803H89.4397C89.3996 336.055 89.4319 335.303 89.536 334.561Z" fill="#F5F5F5"/>
<path d="M103.75 334.561C103.848 335.304 103.889 336.054 103.874 336.803H103.612C103.42 330.818 103.282 310.99 103.282 287.488C103.282 273.315 103.379 260.477 103.42 251.037C103.42 246.469 103.53 242.781 103.571 240.029C103.571 238.805 103.571 237.814 103.654 237.016C103.644 236.665 103.677 236.314 103.75 235.97C103.823 236.314 103.856 236.665 103.846 237.016C103.846 237.814 103.846 238.805 103.929 240.029C103.929 242.781 104.025 246.51 104.08 251.037C104.08 260.477 104.163 273.315 104.218 287.488C104.218 310.99 104.08 330.818 103.874 336.803H103.612C103.595 336.053 103.641 335.303 103.75 334.561Z" fill="#F5F5F5"/>
<path d="M117.964 334.561C118.073 335.303 118.119 336.053 118.102 336.803H117.841C117.634 330.818 117.497 310.99 117.497 287.488C117.497 273.315 117.593 260.477 117.634 251.037C117.634 246.469 117.744 242.781 117.786 240.029C117.786 238.805 117.854 237.814 117.868 237.016C117.859 236.665 117.891 236.314 117.964 235.97C118.038 236.314 118.07 236.665 118.061 237.016C118.061 237.814 118.061 238.805 118.143 240.029C118.143 242.781 118.24 246.51 118.295 251.037C118.295 260.477 118.377 273.315 118.432 287.488C118.432 310.99 118.295 330.818 118.102 336.803H117.841C117.825 336.054 117.866 335.304 117.964 334.561Z" fill="#F5F5F5"/>
<path d="M132.179 334.561C132.296 335.302 132.343 336.053 132.316 336.803H132.096C131.903 330.818 131.752 310.99 131.752 287.488C131.752 273.315 131.862 260.477 131.89 251.037C131.958 246.469 132 242.781 132.041 240.029C132.041 238.805 132.041 237.814 132.123 237.016C132.123 236.665 132.155 236.315 132.22 235.97C132.302 236.312 132.334 236.665 132.316 237.016C132.316 237.814 132.316 238.805 132.412 240.029C132.412 242.781 132.495 246.51 132.564 251.037C132.564 260.477 132.646 273.315 132.701 287.488C132.701 310.99 132.55 330.818 132.357 336.803H132.096C132.067 336.055 132.094 335.305 132.179 334.561Z" fill="#F5F5F5"/>
<path d="M146.406 334.561C146.504 335.304 146.546 336.054 146.53 336.803H146.269C146.076 330.818 145.925 310.99 145.925 287.488C145.925 273.315 146.035 260.477 146.062 251.037C146.062 246.469 146.186 242.781 146.214 240.029C146.214 238.805 146.214 237.814 146.31 237.016C146.292 236.665 146.324 236.312 146.406 235.97C146.469 236.315 146.497 236.665 146.489 237.016C146.489 237.814 146.489 238.805 146.585 240.029C146.585 242.781 146.668 246.51 146.737 251.037C146.737 260.477 146.819 273.315 146.874 287.488C146.874 310.99 146.723 330.818 146.53 336.803H146.269C146.242 336.053 146.288 335.302 146.406 334.561Z" fill="#F5F5F5"/>
<path d="M160.62 334.561C160.718 335.304 160.76 336.054 160.744 336.803H160.483C160.29 330.818 160.152 310.99 160.152 287.488C160.152 273.315 160.249 260.477 160.29 251.037C160.29 246.469 160.4 242.781 160.441 240.029C160.441 238.805 160.441 237.814 160.524 237.016C160.515 236.665 160.547 236.314 160.62 235.97C160.694 236.314 160.726 236.665 160.717 237.016C160.717 237.814 160.717 238.805 160.799 240.029C160.799 242.781 160.895 246.51 160.95 251.037C160.95 260.477 161.033 273.315 161.088 287.488C161.088 310.99 160.95 330.818 160.744 336.803H160.483C160.465 336.053 160.511 335.303 160.62 334.561Z" fill="#F5F5F5"/>
<path d="M174.834 334.561C174.943 335.303 174.989 336.053 174.972 336.803H174.752C174.545 330.818 174.408 310.99 174.408 287.488C174.408 273.315 174.504 260.477 174.545 251.037C174.545 246.469 174.655 242.781 174.697 240.029C174.697 238.805 174.697 237.814 174.779 237.016C174.77 236.665 174.802 236.314 174.876 235.97C174.949 236.314 174.981 236.665 174.972 237.016C174.972 237.814 174.972 238.805 175.054 240.029C175.054 242.781 175.151 246.51 175.206 251.037C175.206 260.477 175.288 273.315 175.343 287.488C175.343 310.99 175.206 330.818 175.013 336.803H174.752C174.723 336.055 174.75 335.305 174.834 334.561Z" fill="#F5F5F5"/>
<path d="M189.048 334.561C189.166 335.302 189.212 336.053 189.186 336.803H188.925C188.732 330.818 188.581 310.99 188.581 287.488C188.581 273.315 188.691 260.477 188.718 251.037C188.718 246.469 188.828 242.781 188.87 240.029C188.87 238.805 188.938 237.814 188.952 237.016C188.952 236.665 188.984 236.315 189.048 235.97C189.13 236.312 189.163 236.665 189.145 237.016C189.145 237.814 189.145 238.805 189.241 240.029C189.241 242.781 189.324 246.51 189.392 251.037C189.392 260.477 189.475 273.315 189.53 287.488C189.53 310.99 189.379 330.818 189.186 336.803H188.925C188.909 336.054 188.95 335.304 189.048 334.561Z" fill="#F5F5F5"/>
<path d="M203.277 334.561C203.374 335.304 203.416 336.054 203.4 336.803H203.139C202.946 330.818 202.795 310.99 202.795 287.488C202.795 273.315 202.905 260.477 202.933 251.037C203.001 246.469 203.056 242.781 203.084 240.029C203.084 238.805 203.084 237.814 203.18 237.016C203.162 236.665 203.194 236.312 203.277 235.97C203.341 236.315 203.373 236.665 203.373 237.016C203.373 237.814 203.373 238.805 203.455 240.029C203.455 242.781 203.538 246.51 203.607 251.037C203.607 260.477 203.689 273.315 203.744 287.488C203.744 310.99 203.593 330.818 203.4 336.803H203.139C203.113 336.053 203.159 335.302 203.277 334.561Z" fill="#F5F5F5"/>
<path d="M217.49 334.561C217.588 335.304 217.63 336.054 217.614 336.803H217.408C217.215 330.818 217.078 310.99 217.078 287.488C217.078 273.315 217.174 260.477 217.215 251.037C217.215 246.469 217.325 242.781 217.367 240.029C217.367 238.805 217.367 237.814 217.449 237.016C217.44 236.665 217.472 236.314 217.545 235.97C217.619 236.314 217.651 236.665 217.642 237.016C217.642 237.814 217.642 238.805 217.724 240.029C217.724 242.781 217.821 246.51 217.876 251.037C217.876 260.477 217.958 273.315 218.013 287.488C218.013 310.99 217.876 330.818 217.669 336.803H217.408C217.372 336.055 217.4 335.305 217.49 334.561Z" fill="#F5F5F5"/>
<path d="M231.705 334.561C231.813 335.303 231.859 336.053 231.842 336.803H231.581C231.374 330.818 231.237 310.99 231.237 287.488C231.237 273.315 231.333 260.477 231.374 251.037C231.374 246.469 231.484 242.781 231.526 240.029C231.526 238.805 231.595 237.814 231.608 237.016C231.599 236.665 231.631 236.314 231.705 235.97C231.778 236.314 231.81 236.665 231.801 237.016C231.801 237.814 231.801 238.805 231.884 240.029C231.884 242.781 231.98 246.51 232.035 251.037C232.035 260.477 232.117 273.315 232.172 287.488C232.172 310.99 232.035 330.818 231.842 336.803H231.581C231.565 336.054 231.607 335.304 231.705 334.561Z" fill="#F5F5F5"/>
<path d="M245.919 334.561C246.036 335.302 246.083 336.053 246.056 336.803H245.795C245.602 330.818 245.451 310.99 245.451 287.488C245.451 273.315 245.561 260.477 245.588 251.037C245.657 246.469 245.698 242.781 245.74 240.029C245.74 238.805 245.74 237.814 245.822 237.016C245.822 236.665 245.854 236.315 245.919 235.97C246.001 236.312 246.033 236.665 246.015 237.016C246.015 237.814 246.015 238.805 246.111 240.029C246.111 242.781 246.194 246.51 246.263 251.037C246.263 260.477 246.345 273.315 246.4 287.488C246.4 310.99 246.249 330.818 246.056 336.803H245.795C245.779 336.054 245.821 335.304 245.919 334.561Z" fill="#F5F5F5"/>
<path d="M390.357 140.724L379.638 237.305C377.808 253.734 371.767 277.484 345.94 273.425C323.786 268.196 320.456 246.208 322.176 230.879C322.988 223.614 323.649 217.546 323.69 216.803C323.69 216.803 299.362 211.753 300.298 187.219C300.752 175.371 303.655 151.016 306.545 129.028C308.045 117.637 313.779 107.228 322.607 99.8747C331.434 92.521 342.708 88.7612 354.182 89.3437L356.549 89.4538C381.977 92.192 393.825 115.378 390.357 140.724Z" fill="#936760"/>
<path d="M323.69 216.803C335.015 217.34 346.256 214.618 356.081 208.959C356.081 208.959 347.399 226.476 323.057 223.036L323.69 216.803Z" fill="#6F4C47"/>
<path d="M346.752 144.109C347.178 144.659 350.261 142.733 354.334 143.145C358.407 143.558 361.214 145.897 361.695 145.443C361.943 145.223 361.544 144.274 360.319 143.173C358.682 141.759 356.64 140.897 354.485 140.71C352.358 140.499 350.22 140.982 348.389 142.086C347.11 142.98 346.601 143.861 346.752 144.109Z" fill="#263238"/>
<path d="M345.885 152.53C345.835 153.393 346.123 154.242 346.688 154.897C347.253 155.552 348.051 155.961 348.912 156.038C349.332 156.092 349.759 156.061 350.167 155.948C350.574 155.834 350.956 155.641 351.288 155.378C351.62 155.115 351.896 154.789 352.1 154.418C352.304 154.047 352.432 153.639 352.476 153.218C352.526 152.356 352.237 151.508 351.672 150.856C351.107 150.203 350.309 149.796 349.449 149.723C349.03 149.669 348.604 149.699 348.197 149.812C347.79 149.924 347.41 150.117 347.078 150.378C346.746 150.64 346.47 150.965 346.265 151.334C346.06 151.703 345.931 152.11 345.885 152.53Z" fill="#263238"/>
<path d="M333.116 171.147C333.116 170.927 330.832 170.404 327.061 169.771C326.098 169.62 325.204 169.386 325.066 168.725C325.047 167.75 325.32 166.792 325.85 165.973L329.07 158.79C333.542 148.553 336.831 140.118 336.418 139.953C336.005 139.788 332.042 147.92 327.57 158.157C326.479 160.671 325.447 163.079 324.474 165.381C323.804 166.511 323.56 167.844 323.786 169.138C323.907 169.486 324.106 169.801 324.369 170.059C324.631 170.317 324.95 170.51 325.3 170.624C325.824 170.8 326.371 170.902 326.924 170.927C330.721 171.216 333.088 171.353 333.116 171.147Z" fill="#263238"/>
<path d="M350.426 129.028C350.715 129.977 354.044 129.702 357.925 130.404C361.805 131.105 364.901 132.344 365.451 131.532C365.713 131.133 365.204 130.156 363.979 129.261C362.36 128.054 360.471 127.26 358.475 126.95C356.494 126.594 354.455 126.741 352.545 127.376C351.072 127.885 350.315 128.573 350.426 129.028Z" fill="#263238"/>
<path d="M312.187 129.028C312.531 129.812 315.806 129.385 319.659 129.743C323.511 130.101 326.662 130.995 327.158 130.266C327.378 129.922 326.827 129.193 325.562 128.436C323.864 127.504 321.988 126.946 320.058 126.798C318.086 126.614 316.098 126.848 314.223 127.486C312.751 127.968 312.049 128.642 312.187 129.028Z" fill="#263238"/>
<path d="M387.44 158.777C387.867 158.612 404.544 154.649 403.168 171.381C401.792 188.113 385.28 183.269 385.28 182.788C385.28 182.306 387.44 158.777 387.44 158.777Z" fill="#936760"/>
<path d="M390.907 176.871C390.99 176.871 391.183 177.105 391.664 177.366C392.332 177.722 393.113 177.801 393.838 177.587C395.655 177.091 397.375 174.408 397.705 171.395C397.867 169.965 397.708 168.517 397.237 167.157C397.123 166.62 396.881 166.12 396.531 165.698C396.181 165.276 395.734 164.946 395.228 164.735C394.9 164.62 394.542 164.624 394.215 164.744C393.889 164.865 393.615 165.095 393.439 165.395C393.178 165.836 393.26 166.18 393.164 166.207C393.068 166.235 392.834 165.891 393.026 165.216C393.149 164.809 393.413 164.458 393.77 164.226C394.254 163.913 394.843 163.804 395.407 163.923C396.083 164.117 396.698 164.48 397.194 164.979C397.69 165.477 398.051 166.094 398.242 166.771C398.843 168.277 399.061 169.908 398.874 171.518C398.489 174.89 396.508 177.903 394.031 178.398C393.569 178.492 393.092 178.481 392.635 178.367C392.178 178.253 391.752 178.038 391.389 177.738C390.907 177.284 390.852 176.899 390.907 176.871Z" fill="#6F4C47"/>
<path d="M335.62 183.159C335.496 182.719 338.881 182.141 341.551 179.362C342.669 178.138 343.622 176.774 344.385 175.302C345.018 174.147 345.486 173.431 345.665 173.514C345.844 173.596 345.665 174.408 345.252 175.688C344.684 177.404 343.745 178.973 342.5 180.284C341.233 181.612 339.624 182.565 337.849 183.036C336.514 183.38 335.648 183.311 335.62 183.159Z" fill="#263238"/>
<path d="M310.976 138.838C311.402 139.389 314.485 137.462 318.558 137.875C322.631 138.288 325.438 140.627 325.919 140.159C326.167 139.953 325.768 139.004 324.543 137.903C322.909 136.483 320.866 135.621 318.709 135.44C316.582 135.229 314.444 135.711 312.613 136.816C311.292 137.71 310.783 138.591 310.976 138.838Z" fill="#263238"/>
<path d="M310.7 148.181C310.65 149.045 310.938 149.894 311.503 150.549C312.068 151.204 312.866 151.613 313.728 151.69C314.142 151.744 314.564 151.716 314.968 151.607C315.371 151.498 315.75 151.31 316.081 151.054C316.412 150.798 316.689 150.48 316.897 150.117C317.105 149.754 317.239 149.353 317.291 148.938C317.348 148.077 317.064 147.227 316.501 146.573C315.937 145.92 315.139 145.514 314.278 145.443C313.863 145.385 313.44 145.41 313.035 145.517C312.63 145.624 312.25 145.81 311.917 146.064C311.584 146.319 311.305 146.637 311.096 147.001C310.887 147.364 310.753 147.766 310.7 148.181Z" fill="#263238"/>
<path d="M400.663 143.806C399.439 148.47 396.535 159.107 392.407 158.157C384.151 156.286 384.633 169.523 380.643 167.968C376.652 166.413 375.716 155.887 376.171 151.69C377.547 138.577 382.583 129.165 377.037 114.194C375.317 111.224 372.859 108.747 369.901 107.004C366.943 105.262 363.586 104.311 360.154 104.246C356.695 104.248 353.295 105.134 350.275 106.82C347.255 108.506 344.716 110.935 342.899 113.878C342.046 109.296 339.651 102.416 335.51 100.297C333.437 99.2153 331.091 98.7691 328.766 99.0138C326.441 99.2586 324.24 100.183 322.438 101.673C320.718 103.252 319.631 105.402 319.377 107.723C319.124 110.044 319.723 112.378 321.062 114.291C320.12 114.594 319.105 114.588 318.167 114.273C317.229 113.959 316.416 113.353 315.847 112.543C315.79 113.62 315.955 114.697 316.331 115.708C316.708 116.718 317.287 117.641 318.035 118.419C316.337 118.04 314.833 117.063 313.796 115.667L315.172 121.336C308.292 121.68 301.289 115.13 299.225 109.199C296.101 100.2 298.138 91.0086 303.009 82.8352C307.88 74.6618 316.769 68.7725 326.401 68.6349C336.033 68.4973 344 72.8317 347.866 81.528C353.948 77.0147 366.428 75.2122 373.377 78.1843C376.852 79.7146 379.877 82.1086 382.166 85.1385C384.454 88.1684 385.928 91.7335 386.449 95.4944C390.715 93.5818 395.916 94.8752 399.618 97.7373L400.512 98.4803C402.989 100.733 404.853 103.577 405.931 106.746C407.01 109.916 407.266 113.307 406.676 116.602C406.236 119.244 405.383 121.996 404.901 124.129C403.278 130.445 400.663 143.806 400.663 143.806Z" fill="#263238"/>
<path d="M314.663 112.185C314.663 112.185 314.443 112.061 314.099 111.759C313.591 111.322 313.13 110.833 312.723 110.3C311.15 108.315 310.154 105.934 309.847 103.42C309.57 101.565 309.693 99.6718 310.208 97.868C310.723 96.0642 311.618 94.3915 312.833 92.9626C314.323 91.2023 316.219 89.8314 318.358 88.9683C320.496 88.1052 322.813 87.7759 325.107 88.009C327.468 88.3047 329.731 89.1328 331.726 90.4307C333.586 91.6015 335.252 93.0545 336.666 94.7376C339.065 97.5393 340.834 100.824 341.853 104.37C342.539 106.762 342.868 109.243 342.83 111.731C342.83 112.612 342.747 113.286 342.679 113.74C342.665 113.974 342.624 114.205 342.555 114.428C342.705 111.079 342.305 107.727 341.371 104.507C340.31 101.04 338.534 97.8334 336.156 95.0954C333.356 91.6599 329.397 89.365 325.025 88.6419C322.845 88.4296 320.646 88.7437 318.613 89.5578C316.581 90.3719 314.773 91.6623 313.342 93.3203C312.171 94.677 311.3 96.2658 310.785 97.9826C310.271 99.6993 310.125 101.505 310.356 103.283C310.602 105.733 311.484 108.076 312.916 110.08C313.948 111.525 314.705 112.13 314.663 112.185Z" fill="#455A64"/>
<path d="M311.65 119.506C311.451 119.27 311.28 119.011 311.141 118.735C310.825 118.212 310.371 117.359 309.765 116.423C308.138 113.58 306.792 110.584 305.747 107.479C305.045 105.31 304.633 103.056 304.523 100.778C304.387 98.1433 304.804 95.5092 305.747 93.0451C306.846 90.314 308.727 87.9684 311.155 86.3027C313.748 84.5252 316.759 83.4535 319.892 83.193C323.01 82.9528 326.144 83.3796 329.084 84.4451C331.814 85.4297 334.38 86.8214 336.693 88.5731C340.73 91.4254 343.71 95.5328 345.17 100.255C346.078 103.458 345.987 106.862 344.908 110.011C344.605 110.851 344.218 111.658 343.752 112.419C343.591 112.687 343.406 112.94 343.202 113.176C343.749 112.129 344.21 111.038 344.578 109.915C345.52 106.811 345.52 103.497 344.578 100.393C343.089 95.8156 340.146 91.8492 336.198 89.096C331.581 85.5225 325.85 83.695 320.016 83.936C317.004 84.1951 314.11 85.2232 311.609 86.9219C309.291 88.5069 307.487 90.736 306.421 93.3341C305.494 95.7071 305.068 98.2463 305.169 100.792C305.255 103.023 305.63 105.234 306.284 107.369C307.281 110.46 308.547 113.458 310.068 116.327L311.265 118.708C311.417 118.961 311.546 119.229 311.65 119.506Z" fill="#455A64"/>
<path d="M394.705 133.472C394.623 133.362 396.178 132.22 398.09 129.826C400.605 126.734 402.301 123.059 403.022 119.139C403.744 115.22 403.467 111.181 402.218 107.397C401.269 104.48 400.223 102.856 400.347 102.801C400.471 102.746 400.677 103.145 401.131 103.902C401.756 104.961 402.281 106.075 402.7 107.232C404.116 111.08 404.473 115.237 403.732 119.27C402.991 123.303 401.181 127.062 398.489 130.156C397.687 131.086 396.802 131.942 395.847 132.715C395.505 133.021 395.12 133.276 394.705 133.472Z" fill="#455A64"/>
<path d="M379.941 133.334C379.941 133.266 380.739 132.949 382.005 132.041C383.768 130.771 385.144 129.037 385.982 127.032L386.615 125.464L386.504 127.156C386.353 129.44 386.174 132.068 385.995 134.931L385.459 134.628C387.738 132.987 389.672 130.913 391.148 128.523C392.623 126.133 393.613 123.476 394.059 120.703C394.431 118.168 394.356 115.588 393.839 113.08C393.287 110.776 392.465 108.545 391.389 106.434C391.51 106.554 391.616 106.688 391.706 106.833C391.975 107.223 392.223 107.627 392.449 108.044C393.288 109.595 393.917 111.252 394.32 112.97C395.288 117.095 394.998 121.415 393.487 125.373C391.976 129.332 389.314 132.747 385.844 135.178L385.252 135.591V134.876L385.899 127.115L386.436 127.239C385.526 129.312 384.029 131.072 382.129 132.302C381.615 132.632 381.071 132.913 380.505 133.142C380.325 133.228 380.136 133.293 379.941 133.334Z" fill="#455A64"/>
<path d="M374.657 99.3059C373.677 97.5428 372.364 95.9867 370.791 94.7238C369.056 93.4248 367.037 92.557 364.901 92.192C362.274 91.7652 359.579 92.0699 357.113 93.0726C354.639 94.0632 352.436 95.6293 350.687 97.641C349.266 99.2784 348.122 101.138 347.302 103.145C346.607 105.049 346.06 107.004 345.665 108.993C345.61 108.442 345.638 107.885 345.747 107.342C345.94 105.848 346.3 104.38 346.821 102.966C347.605 100.852 348.745 98.8886 350.192 97.1594C351.989 95.0412 354.274 93.3929 356.852 92.3571C359.442 91.3099 362.273 91.0095 365.025 91.4902C367.255 91.9187 369.345 92.8926 371.107 94.3248C372.289 95.2815 373.279 96.4534 374.024 97.7786C374.221 98.139 374.396 98.5112 374.547 98.8931C374.608 99.023 374.645 99.1628 374.657 99.3059Z" fill="#455A64"/>
<path d="M370.584 87.032C369.12 86.3372 367.59 85.7931 366.016 85.4083C362.246 84.6987 358.346 85.347 355.008 87.2384C351.698 89.2414 349.029 92.1489 347.316 95.6182C345.94 98.2602 345.569 100.09 345.445 100.049C345.439 99.6092 345.509 99.1717 345.651 98.7555C345.955 97.5984 346.36 96.4703 346.862 95.3843C348.503 91.763 351.211 88.7291 354.623 86.688C358.122 84.6816 362.251 84.0721 366.181 84.9818C367.357 85.2744 368.483 85.738 369.525 86.3578C369.908 86.5311 370.265 86.7581 370.584 87.032Z" fill="#455A64"/>
<path d="M271.429 468.156L425.184 470.248C425.184 470.248 468.184 452.25 480.003 451.768C491.823 451.287 515.27 452.786 526.113 470.248C537.328 488.301 538.896 520.142 504.345 543.272C470.688 565.811 316.81 586.63 295.716 584.717L256.858 532.512C256.858 532.512 256.458 489.732 256.858 487.696C257.257 485.659 263.738 467.331 263.738 467.331L271.429 468.156Z" fill="#263238"/>
<path d="M363.484 540.369L443.168 569.967L406.855 669.273C397.581 665.227 397.32 606.885 397.32 606.885L345.486 590.015L363.484 540.369Z" fill="#ED2980"/>
<g opacity="0.6">
<path opacity="0.6" d="M404.241 574.604C404.881 573.755 405.812 573.171 406.856 572.966C407.899 572.76 408.982 572.946 409.897 573.489C410.771 574.093 411.38 575.01 411.595 576.051C411.81 577.091 411.616 578.175 411.052 579.076C409.855 580.837 406.69 581.58 405.053 580.232C403.416 578.883 402.92 575.691 404.503 574.274" fill="white"/>
</g>
<path d="M443.168 569.967L435.119 566.912L403.25 663.507C403.25 663.507 403.553 668.64 406.856 669.273L443.168 569.967Z" fill="#263238"/>
<path d="M396.288 608.302C396.783 608.467 397.884 606.128 400.319 604.312C402.755 602.495 405.259 601.973 405.232 601.45C405.204 600.927 402.136 600.638 399.232 602.826C396.329 605.013 395.737 608.192 396.288 608.302Z" fill="#263238"/>
<path d="M396.728 620.301C397.154 620.576 398.737 618.787 401.393 617.893C404.048 616.998 406.387 617.301 406.553 616.82C406.718 616.338 404.076 615.017 400.801 616.187C397.526 617.356 396.288 620.122 396.728 620.301Z" fill="#263238"/>
<path d="M407.021 630.772C407.296 630.373 405.108 628.804 401.998 629.08C398.889 629.355 397.003 631.24 397.334 631.598C397.664 631.956 399.59 631.061 402.15 630.869C404.709 630.676 406.801 631.24 407.021 630.772Z" fill="#263238"/>
<path d="M384.839 603.156C385.348 603.156 385.5 600.638 386.683 597.968C387.866 595.299 389.518 593.469 389.201 593.07C388.885 592.671 386.449 594.088 385.073 597.198C383.697 600.308 384.371 603.252 384.839 603.156Z" fill="#263238"/>
<path d="M373.914 596.482C374.121 596.551 375.111 594.748 375.717 591.501C376.046 589.589 376.147 587.644 376.019 585.708C375.933 584.562 375.777 583.423 375.552 582.296C375.437 581.626 375.224 580.977 374.919 580.369C374.694 579.924 374.327 579.566 373.875 579.354C373.424 579.142 372.914 579.088 372.428 579.2C372.001 579.318 371.607 579.535 371.28 579.834C370.952 580.133 370.7 580.505 370.543 580.92C370.312 581.548 370.168 582.206 370.116 582.874C369.984 584.029 369.961 585.195 370.048 586.355C370.198 588.315 370.663 590.239 371.424 592.052C372.717 595.134 374.176 596.579 374.396 596.455C374.616 596.331 373.515 594.611 372.621 591.625C372.096 589.887 371.8 588.087 371.74 586.272C371.707 585.21 371.763 584.147 371.905 583.094C372.015 581.938 372.332 581.044 372.896 580.947C373.116 580.947 373.185 580.947 373.419 581.264C373.626 581.702 373.778 582.164 373.873 582.64C374.113 583.683 374.292 584.74 374.409 585.805C374.607 587.633 374.635 589.475 374.492 591.309C374.272 594.432 373.653 596.386 373.914 596.482Z" fill="#263238"/>
<path d="M374.85 596.097C374.987 595.959 373.598 594.363 370.515 593.029C368.714 592.247 366.792 591.782 364.833 591.653C363.665 591.593 362.494 591.649 361.338 591.818C360.584 591.846 359.851 592.068 359.21 592.464C358.569 592.859 358.041 593.414 357.677 594.074C357.523 594.517 357.5 594.996 357.609 595.452C357.719 595.908 357.958 596.323 358.297 596.647C358.783 597.118 359.334 597.517 359.934 597.831C360.984 598.409 362.116 598.822 363.291 599.055C365.249 599.47 367.279 599.385 369.194 598.808C372.483 597.817 373.804 596.056 373.653 595.904C373.501 595.753 371.919 596.991 368.905 597.583C367.164 597.914 365.371 597.867 363.649 597.445C362.658 597.192 361.705 596.808 360.815 596.303C359.81 595.753 359.108 595.051 359.356 594.693C359.604 594.336 360.636 593.648 361.626 593.551C362.663 593.376 363.713 593.293 364.764 593.304C366.569 593.343 368.361 593.63 370.089 594.157C373.047 595.161 374.671 596.345 374.85 596.097Z" fill="#263238"/>
<path d="M297.766 528.095L220.71 563.871L264.742 660.026C273.658 655.265 269.338 597.074 269.338 597.074L319.686 576.186L297.766 528.095Z" fill="#ED2980"/>
<g opacity="0.6">
<path opacity="0.6" d="M259.83 565.426C259.126 564.629 258.153 564.119 257.097 563.995C256.04 563.87 254.975 564.14 254.106 564.752C253.28 565.424 252.747 566.389 252.616 567.445C252.485 568.502 252.767 569.568 253.404 570.421C254.78 572.072 257.931 572.567 259.458 571.095C260.986 569.623 261.233 566.403 259.541 565.123" fill="white"/>
</g>
<path d="M220.669 563.857L228.443 560.252L267.811 653.985C267.811 653.985 267.907 659.118 264.673 660.012L220.669 563.857Z" fill="#263238"/>
<path d="M270.48 598.395C269.998 598.601 268.705 596.345 266.146 594.721C263.586 593.097 261.041 592.781 261.027 592.258C261.013 591.735 264.054 591.198 267.123 593.221C270.191 595.244 270.948 598.299 270.48 598.395Z" fill="#263238"/>
<path d="M270.921 610.394C270.508 610.71 268.788 609.018 266.063 608.357C263.339 607.697 261.041 608.165 260.848 607.697C260.656 607.229 263.174 605.701 266.531 606.61C269.889 607.518 271.361 610.173 270.921 610.394Z" fill="#263238"/>
<path d="M261.44 621.649C261.151 621.264 263.187 619.53 266.311 619.558C269.434 619.585 271.471 621.319 271.168 621.704C270.865 622.09 268.87 621.346 266.311 621.36C263.751 621.374 261.729 622.09 261.44 621.649Z" fill="#263238"/>
<path d="M281.42 592.368C280.897 592.368 280.566 589.905 279.163 587.346C277.759 584.786 275.984 583.08 276.287 582.653C276.59 582.227 279.149 583.451 280.759 586.506C282.369 589.561 281.887 592.423 281.42 592.368Z" fill="#263238"/>
<path d="M291.781 584.8C291.588 584.896 290.405 583.163 289.607 579.97C289.114 578.092 288.855 576.16 288.836 574.219C288.832 573.073 288.901 571.929 289.042 570.792C289.091 570.111 289.249 569.442 289.51 568.811C289.697 568.346 290.034 567.957 290.469 567.707C290.903 567.458 291.409 567.362 291.905 567.435C292.342 567.511 292.755 567.693 293.107 567.964C293.459 568.235 293.741 568.587 293.927 568.99C294.207 569.643 294.388 570.334 294.464 571.04C294.684 572.183 294.799 573.344 294.808 574.507C294.815 576.463 294.518 578.408 293.927 580.273C292.882 583.452 291.478 585.02 291.313 584.896C291.148 584.772 292.028 582.997 292.689 579.943C293.074 578.172 293.227 576.359 293.143 574.549C293.096 573.484 292.958 572.425 292.73 571.384C292.538 570.256 292.152 569.375 291.574 569.32C291.354 569.32 291.285 569.32 291.079 569.678C290.911 570.121 290.8 570.583 290.749 571.054C290.588 572.116 290.491 573.186 290.46 574.26C290.398 576.101 290.513 577.944 290.804 579.764C291.34 582.874 292.042 584.8 291.781 584.8Z" fill="#263238"/>
<path d="M290.831 584.552C290.68 584.415 291.932 582.708 294.89 581.154C297.684 579.711 300.822 579.069 303.958 579.296C304.712 579.263 305.462 579.425 306.135 579.768C306.807 580.11 307.38 580.621 307.797 581.25C307.982 581.683 308.04 582.161 307.965 582.626C307.889 583.091 307.683 583.525 307.371 583.878C306.921 584.384 306.402 584.824 305.829 585.185C304.828 585.842 303.733 586.343 302.582 586.671C300.663 587.231 298.635 587.307 296.679 586.891C293.322 586.148 291.863 584.456 292.001 584.332C292.138 584.208 293.817 585.295 296.872 585.708C298.634 585.904 300.418 585.717 302.1 585.158C303.079 584.832 304.005 584.369 304.852 583.782C305.802 583.163 306.462 582.406 306.228 582.075C305.933 581.753 305.57 581.5 305.166 581.334C304.762 581.167 304.326 581.092 303.889 581.112C302.837 581.009 301.777 581.009 300.724 581.112C298.93 581.283 297.169 581.709 295.496 582.378C292.537 583.424 291.01 584.8 290.831 584.552Z" fill="#263238"/>
<path d="M263.779 467.345C263.779 467.345 197.373 442.577 172.963 445.741C159.299 447.544 137.93 457.974 136.293 475.491C134.655 493.007 138.948 516.44 162.574 527.847C186.2 539.254 280.511 581.58 302.926 588.089C325.341 594.597 381.152 609.871 381.152 609.871L402.37 549.327C402.37 549.327 286.579 509.23 280.47 504.744C274.36 500.259 258.88 494.163 258.88 494.163L263.779 467.345Z" fill="#263238"/>
<path d="M494.631 475.559L494.163 475.449L492.787 475.036C491.617 474.692 489.883 474.183 487.627 473.66C481.262 472.044 474.663 471.555 468.129 472.216C463.623 472.601 459.169 473.45 454.837 474.747C452.432 475.476 450.09 476.396 447.833 477.499L440.609 481.036C430.674 485.783 419.57 490.668 407.764 495.305C384.097 504.786 361.379 509.285 345.183 512.973C337.065 514.762 330.488 516.248 325.919 517.321L320.704 518.559L319.328 518.862L318.86 518.945C318.997 518.87 319.146 518.818 319.301 518.793L320.677 518.422C321.86 518.105 323.594 517.61 325.864 517.046C330.364 515.89 336.872 514.294 345.032 512.477C361.214 508.666 383.863 504.098 407.447 494.589C419.253 489.925 430.344 485.095 440.279 480.375L447.516 476.88C449.81 475.773 452.189 474.852 454.63 474.128C459.002 472.832 463.499 472.006 468.046 471.665C474.657 471.032 481.328 471.601 487.737 473.344C489.993 473.922 491.714 474.472 492.883 474.871L494.19 475.353L494.631 475.559Z" fill="#455A64"/>
<path d="M491.135 466.808C491.135 466.932 489.113 466.56 485.865 466.216C477.388 465.282 468.815 465.723 460.478 467.524C457.272 468.198 455.318 468.762 455.291 468.652C455.725 468.416 456.187 468.235 456.667 468.115C457.533 467.813 458.813 467.427 460.409 467.028C464.58 465.982 468.843 465.346 473.137 465.129C477.425 464.914 481.724 465.107 485.975 465.707C487.613 465.955 488.92 466.203 489.814 466.409C490.268 466.495 490.71 466.628 491.135 466.808Z" fill="#455A64"/>
<path d="M235.846 484.902C235.777 484.999 233.933 483.526 230.755 481.614C222.451 476.45 213.12 473.163 203.414 471.982C199.698 471.514 197.373 471.473 197.373 471.349C197.913 471.251 198.463 471.219 199.01 471.252C200.07 471.252 201.597 471.252 203.469 471.473C213.301 472.408 222.753 475.749 230.989 481.201C232.237 482.012 233.44 482.889 234.594 483.829C235.057 484.13 235.478 484.491 235.846 484.902Z" fill="#455A64"/>
<path d="M269.173 575.168L269.696 575.361L271.196 575.994C272.572 576.544 274.471 577.452 277.071 578.457C282.245 580.507 289.882 583.314 299.693 586.547C319.301 592.946 347.495 601.119 381.234 609.609L380.863 609.816L401.393 552.835L401.586 553.29L376.157 542.846L235.489 484.902C229.764 478.848 224.481 473.509 219.554 469.188C215.367 465.495 210.9 462.132 206.194 459.13C203.232 457.266 200.173 455.562 197.029 454.025L194.566 452.869L193.741 452.456L194.594 452.814L197.084 453.901C200.262 455.388 203.35 457.06 206.331 458.91C211.08 461.881 215.585 465.226 219.802 468.913C224.783 473.206 230.081 478.545 235.833 484.572H235.75L376.432 542.144L401.861 552.588L402.163 552.712L402.053 553.042L381.413 609.995L381.317 610.27L381.028 610.201C347.289 601.642 319.108 593.386 299.514 586.809C289.717 583.534 282.094 580.658 276.934 578.553C274.347 577.535 272.42 576.585 271.099 576.007L269.613 575.333L269.173 575.168Z" fill="#455A64"/>
<path d="M433.302 255.702C433.302 255.702 452.429 266.71 456.309 279.658C458.662 287.515 476.495 388.046 479.316 407.86C482.136 427.675 476.178 442.37 467.73 448.948C459.281 455.525 433.646 464.276 433.646 464.276L397.664 475.958L387.33 449.649L421.593 400.416L418.304 367.158L433.302 255.702Z" fill="#ED2980"/>
<path d="M395.723 238.337L381.358 230.081C381.358 230.081 368.272 245.382 350.426 243.511C332.579 241.639 321.984 228.031 321.984 228.031L268.76 238.86C265.196 239.575 258.688 241.832 252.454 250.735C245.506 260.656 212.55 304.674 212.55 304.674H189.544C186.428 304.674 183.371 305.525 180.704 307.135C178.036 308.745 175.859 311.053 174.408 313.811C170.472 321.31 165.753 331.327 166.152 335.483C166.936 342.514 165.574 361.792 174.999 367.805C177.985 369.717 188.663 375.442 197.015 375.056C209.248 374.478 223.462 368.108 231.649 362.383C238.529 357.526 254.697 340.766 260.903 334.23V334.368L264.893 473.963L404.42 470L433.316 255.73C433.316 255.73 397.127 238.337 395.723 238.337Z" fill="#ED2980"/>
<path d="M260.394 275.75C260.587 275.75 260.958 293.047 261.206 314.388C261.453 335.73 261.508 353.04 261.302 353.04C261.096 353.04 260.738 335.744 260.49 314.402C260.243 293.06 260.201 275.75 260.394 275.75Z" fill="#263238"/>
<path d="M450.199 388.596C450.199 388.596 449.016 388.789 446.911 389.188C443.937 389.781 441.038 390.704 438.27 391.94C434.171 393.789 430.31 396.122 426.766 398.889C422.424 402.287 418.369 406.038 414.644 410.103C410.653 414.41 407.021 418.662 403.636 422.487C400.63 425.855 397.457 429.07 394.127 432.119C391.875 434.182 389.49 436.094 386.986 437.843C386.105 438.462 385.376 438.875 384.894 439.219C384.66 439.387 384.406 439.526 384.138 439.632C384.344 439.431 384.57 439.251 384.812 439.095C385.266 438.751 385.968 438.297 386.821 437.637C389.255 435.821 391.58 433.864 393.783 431.775C396.604 429.161 399.755 425.831 403.14 422.019C406.525 418.208 410.158 413.942 414.148 409.635C417.905 405.548 422.002 401.787 426.395 398.393C429.993 395.624 433.922 393.313 438.091 391.513C440.907 390.306 443.859 389.447 446.883 388.954C447.957 388.748 448.796 388.748 449.36 388.679C449.635 388.617 449.917 388.589 450.199 388.596Z" fill="#263238"/>
<path d="M453.364 379.143C453.364 379.267 451.245 379.57 447.86 380.519C439.161 382.927 431.268 387.627 425.005 394.128C422.611 396.618 421.331 398.352 421.235 398.256C421.448 397.798 421.716 397.368 422.033 396.976C422.829 395.851 423.697 394.78 424.634 393.77C430.779 386.976 438.823 382.182 447.723 380.01C449.061 379.681 450.416 379.429 451.782 379.253C452.302 379.143 452.834 379.106 453.364 379.143Z" fill="#263238"/>
<g opacity="0.3">
<path opacity="0.3" d="M193.672 354.636C201.061 356.645 209.922 346.023 216.637 339.377C220.119 335.909 223.751 332.221 225.045 327.474C225.953 323.485 225.543 319.308 223.875 315.572C222.638 312.203 220.988 309 218.963 306.036C219.582 311.774 220.999 320.553 219.073 327.763C217.463 333.776 213.651 338.551 209.606 343.092C205.34 347.894 200.277 352.93 193.672 354.636Z" fill="black"/>
</g>
<path d="M225.251 348.555C225.113 348.555 225.966 346.119 226.627 342.115C227.028 339.773 227.253 337.404 227.301 335.029C227.35 332.123 227.157 329.219 226.723 326.346C226.248 323.477 225.54 320.651 224.604 317.897C223.82 315.652 222.873 313.468 221.77 311.361C219.884 307.756 218.33 305.747 218.44 305.665C218.873 306.077 219.257 306.539 219.582 307.041C220.016 307.584 220.416 308.154 220.779 308.747C221.219 309.435 221.742 310.205 222.224 311.114C223.397 313.213 224.4 315.403 225.223 317.663C226.213 320.444 226.949 323.309 227.425 326.222C227.873 329.14 228.052 332.092 227.962 335.042C227.887 337.452 227.607 339.85 227.122 342.211C226.957 343.229 226.696 344.11 226.489 344.963C226.322 345.638 226.12 346.304 225.884 346.958C225.724 347.509 225.512 348.044 225.251 348.555Z" fill="#263238"/>
<path d="M327.818 233.425C327.914 233.604 326.277 234.553 324.571 236.094C322.864 237.635 321.709 239.135 321.543 239.011C322.143 237.694 323.01 236.517 324.091 235.555C325.171 234.593 326.441 233.868 327.818 233.425Z" fill="#263238"/>
<path d="M342.335 241.859C342.486 242.011 341.083 243.511 339.954 245.74C338.826 247.969 338.4 249.978 338.193 249.868C338.094 248.279 338.488 246.698 339.321 245.341C339.954 243.904 341.004 242.691 342.335 241.859Z" fill="#263238"/>
<path d="M367.199 250.611C366.534 249.29 365.999 247.908 365.603 246.483C364.996 245.128 364.535 243.711 364.227 242.259C365.2 243.425 365.913 244.785 366.319 246.249C366.927 247.621 367.227 249.11 367.199 250.611Z" fill="#263238"/>
<path d="M383.202 243.043C382.982 243.043 382.445 240.662 380.863 238.089C379.28 235.516 377.409 233.893 377.56 233.727C379.234 234.64 380.598 236.029 381.482 237.718C382.57 239.284 383.168 241.137 383.202 243.043Z" fill="#263238"/>
<path d="M429.133 288.258C429.339 288.258 426.973 307.357 423.863 330.845C420.753 354.334 418.07 373.364 417.877 373.336C417.685 373.309 420.038 354.251 423.147 330.749C426.257 307.247 428.94 288.231 429.133 288.258Z" fill="#263238"/>
<path d="M220.05 319.136C220.104 319.791 220.104 320.449 220.05 321.103C220.012 321.876 219.915 322.644 219.761 323.401C219.678 323.855 219.609 324.323 219.513 324.777C219.417 325.231 219.265 325.796 219.114 326.346C218.435 328.927 217.514 331.438 216.362 333.845C214.916 336.775 213.197 339.562 211.229 342.17C209.204 344.758 206.897 347.112 204.349 349.188C202.253 350.867 199.938 352.256 197.469 353.316C196.933 353.522 196.437 353.756 195.956 353.935L194.58 354.32L193.369 354.65C192.997 354.733 192.64 354.747 192.323 354.802C191.672 354.905 191.014 354.956 190.355 354.953C192.714 354.486 195.019 353.781 197.235 352.848C199.61 351.755 201.839 350.368 203.868 348.72C206.321 346.665 208.553 344.359 210.528 341.84C212.468 339.274 214.172 336.539 215.619 333.666C216.782 331.304 217.74 328.845 218.481 326.318C219.127 323.953 219.651 321.555 220.05 319.136Z" fill="#263238"/>
<g opacity="0.3">
<path opacity="0.3" d="M424.647 478.71C430.564 475.848 431.912 468.184 432.518 461.634C434.279 442.471 436.045 423.294 437.815 404.104C438.655 395.091 439.054 384.84 432.697 378.345C426.89 372.456 417.657 372.112 409.387 372.139C358.338 372.277 313.246 373.777 262.155 373.914L264.756 463.23L424.647 478.71Z" fill="black"/>
</g>
<path d="M240.181 387.757L245.616 491.342C245.729 493.277 246.579 495.094 247.992 496.421C249.405 497.747 251.273 498.48 253.211 498.47L418.221 498.759C420.163 498.765 422.033 498.027 423.446 496.696C424.859 495.364 425.708 493.542 425.817 491.604L432.105 389.78C432.325 385.541 429.353 379.914 425.033 379.831H247.928C246.887 379.803 245.853 379.991 244.888 380.381C243.924 380.772 243.051 381.358 242.323 382.102C241.596 382.846 241.03 383.733 240.662 384.706C240.293 385.679 240.129 386.718 240.181 387.757Z" fill="#E0E0E0"/>
<path d="M240.18 387.757C240.18 387.757 240.18 387.619 240.18 387.372C240.144 386.987 240.144 386.6 240.18 386.216C240.405 384.704 241.087 383.297 242.134 382.184C242.902 381.362 243.842 380.718 244.886 380.299C246.164 379.84 247.523 379.652 248.877 379.748H258.908L322.837 379.638L417.657 379.542H424.399C425.594 379.478 426.78 379.781 427.798 380.409C428.802 381.049 429.66 381.893 430.316 382.886C431.666 384.855 432.39 387.186 432.394 389.573C432.256 391.871 432.119 394.196 431.981 396.536C431.403 405.856 430.816 415.364 430.22 425.06C429.036 444.448 427.798 464.51 426.518 485.067L426.284 488.92C426.174 490.2 426.202 491.438 425.968 492.787C425.703 494.104 425.106 495.333 424.235 496.356C423.363 497.379 422.246 498.163 420.987 498.635C419.748 499.074 418.431 499.248 417.12 499.144H405.768H376.143L320.14 499.02L269.462 498.896H257.766H254.972C254.023 498.896 253.087 498.896 252.097 498.8C250.166 498.528 248.405 497.547 247.157 496.048C245.939 494.586 245.285 492.736 245.313 490.833C245.217 489.03 245.134 487.255 245.038 485.494C244.859 481.958 244.68 478.518 244.501 475.147C243.125 448.191 242.038 426.381 241.268 411.3C240.91 403.773 240.621 397.925 240.428 393.935C240.346 391.954 240.277 390.454 240.222 389.422C240.167 388.39 240.222 387.881 240.222 387.881C240.222 387.881 240.222 388.404 240.346 389.422C240.469 390.44 240.497 391.954 240.607 393.921C240.841 397.912 241.171 403.76 241.598 411.286C242.41 426.422 243.593 448.177 245.052 475.119C245.23 478.49 245.423 481.93 245.616 485.467C245.698 487.228 245.795 489.003 245.891 490.805C245.864 492.589 246.479 494.323 247.625 495.69C248.788 497.077 250.427 497.98 252.22 498.222C253.135 498.304 254.054 498.332 254.972 498.305H269.517H320.195L376.198 498.387H405.823H417.175C418.401 498.485 419.634 498.326 420.794 497.919C421.938 497.492 422.954 496.78 423.746 495.85C424.538 494.921 425.08 493.805 425.321 492.608C425.528 491.438 425.528 490.09 425.624 488.838L425.858 484.985C427.138 464.427 428.376 444.365 429.587 424.991C430.183 415.286 430.77 405.773 431.348 396.453C431.5 394.128 431.637 391.816 431.775 389.504C431.765 387.264 431.085 385.079 429.821 383.23C429.277 382.288 428.492 381.508 427.546 380.971C426.6 380.434 425.528 380.159 424.441 380.175H417.712H322.892L258.963 380.079H248.932C247.603 379.975 246.268 380.149 245.01 380.588C243.793 381.057 242.718 381.836 241.893 382.847C241.068 383.858 240.52 385.066 240.304 386.353C240.239 386.819 240.198 387.287 240.18 387.757Z" fill="#263238"/>
<path d="M337.367 447.998C342.733 447.998 347.082 443.649 347.082 438.284C347.082 432.918 342.733 428.569 337.367 428.569C332.002 428.569 327.653 432.918 327.653 438.284C327.653 443.649 332.002 447.998 337.367 447.998Z" fill="white"/>
<path d="M347.082 438.284C347.013 438.284 347.082 437.417 346.642 435.944C346.072 433.867 344.822 432.04 343.091 430.757C341.918 429.87 340.55 429.276 339.101 429.023C337.449 428.735 335.75 428.887 334.175 429.463C332.43 430.094 330.915 431.235 329.827 432.738C328.717 434.256 328.088 436.071 328.021 437.95C327.954 439.829 328.452 441.684 329.451 443.277C330.45 444.87 331.903 446.127 333.623 446.885C335.344 447.643 337.252 447.868 339.101 447.53C340.55 447.277 341.918 446.683 343.091 445.797C344.819 444.517 346.069 442.695 346.642 440.623C347.041 439.15 347.013 438.27 347.082 438.284C347.118 438.488 347.118 438.698 347.082 438.903C347.09 439.505 347.02 440.107 346.875 440.692C346.375 442.876 345.135 444.82 343.367 446.196C342.045 447.226 340.483 447.905 338.828 448.17C337.173 448.434 335.477 448.276 333.9 447.709C332.427 447.183 331.097 446.319 330.018 445.187C328.939 444.054 328.14 442.685 327.685 441.188C327.23 439.691 327.132 438.109 327.399 436.567C327.666 435.026 328.29 433.569 329.221 432.312C330.394 430.706 332.025 429.492 333.9 428.83C335.589 428.226 337.409 428.088 339.17 428.431C340.677 428.735 342.092 429.39 343.298 430.344C345.072 431.714 346.313 433.661 346.807 435.848C346.952 436.428 347.022 437.025 347.013 437.623C347.075 437.837 347.098 438.061 347.082 438.284Z" fill="#263238"/>
<path d="M245.74 399.219C245.932 399.219 246.758 416.625 247.556 438.105C248.354 459.584 248.85 477.004 248.657 477.004C248.464 477.004 247.68 459.584 246.841 438.118C246.001 416.653 245.547 399.233 245.74 399.219Z" fill="#263238"/>
<path d="M196.148 264.068C195.172 263.243 199.41 246.978 199.41 246.978C199.41 246.978 188.209 228.719 187.92 222.829C187.631 216.94 192.337 204.859 192.337 204.859L224.439 196.603C224.439 196.603 234.759 215.757 236.823 222.527C238.887 229.297 233.287 252.276 233.287 252.276L227.783 264.068C227.783 264.068 211.436 277.03 196.148 264.068Z" fill="#936760"/>
<path d="M187.975 226.352C186.718 224.035 185.588 221.651 184.59 219.211C182.567 214.395 180.063 209.661 184.59 206.964C185.296 206.499 186.094 206.191 186.93 206.061C187.765 205.93 188.619 205.98 189.434 206.207C189.434 206.207 188.746 202.079 191.167 200.621C191.872 200.181 192.671 199.914 193.498 199.842C194.326 199.77 195.159 199.896 195.928 200.208C195.928 200.208 195.158 194.484 198.68 192.062C199.991 191.196 201.517 190.713 203.088 190.667C204.658 190.621 206.21 191.014 207.569 191.801C207.569 191.801 204.817 166.744 204.57 165.423C203.689 160.552 205.492 156.231 210.335 157.442C212.11 157.882 213.087 159.754 215.179 167.913C217.27 176.073 220.614 189.998 220.614 189.998C220.614 189.998 226.255 199.795 228.87 205.134C231.484 210.473 236.809 222.554 237.25 225.774C238.378 234.03 233.521 245.038 233.521 245.038L199.396 247.02L187.975 226.352Z" fill="#936760"/>
<path d="M190.108 207.281C191.081 208.441 191.964 209.674 192.75 210.968L195.502 215.096C196.059 215.909 196.552 216.765 196.974 217.656C197.454 218.672 197.594 219.815 197.373 220.917C197.27 221.492 197.015 222.03 196.635 222.475C196.256 222.92 195.765 223.256 195.213 223.449C194.182 223.706 193.093 223.569 192.158 223.063C191.355 222.678 190.59 222.218 189.874 221.687C189.214 221.206 188.594 220.738 188.044 220.311C186.929 219.444 186.076 218.701 185.498 218.165C184.92 217.628 184.618 217.325 184.645 217.284C184.673 217.243 186.021 218.289 188.347 219.899C189.646 220.877 191.027 221.743 192.475 222.485C193.265 222.901 194.18 223.014 195.048 222.802C195.481 222.645 195.864 222.374 196.157 222.018C196.45 221.663 196.642 221.235 196.713 220.779C196.888 219.848 196.768 218.886 196.369 218.027C195.973 217.168 195.513 216.34 194.993 215.55L192.42 211.422C191.535 210.109 190.761 208.724 190.108 207.281Z" fill="#6F4C47"/>
<path d="M218.096 210.267C217.802 208.474 217.925 206.638 218.454 204.9C218.763 203.108 219.494 201.414 220.586 199.96C220.779 200.057 219.83 202.244 219.21 205.065C218.591 207.886 218.316 210.267 218.096 210.267Z" fill="#6F4C47"/>
<path d="M231.636 217.587C228.486 214.537 224.518 212.468 220.215 211.629C215.931 210.804 211.546 210.636 207.212 211.133C203.744 211.45 199.768 212.344 198.199 215.454C196.63 218.564 198.529 222.774 201.598 224.604C204.666 226.435 208.478 226.517 212.069 226.201C215.66 225.884 219.238 225.21 222.788 225.76" fill="#936760"/>
<path d="M222.788 225.76C222.788 225.76 221.825 225.664 220.036 225.76C217.59 225.866 215.152 226.096 212.729 226.448C211.028 226.666 209.311 226.739 207.597 226.668C205.599 226.6 203.638 226.108 201.845 225.224C199.844 224.17 198.319 222.394 197.58 220.256C197.187 219.115 197.102 217.891 197.332 216.706C197.625 215.485 198.283 214.381 199.217 213.541C201.113 212.076 203.393 211.192 205.781 210.996C207.932 210.743 210.096 210.614 212.262 210.611C215.947 210.543 219.617 211.097 223.118 212.248C225.474 213.04 227.676 214.231 229.627 215.771C230.159 216.192 230.661 216.652 231.126 217.147C231.301 217.305 231.454 217.485 231.581 217.683C231.581 217.683 230.865 217.036 229.462 216.018C227.479 214.592 225.282 213.492 222.953 212.757C219.497 211.693 215.89 211.2 212.275 211.299C210.136 211.322 208 211.465 205.877 211.725C203.631 211.905 201.485 212.732 199.699 214.106C198.877 214.832 198.296 215.792 198.034 216.858C197.819 217.917 197.89 219.014 198.24 220.036C198.917 222.014 200.318 223.661 202.162 224.646C203.877 225.492 205.754 225.961 207.666 226.022C209.345 226.114 211.029 226.073 212.702 225.898C215.147 225.579 217.611 225.418 220.077 225.416C220.745 225.446 221.411 225.511 222.072 225.609C222.317 225.624 222.558 225.675 222.788 225.76Z" fill="#6F4C47"/>
<path d="M190.355 207.68C193.947 213.184 197.112 219.128 200.139 224.907C200.862 226.677 202.051 228.217 203.579 229.365C204.872 230.163 208.078 228.719 209.523 228.223L199.657 205.795" fill="#936760"/>
<path d="M199.657 205.795C200.002 206.321 200.297 206.878 200.538 207.46L202.712 212.165C204.542 216.156 207.046 221.797 209.84 228.086L210.005 228.43L209.633 228.567C208.574 228.939 207.432 229.42 206.193 229.737C205.697 229.86 205.19 229.934 204.68 229.957C204.411 229.97 204.142 229.942 203.882 229.875C203.609 229.808 203.355 229.681 203.139 229.503C202.344 228.931 201.667 228.211 201.143 227.384C200.139 225.788 199.423 224.192 198.611 222.719C197.07 219.733 195.653 217.064 194.415 214.835C193.176 212.606 192.158 210.831 191.429 209.606C191.027 208.99 190.668 208.346 190.355 207.68C190.85 208.23 191.288 208.83 191.663 209.468C192.461 210.638 193.575 212.386 194.855 214.587C196.135 216.789 197.607 219.431 199.203 222.403C200.015 223.875 200.772 225.499 201.735 226.999C202.213 227.745 202.824 228.398 203.538 228.925C203.918 229.122 204.336 229.235 204.764 229.254C205.192 229.273 205.618 229.198 206.014 229.035C207.184 228.746 208.298 228.278 209.399 227.893L209.152 228.416C206.4 222.073 203.95 216.445 202.272 212.399L200.29 207.611C200.026 207.025 199.814 206.417 199.657 205.795Z" fill="#6F4C47"/>
<path d="M197.002 199.121C200.167 207.074 203.336 215.023 206.51 222.967C207.088 224.696 207.953 226.315 209.069 227.756C209.633 228.471 210.366 229.036 211.202 229.398C212.037 229.761 212.95 229.91 213.858 229.833C216.335 229.476 217.986 226.847 218.082 224.329C218.006 221.817 217.397 219.35 216.293 217.092C213.45 209.839 211.173 202.377 209.482 194.773" fill="#936760"/>
<path d="M209.482 194.787C209.578 195.023 209.656 195.267 209.716 195.516C209.867 196.066 210.046 196.768 210.28 197.621C210.775 199.451 211.491 202.093 212.495 205.327C213.5 208.56 214.793 212.372 216.431 216.527C217.445 218.705 218.118 221.025 218.426 223.407C218.517 224.715 218.266 226.024 217.697 227.205C217.115 228.44 216.102 229.418 214.848 229.957C214.197 230.195 213.501 230.289 212.81 230.232C212.119 230.175 211.448 229.969 210.844 229.627C209.715 228.998 208.767 228.088 208.092 226.985C206.955 224.908 205.993 222.741 205.216 220.504C203.593 216.376 202.134 212.606 200.882 209.427C199.63 206.249 198.735 203.786 198.02 201.928L197.263 199.878C197.165 199.639 197.096 199.39 197.057 199.135C197.196 199.351 197.311 199.582 197.401 199.823L198.281 201.818C199.038 203.662 200.084 206.18 201.35 209.235C202.616 212.289 204.102 216.115 205.836 220.243C206.61 222.427 207.563 224.544 208.684 226.572C209.308 227.58 210.186 228.405 211.229 228.966C211.744 229.256 212.316 229.432 212.904 229.481C213.493 229.531 214.086 229.454 214.642 229.255C215.74 228.777 216.622 227.909 217.119 226.82C217.636 225.751 217.864 224.565 217.779 223.38C217.474 221.091 216.829 218.86 215.867 216.761C214.257 212.633 213.004 208.712 212.069 205.464C211.133 202.217 210.473 199.52 210.06 197.676C209.867 196.74 209.716 196.025 209.633 195.53C209.544 195.291 209.493 195.041 209.482 194.787Z" fill="#6F4C47"/>
<path d="M197.758 255.028C197.758 255.028 175.99 319.232 175.123 322.369C174.256 325.507 179.43 348.444 188.883 353.88C198.336 359.315 216.678 336.693 218.963 328.382C221.247 320.071 218.963 306.036 218.963 306.036L233.645 250.735" fill="#936760"/>
<path d="M218.963 245.052C218.268 245.14 217.563 245.05 216.912 244.79C215.306 244.29 213.83 243.439 212.592 242.3C211.338 241.158 210.359 239.747 209.73 238.172C209.409 237.548 209.257 236.85 209.289 236.149C210.197 238.232 211.479 240.131 213.073 241.749C214.813 243.208 216.811 244.328 218.963 245.052Z" fill="#6F4C47"/>
<path d="M610.008 556.207C610.008 556.413 488.769 556.578 339.239 556.578C189.709 556.578 68.4424 556.413 68.4424 556.207C68.4424 556 189.668 555.849 339.239 555.849C488.81 555.849 610.008 556.014 610.008 556.207Z" fill="#263238"/>
<path d="M255.166 95.9622H100.737C96.7169 95.9622 93.458 99.2212 93.458 103.241V146.062C93.458 150.082 96.7169 153.341 100.737 153.341H255.166C259.186 153.341 262.445 150.082 262.445 146.062V103.241C262.445 99.2212 259.186 95.9622 255.166 95.9622Z" fill="#ED2980"/>
<path d="M263.531 153.328H115.019C112.974 153.306 111.02 152.479 109.58 151.026C108.14 149.574 107.331 147.612 107.328 145.567V103.516C107.331 101.459 108.15 99.4875 109.605 98.0329C111.059 96.5782 113.031 95.7594 115.088 95.7558H263.531C265.588 95.7594 267.56 96.5782 269.015 98.0329C270.469 99.4875 271.288 101.459 271.292 103.516V145.567C271.288 147.624 270.469 149.596 269.015 151.051C267.56 152.505 265.588 153.324 263.531 153.328ZM115.019 97.1318C113.339 97.1535 111.735 97.8353 110.553 99.0299C109.371 100.225 108.707 101.836 108.704 103.516V145.567C108.704 147.26 109.376 148.884 110.574 150.082C111.771 151.279 113.395 151.952 115.088 151.952H263.531C265.224 151.952 266.848 151.279 268.046 150.082C269.243 148.884 269.916 147.26 269.916 145.567V103.516C269.912 101.824 269.238 100.202 268.042 99.0058C266.845 97.8093 265.223 97.1354 263.531 97.1318H115.019Z" fill="#ED2980"/>
<path d="M265.031 152.062C263.888 151.016 262.913 149.8 262.142 148.457C261.169 147.249 260.39 145.898 259.83 144.452C260.976 145.499 261.955 146.715 262.733 148.058C263.705 149.263 264.48 150.615 265.031 152.062Z" fill="#ED2980"/>
<path d="M270.604 107.713C268.899 105.981 267.373 104.082 266.049 102.044C264.536 100.146 263.204 98.11 262.073 95.9622C263.778 97.6941 265.303 99.5934 266.627 101.631C268.147 103.525 269.479 105.562 270.604 107.713Z" fill="#ED2980"/>
<path d="M270.012 144.48C269.806 144.631 267.742 141.728 265.485 137.848C264.343 135.949 263.339 134.215 262.637 132.949C262.2 132.291 261.84 131.584 261.563 130.844C261.77 130.706 263.834 133.678 266.091 137.476C267.233 139.375 268.237 141.109 268.953 142.375C269.389 143.031 269.745 143.738 270.012 144.48Z" fill="#ED2980"/>
<path d="M270.645 132.454C270.439 132.605 268.237 129.399 265.802 125.312C264.577 123.262 263.49 121.404 262.719 120.042C262.257 119.332 261.87 118.576 261.563 117.786C261.77 117.648 263.971 120.854 266.421 124.941C267.645 126.977 268.719 128.849 269.489 130.197C269.955 130.905 270.343 131.662 270.645 132.454Z" fill="#ED2980"/>
<path d="M270.632 120.579C270.425 120.73 268.21 117.497 265.761 113.396C264.522 111.346 263.435 109.461 262.665 108.099C262.193 107.387 261.801 106.625 261.495 105.828C261.702 105.691 263.917 108.91 266.366 113.025C267.605 115.075 268.692 116.946 269.462 118.322C269.938 119.027 270.33 119.784 270.632 120.579Z" fill="#ED2980"/>
<path d="M89.2885 104.851C86.329 104.451 83.4068 103.812 80.5509 102.939C77.6333 102.295 74.7714 101.421 71.9922 100.324C74.9517 100.724 77.8739 101.364 80.7298 102.237C83.6481 102.878 86.5102 103.752 89.2885 104.851Z" fill="#263238"/>
<path d="M90.9534 94.5174C87.7229 91.1504 84.6687 87.6186 81.803 83.936C78.7501 80.4196 75.8841 76.7452 73.2168 72.928C76.4436 76.3032 79.4977 79.8394 82.3672 83.5232C85.4121 87.0414 88.2779 90.7108 90.9534 94.5174Z" fill="#263238"/>
<path d="M103.709 89.5363C102.717 87.2287 102.081 84.7835 101.824 82.2848C101.327 79.8215 101.224 77.2947 101.521 74.7993C101.728 74.7993 101.92 78.1292 102.526 82.1884C103.131 86.2476 103.916 89.44 103.709 89.5363Z" fill="#263238"/>
<path d="M144.555 133V131.523L146.465 131.195V117.754L144.555 117.426V115.938H146.465H151.234C152.742 115.938 154.055 116.297 155.172 117.016C156.297 117.734 157.172 118.723 157.797 119.98C158.422 121.238 158.734 122.676 158.734 124.293V124.656C158.734 126.234 158.434 127.656 157.832 128.922C157.23 130.18 156.375 131.176 155.266 131.91C154.164 132.637 152.859 133 151.352 133H144.555ZM148.773 131.195H151.234C152.312 131.195 153.238 130.902 154.012 130.316C154.785 129.723 155.379 128.934 155.793 127.949C156.215 126.957 156.426 125.859 156.426 124.656V124.27C156.426 123.027 156.215 121.918 155.793 120.941C155.379 119.957 154.785 119.18 154.012 118.609C153.238 118.039 152.312 117.754 151.234 117.754H148.773V131.195ZM168.062 133.246C166.961 133.246 165.973 133.035 165.098 132.613C164.223 132.191 163.477 131.598 162.859 130.832C162.25 130.059 161.781 129.145 161.453 128.09C161.133 127.035 160.973 125.871 160.973 124.598V124.352C160.973 123.086 161.133 121.926 161.453 120.871C161.781 119.809 162.25 118.891 162.859 118.117C163.477 117.344 164.223 116.746 165.098 116.324C165.973 115.902 166.961 115.691 168.062 115.691C169.227 115.691 170.25 115.902 171.133 116.324C172.016 116.746 172.754 117.344 173.348 118.117C173.949 118.891 174.402 119.809 174.707 120.871C175.012 121.926 175.164 123.086 175.164 124.352V124.598C175.164 125.871 175.012 127.035 174.707 128.09C174.402 129.145 173.949 130.059 173.348 130.832C172.754 131.598 172.016 132.191 171.133 132.613C170.25 133.035 169.227 133.246 168.062 133.246ZM168.062 131.324C169.195 131.324 170.109 131.043 170.805 130.48C171.508 129.918 172.023 129.133 172.352 128.125C172.68 127.109 172.844 125.934 172.844 124.598V124.328C172.844 123 172.676 121.836 172.34 120.836C172.012 119.828 171.496 119.043 170.793 118.48C170.09 117.91 169.18 117.625 168.062 117.625C167.039 117.625 166.172 117.91 165.461 118.48C164.75 119.051 164.211 119.84 163.844 120.848C163.477 121.848 163.293 123.008 163.293 124.328V124.598C163.293 125.926 163.477 127.098 163.844 128.113C164.211 129.121 164.75 129.91 165.461 130.48C166.172 131.043 167.039 131.324 168.062 131.324ZM175.996 133V131.523L177.262 131.348L183.227 115.938H185.207L191.066 131.348L192.32 131.523V133H187.422V131.523L188.711 131.301L187.586 128.16H180.754L179.594 131.301L180.883 131.523V133H175.996ZM181.469 126.227H186.883L184.375 119.289L184.234 118.902H184.164L184.023 119.289L181.469 126.227ZM194.102 133V131.523L196.012 131.195V117.754L194.102 117.426V115.949H201.707C202.949 115.949 203.996 116.137 204.848 116.512C205.707 116.879 206.359 117.414 206.805 118.117C207.25 118.82 207.473 119.68 207.473 120.695C207.473 121.695 207.254 122.535 206.816 123.215C206.387 123.895 205.773 124.41 204.977 124.762C204.18 125.105 203.234 125.289 202.141 125.312L198.32 125.383V131.195L200.23 131.523V133H194.102ZM205.363 133L201.566 124.48L203.875 124.457L207.027 131.277L208.211 131.488V133H205.363ZM198.32 123.566H201.473C202.762 123.566 203.699 123.32 204.285 122.828C204.871 122.336 205.164 121.617 205.164 120.672C205.164 119.773 204.883 119.062 204.32 118.539C203.758 118.016 202.887 117.754 201.707 117.754H198.32V123.566Z" fill="white"/>
</svg>
