<svg width="378" height="409" viewBox="0 0 378 409" fill="none" xmlns="http://www.w3.org/2000/svg">
<rect width="378" height="378" fill="#EBE5E5"/>
<path d="M189.27 91.2365H76.374V233.093H189.27V91.2365Z" fill="#E0E0E0"/>
<path d="M185.861 95.2959H80.5042V229.041H185.861V95.2959Z" fill="#FAFAFA"/>
<path d="M80.5042 193.748H101.698L104.423 206.223H113.623L121.459 170.753H147.68V146.566H166.756V186.977H185.861V229.048H80.5042V193.748Z" fill="#F5F5F5"/>
<path d="M134.859 95.2959H131.456V227.939H134.859V95.2959Z" fill="#E0E0E0"/>
<path d="M185.861 160.093H80.5042V163.58H185.861V160.093Z" fill="#E0E0E0"/>
<path d="M296.498 129.057L303.275 146.389L299.06 146.375L295.686 135.722L296.498 129.057Z" fill="#E0E0E0"/>
<path d="M273.362 113.038L271.032 146.255L295.079 146.756L297.783 113.038H273.362Z" fill="#EBEBEB"/>
<path d="M275.763 115.713L273.828 143.36L291.704 144.201L294.203 115.551L275.763 115.713Z" fill="#FAFAFA"/>
<path d="M279.688 119.625L278.234 139.054H288.096L289.84 119.625H279.688Z" fill="#E0E0E0"/>
<path d="M237.646 146.516V119.201H257.646V146.495L237.646 146.516Z" fill="#EBEBEB"/>
<path d="M249.019 119.201C249.019 119.201 253.841 83.9434 252.493 83.9928C251.144 84.0423 247.748 116.137 247.748 116.137C247.748 116.137 247.607 89.5561 246.336 89.6973C245.066 89.8385 246.336 117.838 246.336 117.838C246.336 117.838 244.162 95.1123 242.99 95.656C241.818 96.1996 243.491 119.201 243.491 119.201H249.026" fill="#E0E0E0"/>
<path d="M245.383 119.201C245.383 119.201 247.057 101.629 247.607 102.829C248.158 104.029 247.607 113.292 247.607 113.292C247.607 113.292 252.274 90.594 253.453 91.3494C254.632 92.1048 248.744 116.01 248.744 116.01C248.744 116.01 253.262 102.377 254.258 103.817C255.253 105.258 250.509 118.043 250.509 118.043C250.509 118.043 255.359 108.999 255.691 110.214C256.023 111.428 253.375 119.208 253.375 119.208L245.383 119.201Z" fill="#EBEBEB"/>
<path d="M242.531 119.307C242.531 119.307 231.842 98.3176 233.163 98.9672C234.483 99.6167 241.324 113.186 241.324 113.186C241.324 113.186 236.798 100.097 237.794 99.6943C238.789 99.2919 243.745 114.4 243.745 114.4L244.861 119.342L242.531 119.307Z" fill="#EBEBEB"/>
<path d="M246.908 119.25L247.41 146.559H237.9L237.716 119.159L246.908 119.25Z" fill="#E0E0E0"/>
<path d="M237.667 121.616L246.88 121.771L257.647 121.616L257.985 119.003H237.406L237.667 121.616Z" fill="#F5F5F5"/>
<path d="M320.452 146.071H220.44V150.463H320.452V146.071Z" fill="#E0E0E0"/>
<path d="M239.185 304.314C238.337 303.375 240.335 297.89 249.817 297.501C259.299 297.113 263.097 300.566 263.111 304.314C263.118 305.973 239.185 304.314 239.185 304.314Z" fill="#455A64"/>
<path d="M234.504 160.799L223.97 225.941H320.17L331.763 160.1L234.504 160.799Z" fill="#F5F5F5"/>
<path d="M233.544 166.722C233.586 166.496 330.661 166.355 330.661 166.355L331.763 160.1L234.504 160.806L233.544 166.736" fill="#E0E0E0"/>
<path d="M238.571 163.729C238.572 163.906 238.521 164.08 238.423 164.229C238.325 164.377 238.186 164.493 238.022 164.562C237.858 164.631 237.678 164.65 237.503 164.616C237.329 164.582 237.169 164.497 237.042 164.372C236.916 164.247 236.83 164.087 236.795 163.913C236.76 163.739 236.777 163.558 236.845 163.394C236.913 163.23 237.027 163.089 237.175 162.991C237.323 162.892 237.496 162.839 237.674 162.839C237.791 162.838 237.908 162.86 238.017 162.905C238.125 162.949 238.224 163.014 238.308 163.097C238.391 163.18 238.457 163.278 238.502 163.387C238.547 163.495 238.571 163.611 238.571 163.729Z" fill="#263238"/>
<path d="M242.948 163.729C242.948 163.904 242.896 164.076 242.798 164.223C242.7 164.369 242.561 164.483 242.399 164.55C242.236 164.618 242.057 164.635 241.885 164.601C241.712 164.567 241.554 164.482 241.429 164.358C241.305 164.233 241.22 164.075 241.186 163.902C241.151 163.73 241.169 163.551 241.236 163.388C241.304 163.226 241.418 163.087 241.564 162.989C241.71 162.891 241.882 162.839 242.058 162.839C242.294 162.839 242.52 162.933 242.687 163.1C242.854 163.266 242.948 163.493 242.948 163.729Z" fill="#263238"/>
<path d="M247.332 163.729C247.333 163.906 247.282 164.08 247.184 164.229C247.087 164.377 246.947 164.493 246.783 164.562C246.62 164.631 246.439 164.65 246.265 164.616C246.09 164.582 245.93 164.497 245.804 164.372C245.678 164.247 245.592 164.087 245.557 163.913C245.521 163.739 245.539 163.558 245.606 163.394C245.674 163.23 245.789 163.089 245.937 162.991C246.084 162.892 246.258 162.839 246.435 162.839C246.553 162.838 246.669 162.86 246.778 162.905C246.887 162.949 246.986 163.014 247.069 163.097C247.152 163.18 247.218 163.278 247.264 163.387C247.309 163.495 247.332 163.611 247.332 163.729V163.729Z" fill="#263238"/>
<path d="M258.197 195.986L246.16 209.908C243.887 208.366 242.02 206.298 240.716 203.881C239.412 201.464 238.71 198.767 238.669 196.021C238.669 186.342 247.487 178.371 258.197 178.371C268.907 178.371 277.725 186.335 277.725 196.021L258.197 195.986Z" fill="#ED2980"/>
<path d="M259.744 198.196C259.685 198.294 259.616 198.386 259.539 198.471L258.91 199.219L256.524 202.043C254.449 204.472 251.497 207.903 247.96 212.033V211.807C250.627 213.643 253.708 214.788 256.927 215.14C260.56 215.558 264.239 215.003 267.587 213.53C270.782 212.142 273.542 209.915 275.572 207.084C276.487 205.764 277.221 204.328 277.754 202.813C278.219 201.398 278.501 199.929 278.594 198.443L278.749 198.605L264.982 198.372L261.113 198.287L260.089 198.252C259.97 198.263 259.849 198.263 259.729 198.252C259.842 198.241 259.956 198.241 260.068 198.252H261.078H264.926L278.749 198.344H278.918V198.513C278.838 200.033 278.558 201.536 278.085 202.982C277.549 204.53 276.806 205.997 275.876 207.345C273.808 210.251 270.982 212.534 267.707 213.946C264.298 215.438 260.553 215.999 256.856 215.57C253.583 215.199 250.453 214.02 247.749 212.139L247.607 212.04L247.72 211.906L256.432 201.973L258.868 199.219L259.518 198.513C259.584 198.401 259.659 198.295 259.744 198.196V198.196Z" fill="#263238"/>
<path d="M266.5 186.596C267.104 186.596 267.594 186.106 267.594 185.502C267.594 184.897 267.104 184.407 266.5 184.407C265.895 184.407 265.406 184.897 265.406 185.502C265.406 186.106 265.895 186.596 266.5 186.596Z" fill="#263238"/>
<path d="M289.332 177.496C288.991 177.548 288.646 177.572 288.301 177.566L285.477 177.623C283.112 177.623 279.829 177.679 276.236 177.679H274.513L274.64 177.63C272.374 179.889 270.355 181.866 268.893 183.278L267.164 184.93C266.966 185.144 266.743 185.334 266.5 185.495C266.671 185.26 266.863 185.04 267.072 184.838C267.503 184.379 268.06 183.8 268.724 183.108C270.136 181.647 272.127 179.628 274.372 177.354L274.421 177.305H276.278C279.886 177.305 283.155 177.305 285.52 177.354L288.344 177.418C288.675 177.412 289.006 177.438 289.332 177.496V177.496Z" fill="#263238"/>
<path d="M314.127 191.248C314.131 191.122 314.148 190.997 314.176 190.874C314.218 190.62 314.275 190.274 314.352 189.829L315.058 185.883L317.607 171.721L317.755 171.897L290.412 171.932L290.589 171.784V171.855V171.939V172.102L290.525 172.427L290.405 173.083L290.165 174.382C290.003 175.243 289.847 176.098 289.685 176.945C289.374 178.639 289.066 180.305 288.76 181.943C288.146 185.205 287.56 188.297 287.016 191.27L286.847 191.072L306.544 191.15L312.192 191.199H313.696H314.084H314.225H314.105H313.731H312.256L306.664 191.241L286.896 191.319H286.698L286.734 191.121C287.277 188.177 287.849 185.05 288.456 181.781C288.753 180.15 289.064 178.484 289.374 176.79C289.537 175.935 289.692 175.081 289.854 174.22C289.932 173.789 290.01 173.358 290.094 172.921L290.214 172.271L290.271 171.946L290.306 171.777V171.699V171.636L290.49 171.48L317.833 171.516H317.932L317.897 171.692C316.767 177.601 315.835 182.48 315.186 185.904C314.854 187.577 314.6 188.89 314.416 189.815L314.211 190.825C314.155 191.143 314.127 191.256 314.127 191.248Z" fill="#263238"/>
<path d="M268.215 208.609C268.82 208.609 269.31 208.119 269.31 207.515C269.31 206.91 268.82 206.42 268.215 206.42C267.611 206.42 267.121 206.91 267.121 207.515C267.121 208.119 267.611 208.609 268.215 208.609Z" fill="#263238"/>
<path d="M288.082 207.515C288.082 207.621 283.635 207.698 278.149 207.698C272.663 207.698 268.216 207.621 268.216 207.515C268.216 207.409 272.663 207.331 278.149 207.331C283.635 207.331 288.082 207.416 288.082 207.515Z" fill="#263238"/>
<path d="M314.127 216.043C314.135 215.953 314.152 215.863 314.176 215.775C314.218 215.584 314.275 215.33 314.353 215.012C314.515 214.306 314.748 213.367 315.059 212.139C315.673 209.64 316.548 206.074 317.628 201.69L317.763 201.86L289.565 201.902L289.741 201.768V201.81V201.867V201.987L289.678 202.227L289.558 202.693L289.325 203.639C289.163 204.26 289.007 204.881 288.852 205.503L287.849 209.202C287.242 211.595 286.656 213.911 286.091 216.121L285.929 215.909L306.156 215.987L312.002 216.029H313.569H313.978H314.127H314H313.604H312.072L306.255 216.071L285.929 216.149H285.703L285.76 215.93C286.317 213.72 286.896 211.398 287.496 209.004C287.798 207.804 288.106 206.587 288.421 205.354L288.887 203.49L289.127 202.552L289.247 202.078L289.304 201.838V201.725V201.662V201.62L289.48 201.478L317.678 201.528H317.932L317.89 201.697C316.746 206.103 315.821 209.682 315.172 212.188C314.847 213.396 314.593 214.349 314.416 215.012C314.331 215.316 314.268 215.556 314.218 215.718C314.169 215.881 314.127 216.05 314.127 216.043Z" fill="#263238"/>
<path d="M311.903 177.743C311.903 177.849 307.716 177.926 302.548 177.926C297.38 177.926 293.194 177.849 293.194 177.743C293.194 177.637 297.38 177.559 302.548 177.559C307.716 177.559 311.903 177.644 311.903 177.743Z" fill="#263238"/>
<path d="M311.684 180.807C311.684 180.913 307.448 180.99 302.28 180.99C297.112 180.99 292.869 180.913 292.869 180.807C292.869 180.701 297.105 180.623 302.28 180.623C307.455 180.623 311.684 180.708 311.684 180.807Z" fill="#263238"/>
<path d="M311.14 183.786C311.14 183.885 307.074 183.97 302.061 183.97C297.048 183.97 292.975 183.885 292.975 183.786C292.975 183.687 297.041 183.602 302.061 183.602C307.081 183.602 311.14 183.659 311.14 183.786Z" fill="#263238"/>
<path d="M311.465 207.176C311.465 207.275 307.476 207.359 302.548 207.359C297.62 207.359 293.632 207.275 293.632 207.176C293.632 207.077 297.628 206.992 302.548 206.992C307.469 206.992 311.465 207.084 311.465 207.176Z" fill="#263238"/>
<path d="M310.371 210.565C310.371 210.671 306.968 210.748 302.767 210.748C298.566 210.748 295.164 210.671 295.164 210.565C295.164 210.459 298.566 210.381 302.767 210.381C306.968 210.381 310.371 210.466 310.371 210.565Z" fill="#263238"/>
<path d="M196.74 281.496C196.401 283.48 186.983 304.321 193.062 304.321H223.617C223.617 304.321 220.462 301.356 230.014 281.496H196.74Z" fill="#455A64"/>
<path d="M176.972 211.934L164.483 284.921H269.825L282.745 209.371L176.972 211.934Z" fill="#455A64"/>
<path d="M180.551 215.492L170.025 280.642H266.217L277.81 214.801L180.551 215.492Z" fill="#FAFAFA"/>
<path d="M282.745 209.371L284.736 210.713L271.322 286.904H167.265L164.483 284.921H269.825L282.745 209.371Z" fill="#263238"/>
<path d="M179.598 221.423C179.634 221.19 276.709 221.056 276.709 221.056L277.81 214.801L180.551 215.507L179.598 221.437" fill="#EBEBEB"/>
<path d="M251.06 274.86V274.676L251.144 274.133C251.234 273.615 251.354 272.909 251.504 272.015C251.836 270.116 252.302 267.391 252.881 264.009C254.081 257.161 255.754 247.63 257.654 236.814V236.658H265.603L265.568 236.877C262.624 252.826 260.047 266.84 258.557 274.895V274.98H258.48L252.945 274.924H251.533H251.187H251.568H253.029L258.501 274.867L258.402 274.945L265.236 236.898L265.42 237.11H257.851L258.028 236.962C256.072 247.714 254.357 257.182 253.086 263.995C252.465 267.383 251.956 270.116 251.603 272.022C251.427 272.947 251.293 273.674 251.194 274.196C251.144 274.429 251.109 274.62 251.081 274.761C251.075 274.794 251.068 274.827 251.06 274.86V274.86Z" fill="#263238"/>
<path d="M238.86 274.86C238.869 274.688 238.895 274.518 238.938 274.352C239.001 273.978 239.093 273.476 239.206 272.841C239.46 271.478 239.813 269.551 240.258 267.193C241.183 262.3 242.475 255.494 243.95 247.714V247.566H251.9L251.858 247.785C249.627 258.848 247.622 268.683 246.379 274.916V275.008H246.287L240.759 274.945H239.347C239.19 274.955 239.032 274.955 238.874 274.945H239.397H240.865L246.315 274.881L246.202 274.973C247.431 268.732 249.365 258.89 251.54 247.813L251.716 248.032H244.106L244.282 247.891C242.75 255.6 241.409 262.35 240.442 267.2C239.954 269.607 239.566 271.542 239.284 272.904L238.966 274.451C238.966 274.613 238.895 274.747 238.874 274.853L238.86 274.86Z" fill="#263238"/>
<path d="M226.611 274.86C226.605 274.785 226.605 274.709 226.611 274.634L226.724 273.928C226.83 273.307 226.978 272.417 227.176 271.274C227.585 268.937 228.171 265.569 228.906 261.39C230.402 252.918 232.485 241.191 234.843 227.897V227.749H242.793L242.757 227.96C239.072 248.145 235.817 265.731 234.095 274.86V274.938H234.017L228.461 274.881H227.049H226.583H227.084H228.531L234.024 274.832L233.939 274.902C235.549 265.724 238.726 248.152 242.411 227.975L242.595 228.193H235.048L235.224 228.038C232.817 241.261 230.685 252.953 229.146 261.361C228.369 265.555 227.734 268.937 227.31 271.281L226.802 273.97C226.745 274.267 226.703 274.5 226.668 274.676L226.611 274.86Z" fill="#263238"/>
<path d="M214.383 274.86C214.388 274.741 214.403 274.623 214.425 274.507C214.475 274.232 214.531 273.886 214.602 273.448C214.764 272.474 214.997 271.118 215.308 269.431C215.922 265.936 216.776 261.086 217.758 255.48V255.332H225.7L225.658 255.551C224.196 263.176 222.883 270.038 221.951 274.888V274.994H221.852L216.346 274.924L214.856 274.86C214.694 274.87 214.531 274.87 214.369 274.86H214.905H216.395L221.817 274.789L221.69 274.888C222.594 270.038 223.872 263.162 225.284 255.53L225.467 255.749H217.906L218.075 255.607C217.031 261.149 216.134 265.943 215.477 269.396C215.153 271.09 214.884 272.46 214.694 273.441C214.602 273.886 214.531 274.253 214.475 274.528C214.451 274.64 214.42 274.751 214.383 274.86V274.86Z" fill="#263238"/>
<path d="M202.148 274.86C202.148 274.86 202.148 274.811 202.148 274.712C202.148 274.613 202.148 274.436 202.212 274.253C202.282 273.822 202.374 273.229 202.494 272.467C202.755 270.878 203.122 268.605 203.581 265.781C204.541 260.034 205.869 252.042 207.387 242.942V242.793H215.336L215.294 243.012C212.964 256.165 210.91 267.793 209.646 274.881V274.973H209.561L204.04 274.909H202.593C202.435 274.92 202.277 274.92 202.12 274.909H202.254H202.635H204.104L209.561 274.853L209.455 274.938L214.948 243.041L215.131 243.259H207.598L207.775 243.111C206.201 252.148 204.817 260.055 203.821 265.781C203.313 268.605 202.911 270.899 202.621 272.502C202.48 273.271 202.374 273.914 202.289 274.316L202.198 274.796L202.148 274.86Z" fill="#263238"/>
<path d="M189.934 274.86C189.925 274.792 189.925 274.723 189.934 274.655C189.934 274.5 189.991 274.295 190.033 274.034C190.132 273.462 190.266 272.622 190.442 271.605C190.803 269.487 191.332 266.388 191.982 262.562C193.323 254.831 195.194 244.071 197.312 231.893V231.745H205.261L205.226 231.963C201.936 250.263 199.027 266.261 197.425 274.881V274.959H197.347L191.805 274.902H190.393H190.054H190.428H191.876L197.361 274.846L197.269 274.924C198.766 266.282 201.604 250.27 204.894 231.978L205.071 232.189H197.51L197.686 232.041C195.519 244.156 193.598 254.852 192.222 262.54C191.516 266.381 190.958 269.466 190.562 271.612C190.372 272.671 190.217 273.49 190.111 274.076C190.054 274.345 190.019 274.556 189.984 274.719C189.948 274.881 189.934 274.86 189.934 274.86Z" fill="#263238"/>
<path d="M184.618 218.429C184.619 218.607 184.568 218.781 184.47 218.93C184.373 219.078 184.233 219.194 184.069 219.263C183.906 219.332 183.725 219.351 183.551 219.317C183.376 219.283 183.216 219.198 183.09 219.073C182.964 218.948 182.878 218.788 182.842 218.614C182.807 218.44 182.825 218.259 182.892 218.095C182.96 217.931 183.075 217.79 183.222 217.692C183.37 217.593 183.544 217.54 183.721 217.54C183.958 217.54 184.185 217.633 184.353 217.8C184.521 217.967 184.616 218.193 184.618 218.429V218.429Z" fill="#263238"/>
<path d="M188.106 219.319C188.597 219.319 188.995 218.921 188.995 218.429C188.995 217.938 188.597 217.54 188.106 217.54C187.614 217.54 187.216 217.938 187.216 218.429C187.216 218.921 187.614 219.319 188.106 219.319Z" fill="#263238"/>
<path d="M193.379 218.429C193.381 218.607 193.329 218.782 193.231 218.93C193.133 219.079 192.993 219.195 192.829 219.263C192.665 219.332 192.484 219.351 192.31 219.316C192.135 219.282 191.975 219.196 191.849 219.07C191.723 218.945 191.637 218.784 191.603 218.61C191.569 218.435 191.587 218.254 191.656 218.09C191.725 217.926 191.841 217.786 191.989 217.688C192.138 217.59 192.312 217.538 192.49 217.54C192.725 217.542 192.95 217.636 193.117 217.802C193.283 217.969 193.378 218.194 193.379 218.429Z" fill="#263238"/>
<path d="M177.706 274.86C177.706 274.86 177.706 274.677 177.784 274.316C177.862 273.956 177.932 273.392 178.045 272.714C178.292 271.302 178.638 269.233 179.069 266.699C179.973 261.517 181.222 254.315 182.655 246.098V245.949H190.605L190.563 246.168C188.381 257.93 186.44 268.365 185.232 274.888V274.98H185.148L179.62 274.917H178.208C178.048 274.926 177.887 274.926 177.727 274.917H177.869H178.25H179.718L185.176 274.853L185.063 274.945L190.252 246.204L190.428 246.415H182.832L183.008 246.267C181.519 254.421 180.184 261.566 179.281 266.699C178.801 269.247 178.419 271.302 178.144 272.742C178.017 273.448 177.911 273.985 177.833 274.38L177.749 274.811C177.735 274.828 177.721 274.844 177.706 274.86Z" fill="#263238"/>
<path d="M260.231 246.133H219.932L222.234 232.606H262.815L260.231 246.133Z" fill="#ED2980"/>
<path d="M219.932 246.133L219.148 250.856C219.148 250.856 224.443 245.949 224.359 245.949H219.967" fill="#ED2980"/>
<path d="M256.736 237.308C256.736 237.407 250.022 237.491 241.748 237.491C233.473 237.491 226.752 237.407 226.752 237.308C226.752 237.209 233.466 237.124 241.748 237.124C250.029 237.124 256.736 237.209 256.736 237.308Z" fill="#FAFAFA"/>
<path d="M256.341 240.577C256.341 240.675 249.626 240.76 241.352 240.76C233.078 240.76 226.357 240.675 226.357 240.577C226.357 240.478 233.071 240.393 241.352 240.393C249.634 240.393 256.341 240.471 256.341 240.577Z" fill="#FAFAFA"/>
<path d="M322.253 308.995H207.443V375.987H322.253V308.995Z" fill="#263238"/>
<path d="M259.743 308.995H207.443V375.987H259.743V308.995Z" fill="#455A64"/>
<path d="M254.392 331.749C254.392 331.749 254.392 331.629 254.392 331.411C254.392 331.192 254.392 330.853 254.392 330.436C254.392 329.568 254.392 328.318 254.357 326.716C254.357 323.496 254.321 318.858 254.286 313.139L254.42 313.273L212.35 313.323C212.187 313.492 212.569 313.104 212.533 313.146V317.99C212.533 319.592 212.533 321.174 212.533 322.727C212.533 325.84 212.533 328.862 212.533 331.749L212.364 331.58L242.517 331.658L251.264 331.707H253.608H254.223H254.434C254.371 331.714 254.307 331.714 254.244 331.707H253.651H251.342L242.637 331.757L212.364 331.841H212.187V331.665C212.187 328.777 212.187 325.756 212.187 322.642V313.146C212.145 313.146 212.533 312.793 212.371 312.956L254.392 312.984H254.526V313.111C254.526 318.865 254.47 323.525 254.456 326.772C254.456 328.361 254.456 329.596 254.42 330.458C254.42 330.86 254.42 331.164 254.42 331.411C254.419 331.524 254.41 331.637 254.392 331.749V331.749Z" fill="#263238"/>
<path d="M235.168 322.444C235.168 322.444 235.125 322.289 235.041 322.028C234.923 321.667 234.693 321.353 234.384 321.131C234.161 320.97 233.902 320.867 233.63 320.831C233.357 320.795 233.08 320.828 232.824 320.926C232.514 321.042 232.246 321.25 232.057 321.522C231.868 321.794 231.767 322.117 231.767 322.448C231.767 322.779 231.868 323.102 232.057 323.374C232.246 323.646 232.514 323.854 232.824 323.969C233.081 324.064 233.357 324.095 233.629 324.059C233.901 324.023 234.16 323.922 234.384 323.765C234.693 323.543 234.923 323.229 235.041 322.868C235.125 322.607 235.132 322.444 235.168 322.444C235.203 322.444 235.224 322.607 235.168 322.903C235.086 323.323 234.858 323.701 234.525 323.969C234.273 324.174 233.972 324.311 233.652 324.367C233.332 324.422 233.003 324.395 232.697 324.287C232.315 324.154 231.985 323.905 231.751 323.575C231.517 323.246 231.392 322.852 231.392 322.448C231.392 322.044 231.517 321.65 231.751 321.32C231.985 320.991 232.315 320.742 232.697 320.609C233.003 320.502 233.331 320.474 233.651 320.529C233.971 320.583 234.271 320.717 234.525 320.919C234.859 321.19 235.087 321.57 235.168 321.993C235.224 322.289 235.189 322.451 235.168 322.444Z" fill="#263238"/>
<path d="M254.392 352.238C254.392 352.238 254.392 352.118 254.392 351.899C254.392 351.68 254.392 351.334 254.392 350.917C254.392 350.049 254.392 348.799 254.357 347.204C254.357 343.977 254.321 339.346 254.286 333.627L254.42 333.762L212.35 333.811L212.533 333.627V338.464C212.533 340.066 212.533 341.641 212.533 343.201C212.533 346.314 212.533 349.329 212.533 352.223L212.364 352.047L242.517 352.132L251.264 352.181H253.608H254.222C254.293 352.175 254.364 352.175 254.434 352.181H254.244H253.651H251.342L242.637 352.231L212.364 352.315H212.187V352.139C212.187 349.244 212.187 346.23 212.187 343.116V333.642L212.371 333.458L254.441 333.507H254.575V333.642C254.575 339.395 254.519 344.055 254.505 347.296C254.505 348.884 254.505 350.12 254.47 350.988C254.47 351.39 254.47 351.694 254.47 351.934C254.45 352.037 254.424 352.138 254.392 352.238Z" fill="#263238"/>
<path d="M235.168 342.933C235.168 342.933 235.125 342.77 235.041 342.509C234.923 342.148 234.693 341.834 234.384 341.612C234.16 341.455 233.901 341.354 233.629 341.318C233.357 341.282 233.081 341.313 232.824 341.408C232.514 341.523 232.246 341.731 232.057 342.003C231.868 342.275 231.767 342.598 231.767 342.929C231.767 343.26 231.868 343.583 232.057 343.855C232.246 344.127 232.514 344.335 232.824 344.45C233.08 344.548 233.356 344.581 233.628 344.546C233.901 344.512 234.16 344.411 234.384 344.253C234.695 344.03 234.925 343.713 235.041 343.349C235.125 343.088 235.132 342.933 235.168 342.933C235.203 342.933 235.224 343.095 235.168 343.384C235.088 343.807 234.86 344.188 234.525 344.458C234.272 344.661 233.972 344.797 233.651 344.851C233.331 344.906 233.003 344.877 232.697 344.768C232.315 344.635 231.985 344.386 231.751 344.057C231.517 343.727 231.392 343.333 231.392 342.929C231.392 342.525 231.517 342.131 231.751 341.802C231.985 341.472 232.315 341.223 232.697 341.09C233.003 340.982 233.332 340.955 233.652 341.01C233.972 341.066 234.273 341.203 234.525 341.408C234.86 341.677 235.088 342.058 235.168 342.481C235.224 342.77 235.189 342.933 235.168 342.933Z" fill="#263238"/>
<path d="M254.392 372.719C254.392 372.719 254.392 372.599 254.392 372.38C254.392 372.161 254.392 371.822 254.392 371.405C254.392 370.537 254.392 369.287 254.357 367.685C254.357 364.466 254.321 359.827 254.286 354.108L254.42 354.243L212.35 354.292C212.187 354.461 212.569 354.073 212.533 354.116V358.959C212.533 360.561 212.533 362.143 212.533 363.696C212.533 366.809 212.533 369.831 212.533 372.719L212.364 372.549L242.517 372.627L251.264 372.676H253.608H254.223H254.434C254.371 372.683 254.307 372.683 254.244 372.676H253.651H251.342L242.637 372.719L212.364 372.803H212.187V372.627C212.187 369.739 212.187 366.718 212.187 363.604V354.116C212.145 354.151 212.533 353.763 212.371 353.925L254.441 353.981H254.576V354.108C254.576 359.862 254.519 364.529 254.505 367.77C254.505 369.358 254.505 370.594 254.47 371.455C254.47 371.864 254.47 372.161 254.47 372.408C254.451 372.513 254.425 372.617 254.392 372.719V372.719Z" fill="#263238"/>
<path d="M235.168 363.414C235.168 363.414 235.125 363.258 235.041 362.997C234.923 362.636 234.693 362.322 234.384 362.1C234.161 361.941 233.901 361.839 233.629 361.803C233.357 361.768 233.081 361.799 232.824 361.896C232.514 362.011 232.246 362.219 232.057 362.491C231.868 362.763 231.767 363.086 231.767 363.417C231.767 363.748 231.868 364.071 232.057 364.343C232.246 364.615 232.514 364.823 232.824 364.939C233.081 365.035 233.357 365.067 233.629 365.031C233.901 364.995 234.161 364.893 234.384 364.734C234.693 364.512 234.923 364.198 235.041 363.837C235.125 363.576 235.132 363.414 235.168 363.414C235.203 363.414 235.224 363.576 235.168 363.873C235.085 364.294 234.858 364.674 234.525 364.946C234.271 365.148 233.971 365.282 233.651 365.336C233.331 365.391 233.003 365.363 232.697 365.256C232.315 365.123 231.985 364.874 231.751 364.545C231.517 364.215 231.392 363.821 231.392 363.417C231.392 363.013 231.517 362.619 231.751 362.29C231.985 361.96 232.315 361.711 232.697 361.578C233.003 361.471 233.331 361.444 233.651 361.498C233.971 361.552 234.271 361.687 234.525 361.889C234.859 362.159 235.087 362.539 235.168 362.962C235.224 363.258 235.189 363.421 235.168 363.414Z" fill="#263238"/>
<path d="M150.822 308.995H54.248V375.987H150.822V308.995Z" fill="#263238"/>
<path d="M326.411 304.321H50.5415V310.69H326.411V304.321Z" fill="#263238"/>
<path d="M62.8048 310.689H54.248V375.987H62.8048V310.689Z" fill="#455A64"/>
<path d="M161.504 203.554C161.447 203.286 161.407 203.015 161.384 202.742C161.281 202.016 161.041 201.317 160.678 200.681C160.442 200.254 160.082 199.91 159.647 199.692C159.401 199.587 159.13 199.557 158.867 199.606C158.604 199.655 158.362 199.781 158.171 199.968C157.354 200.983 156.908 202.247 156.908 203.55C156.908 204.854 157.354 206.118 158.171 207.133C158.361 207.322 158.603 207.449 158.866 207.499C159.129 207.549 159.401 207.52 159.647 207.416C160.081 207.193 160.44 206.847 160.678 206.42C161.041 205.784 161.281 205.085 161.384 204.359C161.406 204.088 161.446 203.819 161.504 203.554C161.549 203.827 161.549 204.107 161.504 204.38C161.456 205.14 161.247 205.882 160.889 206.555C160.634 207.04 160.238 207.436 159.753 207.691C159.465 207.829 159.143 207.876 158.828 207.825C158.499 207.761 158.193 207.613 157.938 207.395C157.027 206.322 156.527 204.961 156.527 203.554C156.527 202.147 157.027 200.786 157.938 199.713C158.19 199.491 158.498 199.34 158.828 199.276C159.143 199.229 159.464 199.275 159.753 199.41C160.238 199.665 160.634 200.061 160.889 200.546C161.248 201.221 161.457 201.965 161.504 202.728C161.549 203.001 161.549 203.281 161.504 203.554V203.554Z" fill="#263238"/>
<path d="M131.025 189.752L128.907 232.055L147.08 233.764L148.082 223.491C148.082 223.491 154.436 225.073 156.413 219.164C157.649 215.386 158.75 185.812 158.75 185.812L131.025 189.752Z" fill="#FFBE9D"/>
<path d="M162.612 190.175C161.066 193.854 155.234 197.009 155.234 197.009L154.281 206.378C153.414 206.318 152.543 206.318 151.676 206.378C152.142 201.98 146.487 202.848 145.908 205.834C145.357 208.715 148.64 210.642 148.64 210.642C146.374 214.116 145.456 215.951 142.237 219.206C138.763 222.736 136.892 223.018 133.299 222.912L129.338 222.729C129.338 222.729 127.926 219.347 126.902 211.362C126.401 207.522 123.372 202.488 124.255 196.24C126.684 178.498 146.317 181.647 146.317 181.647C153.688 175.914 166.255 181.527 162.612 190.175Z" fill="#263238"/>
<path d="M161.503 203.603C160.163 203.862 158.802 203.994 157.437 203.999C156.079 204.119 154.714 204.119 153.356 203.999C154.695 203.745 156.053 203.615 157.416 203.61C158.776 203.49 160.143 203.487 161.503 203.603Z" fill="#263238"/>
<path d="M219.396 253.299L212.795 257.386L210.373 263.034V258.092C210.373 258.092 212.166 255.974 213.635 254.428C215.103 252.882 214.051 251.809 213.635 251.28C213.218 250.75 206.899 258.092 206.899 258.092V262.328C203.955 258.707 202.593 259.949 202.141 260.606C201.689 261.262 206.899 266.176 206.899 266.176V267.673L181.01 281.595L174.197 264.651L160.282 271.958L168.592 292.072C169.165 293.464 170.03 294.716 171.13 295.743C172.229 296.77 173.537 297.549 174.964 298.027C176.391 298.504 177.904 298.669 179.401 298.51C180.897 298.351 182.342 297.872 183.637 297.106L214.101 279.096L216.127 275.714C216.83 274.549 217.244 273.232 217.334 271.874L218.386 256.659C220.236 255.501 219.396 253.299 219.396 253.299Z" fill="#FFBE9D"/>
<path d="M181.137 281.616C180.522 283.999 179.666 286.312 178.582 288.521C179.205 286.141 180.061 283.829 181.137 281.616V281.616Z" fill="#EB996E"/>
<path d="M218.386 256.659C217.996 256.86 217.595 257.039 217.186 257.196C216.718 257.417 216.301 257.732 215.96 258.12C215.619 258.509 215.361 258.963 215.202 259.455C214.674 260.877 214.032 262.253 213.281 263.571C213.695 262.119 214.224 260.703 214.863 259.335C215.069 258.757 215.397 258.23 215.823 257.789C216.189 257.449 216.612 257.177 217.073 256.984C217.48 256.777 217.929 256.666 218.386 256.659V256.659Z" fill="#EB996E"/>
<path d="M218.287 259.067C218.172 259.082 218.063 259.123 217.966 259.187C217.87 259.25 217.789 259.335 217.729 259.434C217.525 259.829 217.263 260.451 217.023 261.114C216.758 261.954 216.447 262.779 216.091 263.585C216.092 262.684 216.292 261.795 216.677 260.98C216.905 260.386 217.197 259.818 217.546 259.286C217.61 259.197 217.692 259.124 217.787 259.07C217.882 259.016 217.988 258.984 218.096 258.975C218.231 258.975 218.294 259.046 218.287 259.067Z" fill="#EB996E"/>
<path d="M156.124 269.381L159.082 279.4L177.854 270.928C177.148 268.81 174.07 259.483 168.133 244.657C166.507 240.592 163.862 237.014 160.453 234.266C157.045 231.519 152.986 229.695 148.668 228.97C142.526 227.946 135.84 227.149 130.694 227.212C125.584 227.26 120.645 229.059 116.703 232.31C112.761 235.561 110.053 240.067 109.034 245.074C107.445 252.946 110.227 258.149 108.433 275.375L107.862 318.703L157.988 320.545L156.124 269.381Z" fill="#ED2980"/>
<path d="M110.763 274.916C110.763 274.916 103.795 275.326 101.056 270.052C101.056 270.052 108.56 242.306 111.18 239.037L110.763 274.916Z" fill="#ED2980"/>
<path d="M169.079 247.453C168.899 247.592 168.699 247.701 168.486 247.778C167.872 248.001 167.226 248.122 166.573 248.138C165.546 248.133 164.524 248.002 163.53 247.75C162.372 247.488 161.08 247.1 159.633 246.86C158.878 246.769 158.119 246.729 157.359 246.74C156.537 246.805 155.723 246.94 154.924 247.142C153.151 247.624 151.449 248.336 149.862 249.26C148.146 250.192 146.402 251.294 144.545 252.381C142.64 253.563 140.599 254.511 138.467 255.205C136.276 255.884 133.936 255.921 131.724 255.311C129.719 254.662 127.85 253.649 126.211 252.324C124.636 251.103 123.267 249.818 121.975 248.646C120.796 247.548 119.546 246.529 118.233 245.596C116.363 244.199 114.183 243.273 111.879 242.899C111.027 242.851 110.174 242.851 109.323 242.899C109.531 242.815 109.75 242.758 109.973 242.73C110.612 242.628 111.261 242.597 111.907 242.638C114.287 242.914 116.557 243.794 118.501 245.194C119.857 246.109 121.145 247.121 122.356 248.223C123.669 249.38 125.053 250.637 126.592 251.809C128.174 253.063 129.971 254.019 131.894 254.633C133.98 255.195 136.184 255.154 138.248 254.513C140.322 253.835 142.309 252.918 144.171 251.781C146.014 250.715 147.772 249.613 149.523 248.681C151.169 247.746 152.933 247.034 154.768 246.563C155.608 246.363 156.463 246.235 157.324 246.182C158.12 246.191 158.915 246.252 159.703 246.366C161.2 246.648 162.478 247.072 163.614 247.368C164.574 247.645 165.561 247.811 166.558 247.862C167.415 247.858 168.265 247.72 169.079 247.453V247.453Z" fill="#263238"/>
<path d="M156.456 282.026C155.499 281.456 154.442 281.072 153.342 280.896C152.144 280.755 150.931 280.822 149.756 281.094C148.414 281.362 146.967 281.849 145.378 282.245C142.652 282.946 139.799 282.984 137.055 282.358C134.937 281.864 133.8 281.193 133.835 281.122C133.871 281.052 135.099 281.496 137.161 281.828C139.834 282.283 142.573 282.175 145.202 281.511C146.748 281.122 148.224 280.649 149.628 280.402C150.881 280.149 152.169 280.135 153.427 280.36C154.278 280.511 155.087 280.843 155.799 281.334C156.293 281.722 156.491 281.998 156.456 282.026Z" fill="#263238"/>
<path d="M156.964 307.894C156.964 307.894 156.773 308.211 156.3 308.656C155.617 309.281 154.852 309.811 154.027 310.231C152.789 310.873 151.419 311.221 150.024 311.247C148.321 311.2 146.643 310.827 145.082 310.146C143.437 309.503 141.933 308.783 140.514 308.381C139.26 307.998 137.947 307.845 136.638 307.929C135.764 307.982 134.911 308.222 134.139 308.635C133.588 308.939 133.334 309.186 133.285 309.136C133.235 309.087 133.454 308.79 133.991 308.43C134.756 307.876 135.65 307.526 136.589 307.414C137.966 307.253 139.361 307.361 140.698 307.731C142.282 308.224 143.837 308.803 145.357 309.468C146.829 310.112 148.405 310.488 150.01 310.576C151.313 310.582 152.601 310.305 153.787 309.765C155.87 308.826 156.893 307.788 156.964 307.894Z" fill="#263238"/>
<g opacity="0.3">
<path opacity="0.3" d="M102.602 275.404C109.168 276.745 115.91 275.404 122.596 274.994C126.655 274.754 131.152 274.288 134.358 276.809C136.899 278.785 137.888 282.111 138.657 285.245C141.481 297.205 141.968 307.887 142.597 320.15L110.121 319.444L102.602 275.404Z" fill="black"/>
</g>
<path opacity="0.3" d="M111.18 252.889L112.585 273.137H108.306L111.18 252.889Z" fill="black"/>
<path d="M120.301 318.674L184.759 320.955C189.789 321.132 194.549 323.275 198.016 326.924C201.483 330.573 203.379 335.436 203.299 340.469L202.734 377.046H179.097L177.572 345.509L120.301 343.999V318.674Z" fill="#263238"/>
<path d="M141.919 352.118H135.579V375.324H141.919V352.118Z" fill="#455A64"/>
<path d="M82.3821 278.39V334.305C82.384 337.826 83.7839 341.202 86.2742 343.691C88.7644 346.18 92.1411 347.578 95.6619 347.578H132.896V278.39C132.895 276.82 132.27 275.315 131.159 274.206C130.048 273.097 128.543 272.474 126.973 272.474H88.2984C86.7293 272.474 85.2244 273.097 84.1149 274.206C83.0054 275.316 82.3821 276.821 82.3821 278.39V278.39Z" fill="#455A64"/>
<path d="M183.008 352.118H92.3296C92.3408 349.503 93.3871 347 95.2395 345.156C97.0919 343.311 99.5995 342.276 102.214 342.276H173.202C175.812 342.276 178.315 343.313 180.161 345.158C182.007 347.004 183.044 349.507 183.044 352.118H183.008Z" fill="#455A64"/>
<path d="M132.896 340.97C132.938 341.522 132.89 342.078 132.755 342.615C132.451 343.874 131.789 345.017 130.847 345.907C129.906 346.797 128.727 347.394 127.453 347.627C126.877 347.721 126.293 347.761 125.709 347.747H123.881H115.734H100.908L96.4245 347.691H95.2031C95.0607 347.695 94.9183 347.681 94.7795 347.649C94.9196 347.626 95.0612 347.614 95.2031 347.613L96.4245 347.578L100.908 347.514L115.734 347.444H125.709C126.276 347.466 126.844 347.432 127.404 347.345C128.395 347.174 129.331 346.77 130.136 346.166C131.33 345.283 132.193 344.025 132.586 342.594C132.882 341.563 132.847 340.963 132.896 340.97Z" fill="#263238"/>
<path d="M144.305 352.308C142.459 352.494 140.603 352.556 138.749 352.492C136.893 352.556 135.034 352.494 133.186 352.308C135.034 352.126 136.893 352.065 138.749 352.125C140.603 352.065 142.459 352.126 144.305 352.308V352.308Z" fill="#263238"/>
<path d="M171.896 348.072C171.808 347.845 171.751 347.608 171.726 347.366C171.635 346.907 171.515 346.244 171.373 345.382C171.084 343.653 170.667 341.146 170.216 338.068C169.961 336.529 169.757 334.813 169.418 333.027C169.326 332.583 169.241 332.131 169.149 331.665C169.058 331.199 168.881 330.761 168.747 330.295C168.676 330.069 168.613 329.829 168.542 329.589C168.472 329.349 168.366 329.13 168.274 328.883C168.083 328.417 167.914 327.944 167.709 327.471C166.813 325.538 165.679 323.723 164.335 322.07C162.866 320.314 161.157 318.774 159.258 317.495C157.368 316.202 155.292 315.202 153.102 314.53C151.069 313.885 148.957 313.524 146.826 313.457C142.717 313.365 138.975 313.386 135.855 313.344C132.734 313.302 130.207 313.266 128.456 313.224C127.58 313.224 126.902 313.182 126.436 313.153C126.199 313.161 125.962 313.137 125.73 313.083C125.961 313.023 126.199 312.997 126.436 313.005L128.456 312.935C130.199 312.892 132.734 312.857 135.855 312.822C138.975 312.786 142.696 312.723 146.847 312.779C149.045 312.826 151.224 313.185 153.321 313.845C155.584 314.523 157.728 315.549 159.675 316.888C161.636 318.201 163.396 319.792 164.899 321.611C166.275 323.321 167.431 325.197 168.338 327.196C168.542 327.676 168.712 328.17 168.902 328.643C168.987 328.883 169.079 329.116 169.171 329.349C169.262 329.582 169.305 329.829 169.375 330.055C169.51 330.535 169.637 331.001 169.764 331.467C169.891 331.933 169.94 332.406 170.025 332.879C170.343 334.708 170.512 336.409 170.731 337.948C171.133 341.047 171.437 343.561 171.656 345.298C171.755 346.166 171.832 346.844 171.875 347.303C171.92 347.557 171.927 347.816 171.896 348.072V348.072Z" fill="#455A64"/>
<path d="M57.4674 280.409C57.4674 280.409 56.3237 283.607 58.5123 285.923H63.066C63.066 285.923 62.6636 280.755 57.4674 280.409Z" fill="#ED2980"/>
<path opacity="0.4" d="M57.4674 280.409C57.4674 280.409 56.3237 283.607 58.5123 285.923H63.066C63.066 285.923 62.6636 280.755 57.4674 280.409Z" fill="black"/>
<path d="M65.2264 273.822C65.0358 273.596 61.1387 279.696 63.3273 285.923H67.6197C67.6197 285.923 69.3 278.679 65.2264 273.822Z" fill="#ED2980"/>
<path d="M72.8299 280.409C71.4267 280.503 70.1107 281.123 69.1448 282.146C68.1789 283.168 67.6343 284.517 67.6196 285.923H71.905C71.905 285.923 73.783 283.282 72.8299 280.409Z" fill="#ED2980"/>
<path d="M58.1591 285.683C56.6787 286.746 55.5305 288.207 54.8481 289.897C54.1657 291.586 53.9771 293.435 54.3044 295.228C55.4057 301.582 62.1127 304.321 62.1127 304.321H69.5469C69.5469 304.321 77.1152 300.982 76.9317 294.113C76.7481 287.243 72.2438 285.782 72.2438 285.782L58.1591 285.683Z" fill="#455A64"/>
<path d="M76.9035 293.343C76.7352 293.059 76.5285 292.801 76.2893 292.574C75.9436 292.298 75.5465 292.093 75.1211 291.972C74.6957 291.851 74.2505 291.815 73.8112 291.868C72.4964 292.117 71.2541 292.657 70.1753 293.449C69.4901 293.887 68.7643 294.258 68.0079 294.557C67.1734 294.875 66.2695 294.965 65.3887 294.819C63.5742 294.508 62.1269 293.534 60.7714 292.884C59.618 292.211 58.2923 291.892 56.959 291.966C56.0677 292.059 55.2424 292.479 54.6433 293.145C54.4431 293.408 54.2727 293.692 54.135 293.993C54.1397 293.904 54.1564 293.816 54.1844 293.731C54.2576 293.478 54.3747 293.239 54.5304 293.025C55.1224 292.283 55.9814 291.801 56.9237 291.684C58.3255 291.561 59.731 291.874 60.9479 292.581C62.3599 293.23 63.7719 294.169 65.4734 294.451C66.2939 294.592 67.1371 294.512 67.9161 294.219C68.6543 293.931 69.3635 293.574 70.0341 293.152C71.16 292.353 72.4549 291.824 73.8183 291.606C74.2886 291.56 74.7633 291.613 75.2119 291.762C75.6606 291.91 76.0732 292.15 76.4234 292.468C76.6056 292.647 76.7539 292.857 76.8612 293.089C76.8965 293.251 76.9176 293.336 76.9035 293.343Z" fill="#263238"/>
<path d="M77.0095 295.002C76.8401 294.723 76.6361 294.467 76.4023 294.24C76.0619 293.962 75.6686 293.756 75.2463 293.635C74.824 293.513 74.3814 293.479 73.9455 293.534C72.6452 293.784 71.4173 294.322 70.3519 295.108C69.6845 295.549 68.975 295.923 68.2339 296.224C67.407 296.542 66.5096 296.632 65.6358 296.485C63.8355 296.174 62.4024 295.2 61.061 294.55C59.9253 293.878 58.6155 293.559 57.298 293.633C56.4124 293.729 55.5945 294.152 55.0035 294.819C54.8063 295.078 54.6404 295.36 54.5093 295.659C54.5093 295.659 54.5093 295.567 54.5516 295.398C54.628 295.157 54.7424 294.931 54.8905 294.727C55.473 293.986 56.3216 293.502 57.2556 293.378C58.6338 293.253 60.0169 293.556 61.2163 294.247C62.5859 294.896 64.0403 295.835 65.6923 296.118C66.5035 296.259 67.3376 296.178 68.1068 295.885C68.8341 295.598 69.5317 295.241 70.1895 294.819C71.3022 294.019 72.5857 293.49 73.9384 293.272C74.3987 293.231 74.8625 293.286 75.3002 293.435C75.7378 293.583 76.1397 293.821 76.48 294.134C76.659 294.311 76.8048 294.519 76.9107 294.748C76.9575 294.827 76.9909 294.913 77.0095 295.002Z" fill="#263238"/>
<path d="M57.7145 294.96C57.7145 294.917 57.9121 294.79 58.1734 295.002C58.2523 295.07 58.3087 295.161 58.3352 295.261C58.3617 295.362 58.3569 295.469 58.3216 295.567C58.2782 295.688 58.1967 295.791 58.0895 295.862C57.9822 295.932 57.8549 295.966 57.7268 295.958C57.5987 295.95 57.4766 295.901 57.3789 295.818C57.2812 295.734 57.2131 295.622 57.185 295.496C57.1602 295.399 57.1622 295.298 57.1908 295.202C57.2194 295.106 57.2735 295.02 57.3473 294.953C57.6015 294.741 57.8204 294.84 57.8062 294.882C57.7921 294.924 57.6509 294.96 57.545 295.129C57.5222 295.171 57.5102 295.219 57.5102 295.267C57.5102 295.315 57.5222 295.362 57.545 295.405C57.5657 295.454 57.5986 295.497 57.6405 295.531C57.6825 295.564 57.7322 295.586 57.7851 295.595C57.8372 295.593 57.888 295.578 57.9325 295.551C57.977 295.524 58.0138 295.485 58.0392 295.44C58.0629 295.4 58.0754 295.355 58.0754 295.309C58.0754 295.263 58.0629 295.218 58.0392 295.179C57.8839 295.016 57.7215 295.009 57.7145 294.96Z" fill="#263238"/>
<path d="M66.137 292.277C66.137 292.235 66.3347 292.101 66.603 292.319C66.6791 292.389 66.733 292.48 66.7581 292.581C66.7832 292.681 66.7784 292.786 66.7442 292.884C66.6996 293.004 66.6183 293.107 66.5118 293.178C66.4052 293.249 66.279 293.285 66.1511 293.279C66.0235 293.267 65.9028 293.216 65.8054 293.133C65.7081 293.049 65.639 292.938 65.6075 292.814C65.5819 292.716 65.5842 292.614 65.6141 292.517C65.6441 292.421 65.7005 292.336 65.7769 292.27C66.0311 292.058 66.25 292.157 66.2288 292.199C66.2076 292.242 66.0735 292.277 65.9676 292.446C65.9464 292.489 65.9354 292.536 65.9354 292.584C65.9354 292.632 65.9464 292.679 65.9676 292.722C65.9882 292.771 66.0211 292.815 66.0631 292.848C66.105 292.881 66.1547 292.903 66.2076 292.912C66.2599 292.911 66.311 292.896 66.3556 292.869C66.4002 292.842 66.4369 292.803 66.4617 292.757C66.4862 292.718 66.4991 292.673 66.4991 292.626C66.4991 292.58 66.4862 292.535 66.4617 292.496C66.3064 292.333 66.1441 292.326 66.137 292.277Z" fill="#263238"/>
<path d="M74.3054 295.08C74.3054 295.038 74.5031 294.91 74.7714 295.122C74.8475 295.192 74.9015 295.283 74.9266 295.383C74.9517 295.484 74.9468 295.589 74.9126 295.687C74.868 295.807 74.7867 295.91 74.6802 295.981C74.5737 296.052 74.4475 296.087 74.3196 296.082C74.1929 296.071 74.0728 296.02 73.9756 295.938C73.8783 295.856 73.8087 295.746 73.7759 295.623C73.7506 295.525 73.753 295.421 73.7829 295.324C73.8128 295.227 73.869 295.14 73.9454 295.073C74.1995 294.861 74.4184 294.96 74.3972 295.002C74.376 295.045 74.2419 295.087 74.136 295.249C74.1063 295.291 74.0879 295.34 74.0827 295.391C74.0775 295.442 74.0856 295.493 74.1062 295.54C74.1269 295.587 74.1593 295.628 74.2004 295.659C74.2415 295.689 74.2899 295.709 74.3407 295.715C74.393 295.714 74.4441 295.699 74.4887 295.672C74.5334 295.645 74.57 295.606 74.5949 295.56C74.6193 295.521 74.6322 295.475 74.6322 295.429C74.6322 295.383 74.6193 295.338 74.5949 295.299C74.4749 295.143 74.3196 295.129 74.3054 295.08Z" fill="#263238"/>
<path d="M289.212 279.202L291.633 304.321H303.876L306.805 279.202H289.212Z" fill="#455A64"/>
<path d="M289.212 275.954C288.458 276.895 288.052 278.067 288.061 279.273H307.956C308.053 278.667 307.999 278.048 307.798 277.469C307.597 276.89 307.256 276.37 306.805 275.954H289.212Z" fill="#263238"/>
<path d="M291.478 273.653L290.808 276.138L305.824 276.251L304.829 273.625L291.478 273.653Z" fill="#263238"/>
<path d="M288.986 285.492C288.986 285.725 290.398 298.158 290.398 298.158H305.358L306.77 285.514L288.986 285.492Z" fill="#ED2980"/>
</svg>
