<svg width="510" height="91" viewBox="0 0 510 91" fill="none" xmlns="http://www.w3.org/2000/svg">
<path fill-rule="evenodd" clip-rule="evenodd" d="M487.493 21.7935C492.601 30.404 497.905 40.7634 503.615 53.4933C506.56 60.0588 505.713 57.5084 508.295 61.3364C510.585 58.591 506.952 30.2199 506.456 25.516C507.191 29.2555 516.38 84.9561 501.874 54.2873C496.346 42.5975 491.402 33.2322 486.538 25.1613L487.493 21.7935Z" fill="#ED2980"/>
<path d="M330.266 40.6316V68.6275C330.266 69.9595 330.525 70.8904 331.029 71.4078C331.532 71.9251 332.23 72.1838 333.108 72.1838C333.793 72.1838 334.4 72.0026 334.93 71.6146C335.46 71.2397 335.912 70.813 336.287 70.3344C336.739 69.8043 337.139 69.1835 337.462 68.4725L338.638 69.0026C338.263 69.8173 337.811 70.6965 337.295 71.6536C336.778 72.6233 336.093 73.5028 335.227 74.3303C334.375 75.145 333.29 75.8432 331.997 76.3993C330.692 76.9422 329.065 77.2269 327.088 77.2269C325.977 77.2269 324.918 77.0588 323.897 76.7354C322.876 76.4121 321.959 75.882 321.171 75.1838C320.37 74.4725 319.737 73.5933 319.259 72.5328C318.781 71.4724 318.535 70.1923 318.535 68.7053V40.6316H314.298V37.9028C315.009 37.9028 315.99 37.7219 317.256 37.3599C318.51 36.985 319.802 36.377 321.132 35.5107C322.45 34.6573 323.69 33.5064 324.827 32.0709C325.951 30.6227 326.765 28.851 327.243 26.7305H330.266V37.9028H336.442C338.457 37.9028 339.465 37.5667 339.465 36.8813C339.465 36.6229 339.349 36.4545 339.09 36.3643C338.845 36.2865 338.561 36.1702 338.237 36.0277C337.928 35.8856 337.643 35.6916 337.385 35.4461C337.139 35.1874 337.01 34.7735 337.01 34.1917C337.01 33.4805 337.23 32.9244 337.669 32.5236C338.108 32.1227 338.69 31.9156 339.4 31.9156C339.852 31.9156 340.24 32.0063 340.589 32.2002C340.925 32.3942 341.209 32.6398 341.442 32.9631C341.661 33.2736 341.829 33.6358 341.945 34.0365C342.062 34.4373 342.113 34.8512 342.113 35.2521C342.113 36.8943 341.648 38.2005 340.705 39.1702C339.749 40.1402 338.237 40.6316 336.144 40.6316H330.266ZM353.134 59.3042C353.134 60.1189 353.25 60.9981 353.495 61.9422C353.741 62.8862 354.076 63.843 354.542 64.8C354.994 65.7568 355.549 66.6749 356.221 67.5412C356.893 68.4207 357.655 69.1966 358.534 69.882C359.399 70.5543 360.368 71.0975 361.428 71.5112C362.487 71.912 363.65 72.1191 364.903 72.1191C365.794 72.1191 366.608 72.0157 367.371 71.8086C368.12 71.6018 368.831 71.3304 369.489 70.9811C370.135 70.619 370.769 70.2182 371.376 69.7396C371.983 69.2741 372.59 68.7827 373.197 68.2526L374.14 69.1578C373.559 69.9467 372.823 70.8002 371.905 71.7311C371.001 72.6621 369.903 73.5415 368.611 74.3691C367.332 75.1838 365.82 75.8691 364.115 76.4121C362.397 76.9554 360.446 77.2269 358.249 77.2269C356.053 77.2269 353.909 76.826 351.829 76.0372C349.748 75.2356 347.901 74.0457 346.286 72.4553C344.671 70.8648 343.379 68.8733 342.41 66.5069C341.428 64.1276 340.95 61.3473 340.95 58.1662C340.95 55.8772 341.235 53.7695 341.816 51.8429C342.398 49.9289 343.186 48.1963 344.18 46.6574C345.175 45.1186 346.338 43.7608 347.669 42.5969C348.986 41.4332 350.382 40.4763 351.841 39.7003C353.314 38.9374 354.8 38.3555 356.337 37.9546C357.862 37.5667 359.335 37.3726 360.743 37.3726C362.616 37.3726 364.231 37.5797 365.626 37.9806C367.009 38.3814 368.172 38.9246 369.089 39.6097C370.006 40.2952 370.691 41.0839 371.156 41.9761C371.608 42.8686 371.828 43.8124 371.828 44.7952C371.828 45.9849 371.492 47.0454 370.807 48.0023C370.135 48.9464 369.218 49.7739 368.081 50.4849L353.134 59.3042ZM360.743 51.6102C361.066 51.4161 361.337 51.2222 361.557 51.0282C361.777 50.8342 361.944 50.6143 362.074 50.3428C362.19 50.0841 362.293 49.748 362.345 49.36C362.41 48.972 362.448 48.4805 362.448 47.8989C362.448 47.2781 362.371 46.5668 362.242 45.8039C362.1 45.028 361.867 44.3038 361.531 43.6184C361.208 42.9461 360.795 42.3772 360.291 41.9245C359.787 41.4591 359.18 41.2392 358.469 41.2392C357.565 41.2392 356.79 41.5106 356.144 42.054C355.498 42.5969 354.968 43.2954 354.555 44.1489C354.141 45.0152 353.805 45.9849 353.573 47.0842C353.327 48.1832 353.146 49.2953 353.017 50.4075C352.901 51.5195 352.823 52.5799 352.797 53.6014C352.772 54.623 352.759 55.4895 352.759 56.2006L360.743 51.6102ZM396.129 51.5455L400.328 45.2866C400.677 44.7305 400.974 44.1745 401.219 43.6056C401.452 43.0367 401.659 42.4806 401.827 41.9374C401.982 41.3945 402.124 40.8899 402.24 40.4245C402.356 39.9589 402.46 39.5582 402.563 39.2348C402.77 38.5753 403.106 38.0967 403.584 37.8125C404.062 37.5151 404.811 37.3726 405.819 37.3726C406.4 37.3726 406.904 37.4763 407.356 37.6701C407.795 37.8772 408.015 38.2005 408.015 38.666C408.015 39.3901 407.757 40.2952 407.253 41.3685C406.749 42.4419 406.064 43.5796 405.212 44.7952L398.17 54.9075L408.015 71.356C408.261 71.8086 408.493 72.1706 408.713 72.4553C408.932 72.7267 409.139 72.9467 409.333 73.1019C409.54 73.2441 409.746 73.3603 409.94 73.425C410.147 73.4768 410.366 73.5155 410.625 73.5155C410.896 73.5155 411.18 73.4509 411.452 73.3087C411.736 73.1666 412.046 72.9594 412.408 72.6752L413.196 73.5933C412.614 74.0716 412.007 74.5371 411.387 75.0157C410.754 75.4811 410.043 75.882 409.281 76.244C408.506 76.5933 407.666 76.8906 406.749 77.1106C405.819 77.3433 404.798 77.4596 403.661 77.4596C402.369 77.4596 401.258 77.2269 400.328 76.7872C399.398 76.3474 398.584 75.8045 397.886 75.145C397.189 74.4855 396.607 73.7742 396.104 73.0241C395.613 72.2613 395.199 71.5631 394.837 70.9423L389.321 61.7354L384.205 69.3907C383.856 69.9467 383.559 70.5028 383.313 71.0716C383.081 71.6406 382.874 72.1966 382.706 72.7399C382.551 73.2828 382.409 73.787 382.293 74.2528C382.176 74.7182 382.073 75.1191 381.97 75.4424C381.776 76.1019 381.427 76.5801 380.949 76.8647C380.471 77.1622 379.722 77.3043 378.714 77.3043C378.132 77.3043 377.629 77.201 377.189 76.994C376.737 76.8001 376.518 76.464 376.518 76.0113C376.518 75.2872 376.75 74.4337 377.202 73.4509C377.655 72.4812 378.365 71.2916 379.321 69.882L387.383 58.3989L378.3 43.0883C378.003 42.584 377.719 42.1701 377.448 41.8211C377.189 41.4847 376.802 41.3167 376.298 41.3167C375.82 41.3167 375.226 41.6013 374.515 42.1833L373.753 41.2392C374.334 40.7606 374.967 40.2823 375.652 39.8168C376.337 39.3514 377.073 38.9374 377.861 38.5882C378.662 38.2262 379.528 37.9418 380.458 37.7091C381.388 37.4892 382.383 37.3726 383.442 37.3726C384.631 37.3726 385.639 37.5538 386.453 37.9159C387.28 38.2908 387.977 38.7435 388.533 39.2995C389.101 39.8555 389.592 40.4763 389.992 41.1617C390.393 41.8471 390.794 42.4806 391.168 43.0883L396.129 51.5455ZM428.789 40.6316V68.6275C428.789 69.9595 429.048 70.8904 429.552 71.4078C430.056 71.9251 430.753 72.1838 431.632 72.1838C432.317 72.1838 432.924 72.0026 433.454 71.6146C433.983 71.2397 434.435 70.813 434.81 70.3344C435.262 69.8043 435.663 69.1835 435.986 68.4725L437.161 69.0026C436.787 69.8173 436.334 70.6965 435.818 71.6536C435.301 72.6233 434.616 73.5028 433.751 74.3303C432.898 75.145 431.813 75.8432 430.521 76.3993C429.216 76.9422 427.588 77.2269 425.611 77.2269C424.5 77.2269 423.441 77.0588 422.42 76.7354C421.4 76.4121 420.482 75.882 419.694 75.1838C418.893 74.4725 418.26 73.5933 417.782 72.5328C417.304 71.4724 417.059 70.1923 417.059 68.7053V40.6316H412.821V37.9028C413.532 37.9028 414.514 37.7219 415.78 37.3599C417.033 36.985 418.325 36.377 419.655 35.5107C420.973 34.6573 422.213 33.5064 423.351 32.0709C424.474 30.6227 425.288 28.851 425.766 26.7305H428.789V37.9028H434.965C436.98 37.9028 437.988 37.5667 437.988 36.8813C437.988 36.6229 437.872 36.4545 437.613 36.3643C437.368 36.2865 437.084 36.1702 436.761 36.0277C436.451 35.8856 436.166 35.6916 435.908 35.4461C435.663 35.1874 435.533 34.7735 435.533 34.1917C435.533 33.4805 435.753 32.9244 436.192 32.5236C436.631 32.1227 437.213 31.9156 437.924 31.9156C438.376 31.9156 438.763 32.0063 439.112 32.2002C439.448 32.3942 439.732 32.6398 439.965 32.9631C440.185 33.2736 440.352 33.6358 440.469 34.0365C440.585 34.4373 440.636 34.8512 440.636 35.2521C440.636 36.8943 440.171 38.2005 439.228 39.1702C438.272 40.1402 436.761 40.6316 434.668 40.6316H428.789ZM455.481 73.2828C455.481 73.6189 455.416 74.0069 455.313 74.4855C455.197 74.951 454.925 75.3906 454.512 75.8045C454.098 76.2181 453.504 76.5801 452.716 76.8647C451.928 77.1622 450.868 77.3043 449.538 77.3043C448.194 77.3043 447.148 77.1494 446.398 76.826C445.636 76.5155 445.068 76.1406 444.693 75.7139C444.318 75.2872 444.073 74.8345 443.995 74.3821C443.905 73.9294 443.853 73.5674 443.853 73.2828V44.0452C443.853 43.3082 443.686 42.6747 443.349 42.1314C443.001 41.5884 442.432 41.3167 441.631 41.3167C441.192 41.3167 440.83 41.3813 440.533 41.5366C440.223 41.6918 439.9 41.9115 439.538 42.1833L438.75 41.2392C439.332 40.7606 439.978 40.2823 440.701 39.8168C441.411 39.3514 442.2 38.9374 443.027 38.5882C443.853 38.2262 444.758 37.9418 445.714 37.7091C446.67 37.4892 447.677 37.3726 448.737 37.3726C450.378 37.3726 451.656 37.5926 452.561 38.0321C453.478 38.4719 454.137 39.0149 454.563 39.6616C455.003 40.3082 455.261 40.9936 455.352 41.7306C455.429 42.4547 455.481 43.1014 455.481 43.6574V73.2828ZM442.691 28.7349C442.691 28.0235 442.846 27.3509 443.156 26.7045C443.479 26.0579 443.918 25.5018 444.486 25.0235C445.055 24.5449 445.701 24.1569 446.45 23.8855C447.2 23.614 448.014 23.4715 448.892 23.4715C449.745 23.4715 450.546 23.614 451.295 23.8855C452.044 24.1569 452.69 24.5449 453.246 25.0235C453.801 25.5018 454.24 26.0579 454.551 26.7045C454.861 27.3509 455.029 28.0235 455.029 28.7349C455.029 29.4718 454.861 30.1441 454.551 30.7779C454.24 31.4115 453.801 31.9544 453.246 32.433C452.69 32.8985 452.044 33.2736 451.295 33.5451C450.546 33.8297 449.745 33.9587 448.892 33.9587C448.014 33.9587 447.2 33.8297 446.45 33.5451C445.701 33.2736 445.055 32.8985 444.486 32.433C443.918 31.9544 443.479 31.4115 443.156 30.7779C442.846 30.1441 442.691 29.4718 442.691 28.7349Z" fill="#ED2980"/>
<path d="M473.778 60.2658C472.824 63.3412 463.816 91.674 461.256 90.9876C458.604 90.2766 465.388 61.2949 466.103 58.1279L476.259 13.1068C476.423 12.3865 476.453 11.7304 476.268 11.1283C476.08 10.517 475.592 10.1028 474.806 9.89213C474.394 9.78119 474.016 9.74733 473.68 9.8041C473.331 9.85726 472.966 9.97181 472.545 10.1422L472.055 9.07377C472.74 8.76216 473.473 8.47628 474.283 8.19954C475.09 7.93285 475.946 7.7349 476.847 7.61491C477.76 7.49855 478.699 7.44168 479.691 7.48016C480.675 7.50307 481.679 7.65159 482.701 7.92642C484.286 8.35168 485.465 8.89511 486.222 9.56675C486.982 10.2256 487.491 10.9239 487.735 11.6598C487.983 12.381 488.058 13.1178 487.955 13.8344C487.85 14.5511 487.758 15.1962 487.598 15.7185L473.778 60.2658ZM480.869 24.1538C480.85 24.2263 480.815 24.3068 480.762 24.3976C480.714 24.4892 480.631 24.5653 480.518 24.6312C480.405 24.6936 480.254 24.7339 480.066 24.7486C479.879 24.7669 479.639 24.7357 479.352 24.6587C479.063 24.5809 478.844 24.4865 478.701 24.3738C478.557 24.2628 478.455 24.1502 478.402 24.0365C478.349 23.9238 478.324 23.813 478.331 23.7094C478.342 23.6077 478.351 23.527 478.367 23.4656L481.187 12.9308C481.446 11.9659 480.431 10.693 480.022 10.7764C481.051 10.2009 484.366 11.1778 483.798 13.093C483.752 13.2489 483.751 13.3937 483.718 13.5136L480.869 24.1538Z" fill="#ED2980"/>
<path d="M480.87 24.1539C480.85 24.2266 480.814 24.307 480.763 24.3976C480.714 24.489 480.631 24.5654 480.518 24.6308C480.406 24.6937 480.255 24.7337 480.066 24.7487C479.879 24.7668 479.639 24.7356 479.352 24.6587C479.063 24.5813 478.846 24.4869 478.701 24.3731C478.557 24.2633 478.455 24.1498 478.402 24.0368C478.349 23.9239 478.325 23.8129 478.332 23.7095C478.342 23.608 478.351 23.527 478.368 23.4658L481.188 12.9306C481.446 11.9658 480.432 10.6928 480.022 10.7764C481.051 10.2008 484.366 11.1778 483.798 13.093C483.752 13.2493 483.75 13.3941 483.718 13.5133L480.87 24.1539Z" fill="white"/>
<path d="M87.3367 59.4983C89.3779 59.4983 90.3985 60.093 90.3985 61.2827C90.3985 61.6576 90.2437 62.3817 89.9466 63.4423C88.6157 68.0586 85.7605 71.5759 81.4069 73.9942C77.0529 76.3993 72.557 77.602 67.919 77.602C60.1674 77.602 54.1468 75.145 49.8446 70.2182C45.5425 65.2914 43.3979 59.0069 43.3979 51.3516C43.3979 43.5928 45.5556 37.1658 49.8578 32.045C54.1727 26.9373 60.374 24.3769 68.4487 24.3769C73.19 24.3769 77.7377 25.6571 82.0785 28.2044C86.4194 30.752 89.0939 34.4633 90.1014 39.3383C90.2437 39.8943 90.3211 40.3211 90.3211 40.6316C90.3211 41.8727 89.2877 42.4806 87.2206 42.4806C85.3083 42.4806 84.2877 41.9505 84.1585 40.89C83.0217 32.1875 77.7892 27.8295 68.4487 27.8295C62.0407 27.8295 57.2863 30.2734 54.1727 35.1615C51.0721 40.0364 49.5216 45.3513 49.5216 51.0929C49.5216 56.7179 50.9944 61.9681 53.9273 66.8431C56.8728 71.7184 61.5367 74.1623 67.919 74.1623C71.7561 74.1623 75.283 72.9467 78.4999 70.5156C81.7168 68.0973 83.6419 64.9421 84.2749 61.05C84.4428 60.0153 85.4634 59.4983 87.3367 59.4983ZM114.067 38.8081C119.894 38.8081 124.661 40.6057 128.369 44.1876C132.077 47.7824 133.937 52.4506 133.937 58.2049C133.937 63.9724 132.077 68.6406 128.369 72.2226C124.661 75.8173 119.894 77.602 114.067 77.602C108.227 77.602 103.46 75.8173 99.7522 72.2226C96.0443 68.6406 94.1969 63.9724 94.1969 58.2049C94.1969 52.4506 96.0443 47.7824 99.7522 44.1876C103.46 40.6057 108.227 38.8081 114.067 38.8081ZM114.067 42.2608C109.648 42.2608 106.263 43.9158 103.899 47.2263C101.535 50.5368 100.36 54.1962 100.36 58.2049C100.36 62.2267 101.535 65.8861 103.899 69.1967C106.263 72.5072 109.648 74.1623 114.067 74.1623C118.472 74.1623 121.87 72.5072 124.221 69.1967C126.586 65.8861 127.761 62.2267 127.761 58.2049C127.761 54.1962 126.586 50.5368 124.221 47.2263C121.87 43.9158 118.472 42.2608 114.067 42.2608Z" fill="black"/>
<path fill-rule="evenodd" clip-rule="evenodd" d="M126.261 56.6315C123.598 58.7455 121.083 60.7873 118.375 62.9362C90.5675 85.0091 7.92317 96.1313 6.96913 58.3488L6.36125 58.3212H36.4387C38.4794 58.3212 39.5003 57.6358 39.5003 56.2778C39.5003 50.5366 37.5886 46.2048 33.7644 43.243C29.9401 40.2951 25.3148 38.8078 19.8884 38.8078C14.114 38.8078 9.32938 40.6295 5.56101 44.2649C1.79996 47.8946 0 52.4463 0 58.3048C0 60.1604 0.253594 61.952 0.658281 63.6518C1.32851 66.9033 2.47752 69.8154 4.05129 72.4043L4.30579 72.9092L4.35889 72.9192C22.9042 101.898 95.3631 89.3804 122.746 67.311C123.811 66.4533 124.111 66.2104 125.172 65.3546C126.506 63.3467 126.655 57.5707 126.261 56.6315ZM33.2855 54.8426C32.6657 46.4504 28.1961 42.2607 19.8884 42.2607C12.4725 42.2607 7.97718 46.4504 6.375 54.8426H33.2855Z" fill="url(#paint0_linear_114_68)"/>
<path fill-rule="evenodd" clip-rule="evenodd" d="M133.781 50.576C171.618 20.1419 198.74 -0.15426 258.239 4.28109C276.102 5.61263 332.498 26.0021 352.157 23.2924C348.677 15.8523 357.728 7.04033 362.432 16.2179C364.652 20.5497 363.995 23.3584 361.374 25.0418C363.6 25.7272 366.516 26.3367 370.304 26.8022C408.715 31.5298 428.282 -29.4593 481.654 18.5016L480.831 21.8674C429.945 -23.7145 412.558 28.502 377.268 30.924C365.717 31.7168 358.851 29.7813 355.126 26.8919C334.655 29.2003 284.922 13.3167 284.922 13.3167C213.837 -1.90272 182.187 19.5985 135.143 57.326C135.088 54.0985 134.494 51.7068 133.781 50.576ZM355.961 22.2643C357.221 21.6704 358.121 20.8539 358.6 19.7808C361.061 14.2752 351.941 18.212 355.961 22.2643Z" fill="url(#paint1_linear_114_68)"/>
<path d="M176.875 77.6408C174.834 77.6408 173.813 77.0588 173.813 75.895V55.8257C173.813 52.5152 172.922 49.4378 171.139 46.5927C169.369 43.7608 166.617 42.3383 162.91 42.3383C155.184 42.3383 151.334 47.2004 151.334 56.9247V75.895C151.334 77.0588 150.3 77.6408 148.259 77.6408C146.192 77.6408 145.158 77.0588 145.158 75.895V40.5538C145.158 39.3901 146.192 38.8081 148.259 38.8081C150.3 38.8081 151.334 39.3901 151.334 40.5538V44.8339C153.569 40.7996 157.613 38.7694 163.439 38.7694C167.483 38.7435 171.243 40.1658 174.744 43.0367C178.232 45.9073 179.976 50.1619 179.976 55.8257V75.895C179.976 77.0588 178.942 77.6408 176.875 77.6408ZM219.264 77.6408C217.223 77.6408 216.202 77.0588 216.202 75.895V55.8257C216.202 52.5152 215.311 49.4378 213.528 46.5927C211.758 43.7608 209.006 42.3383 205.298 42.3383C197.572 42.3383 193.722 47.2004 193.722 56.9247V75.895C193.722 77.0588 192.689 77.6408 190.647 77.6408C188.58 77.6408 187.547 77.0588 187.547 75.895V40.5538C187.547 39.3901 188.58 38.8081 190.647 38.8081C192.689 38.8081 193.722 39.3901 193.722 40.5538V44.8339C195.957 40.7996 200.001 38.7694 205.828 38.7694C209.871 38.7435 213.631 40.1658 217.132 43.0367C220.621 45.9073 222.365 50.1619 222.365 55.8257V75.895C222.365 77.0588 221.331 77.6408 219.264 77.6408ZM247.725 77.602C242.041 77.602 237.351 75.8691 233.63 72.3906C229.91 68.9251 228.049 64.2957 228.049 58.5154C228.049 52.6574 229.935 47.8989 233.695 44.2651C237.467 40.6316 242.247 38.8081 248.022 38.8081C253.448 38.8081 258.074 40.2952 261.898 43.2435C265.722 46.2048 267.634 50.5368 267.634 56.2784C267.634 57.636 266.613 58.3215 264.572 58.3215H234.173C234.173 62.3688 235.336 66.0155 237.674 69.2741C240.012 72.5328 243.372 74.1623 247.764 74.1623C250.968 74.1623 253.836 73.296 256.355 71.5759C259.081 69.7655 260.554 67.6837 260.787 65.33C260.903 64.2439 261.924 63.701 263.81 63.701C265.877 63.701 266.91 64.2698 266.91 65.4075C266.91 66.2095 266.639 67.2051 266.084 68.356C265.076 70.4897 263.409 72.3001 261.084 73.813C257.299 76.3474 252.841 77.602 247.725 77.602ZM261.42 54.8429C260.799 46.4506 256.329 42.2608 248.022 42.2608C240.607 42.2608 236.111 46.4506 234.509 54.8429H261.42ZM305.591 63.7397C307.632 63.7397 308.653 64.2826 308.653 65.3688C308.653 66.8302 307.994 68.5241 306.651 70.4509C303.266 75.2225 297.968 77.602 290.76 77.602C277.866 77.602 271.419 71.2138 271.419 58.4376C271.368 45.3513 277.944 38.8081 291.173 38.8081C298.111 38.8081 303.188 41.0452 306.418 45.5193C307.865 47.4334 308.576 49.2438 308.576 50.9376C308.576 52.1016 307.555 52.6833 305.514 52.6833C303.602 52.6833 302.581 52.1531 302.452 51.0929C301.638 45.1961 297.904 42.2608 291.251 42.2608C286.677 42.2608 283.253 43.9158 280.992 47.2263C278.719 50.5368 277.582 54.274 277.582 58.4376C277.582 62.5501 278.706 66.1963 280.954 69.3907C283.202 72.5715 286.548 74.1623 291.018 74.1623C297.633 74.1623 301.47 71.201 302.529 65.2914C302.697 64.2567 303.718 63.7397 305.591 63.7397Z" fill="black"/>
<defs>
<linearGradient id="paint0_linear_114_68" x1="0" y1="64.3245" x2="126.453" y2="64.3245" gradientUnits="userSpaceOnUse">
<stop stop-color="#ED2980"/>
<stop offset="1" stop-color="#F49FC4"/>
</linearGradient>
<linearGradient id="paint1_linear_114_68" x1="133.781" y1="28.6624" x2="481.654" y2="28.6624" gradientUnits="userSpaceOnUse">
<stop stop-color="#F49EC4"/>
<stop offset="1" stop-color="#ED2980"/>
</linearGradient>
</defs>
</svg>
